<svg width="159" height="118" viewBox="0 0 159 118" fill="none" xmlns="http://www.w3.org/2000/svg">
<path d="M7.25338 111.594L7.64092 109.507C8.60481 109.507 9.44449 109.483 10.16 109.433C10.8754 109.373 11.4667 109.289 11.9337 109.18C12.4107 109.06 12.7635 108.906 12.992 108.718C13.2305 108.529 13.3497 108.3 13.3497 108.032C13.3497 107.674 13.2901 107.247 13.1709 106.75C13.0516 106.243 12.8976 105.731 12.7088 105.215L14.6614 104.648C14.7906 104.986 14.9148 105.359 15.0341 105.766C15.1533 106.164 15.2477 106.566 15.3173 106.974C15.3968 107.371 15.4365 107.744 15.4365 108.091C15.4365 108.708 15.3024 109.239 15.0341 109.686C14.7658 110.124 14.3186 110.486 13.6926 110.774C13.0765 111.053 12.2418 111.256 11.1884 111.386C10.1351 111.525 8.82343 111.594 7.25338 111.594ZM7.23847 111.594C6.16528 111.594 5.25604 111.51 4.51076 111.341C3.77543 111.182 3.17424 110.953 2.7072 110.655C2.25009 110.347 1.9172 109.989 1.70853 109.582C1.49985 109.175 1.39551 108.727 1.39551 108.241C1.39551 107.923 1.42035 107.605 1.47004 107.287C1.52966 106.959 1.59922 106.641 1.67871 106.333C1.76815 106.025 1.84764 105.746 1.9172 105.498L3.78039 105.93C3.74065 106.109 3.69593 106.303 3.64624 106.511C3.59656 106.72 3.55681 106.924 3.527 107.123C3.49719 107.311 3.48228 107.485 3.48228 107.644C3.48228 108.012 3.61146 108.34 3.86983 108.628C4.13813 108.906 4.57535 109.125 5.18151 109.284C5.78767 109.433 6.60251 109.507 7.62602 109.507L7.92413 111.117L7.23847 111.594ZM9.69789 104.782C9.40971 104.782 9.16129 104.683 8.95261 104.484C8.75387 104.276 8.6545 104.032 8.6545 103.754C8.6545 103.466 8.75387 103.217 8.95261 103.009C9.16129 102.8 9.40971 102.696 9.69789 102.696C9.97612 102.696 10.2146 102.8 10.4134 103.009C10.6121 103.217 10.7115 103.466 10.7115 103.754C10.7115 104.032 10.6121 104.276 10.4134 104.484C10.2146 104.683 9.97612 104.782 9.69789 104.782ZM7.11923 104.768C6.83106 104.768 6.58263 104.668 6.37395 104.469C6.17521 104.261 6.07584 104.017 6.07584 103.739C6.07584 103.451 6.17521 103.202 6.37395 102.994C6.58263 102.785 6.83106 102.681 7.11923 102.681C7.39747 102.681 7.63596 102.785 7.8347 102.994C8.03344 103.202 8.13281 103.451 8.13281 103.739C8.13281 104.017 8.03344 104.261 7.8347 104.469C7.63596 104.668 7.39747 104.768 7.11923 104.768ZM20.913 111.356C19.9889 111.356 19.2734 111.261 18.7666 111.073C18.2698 110.884 17.922 110.591 17.7232 110.193C17.5245 109.786 17.4102 109.274 17.3804 108.658L17.0674 100.37H19.1542L19.4672 107.659C19.487 108.116 19.5367 108.459 19.6162 108.688C19.6957 108.916 19.8448 109.07 20.0634 109.15C20.2919 109.229 20.6248 109.269 21.0621 109.269C21.4397 109.269 21.708 109.368 21.867 109.567C22.0359 109.756 22.1204 109.994 22.1204 110.283C22.1204 110.591 22.016 110.849 21.8073 111.058C21.5987 111.256 21.3006 111.356 20.913 111.356ZM20.9333 111.356L21.0823 109.269C21.5494 109.269 21.9071 109.264 22.1555 109.254C22.4139 109.244 22.6077 109.234 22.7368 109.224C22.866 109.204 22.9753 109.19 23.0648 109.18C22.9654 109.08 22.8362 108.936 22.6772 108.747C22.5182 108.559 22.3741 108.315 22.245 108.017C22.1257 107.719 22.0661 107.361 22.0661 106.944C22.0661 106.338 22.2201 105.806 22.5282 105.349C22.8461 104.892 23.2734 104.534 23.81 104.276C24.3466 104.017 24.9478 103.888 25.6136 103.888C25.9316 103.888 26.2247 103.908 26.493 103.948C26.7713 103.987 27.0495 104.047 27.3277 104.127L26.9998 106.109C26.8011 106.059 26.5924 106.02 26.3738 105.99C26.1552 105.96 25.9614 105.945 25.7925 105.945C25.4646 105.945 25.1764 106 24.928 106.109C24.6895 106.208 24.5007 106.352 24.3615 106.541C24.2324 106.72 24.1678 106.939 24.1678 107.197C24.1678 107.366 24.1976 107.525 24.2572 107.674C24.3268 107.823 24.4112 107.957 24.5106 108.077C24.61 108.196 24.7193 108.3 24.8385 108.39C24.9578 108.479 25.072 108.554 25.1813 108.613C25.3006 108.663 25.4 108.698 25.4795 108.718C25.7279 108.648 25.9415 108.588 26.1204 108.539C26.3092 108.479 26.4881 108.424 26.657 108.375C26.8359 108.315 27.0296 108.241 27.2383 108.151C27.447 108.062 27.7053 107.952 28.0134 107.823L28.6841 109.791C27.8494 110.198 27.0346 110.516 26.2396 110.745C25.4447 110.973 24.6199 111.132 23.7653 111.222C22.9107 111.311 21.9667 111.356 20.9333 111.356ZM29.752 110.685L30.4824 108.792C30.85 108.951 31.2028 109.07 31.5406 109.15C31.8785 109.229 32.2164 109.269 32.5542 109.269C32.902 109.269 33.1902 109.239 33.4187 109.18C33.6572 109.11 33.8361 109.011 33.9553 108.881C34.0746 108.752 34.1342 108.598 34.1342 108.419C34.1342 108.25 34.0796 108.017 33.9702 107.719C33.8709 107.421 33.687 107.033 33.4187 106.556C33.1504 106.069 32.7579 105.468 32.2412 104.753L34.015 103.575C34.4919 104.251 34.9043 104.912 35.2521 105.558C35.5999 106.193 35.8682 106.79 36.057 107.346C36.2558 107.893 36.3551 108.375 36.3551 108.792C36.3551 109.309 36.216 109.761 35.9378 110.148C35.6695 110.526 35.267 110.824 34.7304 111.043C34.2038 111.261 33.5529 111.371 32.7778 111.371C32.4896 111.371 32.1667 111.346 31.8089 111.296C31.4512 111.246 31.0885 111.172 30.7208 111.073C30.3631 110.973 30.0402 110.844 29.752 110.685ZM37.7801 114.71L37.3479 112.623C38.0534 112.533 38.6695 112.424 39.1961 112.295C39.7228 112.176 40.165 112.007 40.5227 111.788C40.8805 111.569 41.1488 111.271 41.3276 110.894C41.5065 110.506 41.5959 110.009 41.5959 109.403C41.5959 108.817 41.5065 108.35 41.3276 108.002C41.1488 107.654 40.9103 107.48 40.6122 107.48C40.4035 107.48 40.2296 107.555 40.0905 107.704C39.9514 107.843 39.847 108.012 39.7775 108.211C39.7178 108.4 39.688 108.568 39.688 108.718C39.688 108.807 39.7129 108.901 39.7626 109.001C39.8122 109.1 39.9215 109.185 40.0905 109.254C40.2594 109.324 40.5227 109.363 40.8805 109.373C41.2481 109.383 41.745 109.349 42.371 109.269H44.8752C45.2528 109.269 45.5211 109.368 45.68 109.567C45.849 109.756 45.9334 109.994 45.9334 110.283C45.9334 110.591 45.8291 110.849 45.6204 111.058C45.4117 111.256 45.1136 111.356 44.7261 111.356H40.6271C40.001 111.356 39.4644 111.281 39.0173 111.132C38.5701 110.983 38.2273 110.745 37.9888 110.417C37.7503 110.079 37.6311 109.632 37.6311 109.075C37.6311 108.628 37.7056 108.181 37.8547 107.734C38.0136 107.287 38.2323 106.879 38.5105 106.511C38.7887 106.134 39.1117 105.836 39.4794 105.617C39.857 105.389 40.2644 105.274 40.7016 105.274C41.2978 105.274 41.8195 105.458 42.2667 105.826C42.7139 106.193 43.0616 106.68 43.3101 107.287C43.5684 107.893 43.6976 108.554 43.6976 109.269C43.6976 110.392 43.4591 111.346 42.9821 112.131C42.5052 112.916 41.8245 113.522 40.9401 113.949C40.0557 114.387 39.0024 114.64 37.7801 114.71ZM44.7472 111.356L44.8962 109.269C45.254 109.269 45.562 109.234 45.8204 109.165C46.0787 109.095 46.2973 108.956 46.4762 108.747C46.6551 108.529 46.8041 108.211 46.9234 107.793C47.0526 107.376 47.1668 106.82 47.2662 106.124L49.2188 106.452C49.199 106.601 49.1691 106.775 49.1294 106.974C49.0996 107.172 49.0698 107.376 49.04 107.585C49.0201 107.783 49.0101 107.972 49.0101 108.151C49.0101 108.33 49.0449 108.489 49.1145 108.628C49.184 108.767 49.2934 108.886 49.4424 108.986C49.6014 109.075 49.8051 109.145 50.0535 109.194C50.3119 109.244 50.6249 109.269 50.9926 109.269C51.3702 109.269 51.6385 109.368 51.7975 109.567C51.9565 109.756 52.036 109.994 52.036 110.283C52.036 110.591 51.9316 110.849 51.723 111.058C51.5242 111.256 51.2311 111.356 50.8435 111.356C50.3964 111.356 49.9889 111.321 49.6213 111.251C49.2635 111.182 48.9505 111.068 48.6822 110.909C48.4239 110.74 48.2102 110.521 48.0413 110.253C47.8823 109.975 47.7829 109.637 47.7432 109.239H48.4586C48.2798 109.716 48.0512 110.099 47.773 110.387C47.5047 110.665 47.2016 110.874 46.8638 111.013C46.5259 111.152 46.1731 111.242 45.8055 111.281C45.4477 111.331 45.095 111.356 44.7472 111.356ZM49.5318 104.782C49.2437 104.782 48.9952 104.683 48.7866 104.484C48.5878 104.276 48.4885 104.032 48.4885 103.754C48.4885 103.466 48.5878 103.217 48.7866 103.009C48.9952 102.8 49.2437 102.696 49.5318 102.696C49.8101 102.696 50.0486 102.8 50.2473 103.009C50.446 103.217 50.5454 103.466 50.5454 103.754C50.5454 104.032 50.446 104.276 50.2473 104.484C50.0486 104.683 49.8101 104.782 49.5318 104.782ZM46.9532 104.768C46.665 104.768 46.4166 104.668 46.2079 104.469C46.0092 104.261 45.9098 104.017 45.9098 103.739C45.9098 103.451 46.0092 103.202 46.2079 102.994C46.4166 102.785 46.665 102.681 46.9532 102.681C47.2314 102.681 47.4699 102.785 47.6687 102.994C47.8674 103.202 47.9668 103.451 47.9668 103.739C47.9668 104.017 47.8674 104.261 47.6687 104.469C47.4699 104.668 47.2314 104.768 46.9532 104.768ZM50.8462 111.356L50.9953 109.269C51.3232 109.269 51.5915 109.244 51.8002 109.194C52.0088 109.135 52.1778 109.011 52.3069 108.822C52.4461 108.623 52.5653 108.33 52.6647 107.942C52.774 107.545 52.8932 107.008 53.0224 106.333L54.9601 106.69C54.9204 106.909 54.8657 107.182 54.7962 107.51C54.7365 107.838 54.7067 108.121 54.7067 108.36C54.7067 108.549 54.7415 108.713 54.8111 108.852C54.8906 108.981 55.0198 109.085 55.1986 109.165C55.3874 109.234 55.6458 109.269 55.9737 109.269C56.2321 109.269 56.4507 109.244 56.6295 109.194C56.8184 109.135 56.9773 109.011 57.1065 108.822C57.2456 108.623 57.3649 108.32 57.4643 107.913C57.5736 107.495 57.6779 106.934 57.7773 106.228L59.7448 106.541C59.7051 106.77 59.6653 107.013 59.6256 107.272C59.5858 107.53 59.551 107.769 59.5212 107.987C59.4914 108.206 59.4765 108.385 59.4765 108.524C59.4765 108.653 59.5113 108.777 59.5808 108.896C59.6603 109.006 59.7995 109.095 59.9982 109.165C60.2069 109.234 60.495 109.269 60.8627 109.269C61.3099 109.269 61.6378 109.175 61.8465 108.986C62.0651 108.787 62.1744 108.489 62.1744 108.091C62.1744 107.863 62.1694 107.619 62.1595 107.361C62.1496 107.093 62.1297 106.795 62.0999 106.467C62.08 106.129 62.0403 105.746 61.9806 105.319L63.9034 105.17C63.973 106.025 64.0525 106.72 64.1419 107.257C64.2314 107.793 64.3506 108.211 64.4997 108.509C64.6587 108.797 64.8673 108.996 65.1257 109.105C65.394 109.214 65.7418 109.269 66.1691 109.269C66.5467 109.269 66.815 109.368 66.974 109.567C67.1429 109.756 67.2274 109.994 67.2274 110.283C67.2274 110.591 67.123 110.849 66.9144 111.058C66.7156 111.256 66.4175 111.356 66.02 111.356C65.7517 111.356 65.4735 111.331 65.1853 111.281C64.8971 111.242 64.6189 111.157 64.3506 111.028C64.0823 110.889 63.8438 110.69 63.6351 110.432C63.4265 110.173 63.2625 109.83 63.1433 109.403L63.4116 109.493C63.2724 109.989 63.0836 110.372 62.8452 110.64C62.6067 110.909 62.3135 111.097 61.9657 111.207C61.6179 111.306 61.2006 111.356 60.7137 111.356C60.2665 111.356 59.869 111.296 59.5212 111.177C59.1734 111.058 58.8952 110.864 58.6865 110.596C58.4878 110.317 58.3834 109.945 58.3735 109.478H58.8803C58.6815 110.034 58.453 110.447 58.1946 110.715C57.9363 110.983 57.6233 111.157 57.2556 111.237C56.8879 111.316 56.4258 111.356 55.8694 111.356C55.5315 111.356 55.1986 111.321 54.8707 111.251C54.5428 111.172 54.2496 110.998 53.9913 110.73C53.7329 110.452 53.5441 110.014 53.4249 109.418L54.2298 109.388C54.0211 109.975 53.7478 110.407 53.41 110.685C53.082 110.963 52.7044 111.147 52.2771 111.237C51.8498 111.316 51.3729 111.356 50.8462 111.356ZM66.0283 111.356L66.1774 109.269C66.4258 109.269 66.6146 109.219 66.7438 109.12C66.8729 109.021 67.0021 108.847 67.1313 108.598C67.2605 108.35 67.4394 108.012 67.6679 107.585C67.9163 107.108 68.1747 106.71 68.443 106.392C68.7113 106.064 68.9796 105.806 69.2479 105.617C69.5261 105.418 69.7994 105.279 70.0677 105.2C70.3459 105.11 70.6192 105.066 70.8875 105.066C71.2552 105.066 71.598 105.145 71.916 105.304C72.2439 105.453 72.5569 105.717 72.855 106.094C73.1531 106.462 73.4363 106.969 73.7046 107.614C73.8934 108.062 74.0822 108.404 74.2711 108.643C74.4599 108.881 74.6536 109.045 74.8524 109.135C75.061 109.224 75.2697 109.269 75.4784 109.269C75.856 109.269 76.1243 109.368 76.2833 109.567C76.4423 109.756 76.5218 109.994 76.5218 110.283C76.5218 110.591 76.4174 110.849 76.2088 111.058C76.0001 111.256 75.7069 111.356 75.3293 111.356C74.8424 111.356 74.4002 111.276 74.0028 111.117C73.6053 110.958 73.2923 110.72 73.0637 110.402L73.496 110.074C73.4065 110.283 73.2724 110.501 73.0935 110.73C72.9246 110.958 72.701 111.152 72.4228 111.311C72.1545 111.47 71.8315 111.55 71.4539 111.55C71.2055 111.55 70.9123 111.5 70.5745 111.4C70.2466 111.311 69.9037 111.157 69.546 110.938C69.1982 110.71 68.8753 110.402 68.5771 110.014C68.3883 110.362 68.1797 110.635 67.9511 110.834C67.7226 111.023 67.4543 111.157 67.1462 111.237C66.8382 111.316 66.4655 111.356 66.0283 111.356ZM69.4417 108.255C69.541 108.404 69.6603 108.554 69.7994 108.703C69.9385 108.852 70.0925 108.986 70.2615 109.105C70.4304 109.214 70.6093 109.304 70.7981 109.373C70.9968 109.443 71.1906 109.478 71.3794 109.478C71.5781 109.478 71.7421 109.403 71.8713 109.254C72.0004 109.095 72.0054 108.862 71.8862 108.554C71.8365 108.424 71.7669 108.28 71.6775 108.121C71.598 107.952 71.5036 107.793 71.3943 107.644C71.2949 107.495 71.1806 107.371 71.0515 107.272C70.9322 107.172 70.808 107.123 70.6788 107.123C70.5496 107.123 70.4155 107.162 70.2764 107.242C70.1373 107.321 69.9981 107.446 69.859 107.614C69.7199 107.773 69.5808 107.987 69.4417 108.255ZM75.3297 111.356L75.4787 109.269C75.9358 109.269 76.2638 109.224 76.4625 109.135C76.6612 109.035 76.7805 108.857 76.8202 108.598C76.86 108.33 76.8699 107.942 76.8501 107.436L76.5818 100.37H78.6834L78.9815 107.585C79.0014 108.161 78.9766 108.683 78.907 109.15C78.8474 109.607 78.6934 109.999 78.4449 110.327C78.2065 110.655 77.8338 110.909 77.327 111.087C76.8302 111.266 76.1644 111.356 75.3297 111.356ZM80.9472 111.281L80.6342 100.37H82.721L83.034 111.281H80.9472ZM84.6801 114.71L84.2479 112.623C84.9534 112.533 85.5695 112.424 86.0961 112.295C86.6228 112.176 87.065 112.007 87.4227 111.788C87.7805 111.569 88.0488 111.271 88.2276 110.894C88.4065 110.506 88.4959 110.009 88.4959 109.403C88.4959 109.185 88.4761 108.966 88.4363 108.747C88.3966 108.519 88.3369 108.31 88.2574 108.121C88.1779 107.932 88.0736 107.778 87.9444 107.659C87.8252 107.54 87.6811 107.48 87.5122 107.48C87.3333 107.48 87.1743 107.545 87.0352 107.674C86.8961 107.793 86.7868 107.947 86.7073 108.136C86.6278 108.315 86.588 108.499 86.588 108.688C86.588 108.827 86.6228 108.946 86.6924 109.045C86.7619 109.135 86.8663 109.204 87.0054 109.254C87.1445 109.294 87.3184 109.314 87.5271 109.314C87.7656 109.314 88.009 109.289 88.2574 109.239C88.5158 109.18 88.7493 109.1 88.958 109.001L89.0176 110.625C88.7791 110.814 88.5059 110.983 88.1978 111.132C87.8898 111.271 87.5171 111.341 87.0799 111.341C86.7222 111.341 86.3893 111.301 86.0812 111.222C85.7732 111.132 85.4999 110.998 85.2614 110.819C85.0329 110.64 84.854 110.412 84.7248 110.134C84.5956 109.845 84.5311 109.503 84.5311 109.105C84.5311 108.618 84.6106 108.146 84.7695 107.689C84.9285 107.232 85.1472 106.824 85.4254 106.467C85.7136 106.099 86.0415 105.811 86.4092 105.602C86.7868 105.384 87.1842 105.274 87.6016 105.274C88.0984 105.274 88.5307 105.399 88.8984 105.647C89.276 105.895 89.589 106.223 89.8374 106.631C90.0858 107.028 90.2747 107.46 90.4038 107.928C90.533 108.395 90.5976 108.842 90.5976 109.269C90.5976 110.392 90.3591 111.346 89.8821 112.131C89.4052 112.916 88.7245 113.522 87.8401 113.949C86.9557 114.387 85.9024 114.64 84.6801 114.71ZM102.773 111.356C102.068 111.356 101.456 111.266 100.94 111.087C100.433 110.899 100.04 110.601 99.7622 110.193C99.4839 109.776 99.3249 109.219 99.2852 108.524L99.0169 102.517H101.119L101.372 107.793C101.392 108.201 101.456 108.514 101.566 108.732C101.685 108.941 101.854 109.085 102.073 109.165C102.291 109.234 102.574 109.269 102.922 109.269C103.3 109.269 103.568 109.368 103.727 109.567C103.886 109.756 103.966 109.994 103.966 110.283C103.966 110.591 103.861 110.849 103.653 111.058C103.454 111.256 103.161 111.356 102.773 111.356ZM100.045 109.97C99.3796 110.119 98.7387 110.188 98.1226 110.178C97.5065 110.158 96.955 110.049 96.4681 109.85C95.9811 109.642 95.5936 109.344 95.3054 108.956C95.0272 108.568 94.8881 108.077 94.8881 107.48C94.8881 106.954 95.0023 106.477 95.2309 106.049C95.4694 105.612 95.7973 105.23 96.2147 104.902C96.642 104.574 97.1388 104.296 97.7052 104.067C98.2716 103.838 98.8877 103.665 99.5535 103.545L99.7622 105.662C99.3349 105.682 98.9473 105.741 98.5995 105.841C98.2617 105.93 97.9685 106.049 97.7201 106.198C97.4816 106.348 97.2978 106.516 97.1686 106.705C97.0394 106.884 96.9748 107.078 96.9748 107.287C96.9748 107.455 97.0345 107.595 97.1537 107.704C97.273 107.813 97.4319 107.903 97.6307 107.972C97.8294 108.032 98.058 108.067 98.3163 108.077C98.5747 108.086 98.838 108.072 99.1063 108.032C99.3846 107.992 99.6578 107.928 99.9261 107.838L100.045 109.97ZM100.09 100.982C99.8019 100.982 99.5535 100.882 99.3448 100.683C99.1461 100.475 99.0467 100.231 99.0467 99.9531C99.0467 99.6649 99.1461 99.4165 99.3448 99.2078C99.5535 98.9991 99.8019 98.8948 100.09 98.8948C100.368 98.8948 100.607 98.9991 100.806 99.2078C101.004 99.4165 101.104 99.6649 101.104 99.9531C101.104 100.231 101.004 100.475 100.806 100.683C100.607 100.882 100.368 100.982 100.09 100.982ZM97.5114 100.967C97.2233 100.967 96.9748 100.867 96.7662 100.669C96.5674 100.46 96.4681 100.216 96.4681 99.9381C96.4681 99.65 96.5674 99.4015 96.7662 99.1929C96.9748 98.9842 97.2233 98.8799 97.5114 98.8799C97.7897 98.8799 98.0282 98.9842 98.2269 99.1929C98.4256 99.4015 98.525 99.65 98.525 99.9381C98.525 100.216 98.4256 100.46 98.2269 100.669C98.0282 100.867 97.7897 100.967 97.5114 100.967ZM102.768 111.356L102.917 109.269C103.295 109.269 103.593 109.234 103.811 109.165C104.04 109.095 104.219 108.956 104.348 108.747C104.487 108.529 104.601 108.211 104.691 107.793C104.79 107.376 104.89 106.82 104.989 106.124L106.942 106.452C106.922 106.601 106.892 106.775 106.852 106.974C106.822 107.172 106.793 107.376 106.763 107.585C106.743 107.783 106.733 107.972 106.733 108.151C106.733 108.39 106.783 108.593 106.882 108.762C106.991 108.921 107.18 109.045 107.448 109.135C107.727 109.224 108.124 109.269 108.641 109.269C109.018 109.269 109.287 109.368 109.446 109.567C109.605 109.756 109.684 109.994 109.684 110.283C109.684 110.591 109.58 110.849 109.371 111.058C109.172 111.256 108.879 111.356 108.492 111.356C107.806 111.356 107.25 111.291 106.822 111.162C106.395 111.033 106.077 110.814 105.868 110.506C105.66 110.198 105.526 109.776 105.466 109.239H106.181C106.003 109.716 105.794 110.099 105.555 110.387C105.317 110.665 105.049 110.874 104.751 111.013C104.452 111.152 104.134 111.242 103.797 111.281C103.469 111.331 103.126 111.356 102.768 111.356ZM105.421 114.784C105.133 114.784 104.885 114.685 104.676 114.486C104.477 114.287 104.378 114.044 104.378 113.756C104.378 113.467 104.477 113.214 104.676 112.995C104.885 112.787 105.133 112.682 105.421 112.682C105.709 112.682 105.953 112.787 106.152 112.995C106.36 113.214 106.465 113.467 106.465 113.756C106.465 114.044 106.36 114.287 106.152 114.486C105.953 114.685 105.709 114.784 105.421 114.784ZM108.489 111.356L108.638 109.269C108.966 109.269 109.234 109.244 109.443 109.194C109.651 109.135 109.82 109.011 109.949 108.822C110.089 108.623 110.208 108.33 110.307 107.942C110.416 107.545 110.536 107.008 110.665 106.333L112.603 106.69C112.573 106.839 112.538 107.013 112.498 107.212C112.458 107.411 112.424 107.614 112.394 107.823C112.364 108.022 112.349 108.201 112.349 108.36C112.349 108.638 112.439 108.862 112.617 109.031C112.796 109.19 113.134 109.269 113.631 109.269C113.879 109.269 114.093 109.244 114.272 109.194C114.461 109.135 114.62 109.011 114.749 108.822C114.888 108.623 115.007 108.32 115.107 107.913C115.216 107.495 115.32 106.934 115.42 106.228L117.387 106.541C117.348 106.77 117.308 107.013 117.268 107.272C117.228 107.53 117.193 107.769 117.164 107.987C117.134 108.206 117.119 108.385 117.119 108.524C117.119 108.653 117.154 108.777 117.223 108.896C117.303 109.006 117.442 109.095 117.641 109.165C117.849 109.234 118.142 109.269 118.52 109.269C118.788 109.269 119.017 109.234 119.206 109.165C119.404 109.095 119.554 108.981 119.653 108.822C119.762 108.663 119.817 108.454 119.817 108.196C119.817 107.828 119.732 107.346 119.563 106.75C119.395 106.154 119.196 105.528 118.967 104.872L121.069 104.246C121.228 104.673 121.367 105.13 121.486 105.617C121.615 106.094 121.715 106.561 121.784 107.018C121.864 107.465 121.904 107.858 121.904 108.196C121.904 108.703 121.824 109.155 121.665 109.552C121.506 109.94 121.283 110.268 120.994 110.536C120.706 110.804 120.363 111.008 119.966 111.147C119.568 111.286 119.131 111.356 118.654 111.356C118.078 111.356 117.606 111.301 117.238 111.192C116.871 111.073 116.587 110.879 116.389 110.611C116.2 110.332 116.076 109.955 116.016 109.478H116.523C116.314 110.064 116.081 110.491 115.822 110.76C115.564 111.018 115.256 111.182 114.898 111.251C114.55 111.321 114.113 111.356 113.586 111.356C113.258 111.356 112.921 111.321 112.573 111.251C112.235 111.172 111.932 110.993 111.664 110.715C111.395 110.437 111.196 110.004 111.067 109.418L111.872 109.388C111.664 109.975 111.39 110.407 111.052 110.685C110.724 110.963 110.347 111.147 109.92 111.237C109.492 111.316 109.015 111.356 108.489 111.356ZM127.377 111.356C126.453 111.356 125.737 111.261 125.23 111.073C124.734 110.884 124.386 110.591 124.187 110.193C123.988 109.786 123.874 109.274 123.844 108.658L123.531 100.37H125.618L125.931 107.659C125.951 108.116 126.001 108.459 126.08 108.688C126.16 108.916 126.309 109.07 126.527 109.15C126.756 109.229 127.089 109.269 127.526 109.269C127.904 109.269 128.172 109.368 128.331 109.567C128.5 109.756 128.584 109.994 128.584 110.283C128.584 110.591 128.48 110.849 128.271 111.058C128.063 111.256 127.764 111.356 127.377 111.356ZM137.145 111.356C136.688 111.356 136.261 111.321 135.863 111.251C135.476 111.182 135.118 111.063 134.79 110.894C134.462 110.715 134.169 110.471 133.911 110.163C133.662 109.855 133.454 109.468 133.285 109.001L134.462 108.062C134.641 108.38 134.86 108.628 135.118 108.807C135.377 108.976 135.685 109.095 136.042 109.165C136.4 109.234 136.817 109.269 137.294 109.269C137.672 109.269 137.94 109.368 138.099 109.567C138.258 109.756 138.338 109.994 138.338 110.283C138.338 110.591 138.233 110.849 138.025 111.058C137.826 111.256 137.533 111.356 137.145 111.356ZM127.397 111.356L127.546 109.269C128.083 109.269 128.614 109.239 129.141 109.18C129.668 109.12 130.179 109.031 130.676 108.911C131.173 108.792 131.645 108.638 132.092 108.449C132.549 108.26 132.977 108.032 133.374 107.764C133.076 107.585 132.753 107.431 132.405 107.301C132.058 107.172 131.685 107.078 131.287 107.018C130.9 106.949 130.488 106.914 130.05 106.914C129.891 106.914 129.722 106.919 129.544 106.929C129.375 106.939 129.201 106.959 129.022 106.988C128.843 107.008 128.664 107.038 128.485 107.078L128.187 105.036C128.475 104.956 128.778 104.902 129.096 104.872C129.424 104.832 129.712 104.812 129.961 104.812C130.497 104.812 130.989 104.872 131.437 104.991C131.894 105.11 132.311 105.259 132.689 105.438C133.076 105.617 133.434 105.796 133.762 105.975C134.1 106.154 134.418 106.303 134.716 106.422C135.024 106.541 135.322 106.601 135.61 106.601H136.162L136.4 108.583C135.973 108.603 135.57 108.688 135.193 108.837C134.825 108.976 134.457 109.155 134.09 109.373C133.732 109.582 133.344 109.801 132.927 110.029C132.52 110.258 132.058 110.471 131.541 110.67C131.024 110.869 130.428 111.033 129.752 111.162C129.076 111.291 128.291 111.356 127.397 111.356ZM137.15 111.356L137.299 109.269C137.547 109.269 137.736 109.219 137.865 109.12C137.994 109.021 138.124 108.847 138.253 108.598C138.382 108.35 138.561 108.012 138.789 107.585C139.038 107.108 139.296 106.71 139.564 106.392C139.833 106.064 140.101 105.806 140.369 105.617C140.648 105.418 140.921 105.279 141.189 105.2C141.467 105.11 141.741 105.066 142.009 105.066C142.377 105.066 142.719 105.145 143.037 105.304C143.365 105.453 143.678 105.717 143.976 106.094C144.275 106.462 144.558 106.969 144.826 107.614C145.015 108.062 145.204 108.404 145.393 108.643C145.581 108.881 145.775 109.045 145.974 109.135C146.183 109.224 146.391 109.269 146.6 109.269C146.977 109.269 147.246 109.368 147.405 109.567C147.564 109.756 147.643 109.994 147.643 110.283C147.643 110.591 147.539 110.849 147.33 111.058C147.122 111.256 146.828 111.356 146.451 111.356C145.964 111.356 145.522 111.276 145.124 111.117C144.727 110.958 144.414 110.72 144.185 110.402L144.617 110.074C144.528 110.283 144.394 110.501 144.215 110.73C144.046 110.958 143.822 111.152 143.544 111.311C143.276 111.47 142.953 111.55 142.575 111.55C142.327 111.55 142.034 111.5 141.696 111.4C141.368 111.311 141.025 111.157 140.667 110.938C140.32 110.71 139.997 110.402 139.699 110.014C139.51 110.362 139.301 110.635 139.073 110.834C138.844 111.023 138.576 111.157 138.268 111.237C137.96 111.316 137.587 111.356 137.15 111.356ZM140.563 108.255C140.662 108.404 140.782 108.554 140.921 108.703C141.06 108.852 141.214 108.986 141.383 109.105C141.552 109.214 141.731 109.304 141.92 109.373C142.118 109.443 142.312 109.478 142.501 109.478C142.7 109.478 142.864 109.403 142.993 109.254C143.122 109.095 143.127 108.862 143.008 108.554C142.958 108.424 142.888 108.28 142.799 108.121C142.719 107.952 142.625 107.793 142.516 107.644C142.416 107.495 142.302 107.371 142.173 107.272C142.054 107.172 141.929 107.123 141.8 107.123C141.671 107.123 141.537 107.162 141.398 107.242C141.259 107.321 141.12 107.446 140.98 107.614C140.841 107.773 140.702 107.987 140.563 108.255ZM146.451 111.356L146.6 109.269C147.067 109.269 147.395 109.224 147.584 109.135C147.783 109.035 147.902 108.857 147.942 108.598C147.981 108.33 147.991 107.942 147.972 107.436L147.733 100.37H149.85L150.103 107.421C150.123 107.918 150.183 108.3 150.282 108.568C150.381 108.837 150.545 109.021 150.774 109.12C151.012 109.219 151.33 109.269 151.728 109.269C152.105 109.269 152.374 109.368 152.533 109.567C152.692 109.756 152.771 109.994 152.771 110.283C152.771 110.591 152.667 110.849 152.458 111.058C152.249 111.256 151.956 111.356 151.579 111.356C151.141 111.356 150.734 111.306 150.356 111.207C149.979 111.107 149.666 110.919 149.417 110.64C149.169 110.362 149.005 109.96 148.925 109.433L149.581 109.448C149.412 109.965 149.194 110.362 148.925 110.64C148.657 110.909 148.319 111.097 147.912 111.207C147.514 111.306 147.028 111.356 146.451 111.356ZM151.575 111.356L151.724 109.269C152.181 109.269 152.509 109.224 152.708 109.135C152.906 109.035 153.026 108.857 153.065 108.598C153.105 108.33 153.115 107.942 153.095 107.436L152.827 100.37H154.929L155.227 107.585C155.247 108.161 155.222 108.683 155.152 109.15C155.093 109.607 154.939 109.999 154.69 110.327C154.452 110.655 154.079 110.909 153.572 111.087C153.075 111.266 152.41 111.356 151.575 111.356Z" fill="white"/>
<path d="M12.0726 43.9357C12.0726 46.6121 9.87205 48.7872 7.20414 48.7872C4.53624 48.7872 2.36963 46.6036 2.36963 43.9357C2.36963 41.2678 4.53624 39.0842 7.20414 39.0842C9.87205 39.0842 12.0726 41.2678 12.0726 43.9357ZM11.4524 43.9357C11.4524 41.5992 9.54069 39.696 7.19565 39.696C4.85061 39.696 2.95589 41.6077 2.95589 43.9357C2.95589 46.2638 4.8676 48.1755 7.19565 48.1755C9.52369 48.1755 11.4524 46.2808 11.4524 43.9357ZM6.77082 44.5645H6.44796V46.5272H5.08851V41.0214H7.10219C8.47862 41.0214 9.25181 41.6332 9.25181 42.7377C9.25181 43.4514 8.84397 44.0292 8.18124 44.3266L9.96551 46.5272H8.33418L6.78782 44.5645H6.77082ZM6.44796 43.6299H6.97474C7.53551 43.6299 7.89236 43.307 7.89236 42.8482C7.89236 42.3894 7.5525 42.1005 6.99173 42.1005H6.44796V43.6299Z" fill="white"/>
<path d="M91.3118 3.19482L73.6221 10.6293V39.0076C76.3919 37.0959 79.6291 36.0254 83.1297 36.0254C83.3846 36.0254 83.648 36.0254 83.9283 36.0339C85.0499 36.0933 86.1289 36.2718 87.14 36.5521V17.9788L88.0407 17.5879L91.3118 16.2115V3.19482Z" fill="#F2B737"/>
<path d="M92.0592 17.5196L91.3116 17.8255L88.6182 18.964V37.0531C89.5698 37.4184 90.4619 37.8857 91.3116 38.4465C91.5665 38.5994 91.8213 38.7609 92.0592 38.9563C92.3141 39.1177 92.552 39.3132 92.7899 39.5086C97.6585 43.4425 100.717 50.2142 101.966 57.1558C102.017 57.1558 102.068 57.1558 102.119 57.1388V13.2883L92.7899 17.2052L92.0592 17.5196Z" fill="#F2B737"/>
<path d="M121.287 0L103.597 7.43445V56.7992C104.523 56.3404 105.305 55.4228 106.291 53.7999C106.52 53.4176 106.775 53.0013 107.038 52.534C107.098 52.432 107.166 52.3045 107.225 52.1941C107.404 51.8627 107.591 51.5399 107.777 51.2085C107.956 50.8941 108.143 50.5883 108.33 50.2824C110.59 46.5184 113.411 42.4486 117.09 39.5853V17.9786L117.999 17.5878L121.27 16.2114V0H121.287Z" fill="#F2B737"/>
<path d="M122.766 17.2057L122.018 17.5201L121.288 17.8259L118.594 18.9645V38.5319C119.444 37.9882 120.336 37.4954 121.288 37.1045C121.526 37.0026 121.772 36.9006 122.018 36.8157C122.256 36.7137 122.511 36.6372 122.766 36.5608C124.27 36.0765 125.893 35.8131 127.618 35.8131C127.745 35.8131 127.881 35.8131 128.008 35.8216C130.982 35.8301 133.811 36.8326 136.267 38.6679V11.53L122.766 17.2057Z" fill="#F2B737"/>
<path d="M36.8154 71.5921C31.6835 73.6907 26.6876 75.1351 20.9014 75.1351C11.0625 75.1351 6.65277 71.4477 6.65277 63.7838C6.65277 60.7505 7.45144 57.131 9.18473 53.1547L2.53196 53.3756C0.866646 58.1506 0 62.5603 0 66.3922C0 77.8965 6.50833 84.5493 19.1681 84.5493C27.0529 84.5493 34.5723 82.5951 42.8904 78.041C43.6126 74.9992 44.2668 70.5895 44.2668 65.3811L44.3433 17.1379L36.8919 19.3045L36.8154 71.5921Z" fill="white"/>
<path d="M53.8843 70.6571H61.3357V17.2056L53.8843 19.3722V70.6571Z" fill="white"/>
<path d="M127.949 40.4952C122.528 40.3508 117.753 43.6814 112.323 52.7217C110.08 56.3412 108.126 61.8384 101.839 61.8384H101.04L100.964 61.8894V61.8384H97.8539C97.1317 51.9995 92.2887 41.1494 83.6817 40.7161C75.797 40.3508 69.4331 47.7342 69.0677 57.7091C68.7024 65.8063 74.9218 71.0147 81.7955 70.8023H92.79C89.6123 80.0635 75.6525 83.8954 66.1704 78.755L66.2469 84.9745C75.9414 92.6383 85.5595 89.5286 91.558 82.6634C94.5998 79.3328 96.4775 75.212 97.3441 70.8023H100.938L101.032 70.8787H101.83C107.328 70.8787 110.726 68.0579 113.479 63.7162C118.611 70.3689 125.629 72.8329 135.035 71.6689C144.585 59.0091 138.51 40.4952 127.949 40.4952ZM82.0929 62.2633C77.2499 62.2633 74.3526 60.2411 73.7748 57.9216C74.1401 52.4243 78.261 48.5924 82.4582 48.6604C87.7346 48.7368 91.3541 55.8229 91.8639 62.2548H82.1014L82.0929 62.2633ZM132.435 63.5632C125.85 63.8521 120.208 61.8979 116.954 56.9105C119.851 51.7786 123.174 48.0826 127.294 48.6689C131.415 49.3231 135.179 55.9759 132.426 63.5717L132.435 63.5632Z" fill="white"/>
<path d="M147.406 80.8961H154.789V27.0452L147.406 29.2118V80.8961Z" fill="white"/>
<path d="M158.111 17.1291L151.96 17.9957C149.793 17.5624 148.706 16.0415 148.706 14.8095C148.706 13.4331 149.649 12.2776 151.892 12.2776C153.336 12.2776 154.645 12.7874 155.656 13.5775L155.8 13.5011L156.743 9.66913C154.866 8.36917 153.056 7.85938 151.467 7.85938C147.125 7.85938 144.449 10.9691 144.449 14.8775C144.449 16.2539 145.027 17.7748 146.259 18.7859L143.004 19.2192L143.081 23.1956L158.196 21.0969L158.12 17.1206L158.111 17.1291Z" fill="white"/>
</svg>
