<svg width="216" height="61" viewBox="0 0 216 61" fill="none" xmlns="http://www.w3.org/2000/svg">
<path fill-rule="evenodd" clip-rule="evenodd" d="M169.922 44.353C174.292 41.1575 182.712 19.5242 184.481 11.8845C175.347 13.029 167.121 23.3366 167.165 33.9191C167.173 36.8769 168.317 42.6884 169.922 44.353Z" fill="#DB3022"/>
<path fill-rule="evenodd" clip-rule="evenodd" d="M192.707 53.9323C200.117 53.8728 200.362 55.3888 203.409 49.8077C207.756 41.8262 199.292 38.4077 198.638 34.1346C198.281 31.8456 199.73 29.7797 200.733 28.6724C201.714 27.5874 203.453 25.7369 204.576 24.86C205.334 24.2729 208.314 22.0211 208.73 21.4489L203.981 21.4043C200.466 21.4117 200.325 20.8544 198.184 22.7271C196.75 23.9905 195.769 24.8971 194.588 26.2348C183.529 38.7496 203.476 40.8155 196.304 50.3725C195.561 51.3684 193.057 53.2708 192.707 53.9323Z" fill="#2E2E2E"/>
<path fill-rule="evenodd" clip-rule="evenodd" d="M190.917 31.1022C191.905 27.5797 194.937 24.9712 196.869 23.1133C200.882 19.2489 200.994 21.3892 208.41 20.7352C207.214 18.2085 202.971 14.9535 200.035 13.4448C196.267 11.4978 191.251 10.7323 186.25 11.3937C186.398 12.0254 188.085 13.6678 188.709 14.5522C190.129 16.5587 189.497 17.3018 189.49 20.0069C189.475 22.7492 189.683 29.1775 190.917 31.1022Z" fill="#DB3022"/>
<path fill-rule="evenodd" clip-rule="evenodd" d="M176.759 46.716C171.483 54.4671 167.158 49.9933 165.716 44.4122C166.972 45.8316 168.086 46.8423 170.078 45.1405C173.125 42.532 176.35 35.7544 177.904 31.9718C179.249 28.7019 180.601 25.328 181.79 21.9615C181.974 21.4409 182.163 20.9183 182.354 20.3911C182.787 19.1945 183.228 17.9741 183.641 16.6999C183.747 16.3764 183.86 16.0486 183.974 15.7193C184.157 15.1936 184.34 14.6643 184.495 14.1434C184.564 13.9177 184.618 13.706 184.67 13.5057C184.852 12.7958 184.997 12.2284 185.618 11.6836C186.005 12.2993 186.494 12.8488 186.997 13.4148C187.478 13.9556 187.972 14.5114 188.404 15.1541C189.117 16.2226 189.022 17.5614 188.922 18.9685C188.885 19.4993 188.846 20.0398 188.85 20.5792C188.97 31.7764 192.496 38.7006 194.809 43.2408C196.072 45.7217 196.973 47.4908 196.757 48.8563C196.125 48.9005 195.291 48.2793 194.103 47.3954C191.495 45.4535 187.183 42.2435 179.568 42.0341L179.145 42.5469C179.126 42.5729 179.106 42.6045 179.085 42.6361C179.065 42.6677 179.044 42.6992 179.026 42.7253C179.013 42.7417 178.928 42.8927 178.848 43.0342C178.784 43.1482 178.723 43.2561 178.706 43.2826L176.759 46.716ZM184.228 39.037C183.455 38.8519 182.632 38.6548 181.315 38.1699L184.391 29.9357C184.522 29.6592 184.531 29.6248 184.53 29.6255C184.53 29.6264 184.514 29.6852 184.718 29.3635L185.008 29.0068C185.594 32.3885 186.881 34.8923 188.142 37.345C188.802 38.6275 189.454 39.8961 189.995 41.2689C186.729 39.636 185.552 39.3541 184.228 39.037Z" fill="#2E2E2E"/>
<path d="M166.065 38.5115C166.184 38.4818 166.288 38.4669 166.392 38.4818C166.489 38.4892 166.578 38.5189 166.653 38.5635C166.727 38.6081 166.794 38.6601 166.846 38.7344C166.898 38.8088 166.935 38.8905 166.957 38.9797C166.98 39.0391 166.987 39.0986 166.987 39.158C166.987 39.2101 166.987 39.2621 166.98 39.3067C166.972 39.3513 166.965 39.3959 166.95 39.4256C166.942 39.4627 166.928 39.485 166.913 39.4999C166.905 39.5148 166.883 39.5296 166.853 39.5445C166.831 39.5593 166.794 39.5742 166.734 39.5891C166.697 39.5965 166.667 39.6039 166.645 39.6039C166.623 39.6114 166.601 39.6114 166.586 39.6114C166.571 39.6114 166.556 39.6114 166.548 39.6039C166.541 39.6039 166.534 39.5965 166.534 39.5816C166.526 39.5742 166.534 39.5519 166.548 39.5222C166.556 39.4925 166.571 39.4553 166.586 39.4181C166.593 39.3736 166.608 39.3215 166.608 39.2621C166.615 39.2101 166.608 39.1432 166.593 39.0763C166.578 39.0317 166.563 38.9946 166.541 38.9648C166.511 38.9351 166.489 38.9128 166.459 38.8905C166.422 38.8756 166.392 38.8608 166.355 38.8608C166.311 38.8608 166.274 38.8608 166.229 38.8756C166.177 38.8905 166.132 38.9128 166.103 38.9425C166.073 38.9723 166.051 39.0094 166.036 39.054C166.013 39.0986 165.999 39.1506 165.984 39.2026C165.976 39.2547 165.961 39.3067 165.947 39.3587C165.932 39.4181 165.917 39.4702 165.887 39.5296C165.865 39.5816 165.835 39.6337 165.798 39.6857C165.761 39.7303 165.709 39.7749 165.649 39.8195C165.582 39.8566 165.508 39.8938 165.411 39.9161C165.307 39.9458 165.211 39.9607 165.122 39.9458C165.025 39.9384 164.951 39.9161 164.876 39.8789C164.81 39.8343 164.75 39.7823 164.705 39.7228C164.661 39.656 164.624 39.5816 164.601 39.4999C164.594 39.4553 164.587 39.4107 164.579 39.3661C164.579 39.3215 164.579 39.277 164.579 39.2398C164.587 39.1952 164.587 39.1655 164.601 39.1283C164.609 39.0986 164.616 39.0689 164.624 39.0614C164.639 39.0466 164.646 39.0391 164.653 39.0317C164.661 39.0243 164.668 39.0243 164.683 39.0168C164.691 39.0094 164.713 39.002 164.728 38.9946C164.75 38.9871 164.772 38.9797 164.802 38.9723C164.839 38.9648 164.869 38.9574 164.891 38.95C164.914 38.95 164.936 38.9425 164.951 38.9425C164.966 38.9425 164.98 38.9425 164.988 38.95C164.995 38.95 165.003 38.9574 165.003 38.9723C165.003 38.9797 165.003 39.002 164.995 39.0243C164.98 39.054 164.973 39.0837 164.966 39.1209C164.951 39.158 164.943 39.2026 164.943 39.2472C164.936 39.2918 164.943 39.3438 164.958 39.3959C164.966 39.433 164.98 39.4702 165.003 39.4925C165.025 39.5222 165.047 39.5371 165.077 39.5519C165.099 39.5668 165.129 39.5742 165.166 39.5742C165.196 39.5742 165.233 39.5742 165.263 39.5668C165.315 39.5519 165.352 39.5296 165.382 39.4925C165.411 39.4627 165.441 39.4256 165.456 39.381C165.471 39.3364 165.486 39.2918 165.501 39.2324C165.516 39.1803 165.53 39.1283 165.538 39.0763C165.553 39.0168 165.575 38.9574 165.597 38.9054C165.62 38.8459 165.649 38.7939 165.686 38.7493C165.731 38.6973 165.776 38.6527 165.842 38.6081C165.902 38.571 165.976 38.5412 166.065 38.5115ZM165.664 37.3819L166.467 37.2333C166.482 37.2333 166.489 37.2333 166.504 37.2407C166.511 37.2407 166.526 37.2481 166.534 37.263C166.541 37.2779 166.548 37.2927 166.556 37.3224C166.563 37.3447 166.571 37.3745 166.578 37.4042C166.586 37.4414 166.586 37.4785 166.586 37.5008C166.586 37.5231 166.586 37.5454 166.586 37.5603C166.578 37.5751 166.578 37.5826 166.571 37.59C166.556 37.5974 166.548 37.6048 166.534 37.6048L165.731 37.7535L164.572 38.4818C164.535 38.5041 164.497 38.5264 164.475 38.5338C164.453 38.5412 164.438 38.5412 164.423 38.5338C164.408 38.5264 164.393 38.5115 164.386 38.4818C164.378 38.452 164.371 38.4149 164.364 38.3629C164.349 38.3183 164.349 38.2811 164.341 38.2588C164.341 38.2291 164.341 38.2068 164.349 38.1919C164.349 38.1771 164.356 38.1622 164.364 38.1548C164.378 38.1474 164.386 38.1399 164.401 38.1251L164.928 37.8204C164.98 37.7906 165.032 37.7609 165.092 37.7312C165.151 37.7015 165.211 37.6717 165.27 37.6346C165.203 37.6271 165.136 37.6197 165.07 37.6123C165.01 37.6048 164.951 37.5974 164.891 37.59L164.297 37.4934C164.274 37.4859 164.26 37.4859 164.245 37.4785C164.237 37.4785 164.222 37.4636 164.215 37.4562C164.208 37.4414 164.193 37.4265 164.185 37.3968C164.185 37.3745 164.178 37.3447 164.17 37.3002C164.156 37.2481 164.148 37.2035 164.148 37.1738C164.148 37.1441 164.148 37.1218 164.163 37.1144C164.17 37.0995 164.193 37.0921 164.215 37.0921C164.245 37.0921 164.274 37.0995 164.326 37.1069L165.664 37.3819ZM166.155 34.9592C166.169 34.9592 166.177 34.9592 166.184 34.9592C166.199 34.9592 166.207 34.9741 166.214 34.9815C166.222 34.9964 166.229 35.0187 166.236 35.0484C166.236 35.0707 166.244 35.1078 166.251 35.1599C166.259 35.197 166.259 35.2267 166.259 35.249C166.259 35.2788 166.259 35.2936 166.251 35.3085C166.251 35.3234 166.244 35.3382 166.229 35.3457C166.222 35.3457 166.207 35.3531 166.199 35.3605L165.701 35.5909C165.642 35.6206 165.59 35.6429 165.553 35.6726C165.508 35.6949 165.471 35.7172 165.441 35.747C165.419 35.7767 165.397 35.8064 165.382 35.8361C165.374 35.8659 165.367 35.903 165.374 35.9476L165.389 36.0591L166.274 35.955C166.288 35.9476 166.296 35.955 166.303 35.955C166.318 35.9625 166.326 35.9699 166.333 35.9848C166.34 35.9996 166.348 36.0145 166.355 36.0368C166.363 36.0665 166.37 36.0962 166.37 36.1334C166.378 36.1631 166.378 36.1929 166.378 36.2226C166.378 36.2449 166.378 36.2672 166.37 36.282C166.363 36.2969 166.363 36.3043 166.348 36.3118C166.34 36.3192 166.333 36.3266 166.318 36.3266L164.222 36.5867C164.17 36.5942 164.126 36.5867 164.104 36.5644C164.074 36.5496 164.059 36.5273 164.059 36.4901L163.999 36.0145C163.992 35.9699 163.992 35.9253 163.985 35.8956C163.985 35.8659 163.985 35.8361 163.985 35.8064C163.992 35.7321 164.007 35.6652 164.029 35.5983C164.051 35.5389 164.089 35.4794 164.133 35.4348C164.185 35.3902 164.237 35.3457 164.304 35.3159C164.378 35.2862 164.453 35.2639 164.549 35.2565C164.624 35.249 164.698 35.2416 164.765 35.249C164.824 35.2565 164.884 35.2788 164.943 35.3011C164.995 35.3234 165.04 35.3531 165.084 35.3977C165.129 35.4348 165.166 35.4869 165.196 35.5389C165.203 35.5091 165.226 35.4794 165.241 35.4497C165.263 35.4274 165.293 35.3977 165.322 35.3754C165.352 35.3457 165.389 35.3234 165.434 35.3011C165.471 35.2713 165.523 35.249 165.575 35.2267L166.006 35.0112C166.051 34.9889 166.088 34.9815 166.103 34.9741C166.125 34.9666 166.14 34.9592 166.155 34.9592ZM164.646 35.6355C164.564 35.6429 164.505 35.6652 164.453 35.7024C164.408 35.7321 164.378 35.7841 164.364 35.851C164.356 35.8733 164.356 35.8956 164.356 35.9179C164.356 35.9402 164.356 35.9773 164.364 36.0145L164.386 36.1854L165.04 36.1037L165.018 35.9179C165.01 35.8584 164.995 35.8138 164.973 35.7767C164.951 35.7395 164.928 35.7098 164.891 35.6875C164.862 35.6652 164.824 35.6503 164.78 35.6429C164.743 35.628 164.691 35.628 164.646 35.6355ZM166.11 34.1566C166.125 34.1566 166.132 34.1566 166.147 34.164C166.155 34.1715 166.162 34.1789 166.169 34.1938C166.177 34.2086 166.184 34.2309 166.192 34.2532C166.192 34.2755 166.199 34.3052 166.199 34.3424C166.207 34.3795 166.207 34.4093 166.199 34.4316C166.199 34.4539 166.199 34.4762 166.192 34.491C166.192 34.5059 166.184 34.5207 166.169 34.5282C166.162 34.5282 166.155 34.5356 166.14 34.5356L163.947 34.7065C163.933 34.7065 163.925 34.6991 163.91 34.6991C163.903 34.6917 163.895 34.6842 163.888 34.6694C163.881 34.6545 163.873 34.6322 163.866 34.6099C163.866 34.5876 163.858 34.5579 163.858 34.5207C163.851 34.4836 163.851 34.4539 163.858 34.4316C163.858 34.4018 163.858 34.387 163.866 34.3721C163.873 34.3573 163.873 34.3424 163.888 34.335C163.895 34.3275 163.903 34.3275 163.918 34.3275L166.11 34.1566ZM165.999 32.0832C166.043 32.0758 166.08 32.0683 166.103 32.0683C166.125 32.0609 166.147 32.0683 166.162 32.0758C166.169 32.0906 166.177 32.1055 166.184 32.1352C166.184 32.1649 166.184 32.2021 166.184 32.2467C166.177 32.2913 166.177 32.3284 166.177 32.3582C166.177 32.3879 166.169 32.4102 166.162 32.4176C166.155 32.4325 166.147 32.4473 166.14 32.4473C166.132 32.4548 166.117 32.4622 166.103 32.4622L165.627 32.5737L165.612 33.2722L166.065 33.3986C166.08 33.406 166.095 33.4134 166.103 33.4209C166.117 33.4209 166.125 33.4357 166.132 33.4506C166.14 33.4655 166.14 33.4803 166.14 33.5101C166.147 33.5323 166.147 33.5695 166.14 33.6067C166.14 33.6513 166.14 33.6884 166.132 33.7107C166.132 33.733 166.117 33.7553 166.11 33.7627C166.095 33.7702 166.073 33.7702 166.051 33.7702C166.021 33.7627 165.991 33.7553 165.947 33.7479L163.895 33.1162C163.881 33.1087 163.858 33.1013 163.851 33.0939C163.836 33.0865 163.829 33.0716 163.821 33.0567C163.814 33.0419 163.814 33.0121 163.814 32.9824C163.806 32.9527 163.806 32.9155 163.814 32.8709C163.814 32.8115 163.814 32.7669 163.814 32.7372C163.821 32.7 163.829 32.6777 163.836 32.6554C163.843 32.6406 163.851 32.6257 163.866 32.6183C163.873 32.6108 163.895 32.6034 163.918 32.596L165.999 32.0832ZM164.267 32.8858L165.248 33.1756L165.263 32.6554L164.267 32.8858ZM166.318 28.8356C166.363 28.8282 166.4 28.8282 166.422 28.8282C166.452 28.8282 166.467 28.8356 166.482 28.843C166.489 28.8579 166.496 28.8802 166.496 28.9025C166.496 28.9322 166.489 28.9694 166.489 29.014C166.482 29.066 166.474 29.1031 166.467 29.1254C166.467 29.1552 166.459 29.1775 166.452 29.1849C166.444 29.1997 166.437 29.2072 166.422 29.2146C166.415 29.222 166.4 29.222 166.385 29.222L165.909 29.2889L165.82 29.9801L166.259 30.151C166.274 30.1584 166.288 30.1658 166.296 30.1733C166.311 30.1807 166.318 30.1956 166.318 30.2104C166.326 30.2179 166.326 30.2402 166.326 30.2699C166.326 30.2922 166.326 30.3293 166.318 30.3665C166.311 30.4111 166.311 30.4408 166.303 30.4705C166.296 30.4928 166.281 30.5077 166.266 30.5151C166.251 30.5226 166.236 30.5226 166.207 30.5226C166.184 30.5151 166.155 30.5003 166.11 30.4854L164.133 29.6679C164.111 29.6605 164.096 29.6456 164.081 29.6382C164.074 29.6308 164.066 29.6159 164.059 29.601C164.051 29.5788 164.051 29.5565 164.059 29.5267C164.059 29.497 164.059 29.4599 164.066 29.4153C164.074 29.3558 164.081 29.3112 164.089 29.2815C164.089 29.2443 164.096 29.222 164.111 29.1997C164.118 29.1849 164.126 29.17 164.141 29.17C164.156 29.1626 164.178 29.1552 164.2 29.1552L166.318 28.8356ZM164.52 29.4747L165.471 29.8537L165.53 29.3335L164.52 29.4747ZM166.63 27.431C166.667 27.4385 166.697 27.4459 166.719 27.4533C166.742 27.4608 166.764 27.4682 166.779 27.4756C166.794 27.4831 166.801 27.4979 166.809 27.5053C166.809 27.5128 166.816 27.5202 166.809 27.5276L166.623 28.36C166.615 28.3897 166.593 28.412 166.571 28.4269C166.541 28.4417 166.504 28.4417 166.452 28.4343L164.386 27.9587C164.378 27.9512 164.364 27.9512 164.356 27.9438C164.349 27.9289 164.349 27.9215 164.341 27.9067C164.341 27.8918 164.341 27.8695 164.341 27.8472C164.341 27.8175 164.349 27.7877 164.356 27.758C164.364 27.7209 164.371 27.6911 164.386 27.6688C164.393 27.6465 164.401 27.6243 164.408 27.6168C164.416 27.602 164.43 27.5945 164.438 27.5871C164.453 27.5871 164.46 27.5871 164.475 27.5871L166.296 28.0107L166.43 27.4385C166.43 27.431 166.437 27.4236 166.444 27.4162C166.452 27.4162 166.467 27.4087 166.482 27.4087C166.496 27.4087 166.519 27.4087 166.541 27.4087C166.563 27.4162 166.593 27.4236 166.63 27.431ZM167.032 26.0116C167.061 26.019 167.091 26.0339 167.113 26.0413C167.136 26.0488 167.15 26.0562 167.165 26.0636C167.173 26.0711 167.188 26.0785 167.188 26.0933C167.195 26.1008 167.195 26.1082 167.195 26.1156L166.942 27.0149C166.935 27.0446 166.913 27.0669 166.883 27.0817C166.853 27.0966 166.816 27.0966 166.764 27.0817L164.81 26.5244C164.757 26.5095 164.728 26.4947 164.713 26.4649C164.691 26.4352 164.691 26.4129 164.698 26.3832L164.951 25.4914C164.951 25.4765 164.958 25.4765 164.966 25.4691C164.973 25.4617 164.98 25.4617 164.995 25.4617C165.018 25.4617 165.032 25.4617 165.055 25.4691C165.084 25.4691 165.107 25.4765 165.144 25.484C165.174 25.4988 165.203 25.5063 165.226 25.5137C165.248 25.5211 165.263 25.5286 165.278 25.536C165.293 25.5508 165.3 25.5583 165.307 25.5657C165.307 25.5731 165.307 25.5806 165.307 25.588L165.129 26.2271L165.672 26.3832L165.828 25.8407C165.828 25.8332 165.835 25.8258 165.842 25.8258C165.85 25.8184 165.857 25.8184 165.872 25.811C165.887 25.811 165.909 25.8184 165.932 25.8184C165.954 25.8258 165.984 25.8332 166.013 25.8407C166.051 25.8481 166.073 25.8555 166.095 25.863C166.117 25.8778 166.132 25.8853 166.147 25.8927C166.162 25.9001 166.169 25.9076 166.169 25.915C166.177 25.9224 166.177 25.9299 166.169 25.9447L166.021 26.4798L166.653 26.6581L166.831 26.0116C166.838 26.0042 166.838 25.9967 166.853 25.9967C166.861 25.9893 166.868 25.9893 166.883 25.9893C166.898 25.9893 166.92 25.9893 166.942 25.9893C166.965 25.9967 166.994 26.0042 167.032 26.0116ZM166.236 23.8862C166.363 23.9308 166.467 23.9828 166.548 24.0422C166.638 24.1091 166.697 24.1834 166.742 24.2578C166.794 24.3395 166.816 24.4287 166.823 24.5253C166.823 24.6293 166.809 24.7334 166.771 24.8523L166.719 24.9935L167.425 25.2387C167.433 25.2387 167.44 25.2462 167.448 25.2536C167.455 25.261 167.463 25.2759 167.463 25.2907C167.463 25.3056 167.463 25.3279 167.455 25.3502C167.455 25.3725 167.448 25.4022 167.433 25.4394C167.418 25.4691 167.411 25.4988 167.396 25.5211C167.388 25.5434 167.373 25.5583 167.366 25.5731C167.359 25.5806 167.344 25.588 167.336 25.5954C167.321 25.5954 167.314 25.5954 167.299 25.588L165.315 24.9192C165.263 24.8969 165.226 24.8746 165.211 24.8448C165.189 24.8077 165.189 24.778 165.196 24.7408L165.337 24.3246C165.352 24.2875 165.367 24.2429 165.382 24.2132C165.404 24.176 165.426 24.1314 165.456 24.0868C165.486 24.0348 165.53 23.9902 165.582 23.9456C165.634 23.9085 165.694 23.8787 165.761 23.8564C165.828 23.8342 165.902 23.8267 165.984 23.8342C166.058 23.8416 166.147 23.8564 166.236 23.8862ZM166.14 24.2726C166.065 24.2429 165.999 24.2355 165.939 24.2355C165.88 24.2429 165.835 24.2578 165.798 24.28C165.768 24.3023 165.738 24.3321 165.724 24.3618C165.701 24.399 165.686 24.4361 165.672 24.4733L165.62 24.6219L166.37 24.882L166.43 24.7185C166.444 24.6591 166.452 24.607 166.444 24.5624C166.444 24.5179 166.422 24.4807 166.4 24.4435C166.37 24.4064 166.34 24.3692 166.296 24.3395C166.251 24.3172 166.199 24.2875 166.14 24.2726ZM167.002 22.1843C167.121 22.2438 167.217 22.3033 167.299 22.3776C167.381 22.4445 167.433 22.5262 167.47 22.6079C167.507 22.6971 167.529 22.7863 167.522 22.8829C167.515 22.9795 167.492 23.0836 167.44 23.195L167.373 23.3362L168.05 23.6484C168.065 23.6484 168.072 23.6558 168.079 23.6707C168.087 23.6781 168.087 23.693 168.087 23.7078C168.087 23.7227 168.079 23.7375 168.079 23.7598C168.072 23.7896 168.057 23.8119 168.042 23.849C168.027 23.8787 168.013 23.9085 168.005 23.9308C167.99 23.9531 167.975 23.9679 167.968 23.9754C167.953 23.9828 167.938 23.9902 167.931 23.9902C167.923 23.9976 167.908 23.9902 167.901 23.9902L165.991 23.1207C165.939 23.0984 165.902 23.0761 165.887 23.039C165.872 23.0092 165.872 22.9721 165.887 22.9349L166.065 22.5411C166.088 22.4965 166.103 22.4593 166.125 22.4296C166.147 22.3924 166.169 22.3553 166.207 22.3107C166.244 22.2661 166.288 22.2215 166.348 22.1843C166.407 22.1472 166.467 22.1249 166.534 22.11C166.608 22.1026 166.675 22.0952 166.757 22.11C166.831 22.1249 166.913 22.1472 167.002 22.1843ZM166.868 22.5634C166.794 22.5262 166.734 22.5113 166.675 22.5113C166.615 22.5113 166.571 22.5188 166.534 22.5411C166.496 22.5559 166.467 22.5857 166.444 22.6154C166.422 22.6451 166.407 22.6823 166.385 22.712L166.318 22.8606L167.046 23.1876L167.113 23.0315C167.136 22.9795 167.15 22.9275 167.15 22.8829C167.143 22.8383 167.136 22.7937 167.113 22.7566C167.091 22.7194 167.054 22.6823 167.017 22.6451C166.972 22.6154 166.928 22.5857 166.868 22.5634ZM168.451 20.4156C168.614 20.5122 168.756 20.6163 168.867 20.7203C168.986 20.8318 169.068 20.9433 169.12 21.0622C169.172 21.1811 169.194 21.3074 169.187 21.4263C169.179 21.5527 169.142 21.679 169.068 21.8053C168.993 21.9317 168.912 22.0283 168.815 22.0952C168.726 22.1621 168.614 22.2066 168.496 22.2215C168.377 22.2364 168.243 22.2141 168.094 22.1695C167.946 22.1323 167.782 22.058 167.604 21.954C167.44 21.8574 167.307 21.7607 167.195 21.6493C167.084 21.5378 167.002 21.4263 166.95 21.3074C166.898 21.1885 166.868 21.0696 166.875 20.9433C166.883 20.8169 166.928 20.6906 167.002 20.5643C167.069 20.4454 167.15 20.3487 167.247 20.2819C167.344 20.2075 167.448 20.1704 167.567 20.1555C167.686 20.1407 167.819 20.1555 167.968 20.2001C168.117 20.2373 168.273 20.3116 168.451 20.4156ZM168.273 20.7649C168.169 20.7055 168.065 20.6609 167.975 20.6237C167.879 20.5866 167.79 20.5643 167.708 20.5568C167.634 20.5568 167.559 20.5717 167.492 20.6014C167.433 20.6386 167.373 20.6906 167.329 20.7723C167.284 20.8541 167.262 20.9284 167.269 21.0027C167.277 21.077 167.299 21.1514 167.344 21.2257C167.388 21.2926 167.448 21.3594 167.529 21.4189C167.604 21.4858 167.693 21.5452 167.782 21.5973C167.894 21.6641 167.998 21.7087 168.094 21.7533C168.191 21.7905 168.273 21.8053 168.354 21.8128C168.436 21.8202 168.51 21.8053 168.57 21.7682C168.637 21.7385 168.689 21.679 168.733 21.5973C168.785 21.5155 168.8 21.4412 168.793 21.3669C168.793 21.2926 168.763 21.2182 168.719 21.1439C168.674 21.077 168.614 21.0102 168.533 20.9507C168.458 20.8838 168.369 20.8244 168.273 20.7649ZM170.628 19.1746C170.643 19.182 170.651 19.1894 170.651 19.1969C170.658 19.2117 170.658 19.2266 170.651 19.2414C170.651 19.2563 170.643 19.2712 170.636 19.2935C170.621 19.3158 170.606 19.3381 170.584 19.3678C170.562 19.3975 170.547 19.4272 170.524 19.4421C170.51 19.457 170.495 19.4718 170.48 19.4793C170.465 19.4867 170.457 19.4941 170.443 19.4941C170.435 19.4941 170.42 19.4867 170.413 19.4793L168.622 18.201C168.614 18.1936 168.607 18.1862 168.6 18.1713C168.6 18.1639 168.6 18.149 168.6 18.1341C168.6 18.1193 168.614 18.1044 168.622 18.0821C168.629 18.0598 168.652 18.0301 168.666 18.0004C168.689 17.9706 168.711 17.9484 168.726 17.9335C168.748 17.9112 168.763 17.9038 168.771 17.8963C168.785 17.8815 168.8 17.8815 168.808 17.8815C168.823 17.8815 168.83 17.8889 168.845 17.8963L170.628 19.1746ZM171.149 17.4802C171.245 17.5545 171.32 17.6362 171.364 17.718C171.416 17.8072 171.446 17.8889 171.461 17.9781C171.468 18.0673 171.461 18.149 171.431 18.2382C171.401 18.3199 171.364 18.4017 171.305 18.476C171.26 18.528 171.223 18.5652 171.178 18.6023C171.134 18.6395 171.089 18.6692 171.052 18.6915C171.007 18.7064 170.97 18.7287 170.941 18.7361C170.903 18.7435 170.874 18.751 170.859 18.751C170.837 18.751 170.814 18.7435 170.784 18.7287C170.762 18.7138 170.725 18.6915 170.68 18.6544C170.651 18.6321 170.628 18.6098 170.614 18.5949C170.591 18.58 170.576 18.5652 170.569 18.5503C170.562 18.5354 170.554 18.528 170.554 18.5132C170.554 18.5057 170.554 18.4983 170.562 18.4909C170.569 18.476 170.591 18.4686 170.621 18.4611C170.651 18.4537 170.688 18.4463 170.732 18.4314C170.77 18.4165 170.814 18.3942 170.866 18.3645C170.911 18.3348 170.963 18.2902 171 18.2382C171.03 18.201 171.052 18.1639 171.067 18.1267C171.074 18.0896 171.082 18.0524 171.074 18.0152C171.074 17.9855 171.059 17.9484 171.037 17.9186C171.015 17.8815 170.993 17.8517 170.955 17.822C170.911 17.7923 170.866 17.77 170.829 17.77C170.784 17.7626 170.74 17.7626 170.688 17.7774C170.643 17.7849 170.599 17.7997 170.547 17.822C170.502 17.8443 170.45 17.8666 170.398 17.8889C170.339 17.9038 170.287 17.9261 170.227 17.9409C170.168 17.9558 170.108 17.9558 170.049 17.9558C169.982 17.9558 169.915 17.9409 169.848 17.9186C169.781 17.8889 169.707 17.8443 169.633 17.7849C169.543 17.718 169.477 17.6437 169.432 17.5693C169.387 17.4876 169.358 17.4133 169.35 17.3315C169.335 17.2498 169.343 17.1755 169.372 17.1012C169.395 17.0194 169.439 16.9525 169.491 16.8856C169.514 16.8485 169.543 16.8188 169.581 16.789C169.61 16.7593 169.647 16.737 169.685 16.7147C169.714 16.6924 169.752 16.6776 169.781 16.6627C169.818 16.6478 169.841 16.6478 169.856 16.6478C169.87 16.6478 169.885 16.6478 169.893 16.6478C169.9 16.6478 169.908 16.6553 169.922 16.6627C169.937 16.6701 169.952 16.6776 169.967 16.6924C169.982 16.6998 170.004 16.7147 170.026 16.737C170.056 16.7593 170.078 16.7742 170.101 16.7965C170.116 16.8113 170.131 16.8262 170.138 16.8336C170.153 16.8485 170.153 16.8559 170.16 16.8708C170.16 16.8782 170.16 16.8856 170.153 16.8931C170.145 16.9005 170.131 16.9079 170.101 16.9154C170.071 16.9228 170.041 16.9377 170.004 16.9525C169.967 16.9674 169.93 16.9822 169.893 17.012C169.848 17.0343 169.811 17.064 169.781 17.1086C169.759 17.1383 169.737 17.1755 169.729 17.2052C169.722 17.2349 169.722 17.2646 169.722 17.2944C169.729 17.3241 169.737 17.3538 169.759 17.3836C169.774 17.4058 169.796 17.4356 169.826 17.4579C169.863 17.4876 169.908 17.5025 169.952 17.5099C169.997 17.5173 170.041 17.5173 170.086 17.5025C170.131 17.4876 170.183 17.4727 170.235 17.4504C170.279 17.4281 170.331 17.4133 170.383 17.391C170.443 17.3687 170.495 17.3464 170.554 17.3315C170.614 17.3167 170.673 17.3092 170.74 17.3167C170.799 17.3167 170.866 17.3315 170.933 17.3538C171 17.3761 171.074 17.4207 171.149 17.4802ZM172.858 16.5586C172.873 16.5661 172.88 16.5735 172.88 16.5884C172.88 16.5958 172.88 16.6107 172.88 16.6255C172.873 16.6404 172.865 16.6627 172.85 16.6776C172.828 16.6998 172.813 16.7296 172.784 16.7519C172.739 16.8039 172.709 16.8336 172.687 16.8485C172.665 16.8633 172.642 16.8708 172.628 16.8708C172.605 16.8708 172.59 16.8708 172.575 16.8633L171.386 16.5066L172.189 17.2646C172.196 17.2795 172.204 17.2869 172.204 17.2944C172.211 17.3092 172.211 17.3241 172.204 17.339C172.196 17.3538 172.189 17.3687 172.174 17.391C172.159 17.4058 172.144 17.4281 172.115 17.4579C172.092 17.4876 172.07 17.5025 172.048 17.5173C172.033 17.5322 172.018 17.547 172.003 17.5545C171.988 17.5545 171.974 17.5619 171.959 17.5545C171.951 17.5545 171.936 17.547 171.929 17.5396L170.339 16.031C170.331 16.0161 170.324 16.0087 170.316 16.0013C170.316 15.9864 170.316 15.9716 170.324 15.9567C170.331 15.9418 170.339 15.927 170.353 15.9047C170.368 15.8898 170.383 15.8675 170.413 15.8378C170.435 15.8155 170.457 15.7932 170.48 15.7783C170.495 15.7635 170.517 15.7486 170.524 15.7412C170.539 15.7412 170.554 15.7337 170.562 15.7412C170.576 15.7412 170.584 15.7486 170.599 15.756L171.32 16.4397L170.97 15.3622C170.963 15.3473 170.963 15.3324 170.963 15.3176C170.955 15.3027 170.963 15.2879 170.97 15.273C170.978 15.2581 170.985 15.2433 171 15.221C171.015 15.2061 171.037 15.1838 171.059 15.1541C171.089 15.1244 171.111 15.1095 171.126 15.0872C171.149 15.0723 171.163 15.0649 171.178 15.0575C171.193 15.05 171.208 15.05 171.216 15.05C171.23 15.0575 171.238 15.0575 171.245 15.0649C171.26 15.0798 171.275 15.1021 171.282 15.1244C171.297 15.1392 171.312 15.1764 171.327 15.2284L171.587 16.1722L172.732 16.4918C172.784 16.5141 172.813 16.5289 172.828 16.5364C172.843 16.5438 172.85 16.5512 172.858 16.5586ZM173.854 15.4365C173.883 15.4588 173.898 15.4811 173.913 15.5034C173.928 15.5182 173.943 15.5331 173.943 15.548C173.95 15.5628 173.958 15.5777 173.958 15.5851C173.958 15.5925 173.95 15.6 173.943 15.6074L173.274 16.254C173.252 16.2762 173.222 16.2837 173.192 16.2837C173.163 16.2762 173.125 16.2614 173.088 16.2242L171.684 14.7528C171.647 14.7156 171.632 14.6785 171.632 14.6487C171.632 14.619 171.639 14.5893 171.661 14.567L172.33 13.9279C172.338 13.9204 172.345 13.9204 172.353 13.9204C172.36 13.9204 172.375 13.9204 172.39 13.9279C172.405 13.9353 172.419 13.9502 172.434 13.965C172.457 13.9799 172.479 14.0022 172.501 14.0245C172.523 14.0542 172.546 14.0691 172.561 14.0914C172.575 14.1062 172.583 14.1285 172.59 14.136C172.598 14.1508 172.598 14.1657 172.598 14.1731C172.598 14.1805 172.598 14.188 172.59 14.1954L172.107 14.6562L172.501 15.0649L172.902 14.6785C172.91 14.671 172.917 14.671 172.932 14.671C172.94 14.671 172.955 14.671 172.962 14.6785C172.977 14.6859 172.992 14.7008 173.014 14.7156C173.029 14.7305 173.051 14.7453 173.073 14.7751C173.096 14.7974 173.118 14.8197 173.125 14.8345C173.14 14.8568 173.155 14.8717 173.163 14.8865C173.163 14.894 173.17 14.9088 173.17 14.9163C173.163 14.9237 173.163 14.9311 173.155 14.9386L172.754 15.325L173.207 15.8006L173.69 15.3399C173.698 15.3324 173.705 15.3324 173.713 15.3324C173.72 15.3324 173.735 15.3324 173.75 15.3399C173.757 15.3473 173.772 15.3622 173.794 15.377C173.809 15.3919 173.831 15.4068 173.854 15.4365ZM175.444 14.1805C175.459 14.2028 175.474 14.2251 175.481 14.2474C175.489 14.2697 175.489 14.2846 175.489 14.3069C175.489 14.3292 175.481 14.344 175.474 14.3589C175.466 14.3738 175.452 14.3886 175.437 14.4035L175.31 14.5001C175.288 14.5224 175.258 14.5373 175.236 14.5447C175.214 14.5521 175.184 14.5521 175.154 14.5521C175.125 14.5447 175.087 14.5373 175.05 14.515C175.013 14.5001 174.968 14.4704 174.909 14.4407L173.876 13.8684C173.817 13.8313 173.75 13.7941 173.683 13.7569C173.608 13.7124 173.549 13.6678 173.49 13.6306H173.482C173.542 13.6975 173.594 13.7644 173.653 13.8313C173.705 13.8907 173.765 13.965 173.817 14.0319L174.575 14.9906C174.582 15.0055 174.582 15.0129 174.582 15.0203C174.589 15.0352 174.582 15.05 174.582 15.0575C174.575 15.0723 174.56 15.0872 174.545 15.1021C174.53 15.1244 174.508 15.1392 174.485 15.1615C174.456 15.1838 174.433 15.1987 174.419 15.2061C174.396 15.221 174.381 15.2284 174.367 15.2284C174.352 15.2284 174.337 15.2284 174.329 15.2284C174.322 15.221 174.314 15.2135 174.307 15.2061L173.007 13.5563C172.977 13.5117 172.962 13.4745 172.962 13.4374C172.962 13.3928 172.984 13.3631 173.014 13.3408L173.17 13.2144C173.2 13.1921 173.222 13.1773 173.252 13.1699C173.274 13.1624 173.296 13.155 173.326 13.155C173.356 13.1624 173.386 13.1699 173.415 13.1847C173.452 13.1996 173.49 13.2144 173.527 13.2442L174.344 13.6901C174.389 13.7198 174.433 13.7421 174.485 13.7718C174.53 13.7941 174.575 13.8238 174.619 13.8536C174.671 13.8759 174.716 13.9056 174.76 13.9353C174.805 13.9576 174.842 13.9873 174.887 14.0096C174.835 13.9502 174.775 13.8833 174.723 13.809C174.664 13.7347 174.612 13.6678 174.56 13.6083L173.883 12.7463C173.876 12.7388 173.869 12.724 173.869 12.7165C173.869 12.7017 173.869 12.6942 173.876 12.6794C173.883 12.6645 173.891 12.6496 173.906 12.6348C173.921 12.6125 173.943 12.5976 173.973 12.5753C173.995 12.553 174.017 12.5382 174.04 12.5307C174.062 12.5159 174.077 12.5084 174.092 12.5084C174.099 12.5084 174.114 12.5084 174.121 12.5159C174.136 12.5159 174.144 12.5233 174.151 12.5382L175.444 14.1805ZM176.626 12.1294C176.737 12.3078 176.819 12.4787 176.864 12.6274C176.908 12.776 176.923 12.9172 176.908 13.0435C176.886 13.1699 176.841 13.2813 176.767 13.3854C176.693 13.4894 176.581 13.586 176.447 13.6752L176.076 13.913C176.046 13.9279 176.016 13.9353 175.987 13.9279C175.957 13.9204 175.927 13.8907 175.897 13.8461L174.798 12.1369C174.768 12.0923 174.753 12.0551 174.76 12.0254C174.768 11.9957 174.783 11.9734 174.812 11.9511L175.206 11.6984C175.347 11.6092 175.481 11.5498 175.6 11.5275C175.726 11.5052 175.845 11.5126 175.964 11.5572C176.083 11.5944 176.195 11.6612 176.306 11.7504C176.418 11.847 176.522 11.9734 176.626 12.1294ZM176.306 12.3524C176.247 12.2632 176.18 12.1815 176.113 12.1146C176.046 12.0477 175.972 11.9957 175.897 11.9585C175.823 11.9288 175.741 11.9139 175.66 11.9214C175.578 11.9214 175.489 11.9585 175.392 12.018L175.236 12.122L176.091 13.4523L176.254 13.3482C176.343 13.2888 176.403 13.2293 176.447 13.1624C176.484 13.0955 176.507 13.0212 176.514 12.9395C176.514 12.8577 176.499 12.7685 176.462 12.6719C176.432 12.5753 176.38 12.4713 176.306 12.3524ZM178.521 12.1963C178.536 12.226 178.55 12.2558 178.558 12.2781C178.573 12.2929 178.573 12.3152 178.58 12.3301C178.58 12.345 178.58 12.3598 178.58 12.3672C178.573 12.3747 178.573 12.3821 178.565 12.3895L177.755 12.8503C177.733 12.8652 177.703 12.8726 177.674 12.8577C177.644 12.8503 177.614 12.8206 177.584 12.776L176.574 11.0147C176.544 10.9701 176.537 10.933 176.544 10.9032C176.551 10.8735 176.566 10.8512 176.596 10.8289L177.399 10.3682C177.406 10.3682 177.413 10.3607 177.421 10.3682C177.428 10.3682 177.436 10.3756 177.451 10.383C177.465 10.3979 177.473 10.4127 177.488 10.4276C177.503 10.4499 177.517 10.4722 177.54 10.5019C177.555 10.5316 177.57 10.5614 177.577 10.5837C177.584 10.606 177.592 10.6208 177.599 10.6357C177.599 10.6506 177.599 10.6654 177.599 10.6728C177.592 10.6803 177.592 10.6877 177.584 10.6951L177.012 11.0221L177.295 11.5126L177.778 11.2376C177.785 11.2302 177.792 11.2302 177.8 11.2302C177.807 11.2376 177.822 11.2376 177.83 11.2525C177.844 11.2599 177.852 11.2748 177.867 11.2971C177.882 11.312 177.896 11.3343 177.911 11.364C177.934 11.3937 177.949 11.4234 177.956 11.4383C177.963 11.4606 177.971 11.4829 177.971 11.4978C177.978 11.5126 177.978 11.52 177.971 11.5275C177.971 11.5349 177.963 11.5423 177.956 11.5498L177.473 11.8247L177.8 12.397L178.38 12.0626C178.387 12.0626 178.394 12.0551 178.402 12.0626C178.409 12.0626 178.424 12.07 178.432 12.0774C178.446 12.0848 178.461 12.0997 178.469 12.122C178.484 12.1443 178.498 12.1666 178.521 12.1963ZM180.267 11.52C180.275 11.5275 180.275 11.5423 180.275 11.5498C180.275 11.5646 180.267 11.5721 180.26 11.5869C180.245 11.5944 180.23 11.6092 180.208 11.6241C180.185 11.6315 180.148 11.6538 180.104 11.6687C180.067 11.6835 180.037 11.6984 180.014 11.7058C179.992 11.7133 179.977 11.7207 179.962 11.7207C179.948 11.7133 179.933 11.7133 179.925 11.7058C179.91 11.6984 179.903 11.691 179.896 11.6761L179.524 11.2748C179.487 11.2228 179.442 11.1856 179.413 11.1485C179.375 11.1187 179.338 11.089 179.301 11.0742C179.271 11.0519 179.234 11.0444 179.204 11.0444C179.167 11.0444 179.13 11.0519 179.093 11.0667L178.989 11.1113L179.353 11.9288C179.361 11.9362 179.361 11.9511 179.361 11.9585C179.353 11.9734 179.346 11.9808 179.338 11.9957C179.331 12.0031 179.316 12.018 179.294 12.0328C179.271 12.0403 179.242 12.0551 179.212 12.07C179.182 12.0848 179.152 12.0997 179.123 12.1071C179.1 12.1146 179.086 12.1146 179.071 12.1146C179.056 12.1146 179.041 12.1146 179.034 12.1071C179.019 12.0997 179.011 12.0923 179.011 12.0774L178.142 10.1526C178.119 10.1006 178.112 10.0635 178.127 10.0337C178.134 10.004 178.157 9.98171 178.179 9.96685L178.617 9.77363C178.662 9.75133 178.699 9.73647 178.729 9.72161C178.759 9.71418 178.788 9.70674 178.811 9.69931C178.885 9.67702 178.959 9.66959 179.026 9.67702C179.093 9.68445 179.16 9.69931 179.219 9.72904C179.279 9.75877 179.331 9.80335 179.375 9.86281C179.427 9.91483 179.472 9.98914 179.509 10.0709C179.539 10.1452 179.561 10.2121 179.576 10.2715C179.583 10.3384 179.591 10.4053 179.583 10.4573C179.576 10.5168 179.561 10.5762 179.531 10.6283C179.509 10.6803 179.472 10.7249 179.427 10.7695C179.465 10.7769 179.494 10.7843 179.524 10.7918C179.561 10.8066 179.591 10.8215 179.628 10.8438C179.658 10.8661 179.695 10.8958 179.732 10.9255C179.762 10.9627 179.799 10.9998 179.844 11.0444L180.171 11.3937C180.208 11.4309 180.23 11.4606 180.237 11.4755C180.252 11.4903 180.26 11.5052 180.267 11.52ZM179.175 10.279C179.145 10.2047 179.1 10.1526 179.056 10.1155C179.011 10.0783 178.952 10.0635 178.885 10.0709C178.863 10.0709 178.848 10.0783 178.818 10.0858C178.796 10.0932 178.766 10.1006 178.729 10.1229L178.573 10.1898L178.84 10.7918L179.019 10.71C179.063 10.6877 179.108 10.6654 179.138 10.6357C179.167 10.5985 179.19 10.5688 179.197 10.5316C179.212 10.4945 179.219 10.4499 179.212 10.4053C179.204 10.3682 179.197 10.3236 179.175 10.279ZM181.761 10.0486C181.813 10.1824 181.843 10.3087 181.858 10.4202C181.865 10.5391 181.858 10.6506 181.828 10.7397C181.791 10.8363 181.739 10.9255 181.664 10.9998C181.597 11.0742 181.501 11.1336 181.382 11.1782C181.278 11.2228 181.174 11.2451 181.07 11.2451C180.973 11.2451 180.877 11.2228 180.795 11.1708C180.706 11.1262 180.624 11.0593 180.55 10.9701C180.483 10.8809 180.416 10.762 180.364 10.6283L179.836 9.31287C179.836 9.29801 179.829 9.29058 179.836 9.27571C179.836 9.26828 179.844 9.25342 179.851 9.24599C179.866 9.23112 179.881 9.22369 179.903 9.20883C179.925 9.19397 179.948 9.18653 179.985 9.17167C180.022 9.15681 180.044 9.14938 180.074 9.14195C180.096 9.13451 180.111 9.13451 180.126 9.13451C180.141 9.13451 180.156 9.14195 180.163 9.14195C180.178 9.14938 180.185 9.16424 180.185 9.17167L180.698 10.4499C180.728 10.5391 180.765 10.606 180.81 10.6654C180.854 10.7174 180.899 10.762 180.943 10.7918C180.995 10.8215 181.04 10.8363 181.092 10.8363C181.144 10.8438 181.204 10.8363 181.256 10.814C181.308 10.7918 181.352 10.762 181.389 10.7174C181.426 10.6803 181.449 10.6357 181.464 10.5837C181.479 10.5316 181.479 10.4722 181.471 10.4053C181.464 10.3384 181.449 10.2715 181.419 10.1898L180.899 8.88927C180.891 8.87441 180.891 8.86698 180.891 8.85211C180.899 8.84468 180.906 8.82982 180.914 8.82239C180.921 8.80752 180.943 8.80009 180.966 8.78523C180.981 8.7778 181.01 8.76294 181.047 8.74807C181.077 8.73321 181.107 8.72578 181.129 8.71835C181.152 8.71835 181.174 8.71091 181.189 8.71091C181.204 8.71091 181.218 8.71835 181.226 8.72578C181.233 8.73321 181.241 8.74064 181.248 8.74807L181.761 10.0486ZM184.042 10.1452C184.05 10.1749 184.05 10.1972 184.05 10.2195C184.05 10.2418 184.042 10.2641 184.035 10.279C184.028 10.2938 184.013 10.3087 183.998 10.3236C183.983 10.331 183.968 10.3384 183.953 10.3459L183.797 10.3904C183.76 10.3979 183.738 10.3979 183.708 10.3979C183.686 10.3979 183.656 10.3904 183.634 10.3756C183.604 10.3607 183.582 10.331 183.552 10.3013C183.522 10.2715 183.485 10.227 183.448 10.1749L182.712 9.25342C182.668 9.19397 182.623 9.13451 182.578 9.06763C182.534 9.00818 182.489 8.94129 182.452 8.88184H182.445C182.474 8.96359 182.497 9.04533 182.526 9.12708C182.549 9.20883 182.571 9.29801 182.601 9.37976L182.92 10.5539C182.928 10.5688 182.928 10.5837 182.928 10.5911C182.92 10.5985 182.913 10.6134 182.905 10.6208C182.891 10.6283 182.876 10.6431 182.861 10.6506C182.838 10.658 182.809 10.6654 182.779 10.6803C182.742 10.6877 182.72 10.6951 182.697 10.6951C182.675 10.6951 182.653 10.6951 182.645 10.6951C182.63 10.6877 182.616 10.6877 182.608 10.6803C182.601 10.6728 182.601 10.658 182.593 10.6506L182.036 8.62917C182.021 8.57715 182.021 8.53256 182.043 8.4954C182.058 8.46567 182.088 8.44338 182.125 8.42851L182.318 8.37649C182.355 8.36906 182.385 8.36163 182.407 8.36163C182.437 8.36163 182.459 8.36906 182.482 8.38393C182.504 8.39136 182.534 8.41365 182.556 8.44338C182.578 8.46567 182.608 8.50283 182.638 8.53999L183.217 9.26828C183.247 9.30544 183.284 9.35003 183.314 9.39462C183.351 9.43921 183.381 9.4838 183.411 9.52096C183.44 9.56554 183.478 9.61013 183.507 9.64729C183.537 9.69188 183.567 9.73647 183.597 9.77363C183.574 9.69188 183.544 9.61013 183.522 9.52096C183.492 9.43178 183.47 9.35003 183.448 9.26828L183.158 8.22043C183.151 8.20557 183.151 8.19814 183.158 8.18327C183.158 8.17584 183.165 8.16098 183.173 8.15355C183.188 8.13868 183.203 8.13125 183.225 8.12382C183.247 8.11639 183.27 8.10153 183.307 8.09409C183.336 8.08666 183.359 8.07923 183.381 8.07923C183.403 8.0718 183.426 8.07923 183.44 8.07923C183.448 8.08666 183.463 8.08666 183.47 8.09409C183.478 8.10153 183.478 8.11639 183.485 8.12382L184.042 10.1452ZM187.156 9.44664C187.164 9.47637 187.164 9.49866 187.164 9.52096C187.164 9.54325 187.164 9.55811 187.164 9.57298C187.164 9.59527 187.164 9.6027 187.156 9.61757C187.156 9.625 187.149 9.63986 187.141 9.65472C187.134 9.66959 187.112 9.69188 187.082 9.71418C187.06 9.73647 187.022 9.7662 186.985 9.78849C186.941 9.81079 186.896 9.84051 186.844 9.85538C186.785 9.87767 186.725 9.89253 186.666 9.89997C186.539 9.91483 186.421 9.89997 186.316 9.87024C186.205 9.83308 186.108 9.7662 186.027 9.67702C185.945 9.59527 185.878 9.47637 185.819 9.33517C185.767 9.19397 185.722 9.03047 185.7 8.83725C185.677 8.64403 185.677 8.46567 185.7 8.30961C185.722 8.14612 185.767 8.01235 185.826 7.90087C185.885 7.7894 185.967 7.70022 186.064 7.63334C186.16 7.56645 186.272 7.52186 186.398 7.507C186.45 7.49957 186.502 7.49957 186.554 7.507C186.599 7.51443 186.643 7.52186 186.688 7.5293C186.733 7.54416 186.77 7.55902 186.807 7.58132C186.837 7.59618 186.866 7.61847 186.881 7.62591C186.896 7.64077 186.904 7.65563 186.911 7.66306C186.918 7.67793 186.918 7.69279 186.926 7.70765C186.933 7.72252 186.933 7.74481 186.941 7.76711C186.948 7.7894 186.948 7.81169 186.956 7.84885C186.956 7.88601 186.963 7.91574 186.963 7.93803C186.963 7.96033 186.963 7.98262 186.956 7.99748C186.956 8.01235 186.948 8.02721 186.948 8.03464C186.941 8.04207 186.933 8.0495 186.926 8.0495C186.911 8.0495 186.889 8.04207 186.866 8.02721C186.844 8.00492 186.814 7.99005 186.777 7.96776C186.733 7.94546 186.695 7.92317 186.643 7.9083C186.591 7.89344 186.532 7.89344 186.465 7.90087C186.391 7.9083 186.331 7.93803 186.279 7.98262C186.227 8.02721 186.183 8.08666 186.153 8.16098C186.123 8.23529 186.101 8.32447 186.094 8.42851C186.086 8.52513 186.086 8.6366 186.101 8.76294C186.116 8.8967 186.146 9.01561 186.175 9.11222C186.212 9.20883 186.257 9.28314 186.302 9.3426C186.354 9.40205 186.406 9.44664 186.473 9.46893C186.532 9.49123 186.599 9.49866 186.673 9.49123C186.74 9.4838 186.8 9.46893 186.844 9.43921C186.889 9.41691 186.926 9.38719 186.956 9.36489C186.993 9.33517 187.015 9.30544 187.037 9.29058C187.052 9.26828 187.074 9.25342 187.082 9.25342C187.089 9.25342 187.104 9.25342 187.104 9.25342C187.112 9.26085 187.119 9.26828 187.127 9.28314C187.127 9.29801 187.134 9.3203 187.141 9.3426C187.149 9.36489 187.149 9.40205 187.156 9.44664ZM188.695 9.49866C188.695 9.53582 188.695 9.55811 188.695 9.58784C188.695 9.61013 188.695 9.625 188.687 9.63986C188.687 9.65472 188.68 9.66959 188.672 9.67702C188.665 9.68445 188.657 9.68445 188.65 9.68445L187.721 9.75877C187.691 9.75877 187.662 9.75133 187.639 9.72904C187.617 9.70674 187.602 9.66959 187.602 9.61757L187.446 7.59618C187.446 7.53673 187.453 7.49957 187.468 7.47727C187.491 7.44755 187.513 7.44012 187.55 7.43268L188.472 7.3658C188.479 7.3658 188.486 7.3658 188.494 7.37323C188.501 7.38066 188.509 7.3881 188.516 7.40296C188.516 7.41782 188.524 7.43268 188.531 7.46241C188.531 7.48471 188.538 7.51443 188.538 7.55159C188.538 7.58132 188.546 7.61104 188.538 7.63334C188.538 7.65563 188.538 7.67793 188.538 7.69279C188.531 7.70765 188.524 7.71508 188.524 7.72252C188.516 7.72995 188.509 7.73738 188.501 7.73738L187.84 7.7894L187.885 8.3542L188.434 8.30961C188.449 8.30961 188.457 8.30961 188.464 8.31704C188.472 8.32447 188.479 8.3319 188.479 8.34677C188.486 8.36163 188.494 8.37649 188.494 8.39879C188.501 8.42851 188.501 8.45081 188.509 8.48797C188.509 8.52513 188.509 8.54742 188.509 8.56971C188.509 8.59944 188.509 8.6143 188.501 8.62917C188.501 8.64403 188.494 8.65146 188.486 8.65889C188.479 8.66632 188.472 8.66632 188.464 8.67376L187.907 8.71091L187.959 9.36489L188.62 9.31287C188.635 9.31287 188.643 9.3203 188.65 9.32773C188.657 9.32773 188.665 9.3426 188.665 9.35746C188.672 9.37232 188.68 9.38719 188.68 9.40948C188.687 9.43178 188.687 9.4615 188.695 9.49866ZM190.716 9.55068C190.716 9.57298 190.716 9.6027 190.701 9.625C190.694 9.64729 190.686 9.66215 190.671 9.67702C190.656 9.69188 190.642 9.69931 190.627 9.70674C190.604 9.71418 190.59 9.71418 190.575 9.71418L190.411 9.70674C190.374 9.70674 190.344 9.70674 190.322 9.69188C190.3 9.68445 190.277 9.66959 190.255 9.64729C190.24 9.625 190.218 9.59527 190.203 9.55811C190.181 9.51352 190.166 9.46893 190.144 9.40948L189.713 8.30218C189.683 8.23529 189.661 8.16841 189.638 8.09409C189.609 8.01235 189.586 7.94546 189.571 7.87115H189.564C189.564 7.96033 189.564 8.04207 189.564 8.13125C189.564 8.213 189.564 8.30218 189.564 8.39136L189.527 9.61013C189.527 9.625 189.527 9.63986 189.519 9.64729C189.512 9.65472 189.505 9.66215 189.49 9.66959C189.475 9.67702 189.46 9.67702 189.438 9.68445C189.415 9.68445 189.386 9.68445 189.356 9.68445C189.319 9.68445 189.289 9.68445 189.267 9.67702C189.244 9.67702 189.23 9.66959 189.215 9.66215C189.207 9.65472 189.2 9.64729 189.192 9.63986C189.185 9.625 189.185 9.61757 189.185 9.6027L189.244 7.51443C189.244 7.45498 189.259 7.41039 189.289 7.3881C189.319 7.35837 189.349 7.34351 189.386 7.34351L189.586 7.35094C189.624 7.35094 189.653 7.35837 189.683 7.3658C189.705 7.37323 189.728 7.3881 189.75 7.40296C189.765 7.42525 189.787 7.44755 189.802 7.48471C189.817 7.51443 189.832 7.55159 189.846 7.60361L190.188 8.46567C190.203 8.51769 190.225 8.56971 190.24 8.62174C190.263 8.66632 190.277 8.71835 190.3 8.77037C190.315 8.82239 190.33 8.86698 190.352 8.919C190.367 8.96359 190.382 9.01561 190.396 9.0602C190.396 8.97845 190.396 8.88927 190.404 8.80009C190.404 8.71091 190.404 8.62174 190.404 8.53999L190.441 7.44755C190.441 7.43268 190.441 7.42525 190.448 7.41039C190.456 7.40296 190.463 7.39553 190.478 7.3881C190.493 7.38066 190.508 7.38066 190.53 7.37323C190.552 7.37323 190.582 7.37323 190.612 7.37323C190.649 7.37323 190.671 7.37323 190.694 7.38066C190.716 7.38066 190.738 7.3881 190.746 7.39553C190.761 7.40296 190.768 7.41039 190.768 7.42525C190.775 7.43268 190.775 7.44012 190.775 7.45498L190.716 9.55068ZM192.648 7.72252C192.648 7.75224 192.641 7.78197 192.641 7.81169C192.633 7.83399 192.633 7.85628 192.626 7.86372C192.618 7.87858 192.611 7.89344 192.604 7.90087C192.596 7.9083 192.589 7.9083 192.581 7.9083L192.113 7.87115L191.972 9.7439C191.972 9.75877 191.972 9.7662 191.964 9.78106C191.957 9.78849 191.942 9.79592 191.927 9.79592C191.912 9.80335 191.898 9.80335 191.868 9.81079C191.846 9.81079 191.816 9.81079 191.779 9.80335C191.742 9.80335 191.712 9.80335 191.689 9.79592C191.667 9.78849 191.645 9.78106 191.63 9.77363C191.615 9.7662 191.608 9.75877 191.6 9.75133C191.6 9.73647 191.593 9.72904 191.6 9.71418L191.742 7.84142L191.273 7.81169C191.266 7.81169 191.258 7.80426 191.251 7.79683C191.251 7.7894 191.244 7.77454 191.236 7.75967C191.236 7.74481 191.236 7.72995 191.236 7.70022C191.229 7.67793 191.236 7.6482 191.236 7.61104C191.236 7.57388 191.244 7.54416 191.244 7.52186C191.251 7.49957 191.258 7.47727 191.258 7.46241C191.266 7.44755 191.273 7.44012 191.281 7.43268C191.288 7.42525 191.296 7.42525 191.303 7.42525L192.611 7.52186C192.618 7.52186 192.626 7.5293 192.633 7.53673C192.641 7.54416 192.641 7.55159 192.648 7.56645C192.648 7.58132 192.656 7.60361 192.656 7.62591C192.656 7.65563 192.656 7.68536 192.648 7.72252ZM193.964 9.92226C193.956 9.95942 193.949 9.98914 193.941 10.0114C193.934 10.0337 193.926 10.0486 193.919 10.0635C193.912 10.0783 193.904 10.0858 193.897 10.0932C193.889 10.0932 193.882 10.1006 193.874 10.0932L192.96 9.92969C192.923 9.92226 192.901 9.9074 192.886 9.8851C192.871 9.85538 192.864 9.81822 192.871 9.7662L193.235 7.76711C193.25 7.71508 193.265 7.67793 193.287 7.65563C193.317 7.64077 193.339 7.63334 193.376 7.64077L194.283 7.80426C194.291 7.80426 194.298 7.81169 194.305 7.81913C194.313 7.82656 194.313 7.83399 194.32 7.84885C194.32 7.86372 194.32 7.88601 194.32 7.9083C194.313 7.9306 194.313 7.96033 194.305 7.99748C194.298 8.03464 194.291 8.05694 194.283 8.07923C194.276 8.10153 194.276 8.12382 194.268 8.13868C194.261 8.14612 194.253 8.16098 194.246 8.16098C194.231 8.16841 194.224 8.16841 194.216 8.16841L193.57 8.0495L193.466 8.60687L194.016 8.71091C194.023 8.71091 194.03 8.71835 194.038 8.72578C194.038 8.73321 194.045 8.74064 194.045 8.7555C194.053 8.77037 194.053 8.79266 194.045 8.81496C194.045 8.83725 194.045 8.86698 194.038 8.8967C194.03 8.93386 194.023 8.96359 194.016 8.98588C194.008 9.00818 194.001 9.02304 194.001 9.0379C193.993 9.04533 193.986 9.05277 193.971 9.0602C193.964 9.06763 193.956 9.06763 193.949 9.06763L193.399 8.96359L193.28 9.61013L193.941 9.72904C193.949 9.72904 193.956 9.73647 193.964 9.7439C193.964 9.75133 193.971 9.7662 193.971 9.78106C193.971 9.79592 193.971 9.81079 193.971 9.83308C193.971 9.86281 193.964 9.89253 193.964 9.92226ZM195.747 10.4499C195.747 10.4648 195.74 10.4722 195.732 10.4796C195.732 10.4871 195.717 10.4945 195.703 10.4945C195.688 10.5019 195.665 10.5019 195.643 10.4945C195.613 10.4945 195.576 10.4871 195.532 10.4722C195.487 10.4648 195.457 10.4573 195.435 10.4499C195.413 10.4425 195.398 10.435 195.383 10.4202C195.376 10.4127 195.368 10.4053 195.361 10.3904C195.361 10.383 195.353 10.3682 195.353 10.3533L195.309 9.80335C195.301 9.7439 195.294 9.69188 195.286 9.63986C195.279 9.58784 195.271 9.55068 195.249 9.51352C195.234 9.47637 195.212 9.45407 195.19 9.42434C195.16 9.40948 195.13 9.38719 195.093 9.37976L194.974 9.35746L194.774 10.2195C194.774 10.2344 194.766 10.2418 194.759 10.2492C194.751 10.2567 194.736 10.2641 194.722 10.2641C194.707 10.2715 194.692 10.2715 194.662 10.2715C194.64 10.2641 194.61 10.2641 194.573 10.2567C194.536 10.2418 194.506 10.2344 194.484 10.227C194.461 10.2195 194.447 10.2121 194.432 10.2047C194.424 10.1898 194.409 10.1824 194.409 10.1749C194.409 10.1601 194.409 10.1526 194.409 10.1378L194.885 8.07923C194.9 8.02721 194.915 7.99005 194.945 7.97519C194.967 7.95289 194.997 7.94546 195.026 7.95289L195.494 8.06437C195.539 8.0718 195.584 8.08666 195.613 8.09409C195.643 8.10153 195.665 8.11639 195.695 8.12382C195.762 8.15355 195.821 8.1907 195.873 8.23529C195.925 8.27988 195.963 8.3319 195.992 8.39136C196.022 8.45081 196.037 8.51769 196.044 8.59201C196.052 8.66632 196.044 8.74807 196.022 8.83725C196.007 8.919 195.977 8.98588 195.948 9.04533C195.918 9.10479 195.888 9.14938 195.844 9.19397C195.807 9.23856 195.755 9.26828 195.703 9.29801C195.651 9.3203 195.598 9.3426 195.532 9.35003C195.561 9.37232 195.576 9.39462 195.598 9.42434C195.613 9.45407 195.628 9.49123 195.643 9.52839C195.658 9.56554 195.665 9.61013 195.68 9.65472C195.688 9.69931 195.695 9.75877 195.695 9.81079L195.747 10.2938C195.755 10.3459 195.755 10.3756 195.755 10.3979C195.755 10.4202 195.755 10.4425 195.747 10.4499ZM195.628 8.80009C195.651 8.72578 195.651 8.65889 195.636 8.59944C195.621 8.53999 195.584 8.4954 195.524 8.45824C195.509 8.45081 195.487 8.44338 195.465 8.43595C195.442 8.42108 195.413 8.41365 195.368 8.40622L195.205 8.36906L195.056 9.00818L195.242 9.05277C195.294 9.06763 195.338 9.06763 195.383 9.0602C195.428 9.05277 195.465 9.0379 195.494 9.01561C195.532 8.99331 195.561 8.96359 195.576 8.92643C195.598 8.88927 195.621 8.85211 195.628 8.80009ZM199.329 9.51352C199.314 9.54325 199.307 9.57298 199.292 9.59527C199.285 9.61757 199.27 9.63243 199.262 9.64729C199.255 9.66215 199.24 9.66959 199.233 9.66959C199.225 9.67702 199.218 9.67702 199.203 9.66959L198.772 9.49866L198.081 11.2451C198.081 11.2599 198.073 11.2674 198.066 11.2748C198.051 11.2822 198.043 11.2822 198.029 11.2822C198.014 11.2822 197.991 11.2822 197.969 11.2748C197.939 11.2748 197.917 11.2599 197.88 11.2525C197.843 11.2376 197.821 11.2228 197.798 11.2079C197.776 11.2005 197.761 11.1856 197.746 11.1782C197.739 11.1633 197.731 11.1559 197.731 11.141C197.724 11.1336 197.731 11.1187 197.731 11.1113L198.422 9.36489L197.991 9.19397C197.984 9.18653 197.977 9.1791 197.977 9.17167C197.969 9.16424 197.969 9.14938 197.969 9.13451C197.969 9.11965 197.977 9.09736 197.984 9.07506C197.991 9.05277 197.999 9.02304 198.014 8.99331C198.021 8.95616 198.036 8.93386 198.051 8.91157C198.058 8.88184 198.073 8.86698 198.081 8.85955C198.088 8.84468 198.103 8.83725 198.11 8.82982C198.118 8.82982 198.125 8.82982 198.133 8.82982L199.351 9.31287C199.359 9.31287 199.366 9.3203 199.366 9.32773C199.374 9.3426 199.374 9.35003 199.374 9.36489C199.374 9.37976 199.366 9.40205 199.359 9.42434C199.351 9.45407 199.344 9.4838 199.329 9.51352ZM199.953 11.9288C199.939 11.9585 199.924 11.9882 199.916 12.0105C199.901 12.0254 199.887 12.0477 199.879 12.0551C199.872 12.07 199.857 12.07 199.849 12.0774C199.842 12.0774 199.834 12.0774 199.827 12.0774L198.98 11.691C198.95 11.6761 198.928 11.6612 198.92 11.6315C198.906 11.5944 198.913 11.5572 198.935 11.5126L199.775 9.66215C199.797 9.61013 199.82 9.58041 199.849 9.56554C199.879 9.55811 199.909 9.55811 199.939 9.57298L200.778 9.95199C200.786 9.95199 200.793 9.95942 200.801 9.96685C200.801 9.97428 200.801 9.98914 200.801 10.004C200.801 10.0189 200.793 10.0412 200.786 10.0635C200.778 10.0858 200.771 10.1155 200.756 10.1452C200.741 10.1749 200.726 10.2047 200.711 10.2195C200.704 10.2418 200.689 10.2567 200.682 10.2715C200.674 10.279 200.659 10.2864 200.652 10.2938C200.645 10.2938 200.637 10.2938 200.63 10.2938L200.028 10.0189L199.79 10.5316L200.295 10.762C200.31 10.7695 200.31 10.7769 200.318 10.7843C200.318 10.7918 200.318 10.8066 200.318 10.8215C200.318 10.8363 200.318 10.8512 200.31 10.8735C200.303 10.8958 200.288 10.9255 200.273 10.9552C200.258 10.985 200.251 11.0073 200.236 11.0296C200.221 11.0519 200.213 11.0667 200.206 11.0742C200.191 11.089 200.184 11.0964 200.176 11.0964C200.169 11.0964 200.154 11.0964 200.147 11.0964L199.641 10.8661L199.374 11.4606L199.976 11.7356C199.983 11.743 199.991 11.743 199.998 11.7579C199.998 11.7653 199.998 11.7802 199.998 11.795C199.998 11.8099 199.991 11.8247 199.983 11.847C199.976 11.8693 199.968 11.8991 199.953 11.9288ZM201.284 12.6422C201.269 12.6719 201.254 12.7017 201.239 12.724C201.224 12.7388 201.209 12.7537 201.202 12.7685C201.187 12.7834 201.172 12.7908 201.165 12.7908C201.157 12.7908 201.142 12.7908 201.135 12.7908L200.399 12.3598C200.377 12.345 200.362 12.3227 200.355 12.2929C200.347 12.2632 200.355 12.2186 200.384 12.174L201.44 10.3459C201.447 10.3384 201.455 10.3236 201.469 10.3236C201.477 10.3161 201.492 10.3161 201.507 10.3161C201.521 10.3161 201.536 10.3236 201.559 10.331C201.588 10.3459 201.611 10.3533 201.64 10.3756C201.678 10.3904 201.7 10.4127 201.722 10.4276C201.737 10.4425 201.752 10.4573 201.759 10.4648C201.774 10.4796 201.774 10.4871 201.774 10.5019C201.782 10.5168 201.774 10.5242 201.767 10.5316L200.83 12.1592L201.336 12.449C201.343 12.4564 201.351 12.4639 201.351 12.4713C201.351 12.4787 201.351 12.4936 201.351 12.5084C201.343 12.5233 201.343 12.5382 201.328 12.5679C201.321 12.5902 201.306 12.6125 201.284 12.6422ZM203.194 12.3821C203.164 12.4267 203.142 12.4639 203.119 12.4862C203.097 12.5084 203.067 12.5307 203.045 12.5382C203.023 12.5456 202.993 12.5456 202.971 12.5456C202.941 12.5382 202.911 12.5233 202.881 12.501C202.844 12.4787 202.822 12.4564 202.8 12.4341C202.785 12.4193 202.777 12.3895 202.777 12.3672C202.77 12.3375 202.777 12.3078 202.792 12.2781C202.807 12.2483 202.822 12.2112 202.852 12.1666C202.881 12.122 202.904 12.0923 202.926 12.0626C202.956 12.0403 202.978 12.018 203 12.0105C203.03 12.0031 203.052 11.9957 203.082 12.0031C203.104 12.0105 203.134 12.0254 203.171 12.0477C203.201 12.0626 203.231 12.0848 203.246 12.1071C203.26 12.1294 203.268 12.1517 203.275 12.1815C203.275 12.2112 203.268 12.2409 203.253 12.2706C203.246 12.3004 203.223 12.345 203.194 12.3821ZM202.562 13.3779C202.532 13.4151 202.51 13.4523 202.488 13.4745C202.465 13.5043 202.436 13.5191 202.413 13.5266C202.384 13.5414 202.361 13.5414 202.331 13.534C202.309 13.5266 202.279 13.5117 202.242 13.4894C202.213 13.4745 202.19 13.4523 202.168 13.43C202.153 13.4077 202.146 13.3854 202.146 13.3556C202.138 13.3259 202.146 13.2962 202.161 13.2665C202.175 13.2367 202.19 13.1996 202.22 13.155C202.25 13.1178 202.272 13.0807 202.294 13.0509C202.324 13.0287 202.346 13.0064 202.369 12.9989C202.398 12.9915 202.421 12.9841 202.45 12.9915C202.473 12.9989 202.502 13.0138 202.54 13.0361C202.569 13.0584 202.599 13.0807 202.614 13.0955C202.629 13.1178 202.636 13.1476 202.644 13.1699C202.644 13.1996 202.636 13.2293 202.621 13.259C202.606 13.2962 202.592 13.3333 202.562 13.3779ZM204.435 14.8345C204.412 14.8568 204.397 14.8791 204.383 14.9014C204.36 14.9163 204.345 14.9311 204.331 14.9386C204.323 14.9534 204.308 14.9534 204.301 14.9534C204.286 14.9534 204.279 14.9534 204.271 14.946L203.431 14.2846C203.416 14.2772 203.402 14.2623 203.394 14.2474C203.387 14.2326 203.379 14.2177 203.379 14.2028C203.387 14.188 203.394 14.1657 203.402 14.1434C203.416 14.1211 203.439 14.0914 203.461 14.0616C203.483 14.0245 203.506 14.0022 203.528 13.9799C203.55 13.9576 203.565 13.9427 203.587 13.9279C203.61 13.9204 203.632 13.9056 203.654 13.8981C203.677 13.8907 203.699 13.8833 203.729 13.8759L204.249 13.7347C204.353 13.7049 204.442 13.6752 204.516 13.6455C204.591 13.6157 204.65 13.586 204.702 13.5563C204.754 13.5266 204.799 13.4968 204.836 13.4597C204.873 13.43 204.903 13.3928 204.933 13.3631C204.955 13.3333 204.977 13.2962 204.985 13.2665C204.999 13.2293 205.007 13.1921 205.007 13.1624C205.014 13.1327 205.007 13.0955 204.992 13.0658C204.977 13.0361 204.955 13.0138 204.918 12.9841C204.881 12.9543 204.836 12.9246 204.784 12.9172C204.739 12.9023 204.702 12.8949 204.658 12.8949C204.62 12.8875 204.583 12.8875 204.554 12.8875C204.531 12.8875 204.509 12.8875 204.502 12.88C204.494 12.8726 204.487 12.8652 204.487 12.8577C204.487 12.8503 204.494 12.8354 204.502 12.8206C204.509 12.8057 204.516 12.7834 204.531 12.7611C204.546 12.7388 204.568 12.7091 204.591 12.6794C204.613 12.6571 204.628 12.6348 204.643 12.6199C204.65 12.6125 204.665 12.5976 204.672 12.5902C204.687 12.5828 204.695 12.5753 204.702 12.5679C204.717 12.5605 204.732 12.5605 204.747 12.553C204.769 12.553 204.799 12.553 204.836 12.553C204.873 12.553 204.918 12.5605 204.97 12.5753C205.014 12.5828 205.066 12.6051 205.126 12.6274C205.178 12.6496 205.222 12.6794 205.274 12.7165C205.349 12.776 205.408 12.8429 205.445 12.9097C205.482 12.9841 205.505 13.0509 205.505 13.1253C205.512 13.1996 205.497 13.2665 205.468 13.3408C205.445 13.4151 205.401 13.4894 205.349 13.5563C205.304 13.6157 205.252 13.6678 205.2 13.7198C205.141 13.7718 205.074 13.8164 204.992 13.861C204.91 13.9056 204.814 13.9502 204.702 13.9873C204.583 14.0245 204.442 14.0691 204.271 14.1062L203.929 14.188L204.502 14.6413C204.509 14.6487 204.516 14.6562 204.516 14.671C204.524 14.6785 204.516 14.6933 204.516 14.7082C204.509 14.7231 204.502 14.7379 204.487 14.7602C204.472 14.7825 204.457 14.8048 204.435 14.8345ZM206.352 15.1912C206.226 15.3324 206.107 15.4513 205.995 15.548C205.876 15.6446 205.765 15.7115 205.653 15.756C205.542 15.8006 205.438 15.8155 205.334 15.8006C205.23 15.7932 205.133 15.7412 205.037 15.6594C204.94 15.5777 204.881 15.4885 204.851 15.3919C204.828 15.2953 204.828 15.1912 204.858 15.0798C204.888 14.9757 204.947 14.8568 205.029 14.7305C205.111 14.6041 205.215 14.4778 205.334 14.3366C205.46 14.1954 205.579 14.0765 205.691 13.9799C205.809 13.8833 205.921 13.809 206.032 13.7644C206.144 13.7198 206.248 13.7049 206.352 13.7198C206.456 13.7347 206.553 13.7792 206.649 13.861C206.746 13.9427 206.805 14.0319 206.828 14.1285C206.857 14.2251 206.857 14.3292 206.828 14.4407C206.798 14.5521 206.738 14.6636 206.657 14.7899C206.575 14.9163 206.471 15.05 206.352 15.1912ZM206.047 14.9609C206.122 14.8791 206.181 14.7974 206.233 14.7379C206.285 14.6636 206.33 14.6041 206.359 14.5521C206.397 14.5001 206.419 14.4481 206.434 14.4109C206.456 14.3663 206.463 14.3292 206.463 14.2995C206.463 14.2623 206.456 14.2326 206.441 14.2103C206.434 14.1805 206.411 14.1583 206.389 14.136C206.345 14.0988 206.3 14.0839 206.248 14.0839C206.196 14.0839 206.144 14.1062 206.077 14.1434C206.018 14.1805 205.951 14.2326 205.876 14.3069C205.802 14.3738 205.728 14.4629 205.639 14.567C205.527 14.6859 205.445 14.7974 205.378 14.8865C205.319 14.9757 205.274 15.05 205.245 15.1095C205.222 15.1764 205.215 15.2284 205.222 15.273C205.237 15.3176 205.26 15.3547 205.297 15.3845C205.326 15.4068 205.356 15.4291 205.386 15.4365C205.416 15.4439 205.453 15.4365 205.49 15.4291C205.52 15.4216 205.564 15.4068 205.601 15.3845C205.646 15.3547 205.683 15.325 205.735 15.2879C205.78 15.2433 205.824 15.1987 205.876 15.1467C205.928 15.0872 205.988 15.0277 206.047 14.9609ZM207.608 16.3431C207.541 16.41 207.467 16.4769 207.385 16.5364C207.311 16.6032 207.229 16.6627 207.14 16.7147C207.058 16.7667 206.969 16.8113 206.88 16.841C206.79 16.8708 206.701 16.8931 206.612 16.8931C206.523 16.8931 206.434 16.8782 206.352 16.841C206.263 16.8113 206.181 16.7519 206.099 16.6627C206.07 16.633 206.047 16.6032 206.018 16.5661C205.995 16.5364 205.98 16.4992 205.966 16.4695C205.951 16.4397 205.936 16.41 205.928 16.3803C205.921 16.358 205.921 16.3357 205.921 16.3208C205.921 16.306 205.928 16.2837 205.943 16.2688C205.958 16.2465 205.98 16.2242 206.01 16.1945C206.04 16.1648 206.062 16.1425 206.084 16.1276C206.099 16.1128 206.114 16.0979 206.129 16.0979C206.144 16.0905 206.151 16.0905 206.159 16.0905C206.166 16.0905 206.174 16.0979 206.181 16.0979C206.188 16.1053 206.196 16.1202 206.203 16.1425C206.211 16.1648 206.226 16.1871 206.233 16.2168C206.248 16.2465 206.263 16.2837 206.285 16.3134C206.307 16.3506 206.33 16.3803 206.367 16.4174C206.419 16.4769 206.478 16.5141 206.545 16.5289C206.612 16.5438 206.679 16.5364 206.746 16.5215C206.813 16.5066 206.88 16.4769 206.954 16.4323C207.021 16.3877 207.088 16.3357 207.155 16.2762C207.095 16.2688 207.043 16.2465 206.976 16.2242C206.917 16.1945 206.857 16.1499 206.805 16.0905C206.731 16.0236 206.686 15.9493 206.664 15.8824C206.642 15.8081 206.634 15.7337 206.649 15.6594C206.664 15.5851 206.694 15.5108 206.746 15.4365C206.798 15.3622 206.857 15.2879 206.939 15.2135C207.021 15.1318 207.11 15.0649 207.199 15.0203C207.288 14.9757 207.378 14.946 207.467 14.9386C207.556 14.9237 207.645 14.9386 207.727 14.9683C207.816 14.998 207.89 15.05 207.965 15.1318C208.024 15.1912 208.069 15.2581 208.098 15.3176C208.121 15.3845 208.136 15.4513 208.136 15.5108C208.128 15.5777 208.113 15.6446 208.091 15.7189C208.061 15.7858 208.024 15.8527 207.979 15.9195C207.935 15.9938 207.875 16.0607 207.816 16.135C207.749 16.2019 207.682 16.2762 207.608 16.3431ZM207.4 16.031C207.489 15.9418 207.563 15.8601 207.615 15.7932C207.675 15.7263 207.712 15.6669 207.727 15.6148C207.749 15.5628 207.757 15.5182 207.749 15.4811C207.742 15.4365 207.719 15.3993 207.69 15.3696C207.66 15.3324 207.623 15.3176 207.586 15.3027C207.548 15.2953 207.511 15.2953 207.474 15.3027C207.43 15.3101 207.392 15.3324 207.348 15.3547C207.303 15.3845 207.259 15.4142 207.221 15.4588C207.177 15.5034 207.14 15.5405 207.11 15.5851C207.08 15.6223 207.058 15.6594 207.051 15.6966C207.043 15.7337 207.043 15.7635 207.051 15.8006C207.065 15.8304 207.088 15.8675 207.117 15.8972C207.155 15.9418 207.199 15.9716 207.244 15.9938C207.296 16.0087 207.348 16.0236 207.4 16.031ZM208.269 18.0004C208.18 18.0747 208.091 18.1267 207.994 18.1639C207.905 18.1936 207.816 18.2085 207.727 18.1936C207.645 18.1862 207.556 18.1639 207.474 18.1193C207.392 18.0673 207.318 18.0078 207.251 17.9261C207.214 17.8815 207.177 17.8369 207.147 17.7849C207.125 17.7328 207.103 17.6882 207.088 17.6437C207.073 17.5991 207.065 17.5619 207.058 17.5322C207.051 17.495 207.051 17.4727 207.051 17.4653C207.058 17.4504 207.058 17.4356 207.065 17.4281C207.073 17.4133 207.08 17.4058 207.088 17.391C207.103 17.3761 207.117 17.3613 207.132 17.3464C207.147 17.3241 207.169 17.3092 207.199 17.2869C207.244 17.2498 207.273 17.2275 207.296 17.2126C207.318 17.2052 207.333 17.2126 207.34 17.2201C207.348 17.2275 207.355 17.2424 207.355 17.2721C207.363 17.3018 207.37 17.339 207.378 17.3761C207.385 17.4133 207.4 17.4579 207.422 17.5025C207.437 17.5545 207.474 17.5991 207.511 17.6437C207.548 17.6882 207.578 17.718 207.623 17.7403C207.66 17.7551 207.697 17.77 207.734 17.77C207.779 17.7774 207.816 17.77 207.853 17.7551C207.89 17.7403 207.935 17.718 207.972 17.6808C208.009 17.6437 208.039 17.6065 208.061 17.5693C208.084 17.5248 208.098 17.4876 208.098 17.443C208.098 17.3984 208.091 17.3464 208.069 17.3018C208.046 17.2498 208.017 17.1978 207.972 17.1457L207.868 17.0268C207.861 17.0194 207.853 17.012 207.853 16.9971C207.853 16.9897 207.853 16.9822 207.861 16.9674C207.861 16.9525 207.875 16.9377 207.89 16.9228C207.905 16.9005 207.927 16.8856 207.957 16.8633C207.987 16.8336 208.009 16.8188 208.024 16.8039C208.046 16.7965 208.061 16.789 208.069 16.7816C208.084 16.7742 208.091 16.7742 208.106 16.7816C208.113 16.7816 208.121 16.789 208.128 16.7965L208.232 16.9228C208.269 16.96 208.306 16.9971 208.344 17.012C208.388 17.0343 208.425 17.0491 208.47 17.0491C208.515 17.0566 208.552 17.0491 208.596 17.0343C208.641 17.012 208.678 16.9897 208.715 16.9525C208.745 16.9302 208.775 16.9005 208.797 16.8708C208.812 16.841 208.827 16.8039 208.834 16.7742C208.842 16.7444 208.842 16.7073 208.827 16.6776C208.819 16.6404 208.797 16.6032 208.767 16.5735C208.737 16.5364 208.7 16.5066 208.656 16.4843C208.619 16.462 208.574 16.4472 208.537 16.4397C208.492 16.4249 208.463 16.4174 208.433 16.41C208.396 16.4026 208.381 16.3952 208.373 16.3877C208.366 16.3803 208.366 16.3729 208.366 16.3654C208.366 16.3654 208.366 16.3506 208.373 16.3431C208.381 16.3283 208.396 16.3208 208.411 16.2985C208.425 16.2837 208.448 16.2614 208.47 16.2391C208.5 16.2242 208.515 16.2094 208.529 16.1945C208.544 16.1796 208.559 16.1722 208.574 16.1648C208.581 16.1573 208.596 16.1573 208.604 16.1499C208.619 16.1499 208.626 16.1499 208.641 16.1499C208.656 16.1425 208.685 16.1499 208.723 16.1573C208.76 16.1648 208.797 16.1796 208.842 16.2019C208.886 16.2168 208.938 16.2465 208.983 16.2837C209.035 16.3134 209.079 16.358 209.124 16.41C209.183 16.4769 209.228 16.5512 209.25 16.6181C209.28 16.685 209.287 16.7593 209.28 16.8262C209.273 16.8931 209.25 16.96 209.213 17.0268C209.169 17.0937 209.117 17.1532 209.05 17.2126C208.998 17.2572 208.938 17.3018 208.886 17.3241C208.827 17.3538 208.775 17.3761 208.715 17.3836C208.663 17.3984 208.611 17.3984 208.559 17.391C208.507 17.3761 208.455 17.3613 208.403 17.3315C208.44 17.391 208.463 17.443 208.47 17.5025C208.477 17.5619 208.477 17.6214 208.463 17.6808C208.455 17.7403 208.425 17.7997 208.396 17.8517C208.358 17.9038 208.321 17.9558 208.269 18.0004Z" fill="#2E2E2E"/>
<path d="M13.6039 34.1389C12.7884 34.1389 12.0985 34.0322 11.5345 33.8188C10.9781 33.6054 10.555 33.289 10.2654 32.8698C9.98335 32.4506 9.84233 31.9284 9.84233 31.3034C9.84233 31.1205 9.85377 30.9299 9.87663 30.7317C9.8995 30.5259 9.92618 30.3316 9.95667 30.1486C9.99478 29.9581 10.0291 29.7904 10.0596 29.6456C10.0901 29.5007 10.1129 29.394 10.1282 29.3254L11.6145 29.6113C11.5917 29.7332 11.5612 29.8895 11.523 30.08C11.4849 30.2706 11.4506 30.4726 11.4201 30.686C11.3897 30.8918 11.3744 31.09 11.3744 31.2806C11.3744 31.5778 11.4201 31.8255 11.5116 32.0237C11.6107 32.2219 11.7555 32.382 11.9461 32.5039C12.1366 32.6183 12.3767 32.6983 12.6664 32.744C12.956 32.7898 13.2952 32.8126 13.684 32.8126H16.7367V28.3993H18.2688V34.1389H13.6039ZM12.2891 28.1592V26.8558H13.764V28.1592H12.2891ZM14.37 28.1592V26.8558H15.8449V28.1592H14.37ZM21.5146 34.1389V32.8126H22.818V34.1389H21.5146ZM19.994 34.1389V26.0555H21.5146V34.1389H19.994ZM22.818 34.1389V32.8126C22.8638 32.8126 22.8981 32.8279 22.9209 32.8584C22.9514 32.8889 22.9743 32.9346 22.9896 32.9956C23.0124 33.0565 23.0277 33.129 23.0353 33.2128C23.0429 33.289 23.0467 33.3767 23.0467 33.4758C23.0467 33.5749 23.0429 33.6663 23.0353 33.7502C23.0277 33.834 23.0124 33.9064 22.9896 33.9674C22.9743 34.0208 22.9514 34.0627 22.9209 34.0932C22.8981 34.1237 22.8638 34.1389 22.818 34.1389ZM26.1556 34.1389V32.8126H27.5848V34.1389H26.1556ZM27.5848 34.1389V32.8126C27.6229 32.8126 27.6572 32.8279 27.6877 32.8584C27.7182 32.8889 27.7411 32.9346 27.7563 32.9956C27.7716 33.0565 27.783 33.129 27.7906 33.2128C27.8059 33.289 27.8135 33.3767 27.8135 33.4758C27.8135 33.5749 27.8059 33.6663 27.7906 33.7502C27.783 33.834 27.7716 33.9064 27.7563 33.9674C27.7411 34.0208 27.7182 34.0627 27.6877 34.0932C27.6648 34.1237 27.6305 34.1389 27.5848 34.1389ZM22.8171 34.1389C22.7713 34.1389 22.737 34.1237 22.7142 34.0932C22.6837 34.0627 22.6608 34.0208 22.6456 33.9674C22.6227 33.9064 22.6075 33.834 22.5998 33.7502C22.5922 33.6663 22.5884 33.5749 22.5884 33.4758C22.5884 33.3386 22.596 33.2242 22.6113 33.1328C22.6265 33.0337 22.6532 32.9575 22.6913 32.9041C22.7218 32.8431 22.7637 32.8126 22.8171 32.8126V34.1389ZM22.8171 34.1389V32.8126H25.5268L24.635 33.5558V28.3993H26.1556V34.1389H22.8171ZM23.2287 36.5742V35.2708H24.7036V36.5742H23.2287ZM25.3096 36.5742V35.2708H26.7845V36.5742H25.3096ZM33.5073 34.1389V32.8126H34.7192V34.1389H33.5073ZM27.5847 34.1389C27.539 34.1389 27.5047 34.1237 27.4818 34.0932C27.4513 34.0627 27.4285 34.0208 27.4132 33.9674C27.3904 33.9064 27.3751 33.834 27.3675 33.7502C27.3599 33.6663 27.3561 33.5749 27.3561 33.4758C27.3561 33.3386 27.3637 33.2242 27.3789 33.1328C27.3942 33.0337 27.4208 32.9575 27.459 32.9041C27.4894 32.8431 27.5314 32.8126 27.5847 32.8126V34.1389ZM27.5847 34.1389V32.8126H32.5011L31.9866 33.2357V31.1205C31.9866 30.6631 31.8418 30.3163 31.5521 30.08C31.2701 29.8437 30.8204 29.7256 30.203 29.7256C30.0277 29.7256 29.7876 29.7408 29.4827 29.7713C29.1778 29.7942 28.8462 29.8323 28.488 29.8857L28.3393 28.6737C28.6671 28.5975 28.9987 28.5327 29.334 28.4794C29.677 28.426 30.0124 28.3993 30.3402 28.3993C30.9652 28.3993 31.514 28.5098 31.9866 28.7309C32.4592 28.9443 32.8289 29.253 33.0956 29.657C33.3701 30.061 33.5073 30.5488 33.5073 31.1205V34.1389H27.5847ZM34.7192 34.1389V32.8126C34.7573 32.8126 34.7916 32.8279 34.8221 32.8584C34.8526 32.8889 34.8755 32.9346 34.8907 32.9956C34.9059 33.0565 34.9174 33.129 34.925 33.2128C34.9402 33.289 34.9479 33.3767 34.9479 33.4758C34.9479 33.5749 34.9402 33.6663 34.925 33.7502C34.9174 33.834 34.9059 33.9064 34.8907 33.9674C34.8755 34.0208 34.8526 34.0627 34.8221 34.0932C34.7916 34.1237 34.7573 34.1389 34.7192 34.1389ZM29.7914 36.5742V35.2708H31.3235V36.5742H29.7914ZM34.7195 34.1389V32.8126H40.6534L39.956 33.4072V31.3034C39.956 30.8918 39.9103 30.5717 39.8188 30.343C39.7273 30.1067 39.5673 29.9428 39.3386 29.8514C39.1175 29.7523 38.8088 29.7027 38.4125 29.7027C38.1 29.7027 37.7913 29.7256 37.4864 29.7713C37.1891 29.8094 36.9566 29.8628 36.7889 29.9314L37.7379 29.0396C37.6922 29.2149 37.6464 29.436 37.6007 29.7027C37.5626 29.9695 37.5283 30.2554 37.4978 30.5602C37.4673 30.8575 37.4521 31.151 37.4521 31.4406C37.4521 31.7074 37.4635 31.9856 37.4864 32.2753C37.5169 32.5649 37.5473 32.8203 37.5778 33.0413C37.6159 33.2624 37.6464 33.4148 37.6693 33.4986L36.2172 33.8988C36.1868 33.7921 36.1486 33.6168 36.1029 33.3729C36.0572 33.129 36.0153 32.8393 35.9771 32.5039C35.9467 32.1686 35.9314 31.8141 35.9314 31.4406C35.9314 31.0595 35.9505 30.6936 35.9886 30.343C36.0267 29.9848 36.0686 29.6646 36.1143 29.3826C36.1677 29.093 36.2172 28.8605 36.263 28.6852C36.4459 28.6166 36.7318 28.548 37.1205 28.4794C37.5092 28.4108 37.9399 28.3765 38.4125 28.3765C39.0985 28.3765 39.6663 28.4717 40.1161 28.6623C40.5734 28.8529 40.9126 29.1616 41.1336 29.5884C41.3623 30.0153 41.4766 30.5907 41.4766 31.3149V34.1389H34.7195ZM34.7195 34.1389C34.6737 34.1389 34.6394 34.1237 34.6166 34.0932C34.5861 34.0627 34.5632 34.0208 34.548 33.9674C34.5251 33.9064 34.5099 33.834 34.5022 33.7502C34.4946 33.6663 34.4908 33.5749 34.4908 33.4758C34.4908 33.3386 34.4984 33.2242 34.5137 33.1328C34.5289 33.0337 34.5556 32.9575 34.5937 32.9041C34.6242 32.8431 34.6661 32.8126 34.7195 32.8126V34.1389ZM47.6065 34.1389V28.3993H49.1386V33.5558L48.2468 32.8126H50.3391V34.1389H47.6065ZM45.2055 30.8689V29.5312H47.6065V30.8689H45.2055ZM42.713 36.9744C42.6139 36.9744 42.5072 36.9706 42.3928 36.963C42.2785 36.9554 42.1604 36.9439 42.0384 36.9287L42.0956 35.6253C42.2175 35.6329 42.3319 35.6405 42.4386 35.6481C42.5529 35.6558 42.6367 35.6596 42.6901 35.6596C42.9874 35.6596 43.2237 35.5414 43.399 35.3051C43.5819 35.0688 43.6734 34.7373 43.6734 34.3104V28.3993H45.2055V34.3104C45.2055 34.8287 45.0987 35.2899 44.8853 35.6939C44.6795 36.0978 44.3899 36.4104 44.0164 36.6314C43.6429 36.8601 43.2084 36.9744 42.713 36.9744ZM50.3391 34.1389V32.8126C50.3848 32.8126 50.4229 32.8279 50.4534 32.8584C50.4839 32.8889 50.5068 32.9346 50.522 32.9956C50.5373 33.0565 50.5487 33.129 50.5563 33.2128C50.5639 33.289 50.5677 33.3767 50.5677 33.4758C50.5677 33.5749 50.5639 33.6663 50.5563 33.7502C50.5487 33.834 50.5373 33.9064 50.522 33.9674C50.5068 34.0208 50.4839 34.0627 50.4534 34.0932C50.4229 34.1237 50.3848 34.1389 50.3391 34.1389ZM47.6065 36.5742V35.2708H49.1386V36.5742H47.6065ZM53.164 34.1389V32.8126H54.3645V34.1389H53.164ZM50.34 34.1389C50.2942 34.1389 50.2599 34.1237 50.2371 34.0932C50.2066 34.0627 50.1837 34.0208 50.1685 33.9674C50.1456 33.9064 50.1304 33.834 50.1227 33.7502C50.1151 33.6663 50.1113 33.5749 50.1113 33.4758C50.1113 33.3386 50.1189 33.2242 50.1342 33.1328C50.1494 33.0337 50.1761 32.9575 50.2142 32.9041C50.2447 32.8431 50.2866 32.8126 50.34 32.8126V34.1389ZM51.632 34.1389V26.0555H53.164V34.1389H51.632ZM50.34 34.1389V32.8126H51.632V34.1389H50.34ZM54.3645 34.1389V32.8126C54.4103 32.8126 54.4484 32.8279 54.4789 32.8584C54.5094 32.8889 54.5322 32.9346 54.5475 32.9956C54.5627 33.0565 54.5742 33.129 54.5818 33.2128C54.5894 33.289 54.5932 33.3767 54.5932 33.4758C54.5932 33.5749 54.5894 33.6663 54.5818 33.7502C54.5742 33.834 54.5627 33.9064 54.5475 33.9674C54.5322 34.0208 54.5094 34.0627 54.4789 34.0932C54.4484 34.1237 54.4103 34.1389 54.3645 34.1389ZM55.6515 34.1389V26.0555H57.1836V34.1389H55.6515ZM54.3595 34.1389V32.8126H55.6515V34.1389H54.3595ZM54.3595 34.1389C54.3138 34.1389 54.2795 34.1237 54.2566 34.0932C54.2262 34.0627 54.2033 34.0208 54.188 33.9674C54.1652 33.9064 54.1499 33.834 54.1423 33.7502C54.1347 33.6663 54.1309 33.5749 54.1309 33.4758C54.1309 33.3386 54.1385 33.2242 54.1537 33.1328C54.169 33.0337 54.1957 32.9575 54.2338 32.9041C54.2643 32.8431 54.3062 32.8126 54.3595 32.8126V34.1389ZM64.4228 36.9744C63.9273 36.9744 63.4662 36.902 63.0393 36.7572C62.6201 36.62 62.2542 36.4256 61.9417 36.1741C61.6292 35.9302 61.3815 35.6367 61.1985 35.2937C61.0232 34.9583 60.9356 34.5924 60.9356 34.1961C60.9356 34.0513 60.947 33.8645 60.9699 33.6358C60.9927 33.4072 61.0232 33.1442 61.0613 32.8469C61.1071 32.5497 61.1566 32.2333 61.21 31.898L62.7192 32.1038C62.643 32.584 62.582 33.0108 62.5362 33.3843C62.4905 33.7578 62.4676 34.0208 62.4676 34.1732C62.4676 34.4629 62.5477 34.7182 62.7077 34.9393C62.8678 35.1603 63.0927 35.3318 63.3823 35.4538C63.6796 35.5833 64.0264 35.6481 64.4228 35.6481H67.6584C68.1539 35.6481 68.5236 35.5224 68.7675 35.2708C69.0114 35.0193 69.1333 34.6534 69.1333 34.1732V33.7387H70.654V34.1732C70.654 34.722 70.532 35.206 70.2881 35.6253C70.0442 36.0445 69.6974 36.3723 69.2477 36.6085C68.8056 36.8525 68.2758 36.9744 67.6584 36.9744H64.4228ZM68.6303 34.1389C68.2797 34.1389 67.9405 34.1008 67.6127 34.0246C67.2926 33.9484 66.9877 33.8112 66.698 33.613L67.567 32.5154C67.6889 32.5992 67.7956 32.664 67.8871 32.7097C67.9862 32.7478 68.0929 32.7745 68.2072 32.7898C68.3292 32.805 68.4702 32.8126 68.6303 32.8126H71.1571V34.1389H68.6303ZM71.1571 34.1389V32.8126C71.1952 32.8126 71.2295 32.8279 71.26 32.8584C71.2905 32.8889 71.3133 32.9346 71.3286 32.9956C71.3438 33.0565 71.3552 33.129 71.3629 33.2128C71.3781 33.289 71.3857 33.3767 71.3857 33.4758C71.3857 33.5749 71.3781 33.6663 71.3629 33.7502C71.3552 33.834 71.3438 33.9064 71.3286 33.9674C71.3133 34.0208 71.2905 34.0627 71.26 34.0932C71.2295 34.1237 71.1952 34.1389 71.1571 34.1389ZM64.034 39.3297V38.0263H65.5089V39.3297H64.034ZM66.1149 39.3297V38.0263H67.5898V39.3297H66.1149ZM71.1524 34.1389V32.8126H79.0872L78.0239 33.6701V31.715C78.0239 31.0595 77.9363 30.5336 77.761 30.1372C77.5933 29.7408 77.3227 29.455 76.9492 29.2797C76.5833 29.0968 76.1069 29.0053 75.52 29.0053C75.238 29.0053 74.9293 29.0167 74.5939 29.0396C74.2585 29.0548 73.9231 29.0777 73.5877 29.1082C73.26 29.1311 72.9627 29.1577 72.6959 29.1882L72.5359 28.1592C72.795 28.0906 73.0961 28.0182 73.4391 27.942C73.7821 27.8658 74.1404 27.801 74.5139 27.7476C74.895 27.6943 75.2647 27.6676 75.6229 27.6676C76.1183 27.6676 76.5986 27.7362 77.0635 27.8734C77.5361 28.003 77.9591 28.224 78.3326 28.5365C78.7061 28.8414 79.0034 29.253 79.2244 29.7713C79.4455 30.2897 79.556 30.9375 79.556 31.715V34.1389H71.1524ZM72.3301 32.8126V32.241C72.3301 31.8751 72.4215 31.5359 72.6045 31.2234C72.795 30.9032 73.0542 30.6517 73.3819 30.4688C73.7097 30.2782 74.0756 30.1829 74.4796 30.1829C74.8835 30.1829 75.2456 30.2782 75.5657 30.4688C75.8859 30.6517 76.1374 30.8994 76.3203 31.212C76.5109 31.5245 76.6062 31.8675 76.6062 32.241V32.8126H75.3942V32.241C75.3942 32.0504 75.3523 31.8827 75.2685 31.7379C75.1846 31.5854 75.0741 31.4635 74.9369 31.372C74.7997 31.2806 74.6472 31.2348 74.4796 31.2348C74.3119 31.2348 74.1556 31.2806 74.0108 31.372C73.8736 31.4635 73.7631 31.5854 73.6792 31.7379C73.5954 31.8827 73.5534 32.0504 73.5534 32.241V32.8126H72.3301ZM71.1524 34.1389C71.1067 34.1389 71.0724 34.1237 71.0495 34.0932C71.019 34.0627 70.9962 34.0208 70.9809 33.9674C70.9581 33.9064 70.9428 33.834 70.9352 33.7502C70.9276 33.6663 70.9238 33.5749 70.9238 33.4758C70.9238 33.3386 70.9314 33.2242 70.9466 33.1328C70.9619 33.0337 70.9885 32.9575 71.0267 32.9041C71.0571 32.8431 71.0991 32.8126 71.1524 32.8126V34.1389ZM82.8913 34.1389V32.8126H84.1947V34.1389H82.8913ZM81.3706 34.1389V26.0555H82.8913V34.1389H81.3706ZM84.1947 34.1389V32.8126C84.2404 32.8126 84.2747 32.8279 84.2976 32.8584C84.3281 32.8889 84.3509 32.9346 84.3662 32.9956C84.3891 33.0565 84.4043 33.129 84.4119 33.2128C84.4195 33.289 84.4234 33.3767 84.4234 33.4758C84.4234 33.5749 84.4195 33.6663 84.4119 33.7502C84.4043 33.834 84.3891 33.9064 84.3662 33.9674C84.3509 34.0208 84.3281 34.0627 84.2976 34.0932C84.2747 34.1237 84.2404 34.1389 84.1947 34.1389ZM86.9263 34.1389V32.8126H88.1268V34.1389H86.9263ZM84.1937 34.1389C84.148 34.1389 84.1137 34.1237 84.0908 34.0932C84.0603 34.0627 84.0374 34.0208 84.0222 33.9674C83.9993 33.9064 83.9841 33.834 83.9765 33.7502C83.9688 33.6663 83.965 33.5749 83.965 33.4758C83.965 33.3386 83.9727 33.2242 83.9879 33.1328C84.0031 33.0337 84.0298 32.9575 84.0679 32.9041C84.0984 32.8431 84.1403 32.8126 84.1937 32.8126V34.1389ZM84.1937 34.1389V32.8126H86.286L85.3942 33.5558V28.3993H86.9263V34.1389H84.1937ZM88.1268 34.1389V32.8126C88.1725 32.8126 88.2107 32.8279 88.2411 32.8584C88.2716 32.8889 88.2945 32.9346 88.3097 32.9956C88.325 33.0565 88.3364 33.129 88.344 33.2128C88.3517 33.289 88.3555 33.3767 88.3555 33.4758C88.3555 33.5749 88.3517 33.6663 88.344 33.7502C88.3364 33.834 88.325 33.9064 88.3097 33.9674C88.2945 34.0208 88.2716 34.0627 88.2411 34.0932C88.2107 34.1237 88.1725 34.1389 88.1268 34.1389ZM85.3942 36.5742V35.2708H86.9263V36.5742H85.3942ZM88.124 34.1389V32.8126H96.7676L95.4757 33.9331V31.5321C95.4757 31.0976 95.4185 30.7508 95.3042 30.4916C95.1898 30.2249 95.0221 30.0305 94.8011 29.9085C94.5877 29.7866 94.3285 29.7256 94.0236 29.7256C93.6959 29.7256 93.3833 29.7904 93.0861 29.92C92.7964 30.0496 92.5258 30.2172 92.2743 30.423C92.0228 30.6288 91.7903 30.8499 91.5769 31.0862C91.3634 31.3225 91.1729 31.5511 91.0052 31.7722C90.8375 31.9856 90.6927 32.1686 90.5707 32.321L90.2277 31.212C90.525 30.8537 90.7918 30.5259 91.0281 30.2287C91.2643 29.9314 91.4892 29.6684 91.7026 29.4398C91.9237 29.2111 92.1523 29.0205 92.3886 28.8681C92.6325 28.7156 92.8955 28.6013 93.1775 28.5251C93.4672 28.4412 93.8026 28.3993 94.1837 28.3993C94.6944 28.3993 95.1288 28.487 95.4871 28.6623C95.8453 28.83 96.135 29.0625 96.356 29.3597C96.5847 29.657 96.7486 29.9924 96.8477 30.3659C96.9544 30.7394 97.0077 31.1281 97.0077 31.5321V34.1389H88.124ZM89.5646 32.8126V28.3993H91.0967V32.8126H89.5646ZM88.124 34.1389C88.0782 34.1389 88.0439 34.1237 88.0211 34.0932C87.9906 34.0627 87.9677 34.0208 87.9525 33.9674C87.9296 33.9064 87.9143 33.834 87.9067 33.7502C87.8991 33.6663 87.8953 33.5749 87.8953 33.4758C87.8953 33.3386 87.9029 33.2242 87.9182 33.1328C87.9334 33.0337 87.9601 32.9575 87.9982 32.9041C88.0287 32.8431 88.0706 32.8126 88.124 32.8126V34.1389ZM100.583 36.9744C100.301 36.9744 100.004 36.9515 99.6912 36.9058C99.3863 36.8677 99.0586 36.8143 98.7079 36.7457L98.9366 35.5224C99.3177 35.5681 99.6417 35.6024 99.9084 35.6253C100.175 35.6481 100.4 35.6596 100.583 35.6596C101.132 35.6596 101.528 35.5605 101.772 35.3623C102.016 35.1641 102.138 34.8668 102.138 34.4705V29.4512L102.515 29.7256H101.086C100.774 29.7256 100.522 29.7637 100.331 29.8399C100.141 29.9085 99.9999 30.0572 99.9084 30.2858C99.8246 30.5069 99.7827 30.8461 99.7827 31.3034C99.7827 31.7379 99.8208 32.0657 99.897 32.2867C99.9809 32.5001 100.118 32.6411 100.309 32.7097C100.499 32.7783 100.758 32.8126 101.086 32.8126H102.138V34.1389H101.086C100.438 34.1389 99.9046 34.036 99.4854 33.8302C99.0662 33.6244 98.7537 33.3119 98.5479 32.8927C98.3497 32.4734 98.2506 31.9437 98.2506 31.3034C98.2506 30.6631 98.3497 30.1296 98.5479 29.7027C98.7537 29.2683 99.0662 28.9443 99.4854 28.7309C99.9046 28.5098 100.438 28.3993 101.086 28.3993H103.67V34.4705C103.67 34.9888 103.54 35.4347 103.281 35.8082C103.03 36.1893 102.672 36.479 102.207 36.6771C101.749 36.8753 101.208 36.9744 100.583 36.9744ZM110.893 36.9744C110.398 36.9744 109.937 36.902 109.51 36.7572C109.091 36.62 108.725 36.4256 108.412 36.1741C108.1 35.9302 107.852 35.6367 107.669 35.2937C107.494 34.9583 107.406 34.5924 107.406 34.1961C107.406 34.0513 107.418 33.8645 107.441 33.6358C107.463 33.4072 107.494 33.1442 107.532 32.8469C107.578 32.5497 107.627 32.2333 107.681 31.898L109.19 32.1038C109.114 32.584 109.053 33.0108 109.007 33.3843C108.961 33.7578 108.938 34.0208 108.938 34.1732C108.938 34.4629 109.018 34.7182 109.178 34.9393C109.339 35.1603 109.563 35.3318 109.853 35.4538C110.15 35.5833 110.497 35.6481 110.893 35.6481H114.129C114.625 35.6481 114.994 35.5224 115.238 35.2708C115.482 35.0269 115.604 34.6534 115.604 34.1503C115.604 33.8988 115.562 33.7044 115.478 33.5672C115.394 33.4224 115.246 33.3005 115.032 33.2014C114.819 33.0947 114.51 32.9803 114.106 32.8584C113.649 32.7135 113.249 32.5763 112.906 32.4468C112.563 32.3172 112.281 32.1762 112.06 32.0237C111.839 31.8637 111.671 31.6731 111.557 31.4521C111.45 31.231 111.397 30.9528 111.397 30.6174C111.397 30.1143 111.507 29.7027 111.728 29.3826C111.949 29.0548 112.266 28.8109 112.677 28.6509C113.089 28.4832 113.577 28.3993 114.141 28.3993C114.4 28.3993 114.708 28.4184 115.067 28.4565C115.425 28.4946 115.901 28.5556 116.496 28.6394L116.324 29.9085C115.776 29.8476 115.326 29.8018 114.975 29.7713C114.625 29.7408 114.327 29.7256 114.083 29.7256C113.801 29.7256 113.573 29.7561 113.397 29.8171C113.23 29.8704 113.108 29.9581 113.032 30.08C112.955 30.1944 112.917 30.3468 112.917 30.5374C112.917 30.6974 112.955 30.8308 113.032 30.9375C113.115 31.0366 113.234 31.1243 113.386 31.2005C113.538 31.2767 113.714 31.3453 113.912 31.4063C114.11 31.4597 114.327 31.5245 114.564 31.6007C114.983 31.7226 115.349 31.8598 115.661 32.0123C115.981 32.1571 116.248 32.3248 116.462 32.5154C116.683 32.7059 116.847 32.9384 116.953 33.2128C117.068 33.4796 117.125 33.7997 117.125 34.1732C117.125 34.722 117.003 35.206 116.759 35.6253C116.515 36.0445 116.168 36.3723 115.718 36.6085C115.276 36.8525 114.747 36.9744 114.129 36.9744H110.893ZM110.505 39.4212V38.1178H111.98V39.4212H110.505ZM112.586 39.4212V38.1178H114.061V39.4212H112.586ZM122.912 34.1389V32.8126H124.113V34.1389H122.912ZM118.27 34.1389V32.8126H122.421L121.38 33.7159V31.7951C121.38 31.2539 121.323 30.8346 121.209 30.5374C121.102 30.2401 120.919 30.0305 120.66 29.9085C120.408 29.7866 120.062 29.7256 119.619 29.7256H118.693V28.3993H119.619C120.321 28.3993 120.915 28.5137 121.403 28.7423C121.899 28.971 122.272 29.3369 122.524 29.8399C122.783 30.3354 122.912 30.9871 122.912 31.7951V34.1389H118.27ZM124.113 34.1389V32.8126C124.159 32.8126 124.197 32.8279 124.227 32.8584C124.258 32.8889 124.28 32.9346 124.296 32.9956C124.311 33.0565 124.322 33.129 124.33 33.2128C124.338 33.289 124.341 33.3767 124.341 33.4758C124.341 33.5749 124.338 33.6663 124.33 33.7502C124.322 33.834 124.311 33.9064 124.296 33.9674C124.28 34.0208 124.258 34.0627 124.227 34.0932C124.197 34.1237 124.159 34.1389 124.113 34.1389ZM126.843 34.1389V32.8126H128.043V34.1389H126.843ZM124.11 34.1389C124.065 34.1389 124.03 34.1237 124.007 34.0932C123.977 34.0627 123.954 34.0208 123.939 33.9674C123.916 33.9064 123.901 33.834 123.893 33.7502C123.885 33.6663 123.882 33.5749 123.882 33.4758C123.882 33.3386 123.889 33.2242 123.904 33.1328C123.92 33.0337 123.946 32.9575 123.985 32.9041C124.015 32.8431 124.057 32.8126 124.11 32.8126V34.1389ZM124.11 34.1389V32.8126H126.203L125.311 33.5558V28.3993H126.843V34.1389H124.11ZM128.043 34.1389V32.8126C128.089 32.8126 128.127 32.8279 128.158 32.8584C128.188 32.8889 128.211 32.9346 128.226 32.9956C128.242 33.0565 128.253 33.129 128.261 33.2128C128.268 33.289 128.272 33.3767 128.272 33.4758C128.272 33.5749 128.268 33.6663 128.261 33.7502C128.253 33.834 128.242 33.9064 128.226 33.9674C128.211 34.0208 128.188 34.0627 128.158 34.0932C128.127 34.1237 128.089 34.1389 128.043 34.1389ZM125.311 27.3474V26.044H126.843V27.3474H125.311ZM128.041 34.1389V32.8126H133.38L132.911 33.2128V29.394L133.3 29.7256H131.859C131.524 29.7256 131.261 29.7675 131.07 29.8514C130.88 29.9352 130.746 30.0915 130.67 30.3201C130.594 30.5412 130.556 30.8575 130.556 31.2691C130.556 31.7188 130.594 32.0542 130.67 32.2753C130.746 32.4887 130.88 32.6335 131.07 32.7097C131.261 32.7783 131.524 32.8126 131.859 32.8126V34.0017C131.211 34.0017 130.678 33.9102 130.259 33.7273C129.839 33.5444 129.527 33.2547 129.321 32.8584C129.123 32.4544 129.024 31.9246 129.024 31.2691C129.024 30.6441 129.123 30.1182 129.321 29.6913C129.527 29.2645 129.839 28.9443 130.259 28.7309C130.678 28.5098 131.211 28.3993 131.859 28.3993H134.443V34.1389H128.041ZM128.041 34.1389C127.995 34.1389 127.961 34.1237 127.938 34.0932C127.907 34.0627 127.884 34.0208 127.869 33.9674C127.846 33.9064 127.831 33.834 127.823 33.7502C127.816 33.6663 127.812 33.5749 127.812 33.4758C127.812 33.3386 127.819 33.2242 127.835 33.1328C127.85 33.0337 127.877 32.9575 127.915 32.9041C127.945 32.8431 127.987 32.8126 128.041 32.8126V34.1389ZM131.253 27.3474V26.044H132.785V27.3474H131.253ZM135.7 34.1389V32.8126H141.508L140.776 33.5672V26.0555H142.308V34.1389H135.7ZM137.289 32.8126V27.6561H138.81V32.8126H137.289ZM137.369 26.7072C137.224 26.5319 137.114 26.3642 137.037 26.2041C136.961 26.044 136.923 25.8725 136.923 25.6896C136.923 25.4304 136.992 25.198 137.129 24.9922C137.266 24.7787 137.445 24.6149 137.666 24.5005C137.887 24.3786 138.131 24.3176 138.398 24.3176C138.543 24.3176 138.691 24.3366 138.844 24.3747C138.996 24.4129 139.126 24.47 139.233 24.5463L138.844 25.2437C138.775 25.2056 138.707 25.1827 138.638 25.1751C138.577 25.1598 138.512 25.1522 138.444 25.1522C138.261 25.1522 138.12 25.2018 138.021 25.3009C137.922 25.3923 137.872 25.5181 137.872 25.6782C137.872 25.7696 137.891 25.8573 137.929 25.9411C137.967 26.025 138.024 26.1164 138.101 26.2155L137.369 26.7072ZM136.671 26.7986V25.964H139.438V26.7986H136.671ZM144.176 34.1389V26.0555H145.697V34.1389H144.176Z" fill="#2E2E2E"/>
</svg>
