<svg width="131" height="48" viewBox="0 0 131 48" fill="none" xmlns="http://www.w3.org/2000/svg">
<path fill-rule="evenodd" clip-rule="evenodd" d="M95.1757 34.7615C98.6004 32.257 105.2 15.302 106.586 9.31445C99.4275 10.2114 92.9798 18.2899 93.0148 26.5839C93.0206 28.9021 93.9176 33.4568 95.1757 34.7615Z" fill="#DB3022"/>
<path fill-rule="evenodd" clip-rule="evenodd" d="M113.034 42.269C118.841 42.2224 119.033 43.4106 121.421 39.0365C124.828 32.781 118.194 30.1018 117.681 26.7527C117.402 24.9588 118.538 23.3396 119.324 22.4717C120.093 21.6214 121.456 20.1711 122.335 19.4838C122.929 19.0237 125.265 17.2589 125.591 16.8104L121.869 16.7754C119.114 16.7813 119.004 16.3444 117.326 17.8122C116.202 18.8023 115.433 19.5129 114.507 20.5613C105.84 30.3697 121.473 31.9889 115.853 39.4791C115.27 40.2596 113.307 41.7507 113.034 42.269Z" fill="#2E2E2E"/>
<path fill-rule="evenodd" clip-rule="evenodd" d="M111.63 24.3762C112.405 21.6154 114.781 19.571 116.295 18.1149C119.441 15.0862 119.528 16.7636 125.341 16.2511C124.403 14.2708 121.077 11.7197 118.777 10.5373C115.824 9.0113 111.892 8.41138 107.972 8.92975C108.089 9.42483 109.411 10.712 109.9 11.4051C111.013 12.9777 110.517 13.5602 110.512 15.6803C110.5 17.8295 110.663 22.8677 111.63 24.3762Z" fill="#DB3022"/>
<path fill-rule="evenodd" clip-rule="evenodd" d="M100.534 36.6134C96.3987 42.6883 93.0088 39.182 91.8789 34.8078C92.8632 35.9203 93.7369 36.7124 95.2979 35.3786C97.6859 33.3343 100.214 28.0224 101.431 25.0577C102.485 22.495 103.545 19.8507 104.477 17.2122C104.621 16.8042 104.77 16.3947 104.919 15.9814C105.258 15.0436 105.604 14.0871 105.927 13.0885C106.01 12.835 106.1 12.578 106.189 12.3199C106.332 11.9079 106.476 11.4931 106.597 11.0849C106.651 10.908 106.694 10.742 106.734 10.585C106.877 10.0287 106.991 9.58397 107.477 9.15698C107.781 9.63951 108.164 10.0702 108.558 10.5138C108.935 10.9377 109.322 11.3733 109.661 11.877C110.219 12.7144 110.145 13.7637 110.067 14.8665C110.037 15.2825 110.007 15.7061 110.01 16.1288C110.105 24.9046 112.868 30.3314 114.68 33.8898C115.67 35.8342 116.376 37.2207 116.208 38.2909C115.712 38.3255 115.058 37.8386 114.127 37.1459C112.083 35.6239 108.703 33.1081 102.736 32.944L102.404 33.3459C102.389 33.3663 102.373 33.391 102.357 33.4158C102.341 33.4406 102.325 33.4653 102.31 33.4857C102.301 33.4986 102.234 33.617 102.171 33.7279C102.121 33.8172 102.073 33.9017 102.06 33.9225L100.534 36.6134ZM106.388 30.595C105.782 30.4499 105.137 30.2954 104.104 29.9154L106.516 23.4619C106.618 23.2452 106.625 23.2182 106.625 23.2188C106.624 23.2195 106.612 23.2656 106.772 23.0135L106.999 22.7339C107.458 25.3843 108.467 27.3466 109.455 29.2689C109.972 30.2741 110.483 31.2683 110.907 32.3442C108.348 31.0645 107.425 30.8435 106.388 30.595Z" fill="#2E2E2E"/>
<path d="M92.153 30.1831C92.2462 30.1598 92.3277 30.1482 92.4092 30.1598C92.485 30.1656 92.5549 30.1889 92.6131 30.2239C92.6713 30.2588 92.7238 30.2996 92.7645 30.3578C92.8053 30.4161 92.8344 30.4801 92.8519 30.55C92.8694 30.5966 92.8752 30.6432 92.8752 30.6898C92.8752 30.7306 92.8752 30.7714 92.8694 30.8063C92.8635 30.8413 92.8577 30.8762 92.8461 30.8995C92.8402 30.9286 92.8286 30.9461 92.817 30.9578C92.8111 30.9694 92.7937 30.9811 92.7704 30.9927C92.7529 31.0043 92.7238 31.016 92.6772 31.0276C92.648 31.0335 92.6247 31.0393 92.6073 31.0393C92.5898 31.0451 92.5723 31.0451 92.5607 31.0451C92.549 31.0451 92.5374 31.0451 92.5316 31.0393C92.5257 31.0393 92.5199 31.0335 92.5199 31.0218C92.5141 31.016 92.5199 30.9985 92.5316 30.9752C92.5374 30.9519 92.549 30.9228 92.5607 30.8937C92.5665 30.8587 92.5781 30.818 92.5781 30.7714C92.584 30.7306 92.5781 30.6782 92.5665 30.6258C92.5549 30.5908 92.5432 30.5617 92.5257 30.5384C92.5024 30.5151 92.485 30.4976 92.4617 30.4801C92.4325 30.4685 92.4092 30.4569 92.3801 30.4569C92.3452 30.4569 92.316 30.4569 92.2811 30.4685C92.2403 30.4801 92.2054 30.4976 92.1821 30.5209C92.1588 30.5442 92.1413 30.5733 92.1297 30.6083C92.1122 30.6432 92.1005 30.684 92.0889 30.7248C92.0831 30.7655 92.0714 30.8063 92.0598 30.8471C92.0481 30.8937 92.0365 30.9345 92.0132 30.9811C91.9957 31.0218 91.9724 31.0626 91.9433 31.1034C91.9142 31.1383 91.8734 31.1733 91.8268 31.2082C91.7744 31.2373 91.7161 31.2664 91.6404 31.2839C91.5589 31.3072 91.4832 31.3189 91.4133 31.3072C91.3375 31.3014 91.2793 31.2839 91.2211 31.2548C91.1686 31.2199 91.122 31.1791 91.0871 31.1325C91.0521 31.0801 91.023 31.0218 91.0055 30.9578C90.9997 30.9228 90.9939 30.8879 90.9881 30.8529C90.9881 30.818 90.9881 30.783 90.9881 30.7539C90.9939 30.719 90.9939 30.6957 91.0055 30.6665C91.0114 30.6432 91.0172 30.6199 91.023 30.6141C91.0347 30.6025 91.0405 30.5966 91.0463 30.5908C91.0521 30.585 91.058 30.585 91.0696 30.5792C91.0754 30.5733 91.0929 30.5675 91.1046 30.5617C91.122 30.5559 91.1395 30.55 91.1628 30.5442C91.1919 30.5384 91.2152 30.5326 91.2327 30.5267C91.2502 30.5267 91.2676 30.5209 91.2793 30.5209C91.2909 30.5209 91.3026 30.5209 91.3084 30.5267C91.3142 30.5267 91.3201 30.5326 91.3201 30.5442C91.3201 30.55 91.3201 30.5675 91.3142 30.585C91.3026 30.6083 91.2968 30.6316 91.2909 30.6607C91.2793 30.6898 91.2735 30.7248 91.2735 30.7597C91.2676 30.7947 91.2735 30.8354 91.2851 30.8762C91.2909 30.9053 91.3026 30.9345 91.3201 30.9519C91.3375 30.9752 91.355 30.9869 91.3783 30.9985C91.3958 31.0102 91.4191 31.016 91.4482 31.016C91.4715 31.016 91.5006 31.016 91.5239 31.0102C91.5647 30.9985 91.5938 30.9811 91.6171 30.9519C91.6404 30.9286 91.6637 30.8995 91.6754 30.8646C91.687 30.8296 91.6987 30.7947 91.7103 30.7481C91.722 30.7073 91.7336 30.6665 91.7394 30.6258C91.7511 30.5792 91.7686 30.5326 91.786 30.4918C91.8035 30.4452 91.8268 30.4044 91.8559 30.3695C91.8909 30.3287 91.9258 30.2938 91.9782 30.2588C92.0248 30.2297 92.0831 30.2064 92.153 30.1831ZM91.8384 29.2978L92.4675 29.1813C92.4791 29.1813 92.485 29.1813 92.4966 29.1871C92.5024 29.1871 92.5141 29.1929 92.5199 29.2046C92.5257 29.2162 92.5316 29.2279 92.5374 29.2512C92.5432 29.2687 92.549 29.292 92.5549 29.3153C92.5607 29.3444 92.5607 29.3735 92.5607 29.391C92.5607 29.4085 92.5607 29.4259 92.5607 29.4376C92.5549 29.4492 92.5549 29.455 92.549 29.4609C92.5374 29.4667 92.5316 29.4725 92.5199 29.4725L91.8909 29.589L90.9823 30.1598C90.9531 30.1773 90.924 30.1948 90.9065 30.2006C90.8891 30.2064 90.8774 30.2064 90.8658 30.2006C90.8541 30.1948 90.8425 30.1831 90.8366 30.1598C90.8308 30.1365 90.825 30.1074 90.8192 30.0666C90.8075 30.0317 90.8075 30.0025 90.8017 29.9851C90.8017 29.9618 90.8017 29.9443 90.8075 29.9327C90.8075 29.921 90.8133 29.9094 90.8192 29.9035C90.8308 29.8977 90.8366 29.8919 90.8483 29.8802L91.2618 29.6414C91.3026 29.6181 91.3434 29.5948 91.39 29.5715C91.4366 29.5482 91.4832 29.5249 91.5297 29.4958C91.4773 29.49 91.4249 29.4842 91.3725 29.4783C91.3259 29.4725 91.2793 29.4667 91.2327 29.4609L90.7667 29.3852C90.7493 29.3793 90.7376 29.3793 90.726 29.3735C90.7202 29.3735 90.7085 29.3619 90.7027 29.356C90.6969 29.3444 90.6852 29.3327 90.6794 29.3094C90.6794 29.292 90.6736 29.2687 90.6677 29.2337C90.6561 29.1929 90.6503 29.158 90.6503 29.1347C90.6503 29.1114 90.6503 29.0939 90.6619 29.0881C90.6677 29.0765 90.6852 29.0706 90.7027 29.0706C90.726 29.0706 90.7493 29.0765 90.79 29.0823L91.8384 29.2978ZM92.2229 27.399C92.2345 27.399 92.2403 27.399 92.2462 27.399C92.2578 27.399 92.2636 27.4107 92.2695 27.4165C92.2753 27.4281 92.2811 27.4456 92.2869 27.4689C92.2869 27.4864 92.2928 27.5155 92.2986 27.5563C92.3044 27.5854 92.3044 27.6087 92.3044 27.6262C92.3044 27.6495 92.3044 27.6611 92.2986 27.6728C92.2986 27.6844 92.2928 27.6961 92.2811 27.7019C92.2753 27.7019 92.2636 27.7077 92.2578 27.7135L91.8676 27.8941C91.821 27.9174 91.7802 27.9349 91.7511 27.9582C91.7161 27.9756 91.687 27.9931 91.6637 28.0164C91.6462 28.0397 91.6288 28.063 91.6171 28.0863C91.6113 28.1096 91.6055 28.1387 91.6113 28.1737L91.6229 28.261L92.316 28.1795C92.3277 28.1737 92.3335 28.1795 92.3393 28.1795C92.351 28.1853 92.3568 28.1911 92.3626 28.2028C92.3685 28.2144 92.3743 28.2261 92.3801 28.2436C92.3859 28.2669 92.3918 28.2902 92.3918 28.3193C92.3976 28.3426 92.3976 28.3659 92.3976 28.3892C92.3976 28.4066 92.3976 28.4241 92.3918 28.4358C92.3859 28.4474 92.3859 28.4532 92.3743 28.4591C92.3685 28.4649 92.3626 28.4707 92.351 28.4707L90.7085 28.6746C90.6677 28.6804 90.6328 28.6746 90.6153 28.6571C90.592 28.6454 90.5804 28.628 90.5804 28.5989L90.5338 28.2261C90.5279 28.1911 90.5279 28.1562 90.5221 28.1329C90.5221 28.1096 90.5221 28.0863 90.5221 28.063C90.5279 28.0048 90.5396 27.9523 90.5571 27.8999C90.5745 27.8533 90.6037 27.8067 90.6386 27.7718C90.6794 27.7368 90.7202 27.7019 90.7726 27.6786C90.8308 27.6553 90.8891 27.6378 90.9648 27.632C91.023 27.6262 91.0813 27.6203 91.1337 27.6262C91.1803 27.632 91.2269 27.6495 91.2735 27.6669C91.3142 27.6844 91.3492 27.7077 91.3841 27.7427C91.4191 27.7718 91.4482 27.8126 91.4715 27.8533C91.4773 27.83 91.4948 27.8067 91.5065 27.7834C91.5239 27.766 91.5472 27.7427 91.5705 27.7252C91.5938 27.7019 91.6229 27.6844 91.6579 27.6669C91.687 27.6436 91.7278 27.6262 91.7686 27.6087L92.1064 27.4398C92.1413 27.4223 92.1704 27.4165 92.1821 27.4107C92.1996 27.4048 92.2112 27.399 92.2229 27.399ZM91.0405 27.929C90.9764 27.9349 90.9298 27.9523 90.8891 27.9815C90.8541 28.0048 90.8308 28.0455 90.8192 28.0979C90.8133 28.1154 90.8133 28.1329 90.8133 28.1504C90.8133 28.1678 90.8133 28.197 90.8192 28.2261L90.8366 28.3601L91.3492 28.296L91.3317 28.1504C91.3259 28.1038 91.3142 28.0688 91.2968 28.0397C91.2793 28.0106 91.2618 27.9873 91.2327 27.9698C91.2094 27.9523 91.1803 27.9407 91.1453 27.9349C91.1162 27.9232 91.0754 27.9232 91.0405 27.929ZM92.1879 26.77C92.1996 26.77 92.2054 26.77 92.217 26.7758C92.2229 26.7816 92.2287 26.7874 92.2345 26.7991C92.2403 26.8107 92.2462 26.8282 92.252 26.8457C92.252 26.8632 92.2578 26.8865 92.2578 26.9156C92.2636 26.9447 92.2636 26.968 92.2578 26.9855C92.2578 27.003 92.2578 27.0204 92.252 27.0321C92.252 27.0437 92.2462 27.0554 92.2345 27.0612C92.2287 27.0612 92.2229 27.067 92.2112 27.067L90.493 27.201C90.4813 27.201 90.4755 27.1952 90.4639 27.1952C90.4581 27.1893 90.4522 27.1835 90.4464 27.1719C90.4406 27.1602 90.4348 27.1427 90.4289 27.1253C90.4289 27.1078 90.4231 27.0845 90.4231 27.0554C90.4173 27.0263 90.4173 27.003 90.4231 26.9855C90.4231 26.9622 90.4231 26.9505 90.4289 26.9389C90.4348 26.9272 90.4348 26.9156 90.4464 26.9098C90.4522 26.9039 90.4581 26.9039 90.4697 26.9039L92.1879 26.77ZM92.1005 25.145C92.1355 25.1391 92.1646 25.1333 92.1821 25.1333C92.1996 25.1275 92.217 25.1333 92.2287 25.1391C92.2345 25.1508 92.2403 25.1624 92.2462 25.1857C92.2462 25.209 92.2462 25.2381 92.2462 25.2731C92.2403 25.308 92.2403 25.3372 92.2403 25.3605C92.2403 25.3838 92.2345 25.4012 92.2287 25.4071C92.2229 25.4187 92.217 25.4304 92.2112 25.4304C92.2054 25.4362 92.1937 25.442 92.1821 25.442L91.8093 25.5294L91.7977 26.0769L92.153 26.1759C92.1646 26.1817 92.1763 26.1875 92.1821 26.1934C92.1937 26.1934 92.1996 26.205 92.2054 26.2167C92.2112 26.2283 92.2112 26.24 92.2112 26.2633C92.217 26.2807 92.217 26.3098 92.2112 26.339C92.2112 26.3739 92.2112 26.403 92.2054 26.4205C92.2054 26.438 92.1937 26.4555 92.1879 26.4613C92.1763 26.4671 92.1588 26.4671 92.1413 26.4671C92.118 26.4613 92.0947 26.4555 92.0598 26.4496L90.4522 25.9546C90.4406 25.9487 90.4231 25.9429 90.4173 25.9371C90.4056 25.9313 90.3998 25.9196 90.394 25.908C90.3882 25.8963 90.3882 25.873 90.3882 25.8497C90.3823 25.8264 90.3823 25.7973 90.3882 25.7623C90.3882 25.7158 90.3882 25.6808 90.3882 25.6575C90.394 25.6284 90.3998 25.6109 90.4056 25.5934C90.4115 25.5818 90.4173 25.5701 90.4289 25.5643C90.4348 25.5585 90.4522 25.5527 90.4697 25.5468L92.1005 25.145ZM90.7434 25.774L91.5123 26.0012L91.5239 25.5934L90.7434 25.774ZM92.351 22.5997C92.3859 22.5938 92.4151 22.5938 92.4325 22.5938C92.4558 22.5938 92.4675 22.5997 92.4791 22.6055C92.485 22.6171 92.4908 22.6346 92.4908 22.6521C92.4908 22.6754 92.485 22.7045 92.485 22.7395C92.4791 22.7802 92.4733 22.8094 92.4675 22.8268C92.4675 22.8501 92.4617 22.8676 92.4558 22.8734C92.45 22.8851 92.4442 22.8909 92.4325 22.8967C92.4267 22.9025 92.4151 22.9025 92.4034 22.9025L92.0307 22.955L91.9608 23.4966L92.3044 23.6306C92.316 23.6364 92.3277 23.6422 92.3335 23.6481C92.3452 23.6539 92.351 23.6655 92.351 23.6772C92.3568 23.683 92.3568 23.7005 92.3568 23.7238C92.3568 23.7413 92.3568 23.7704 92.351 23.7995C92.3452 23.8345 92.3452 23.8578 92.3393 23.8811C92.3335 23.8985 92.3219 23.9102 92.3102 23.916C92.2986 23.9218 92.2869 23.9218 92.2636 23.9218C92.2462 23.916 92.2229 23.9043 92.1879 23.8927L90.6386 23.252C90.6211 23.2462 90.6095 23.2345 90.5978 23.2287C90.592 23.2229 90.5862 23.2112 90.5804 23.1996C90.5745 23.1821 90.5745 23.1646 90.5804 23.1413C90.5804 23.118 90.5804 23.0889 90.5862 23.054C90.592 23.0074 90.5978 22.9724 90.6037 22.9491C90.6037 22.92 90.6095 22.9025 90.6211 22.8851C90.627 22.8734 90.6328 22.8618 90.6444 22.8618C90.6561 22.8559 90.6736 22.8501 90.691 22.8501L92.351 22.5997ZM90.9415 23.1006L91.687 23.3976L91.7336 22.9899L90.9415 23.1006ZM92.5956 21.4989C92.6247 21.5047 92.648 21.5105 92.6655 21.5163C92.683 21.5221 92.7005 21.528 92.7121 21.5338C92.7238 21.5396 92.7296 21.5513 92.7354 21.5571C92.7354 21.5629 92.7412 21.5687 92.7354 21.5746L92.5898 22.2269C92.584 22.2502 92.5665 22.2677 92.549 22.2793C92.5257 22.291 92.4966 22.291 92.4558 22.2852L90.8366 21.9124C90.8308 21.9066 90.8192 21.9066 90.8133 21.9007C90.8075 21.8891 90.8075 21.8833 90.8017 21.8716C90.8017 21.86 90.8017 21.8425 90.8017 21.825C90.8017 21.8017 90.8075 21.7784 90.8133 21.7551C90.8192 21.726 90.825 21.7027 90.8366 21.6852C90.8425 21.6678 90.8483 21.6503 90.8541 21.6445C90.8599 21.6328 90.8716 21.627 90.8774 21.6212C90.8891 21.6212 90.8949 21.6212 90.9065 21.6212L92.3335 21.9532L92.4384 21.5047C92.4384 21.4989 92.4442 21.493 92.45 21.4872C92.4558 21.4872 92.4675 21.4814 92.4791 21.4814C92.4908 21.4814 92.5083 21.4814 92.5257 21.4814C92.5432 21.4872 92.5665 21.493 92.5956 21.4989ZM92.9101 20.3864C92.9334 20.3922 92.9567 20.4039 92.9742 20.4097C92.9917 20.4155 93.0033 20.4213 93.015 20.4272C93.0208 20.433 93.0325 20.4388 93.0325 20.4505C93.0383 20.4563 93.0383 20.4621 93.0383 20.4679L92.8402 21.1727C92.8344 21.196 92.817 21.2135 92.7937 21.2251C92.7704 21.2368 92.7412 21.2368 92.7005 21.2251L91.1686 20.7883C91.1279 20.7766 91.1046 20.765 91.0929 20.7417C91.0754 20.7184 91.0754 20.7009 91.0813 20.6776L91.2793 19.9787C91.2793 19.967 91.2851 19.967 91.2909 19.9612C91.2968 19.9554 91.3026 19.9554 91.3142 19.9554C91.3317 19.9554 91.3434 19.9554 91.3608 19.9612C91.3841 19.9612 91.4016 19.967 91.4307 19.9728C91.454 19.9845 91.4773 19.9903 91.4948 19.9961C91.5123 20.002 91.5239 20.0078 91.5356 20.0136C91.5472 20.0253 91.553 20.0311 91.5589 20.0369C91.5589 20.0427 91.5589 20.0486 91.5589 20.0544L91.4191 20.5553L91.8443 20.6776L91.9666 20.2524C91.9666 20.2466 91.9724 20.2408 91.9782 20.2408C91.9841 20.2349 91.9899 20.2349 92.0015 20.2291C92.0132 20.2291 92.0307 20.2349 92.0481 20.2349C92.0656 20.2408 92.0889 20.2466 92.1122 20.2524C92.1413 20.2582 92.1588 20.2641 92.1763 20.2699C92.1937 20.2815 92.2054 20.2874 92.217 20.2932C92.2287 20.299 92.2345 20.3048 92.2345 20.3107C92.2403 20.3165 92.2403 20.3223 92.2345 20.334L92.118 20.7533L92.6131 20.8931L92.7529 20.3864C92.7587 20.3806 92.7587 20.3747 92.7704 20.3747C92.7762 20.3689 92.782 20.3689 92.7937 20.3689C92.8053 20.3689 92.8228 20.3689 92.8402 20.3689C92.8577 20.3747 92.881 20.3806 92.9101 20.3864ZM92.2869 18.7206C92.3859 18.7555 92.4675 18.7963 92.5316 18.8429C92.6014 18.8953 92.648 18.9536 92.683 19.0118C92.7238 19.0759 92.7412 19.1458 92.7471 19.2215C92.7471 19.303 92.7354 19.3846 92.7063 19.4778L92.6655 19.5884L93.2188 19.7806C93.2247 19.7806 93.2305 19.7865 93.2363 19.7923C93.2421 19.7981 93.248 19.8098 93.248 19.8214C93.248 19.8331 93.248 19.8505 93.2421 19.868C93.2421 19.8855 93.2363 19.9088 93.2247 19.9379C93.213 19.9612 93.2072 19.9845 93.1955 20.002C93.1897 20.0194 93.1781 20.0311 93.1722 20.0427C93.1664 20.0486 93.1548 20.0544 93.1489 20.0602C93.1373 20.0602 93.1315 20.0602 93.1198 20.0544L91.5647 19.5302C91.5239 19.5127 91.4948 19.4952 91.4832 19.4719C91.4657 19.4428 91.4657 19.4195 91.4715 19.3904L91.5822 19.0642C91.5938 19.0351 91.6055 19.0002 91.6171 18.9769C91.6346 18.9477 91.6521 18.9128 91.6754 18.8779C91.6987 18.8371 91.7336 18.8021 91.7744 18.7672C91.8151 18.7381 91.8617 18.7148 91.9142 18.6973C91.9666 18.6798 92.0248 18.674 92.0889 18.6798C92.1471 18.6856 92.217 18.6973 92.2869 18.7206ZM92.2112 19.0235C92.153 19.0002 92.1005 18.9943 92.0539 18.9943C92.0074 19.0002 91.9724 19.0118 91.9433 19.0293C91.92 19.0468 91.8967 19.0701 91.885 19.0934C91.8676 19.1225 91.8559 19.1516 91.8443 19.1807L91.8035 19.2972L92.3918 19.5011L92.4384 19.3729C92.45 19.3263 92.4558 19.2856 92.45 19.2506C92.45 19.2157 92.4325 19.1865 92.4151 19.1574C92.3918 19.1283 92.3685 19.0992 92.3335 19.0759C92.2986 19.0584 92.2578 19.0351 92.2112 19.0235ZM92.8868 17.3868C92.98 17.4334 93.0558 17.48 93.1198 17.5382C93.1839 17.5906 93.2247 17.6547 93.2538 17.7188C93.2829 17.7887 93.3004 17.8586 93.2946 17.9343C93.2887 18.01 93.2713 18.0915 93.2305 18.1789L93.1781 18.2896L93.7081 18.5342C93.7197 18.5342 93.7256 18.54 93.7314 18.5517C93.7372 18.5575 93.7372 18.5692 93.7372 18.5808C93.7372 18.5925 93.7314 18.6041 93.7314 18.6216C93.7256 18.6449 93.7139 18.6623 93.7023 18.6915C93.6906 18.7148 93.679 18.7381 93.6731 18.7555C93.6615 18.773 93.6498 18.7847 93.644 18.7905C93.6324 18.7963 93.6207 18.8021 93.6149 18.8021C93.6091 18.808 93.5974 18.8021 93.5916 18.8021L92.0947 18.1207C92.0539 18.1032 92.0248 18.0857 92.0132 18.0566C92.0015 18.0333 92.0015 18.0042 92.0132 17.9751L92.153 17.6664C92.1704 17.6314 92.1821 17.6023 92.1996 17.579C92.217 17.5499 92.2345 17.5208 92.2636 17.4858C92.2928 17.4509 92.3277 17.4159 92.3743 17.3868C92.4209 17.3577 92.4675 17.3402 92.5199 17.3285C92.5781 17.3227 92.6306 17.3169 92.6946 17.3285C92.7529 17.3402 92.817 17.3577 92.8868 17.3868ZM92.782 17.6838C92.7238 17.6547 92.6772 17.6431 92.6306 17.6431C92.584 17.6431 92.549 17.6489 92.5199 17.6664C92.4908 17.678 92.4675 17.7013 92.45 17.7246C92.4325 17.7479 92.4209 17.777 92.4034 17.8003L92.351 17.9168L92.9218 18.1731L92.9742 18.0508C92.9917 18.01 93.0033 17.9692 93.0033 17.9343C92.9975 17.8993 92.9917 17.8644 92.9742 17.8353C92.9567 17.8062 92.9276 17.777 92.8985 17.7479C92.8635 17.7246 92.8286 17.7013 92.782 17.6838ZM94.0226 16.0006C94.1507 16.0763 94.2614 16.1578 94.3488 16.2394C94.442 16.3267 94.506 16.4141 94.5468 16.5073C94.5876 16.6005 94.6051 16.6995 94.5992 16.7927C94.5934 16.8917 94.5643 16.9907 94.506 17.0897C94.4478 17.1888 94.3837 17.2645 94.308 17.3169C94.2381 17.3693 94.1507 17.4043 94.0576 17.4159C93.9644 17.4276 93.8595 17.4101 93.743 17.3751C93.6265 17.346 93.4984 17.2878 93.3586 17.2062C93.2305 17.1305 93.1256 17.0548 93.0383 16.9674C92.9509 16.8801 92.8868 16.7927 92.8461 16.6995C92.8053 16.6063 92.782 16.5131 92.7878 16.4141C92.7937 16.3151 92.8286 16.2161 92.8868 16.1171C92.9393 16.0239 93.0033 15.9482 93.0791 15.8957C93.1548 15.8375 93.2363 15.8084 93.3295 15.7967C93.4227 15.7851 93.5275 15.7967 93.644 15.8317C93.7605 15.8608 93.8828 15.919 94.0226 16.0006ZM93.8828 16.2743C93.8013 16.2277 93.7197 16.1928 93.6498 16.1637C93.5741 16.1345 93.5042 16.1171 93.4402 16.1112C93.3819 16.1112 93.3237 16.1229 93.2713 16.1462C93.2247 16.1753 93.1781 16.2161 93.1431 16.2801C93.1082 16.3442 93.0907 16.4025 93.0965 16.4607C93.1023 16.5189 93.1198 16.5772 93.1548 16.6354C93.1897 16.6879 93.2363 16.7403 93.3004 16.7869C93.3586 16.8393 93.4285 16.8859 93.4984 16.9267C93.5858 16.9791 93.6673 17.014 93.743 17.049C93.8188 17.0781 93.8828 17.0897 93.9469 17.0956C94.011 17.1014 94.0692 17.0897 94.1158 17.0606C94.1682 17.0373 94.209 16.9907 94.2439 16.9267C94.2847 16.8626 94.2964 16.8043 94.2905 16.7461C94.2905 16.6879 94.2672 16.6296 94.2323 16.5714C94.1973 16.5189 94.1507 16.4665 94.0867 16.4199C94.0284 16.3675 93.9585 16.3209 93.8828 16.2743ZM95.7292 15.0279C95.7408 15.0337 95.7466 15.0395 95.7466 15.0454C95.7525 15.057 95.7525 15.0687 95.7466 15.0803C95.7466 15.092 95.7408 15.1036 95.735 15.1211C95.7234 15.1386 95.7117 15.156 95.6942 15.1793C95.6768 15.2026 95.6651 15.2259 95.6476 15.2376C95.636 15.2492 95.6243 15.2609 95.6127 15.2667C95.601 15.2725 95.5952 15.2783 95.5836 15.2783C95.5777 15.2783 95.5661 15.2725 95.5603 15.2667L94.1566 14.2649C94.1507 14.2591 94.1449 14.2532 94.1391 14.2416C94.1391 14.2358 94.1391 14.2241 94.1391 14.2125C94.1391 14.2008 94.1507 14.1892 94.1566 14.1717C94.1624 14.1542 94.1799 14.1309 94.1915 14.1076C94.209 14.0843 94.2265 14.0669 94.2381 14.0552C94.2556 14.0377 94.2672 14.0319 94.2731 14.0261C94.2847 14.0144 94.2964 14.0144 94.3022 14.0144C94.3138 14.0144 94.3197 14.0203 94.3313 14.0261L95.7292 15.0279ZM96.1369 13.6999C96.2126 13.7582 96.2708 13.8222 96.3058 13.8863C96.3466 13.9562 96.3699 14.0203 96.3815 14.0902C96.3873 14.16 96.3815 14.2241 96.3582 14.294C96.3349 14.3581 96.3058 14.4221 96.2592 14.4804C96.2243 14.5212 96.1951 14.5503 96.1602 14.5794C96.1252 14.6085 96.0903 14.6318 96.0612 14.6493C96.0262 14.661 95.9971 14.6784 95.9738 14.6842C95.9447 14.6901 95.9214 14.6959 95.9097 14.6959C95.8923 14.6959 95.8748 14.6901 95.8515 14.6784C95.834 14.6668 95.8049 14.6493 95.7699 14.6202C95.7466 14.6027 95.7292 14.5852 95.7175 14.5736C95.7001 14.5619 95.6884 14.5503 95.6826 14.5386C95.6768 14.527 95.6709 14.5212 95.6709 14.5095C95.6709 14.5037 95.6709 14.4979 95.6768 14.492C95.6826 14.4804 95.7001 14.4746 95.7234 14.4687C95.7466 14.4629 95.7758 14.4571 95.8107 14.4454C95.8398 14.4338 95.8748 14.4163 95.9156 14.393C95.9505 14.3697 95.9913 14.3348 96.0204 14.294C96.0437 14.2649 96.0612 14.2358 96.0728 14.2066C96.0786 14.1775 96.0845 14.1484 96.0786 14.1193C96.0786 14.096 96.067 14.0669 96.0495 14.0436C96.032 14.0144 96.0146 13.9911 95.9855 13.9678C95.9505 13.9445 95.9156 13.9271 95.8864 13.9271C95.8515 13.9212 95.8165 13.9212 95.7758 13.9329C95.7408 13.9387 95.7059 13.9504 95.6651 13.9678C95.6302 13.9853 95.5894 14.0028 95.5486 14.0203C95.502 14.0319 95.4613 14.0494 95.4147 14.061C95.3681 14.0727 95.3215 14.0727 95.2749 14.0727C95.2224 14.0727 95.17 14.061 95.1176 14.0436C95.0652 14.0203 95.0069 13.9853 94.9487 13.9387C94.8788 13.8863 94.8264 13.8281 94.7914 13.7698C94.7565 13.7057 94.7332 13.6475 94.7274 13.5834C94.7157 13.5194 94.7215 13.4611 94.7448 13.4029C94.7623 13.3388 94.7973 13.2864 94.838 13.234C94.8555 13.2048 94.8788 13.1815 94.9079 13.1582C94.9312 13.1349 94.9603 13.1175 94.9895 13.1C95.0128 13.0825 95.0419 13.0709 95.0652 13.0592C95.0943 13.0476 95.1118 13.0476 95.1234 13.0476C95.1351 13.0476 95.1467 13.0476 95.1526 13.0476C95.1584 13.0476 95.1642 13.0534 95.1759 13.0592C95.1875 13.0651 95.1992 13.0709 95.2108 13.0825C95.2224 13.0883 95.2399 13.1 95.2574 13.1175C95.2807 13.1349 95.2982 13.1466 95.3156 13.1641C95.3273 13.1757 95.3389 13.1874 95.3448 13.1932C95.3564 13.2048 95.3564 13.2107 95.3622 13.2223C95.3622 13.2281 95.3622 13.234 95.3564 13.2398C95.3506 13.2456 95.3389 13.2514 95.3156 13.2573C95.2923 13.2631 95.269 13.2747 95.2399 13.2864C95.2108 13.298 95.1817 13.3097 95.1526 13.333C95.1176 13.3505 95.0885 13.3737 95.0652 13.4087C95.0477 13.432 95.0302 13.4611 95.0244 13.4844C95.0186 13.5077 95.0186 13.531 95.0186 13.5543C95.0244 13.5776 95.0302 13.6009 95.0477 13.6242C95.0594 13.6417 95.0768 13.665 95.1001 13.6824C95.1293 13.7057 95.1642 13.7174 95.1992 13.7232C95.2341 13.729 95.269 13.729 95.304 13.7174C95.3389 13.7057 95.3797 13.6941 95.4205 13.6766C95.4554 13.6591 95.4962 13.6475 95.537 13.63C95.5836 13.6126 95.6243 13.5951 95.6709 13.5834C95.7175 13.5718 95.7641 13.566 95.8165 13.5718C95.8631 13.5718 95.9156 13.5834 95.968 13.6009C96.0204 13.6184 96.0786 13.6533 96.1369 13.6999ZM97.4765 12.9777C97.4882 12.9835 97.494 12.9893 97.494 13.001C97.494 13.0068 97.494 13.0185 97.494 13.0301C97.4882 13.0418 97.4823 13.0592 97.4707 13.0709C97.4532 13.0883 97.4416 13.1116 97.4183 13.1291C97.3833 13.1699 97.36 13.1932 97.3425 13.2048C97.3251 13.2165 97.3076 13.2223 97.296 13.2223C97.2785 13.2223 97.2668 13.2223 97.2552 13.2165L96.3233 12.9369L96.9523 13.531C96.9581 13.5427 96.964 13.5485 96.964 13.5543C96.9698 13.566 96.9698 13.5776 96.964 13.5893C96.9581 13.6009 96.9523 13.6126 96.9407 13.63C96.929 13.6417 96.9174 13.6591 96.8941 13.6824C96.8766 13.7057 96.8591 13.7174 96.8416 13.729C96.83 13.7407 96.8183 13.7523 96.8067 13.7582C96.795 13.7582 96.7834 13.764 96.7718 13.7582C96.7659 13.7582 96.7543 13.7523 96.7485 13.7465L95.502 12.5641C95.4962 12.5525 95.4904 12.5467 95.4845 12.5409C95.4845 12.5292 95.4845 12.5176 95.4904 12.5059C95.4962 12.4943 95.502 12.4826 95.5137 12.4651C95.5253 12.4535 95.537 12.436 95.5603 12.4127C95.5777 12.3952 95.5952 12.3778 95.6127 12.3661C95.6243 12.3545 95.6418 12.3428 95.6476 12.337C95.6593 12.337 95.6709 12.3312 95.6768 12.337C95.6884 12.337 95.6942 12.3428 95.7059 12.3486L96.2708 12.8845L95.9971 12.0399C95.9913 12.0283 95.9913 12.0167 95.9913 12.005C95.9855 11.9934 95.9913 11.9817 95.9971 11.9701C96.0029 11.9584 96.0087 11.9468 96.0204 11.9293C96.032 11.9176 96.0495 11.9002 96.067 11.8769C96.0903 11.8536 96.1078 11.8419 96.1194 11.8244C96.1369 11.8128 96.1485 11.807 96.1602 11.8011C96.1718 11.7953 96.1835 11.7953 96.1893 11.7953C96.201 11.8011 96.2068 11.8011 96.2126 11.807C96.2243 11.8186 96.2359 11.8361 96.2417 11.8536C96.2534 11.8652 96.265 11.8943 96.2767 11.9351L96.4805 12.6748L97.3775 12.9253C97.4183 12.9427 97.4416 12.9544 97.4532 12.9602C97.4649 12.966 97.4707 12.9719 97.4765 12.9777ZM98.257 12.0982C98.2803 12.1157 98.2919 12.1331 98.3036 12.1506C98.3152 12.1623 98.3269 12.1739 98.3269 12.1856C98.3327 12.1972 98.3385 12.2089 98.3385 12.2147C98.3385 12.2205 98.3327 12.2263 98.3269 12.2322L97.8027 12.7389C97.7852 12.7564 97.7619 12.7622 97.7386 12.7622C97.7153 12.7564 97.6862 12.7447 97.6571 12.7156L96.5562 11.5623C96.5271 11.5332 96.5155 11.5041 96.5155 11.4808C96.5155 11.4575 96.5213 11.4342 96.5388 11.4167L97.063 10.9158C97.0688 10.91 97.0746 10.91 97.0804 10.91C97.0863 10.91 97.0979 10.91 97.1096 10.9158C97.1212 10.9217 97.1329 10.9333 97.1445 10.945C97.162 10.9566 97.1795 10.9741 97.1969 10.9915C97.2144 11.0148 97.2319 11.0265 97.2435 11.044C97.2552 11.0556 97.261 11.0731 97.2668 11.0789C97.2727 11.0906 97.2727 11.1022 97.2727 11.108C97.2727 11.1139 97.2727 11.1197 97.2668 11.1255L96.8882 11.4866L97.1969 11.807L97.5115 11.5041C97.5173 11.4983 97.5231 11.4983 97.5348 11.4983C97.5406 11.4983 97.5522 11.4983 97.5581 11.5041C97.5697 11.5099 97.5813 11.5216 97.5988 11.5332C97.6105 11.5449 97.6279 11.5565 97.6454 11.5798C97.6629 11.5973 97.6804 11.6148 97.6862 11.6264C97.6978 11.6439 97.7095 11.6555 97.7153 11.6672C97.7153 11.673 97.7211 11.6847 97.7211 11.6905C97.7153 11.6963 97.7153 11.7021 97.7095 11.708L97.395 12.0108L97.7503 12.3836L98.1288 12.0225C98.1347 12.0167 98.1405 12.0167 98.1463 12.0167C98.1521 12.0167 98.1638 12.0167 98.1754 12.0225C98.1813 12.0283 98.1929 12.0399 98.2104 12.0516C98.222 12.0632 98.2395 12.0749 98.257 12.0982ZM99.5034 11.1139C99.5151 11.1313 99.5267 11.1488 99.5325 11.1663C99.5384 11.1838 99.5384 11.1954 99.5384 11.2129C99.5384 11.2304 99.5325 11.242 99.5267 11.2536C99.5209 11.2653 99.5092 11.2769 99.4976 11.2886L99.3986 11.3643C99.3811 11.3818 99.3578 11.3934 99.3403 11.3993C99.3229 11.4051 99.2996 11.4051 99.2763 11.4051C99.253 11.3993 99.2238 11.3934 99.1947 11.376C99.1656 11.3643 99.1307 11.341 99.0841 11.3177L98.2745 10.8692C98.2279 10.8401 98.1754 10.811 98.123 10.7819C98.0648 10.7469 98.0182 10.712 97.9716 10.6829H97.9658C98.0124 10.7353 98.0531 10.7877 98.0997 10.8401C98.1405 10.8867 98.1871 10.945 98.2279 10.9974L98.822 11.7487C98.8278 11.7604 98.8278 11.7662 98.8278 11.772C98.8336 11.7837 98.8278 11.7953 98.8278 11.8011C98.822 11.8128 98.8103 11.8244 98.7987 11.8361C98.787 11.8536 98.7695 11.8652 98.7521 11.8827C98.7288 11.9002 98.7113 11.9118 98.6996 11.9176C98.6822 11.9293 98.6705 11.9351 98.6589 11.9351C98.6472 11.9351 98.6356 11.9351 98.6297 11.9351C98.6239 11.9293 98.6181 11.9235 98.6123 11.9176L97.593 10.6246C97.5697 10.5897 97.5581 10.5605 97.5581 10.5314C97.5581 10.4965 97.5755 10.4732 97.5988 10.4557L97.7211 10.3567C97.7444 10.3392 97.7619 10.3276 97.7852 10.3217C97.8027 10.3159 97.8202 10.3101 97.8434 10.3101C97.8667 10.3159 97.89 10.3217 97.9133 10.3334C97.9425 10.345 97.9716 10.3567 98.0007 10.38L98.6414 10.7294C98.6763 10.7527 98.7113 10.7702 98.7521 10.7935C98.787 10.811 98.822 10.8343 98.8569 10.8576C98.8977 10.8751 98.9326 10.8984 98.9676 10.9217C99.0025 10.9391 99.0316 10.9624 99.0666 10.9799C99.0258 10.9333 98.9792 10.8809 98.9384 10.8226C98.8918 10.7644 98.8511 10.712 98.8103 10.6654L98.2803 9.98974C98.2745 9.98392 98.2686 9.97227 98.2686 9.96645C98.2686 9.9548 98.2686 9.94897 98.2745 9.93732C98.2803 9.92568 98.2861 9.91403 98.2978 9.90238C98.3094 9.8849 98.3269 9.87326 98.3502 9.85578C98.3676 9.83831 98.3851 9.82666 98.4026 9.82084C98.4201 9.80919 98.4317 9.80336 98.4434 9.80336C98.4492 9.80336 98.4608 9.80336 98.4667 9.80919C98.4783 9.80919 98.4841 9.81501 98.49 9.82666L99.5034 11.1139ZM100.43 9.50631C100.517 9.6461 100.581 9.78006 100.616 9.89655C100.651 10.013 100.662 10.1237 100.651 10.2227C100.633 10.3217 100.598 10.4091 100.54 10.4906C100.482 10.5722 100.395 10.6479 100.29 10.7178L99.9985 10.9042C99.9752 10.9158 99.9519 10.9217 99.9286 10.9158C99.9053 10.91 99.882 10.8867 99.8587 10.8518L98.9967 9.51214C98.9734 9.47719 98.9617 9.44807 98.9676 9.42477C98.9734 9.40147 98.985 9.384 99.0083 9.36653L99.317 9.1685C99.4277 9.0986 99.5325 9.05201 99.6257 9.03453C99.7247 9.01706 99.8179 9.02289 99.9111 9.05783C100.004 9.08695 100.092 9.13937 100.179 9.20927C100.266 9.28499 100.348 9.384 100.43 9.50631ZM100.179 9.68105C100.132 9.61116 100.08 9.54709 100.028 9.49467C99.9752 9.44225 99.917 9.40147 99.8587 9.37235C99.8005 9.34906 99.7364 9.33741 99.6723 9.34323C99.6083 9.34323 99.5384 9.37235 99.4626 9.41895L99.3403 9.50049L100.01 10.5431L100.138 10.4615C100.208 10.4149 100.255 10.3683 100.29 10.3159C100.319 10.2635 100.336 10.2052 100.342 10.1412C100.342 10.0771 100.33 10.0072 100.301 9.9315C100.278 9.85578 100.237 9.77424 100.179 9.68105ZM101.915 9.55874C101.926 9.58203 101.938 9.60533 101.944 9.6228C101.956 9.63445 101.956 9.65193 101.961 9.66358C101.961 9.67522 101.961 9.68687 101.961 9.6927C101.956 9.69852 101.956 9.70435 101.95 9.71017L101.315 10.0713C101.297 10.0829 101.274 10.0888 101.251 10.0771C101.227 10.0713 101.204 10.048 101.181 10.013L100.389 8.63265C100.365 8.5977 100.36 8.56858 100.365 8.54528C100.371 8.52198 100.383 8.50451 100.406 8.48704L101.035 8.12592C101.041 8.12592 101.047 8.1201 101.053 8.12592C101.059 8.12592 101.064 8.13175 101.076 8.13757C101.088 8.14922 101.093 8.16087 101.105 8.17252C101.117 8.18999 101.128 8.20746 101.146 8.23076C101.158 8.25406 101.169 8.27736 101.175 8.29483C101.181 8.3123 101.187 8.32395 101.193 8.3356C101.193 8.34725 101.193 8.3589 101.193 8.36472C101.187 8.37055 101.187 8.37637 101.181 8.3822L100.732 8.63847L100.954 9.02289L101.332 8.80738C101.338 8.80156 101.344 8.80156 101.35 8.80156C101.356 8.80738 101.367 8.80738 101.373 8.81903C101.385 8.82485 101.391 8.8365 101.402 8.85398C101.414 8.86563 101.425 8.8831 101.437 8.9064C101.455 8.92969 101.466 8.95299 101.472 8.96464C101.478 8.98211 101.484 8.99959 101.484 9.01124C101.49 9.02289 101.49 9.02871 101.484 9.03453C101.484 9.04036 101.478 9.04618 101.472 9.05201L101.093 9.26751L101.35 9.716L101.804 9.4539C101.81 9.4539 101.816 9.44807 101.822 9.4539C101.827 9.4539 101.839 9.45972 101.845 9.46554C101.856 9.47137 101.868 9.48302 101.874 9.50049C101.886 9.51796 101.897 9.53544 101.915 9.55874ZM103.283 9.02871C103.289 9.03453 103.289 9.04618 103.289 9.05201C103.289 9.06366 103.283 9.06948 103.278 9.08113C103.266 9.08695 103.254 9.0986 103.237 9.11025C103.219 9.11608 103.19 9.13355 103.155 9.1452C103.126 9.15685 103.103 9.1685 103.085 9.17432C103.068 9.18015 103.056 9.18597 103.045 9.18597C103.033 9.18015 103.021 9.18015 103.016 9.17432C103.004 9.1685 102.998 9.16267 102.992 9.15102L102.701 8.8365C102.672 8.79573 102.637 8.76661 102.614 8.73749C102.585 8.71419 102.555 8.69089 102.526 8.67924C102.503 8.66177 102.474 8.65595 102.451 8.65595C102.421 8.65595 102.392 8.66177 102.363 8.67342L102.282 8.70837L102.567 9.34906C102.573 9.35488 102.573 9.36653 102.573 9.37235C102.567 9.384 102.561 9.38983 102.555 9.40147C102.55 9.4073 102.538 9.41895 102.52 9.4306C102.503 9.43642 102.48 9.44807 102.456 9.45972C102.433 9.47137 102.41 9.48302 102.387 9.48884C102.369 9.49467 102.357 9.49467 102.346 9.49467C102.334 9.49467 102.322 9.49467 102.317 9.48884C102.305 9.48302 102.299 9.47719 102.299 9.46554L101.618 7.95701C101.6 7.91624 101.594 7.88712 101.606 7.86382C101.612 7.84052 101.629 7.82305 101.647 7.8114L101.99 7.65997C102.025 7.64249 102.055 7.63084 102.078 7.61919C102.101 7.61337 102.124 7.60755 102.142 7.60172C102.2 7.58425 102.258 7.57842 102.311 7.58425C102.363 7.59007 102.416 7.60172 102.462 7.62502C102.509 7.64832 102.55 7.68326 102.585 7.72986C102.625 7.77063 102.66 7.82887 102.689 7.89294C102.713 7.95119 102.73 8.00361 102.742 8.0502C102.748 8.10262 102.753 8.15504 102.748 8.19581C102.742 8.24241 102.73 8.28901 102.707 8.32978C102.689 8.37055 102.66 8.40549 102.625 8.44044C102.654 8.44627 102.678 8.45209 102.701 8.45791C102.73 8.46956 102.753 8.48121 102.783 8.49869C102.806 8.51616 102.835 8.53946 102.864 8.56275C102.887 8.59188 102.917 8.621 102.951 8.65595L103.208 8.92969C103.237 8.95882 103.254 8.98211 103.26 8.99376C103.272 9.00541 103.278 9.01706 103.283 9.02871ZM102.427 8.05603C102.404 7.99778 102.369 7.95701 102.334 7.92789C102.299 7.89877 102.253 7.88712 102.2 7.89294C102.183 7.89294 102.171 7.89877 102.148 7.90459C102.13 7.91042 102.107 7.91624 102.078 7.93371L101.956 7.98613L102.165 8.45791L102.305 8.39385C102.34 8.37637 102.375 8.3589 102.398 8.3356C102.421 8.30648 102.439 8.28318 102.445 8.25406C102.456 8.22494 102.462 8.18999 102.456 8.15504C102.451 8.12592 102.445 8.09097 102.427 8.05603ZM104.454 7.87547C104.495 7.98031 104.518 8.07933 104.53 8.16669C104.536 8.25988 104.53 8.34725 104.507 8.41714C104.477 8.49286 104.437 8.56275 104.378 8.621C104.326 8.67924 104.25 8.72584 104.157 8.76079C104.076 8.79573 103.994 8.81321 103.913 8.81321C103.837 8.81321 103.761 8.79573 103.697 8.75496C103.627 8.72001 103.563 8.66759 103.505 8.5977C103.452 8.52781 103.4 8.43462 103.359 8.32978L102.946 7.29885C102.946 7.2872 102.94 7.28138 102.946 7.26973C102.946 7.2639 102.951 7.25225 102.957 7.24643C102.969 7.23478 102.981 7.22896 102.998 7.21731C103.016 7.20566 103.033 7.19983 103.062 7.18819C103.091 7.17654 103.109 7.17071 103.132 7.16489C103.15 7.15906 103.161 7.15906 103.173 7.15906C103.184 7.15906 103.196 7.16489 103.202 7.16489C103.214 7.17071 103.219 7.18236 103.219 7.18819L103.621 8.18999C103.645 8.25988 103.674 8.3123 103.709 8.3589C103.744 8.39967 103.779 8.43462 103.814 8.45791C103.854 8.48121 103.889 8.49286 103.93 8.49286C103.971 8.49869 104.017 8.49286 104.058 8.47539C104.099 8.45791 104.134 8.43462 104.163 8.39967C104.192 8.37055 104.21 8.3356 104.221 8.29483C104.233 8.25406 104.233 8.20746 104.227 8.15504C104.221 8.10262 104.21 8.0502 104.186 7.98613L103.779 6.96686C103.773 6.95521 103.773 6.94938 103.773 6.93773C103.779 6.93191 103.784 6.92026 103.79 6.91444C103.796 6.90279 103.814 6.89696 103.831 6.88531C103.843 6.87949 103.866 6.86784 103.895 6.85619C103.918 6.84454 103.942 6.83872 103.959 6.83289C103.977 6.83289 103.994 6.82707 104.006 6.82707C104.017 6.82707 104.029 6.83289 104.035 6.83872C104.041 6.84454 104.046 6.85037 104.052 6.85619L104.454 7.87547ZM106.242 7.95119C106.248 7.97449 106.248 7.99196 106.248 8.00943C106.248 8.02691 106.242 8.04438 106.236 8.05603C106.231 8.06768 106.219 8.07933 106.207 8.09097C106.196 8.0968 106.184 8.10262 106.172 8.10845L106.05 8.14339C106.021 8.14922 106.003 8.14922 105.98 8.14922C105.963 8.14922 105.939 8.14339 105.922 8.13175C105.899 8.1201 105.881 8.0968 105.858 8.0735C105.835 8.0502 105.805 8.01526 105.776 7.97449L105.2 7.25225C105.165 7.20566 105.13 7.15906 105.095 7.10664C105.06 7.06005 105.025 7.00763 104.996 6.96103H104.99C105.013 7.0251 105.031 7.08917 105.054 7.15324C105.072 7.21731 105.089 7.2872 105.112 7.35127L105.363 8.27153C105.369 8.28318 105.369 8.29483 105.369 8.30065C105.363 8.30648 105.357 8.31813 105.351 8.32395C105.34 8.32978 105.328 8.34143 105.316 8.34725C105.299 8.35307 105.275 8.3589 105.252 8.37055C105.223 8.37637 105.206 8.3822 105.188 8.3822C105.171 8.3822 105.153 8.3822 105.147 8.3822C105.136 8.37637 105.124 8.37637 105.118 8.37055C105.112 8.36472 105.112 8.35307 105.107 8.34725L104.67 6.763C104.658 6.72223 104.658 6.68728 104.676 6.65816C104.687 6.63486 104.71 6.61739 104.74 6.60574L104.891 6.56497C104.92 6.55914 104.943 6.55332 104.961 6.55332C104.984 6.55332 105.002 6.55914 105.019 6.57079C105.037 6.57662 105.06 6.59409 105.077 6.61739C105.095 6.63486 105.118 6.66398 105.141 6.69311L105.596 7.2639C105.619 7.29303 105.648 7.32797 105.672 7.36292C105.701 7.39787 105.724 7.43281 105.747 7.46193C105.771 7.49688 105.8 7.53183 105.823 7.56095C105.846 7.5959 105.87 7.63084 105.893 7.65997C105.875 7.5959 105.852 7.53183 105.835 7.46193C105.811 7.39204 105.794 7.32797 105.776 7.2639L105.549 6.44266C105.543 6.43101 105.543 6.42518 105.549 6.41353C105.549 6.40771 105.555 6.39606 105.561 6.39024C105.572 6.37859 105.584 6.37276 105.602 6.36694C105.619 6.36111 105.637 6.34946 105.666 6.34364C105.689 6.33782 105.706 6.33199 105.724 6.33199C105.741 6.32617 105.759 6.33199 105.771 6.33199C105.776 6.33782 105.788 6.33782 105.794 6.34364C105.8 6.34946 105.8 6.36111 105.805 6.36694L106.242 7.95119ZM108.683 7.40369C108.689 7.42699 108.689 7.44446 108.689 7.46193C108.689 7.47941 108.689 7.49106 108.689 7.50271C108.689 7.52018 108.689 7.526 108.683 7.53765C108.683 7.54348 108.677 7.55513 108.671 7.56677C108.665 7.57842 108.648 7.5959 108.625 7.61337C108.607 7.63084 108.578 7.65414 108.549 7.67161C108.514 7.68909 108.479 7.71239 108.438 7.72403C108.392 7.74151 108.345 7.75316 108.298 7.75898C108.199 7.77063 108.106 7.75898 108.025 7.73568C107.937 7.70656 107.861 7.65414 107.797 7.58425C107.733 7.52018 107.681 7.42699 107.634 7.31632C107.594 7.20566 107.559 7.07752 107.541 6.92608C107.524 6.77465 107.524 6.63486 107.541 6.51255C107.559 6.38441 107.594 6.27957 107.64 6.1922C107.687 6.10484 107.751 6.03494 107.827 5.98252C107.902 5.9301 107.99 5.89516 108.089 5.88351C108.129 5.87768 108.17 5.87768 108.211 5.88351C108.246 5.88933 108.281 5.89516 108.316 5.90098C108.351 5.91263 108.38 5.92428 108.409 5.94175C108.432 5.9534 108.456 5.97088 108.467 5.9767C108.479 5.98835 108.485 6 108.491 6.00582C108.496 6.01747 108.496 6.02912 108.502 6.04077C108.508 6.05242 108.508 6.06989 108.514 6.08736C108.52 6.10484 108.52 6.12231 108.525 6.15143C108.525 6.18056 108.531 6.20385 108.531 6.22133C108.531 6.2388 108.531 6.25627 108.525 6.26792C108.525 6.27957 108.52 6.29122 108.52 6.29704C108.514 6.30287 108.508 6.30869 108.502 6.30869C108.491 6.30869 108.473 6.30287 108.456 6.29122C108.438 6.27375 108.415 6.2621 108.386 6.24462C108.351 6.22715 108.322 6.20968 108.281 6.19803C108.24 6.18638 108.193 6.18638 108.141 6.1922C108.083 6.19803 108.036 6.22133 107.995 6.25627C107.955 6.29122 107.92 6.33782 107.896 6.39606C107.873 6.4543 107.856 6.5242 107.85 6.60574C107.844 6.68146 107.844 6.76882 107.856 6.86784C107.867 6.97268 107.891 7.06587 107.914 7.14159C107.943 7.21731 107.978 7.27555 108.013 7.32215C108.054 7.36874 108.094 7.40369 108.147 7.42116C108.193 7.43864 108.246 7.44446 108.304 7.43864C108.357 7.43281 108.403 7.42116 108.438 7.39787C108.473 7.38039 108.502 7.35709 108.525 7.33962C108.555 7.31632 108.572 7.29303 108.59 7.28138C108.601 7.2639 108.619 7.25225 108.625 7.25225C108.63 7.25225 108.642 7.25225 108.642 7.25225C108.648 7.25808 108.654 7.2639 108.659 7.27555C108.659 7.2872 108.665 7.30467 108.671 7.32215C108.677 7.33962 108.677 7.36874 108.683 7.40369ZM109.888 7.44446C109.888 7.47358 109.888 7.49106 109.888 7.51435C109.888 7.53183 109.888 7.54348 109.883 7.55513C109.883 7.56677 109.877 7.57842 109.871 7.58425C109.865 7.59007 109.859 7.59007 109.853 7.59007L109.125 7.64832C109.102 7.64832 109.079 7.64249 109.061 7.62502C109.044 7.60755 109.032 7.57842 109.032 7.53765L108.91 5.9534C108.91 5.90681 108.916 5.87768 108.927 5.86021C108.945 5.83691 108.962 5.83109 108.991 5.82526L109.714 5.77284C109.719 5.77284 109.725 5.77284 109.731 5.77867C109.737 5.78449 109.743 5.79032 109.749 5.80197C109.749 5.81362 109.754 5.82526 109.76 5.84856C109.76 5.86604 109.766 5.88933 109.766 5.91846C109.766 5.94175 109.772 5.96505 109.766 5.98252C109.766 6 109.766 6.01747 109.766 6.02912C109.76 6.04077 109.754 6.04659 109.754 6.05242C109.749 6.05824 109.743 6.06407 109.737 6.06407L109.219 6.10484L109.254 6.5475L109.685 6.51255C109.696 6.51255 109.702 6.51255 109.708 6.51837C109.714 6.5242 109.719 6.53002 109.719 6.54167C109.725 6.55332 109.731 6.56497 109.731 6.58244C109.737 6.60574 109.737 6.62321 109.743 6.65234C109.743 6.68146 109.743 6.69893 109.743 6.7164C109.743 6.7397 109.743 6.75135 109.737 6.763C109.737 6.77465 109.731 6.78047 109.725 6.7863C109.719 6.79212 109.714 6.79212 109.708 6.79795L109.271 6.82707L109.312 7.33962L109.83 7.29885C109.842 7.29885 109.848 7.30467 109.853 7.3105C109.859 7.3105 109.865 7.32215 109.865 7.3338C109.871 7.34545 109.877 7.35709 109.877 7.37457C109.883 7.39204 109.883 7.41534 109.888 7.44446ZM111.473 7.48523C111.473 7.50271 111.473 7.526 111.461 7.54348C111.455 7.56095 111.449 7.5726 111.438 7.58425C111.426 7.5959 111.414 7.60172 111.403 7.60755C111.385 7.61337 111.374 7.61337 111.362 7.61337L111.234 7.60755C111.205 7.60755 111.181 7.60755 111.164 7.5959C111.146 7.59007 111.129 7.57842 111.112 7.56095C111.1 7.54348 111.082 7.52018 111.071 7.49106C111.053 7.45611 111.042 7.42116 111.024 7.37457L110.686 6.50672C110.663 6.4543 110.646 6.40188 110.628 6.34364C110.605 6.27957 110.587 6.22715 110.576 6.16891H110.57C110.57 6.2388 110.57 6.30287 110.57 6.37276C110.57 6.43683 110.57 6.50672 110.57 6.57662L110.541 7.53183C110.541 7.54348 110.541 7.55513 110.535 7.56095C110.529 7.56677 110.523 7.5726 110.512 7.57842C110.5 7.58425 110.488 7.58425 110.471 7.59007C110.453 7.59007 110.43 7.59007 110.407 7.59007C110.378 7.59007 110.354 7.59007 110.337 7.58425C110.319 7.58425 110.308 7.57842 110.296 7.5726C110.29 7.56677 110.284 7.56095 110.279 7.55513C110.273 7.54348 110.273 7.53765 110.273 7.526L110.319 5.88933C110.319 5.84274 110.331 5.80779 110.354 5.79032C110.378 5.76702 110.401 5.75537 110.43 5.75537L110.587 5.7612C110.616 5.7612 110.64 5.76702 110.663 5.77284C110.681 5.77867 110.698 5.79032 110.715 5.80197C110.727 5.81944 110.745 5.83691 110.756 5.86604C110.768 5.88933 110.78 5.91846 110.791 5.95923L111.059 6.63486C111.071 6.67563 111.088 6.7164 111.1 6.75718C111.117 6.79212 111.129 6.83289 111.146 6.87366C111.158 6.91444 111.17 6.94938 111.187 6.99015C111.199 7.0251 111.211 7.06587 111.222 7.10082C111.222 7.03675 111.222 6.96686 111.228 6.89696C111.228 6.82707 111.228 6.75718 111.228 6.69311L111.257 5.83691C111.257 5.82526 111.257 5.81944 111.263 5.80779C111.269 5.80197 111.275 5.79614 111.286 5.79032C111.298 5.78449 111.31 5.78449 111.327 5.77867C111.345 5.77867 111.368 5.77867 111.391 5.77867C111.42 5.77867 111.438 5.77867 111.455 5.78449C111.473 5.78449 111.49 5.79032 111.496 5.79614C111.508 5.80197 111.513 5.80779 111.513 5.81944C111.519 5.82526 111.519 5.83109 111.519 5.84274L111.473 7.48523ZM112.987 6.05242C112.987 6.07572 112.981 6.09901 112.981 6.12231C112.975 6.13978 112.975 6.15726 112.97 6.16308C112.964 6.17473 112.958 6.18638 112.952 6.1922C112.946 6.19803 112.94 6.19803 112.935 6.19803L112.568 6.16891L112.457 7.63667C112.457 7.64832 112.457 7.65414 112.451 7.66579C112.445 7.67161 112.434 7.67744 112.422 7.67744C112.41 7.68326 112.399 7.68326 112.375 7.68909C112.358 7.68909 112.335 7.68909 112.306 7.68326C112.276 7.68326 112.253 7.68326 112.236 7.67744C112.218 7.67161 112.201 7.66579 112.189 7.65997C112.177 7.65414 112.172 7.64832 112.166 7.64249C112.166 7.63084 112.16 7.62502 112.166 7.61337L112.276 6.14561L111.909 6.12231C111.904 6.12231 111.898 6.11649 111.892 6.11066C111.892 6.10484 111.886 6.09319 111.88 6.08154C111.88 6.06989 111.88 6.05824 111.88 6.03494C111.875 6.01747 111.88 5.99417 111.88 5.96505C111.88 5.93593 111.886 5.91263 111.886 5.89516C111.892 5.87768 111.898 5.86021 111.898 5.84856C111.904 5.83691 111.909 5.83109 111.915 5.82526C111.921 5.81944 111.927 5.81944 111.933 5.81944L112.958 5.89516C112.964 5.89516 112.97 5.90098 112.975 5.90681C112.981 5.91263 112.981 5.91846 112.987 5.9301C112.987 5.94175 112.993 5.95923 112.993 5.9767C112.993 6 112.993 6.0233 112.987 6.05242ZM114.018 7.77645C114.012 7.80558 114.006 7.82887 114 7.84635C113.995 7.86382 113.989 7.87547 113.983 7.88712C113.977 7.89877 113.971 7.90459 113.966 7.91042C113.96 7.91042 113.954 7.91624 113.948 7.91042L113.232 7.78228C113.203 7.77645 113.185 7.76481 113.173 7.74733C113.162 7.72403 113.156 7.69491 113.162 7.65414L113.447 6.08736C113.459 6.04659 113.47 6.01747 113.488 6C113.511 5.98835 113.529 5.98252 113.558 5.98835L114.268 6.11649C114.274 6.11649 114.28 6.12231 114.286 6.12814C114.292 6.13396 114.292 6.13978 114.298 6.15143C114.298 6.16308 114.298 6.18056 114.298 6.19803C114.292 6.2155 114.292 6.2388 114.286 6.26792C114.28 6.29704 114.274 6.31452 114.268 6.33199C114.263 6.34946 114.263 6.36694 114.257 6.37859C114.251 6.38441 114.245 6.39606 114.239 6.39606C114.228 6.40188 114.222 6.40188 114.216 6.40188L113.709 6.30869L113.628 6.74553L114.059 6.82707C114.065 6.82707 114.07 6.83289 114.076 6.83872C114.076 6.84454 114.082 6.85037 114.082 6.86202C114.088 6.87366 114.088 6.89114 114.082 6.90861C114.082 6.92608 114.082 6.94938 114.076 6.97268C114.07 7.0018 114.065 7.0251 114.059 7.04257C114.053 7.06005 114.047 7.0717 114.047 7.08335C114.041 7.08917 114.035 7.09499 114.024 7.10082C114.018 7.10664 114.012 7.10664 114.006 7.10664L113.575 7.0251L113.482 7.53183L114 7.62502C114.006 7.62502 114.012 7.63084 114.018 7.63667C114.018 7.64249 114.024 7.65414 114.024 7.66579C114.024 7.67744 114.024 7.68909 114.024 7.70656C114.024 7.72986 114.018 7.75316 114.018 7.77645ZM115.416 8.18999C115.416 8.20164 115.41 8.20746 115.404 8.21329C115.404 8.21911 115.393 8.22494 115.381 8.22494C115.369 8.23076 115.352 8.23076 115.334 8.22494C115.311 8.22494 115.282 8.21911 115.247 8.20746C115.212 8.20164 115.189 8.19581 115.171 8.18999C115.154 8.18417 115.142 8.17834 115.13 8.16669C115.125 8.16087 115.119 8.15504 115.113 8.14339C115.113 8.13757 115.107 8.12592 115.107 8.11427L115.072 7.68326C115.066 7.63667 115.061 7.5959 115.055 7.55513C115.049 7.51435 115.043 7.48523 115.026 7.45611C115.014 7.42699 114.996 7.40951 114.979 7.38622C114.956 7.37457 114.932 7.35709 114.903 7.35127L114.81 7.3338L114.653 8.00943C114.653 8.02108 114.647 8.02691 114.641 8.03273C114.635 8.03855 114.624 8.04438 114.612 8.04438C114.6 8.0502 114.589 8.0502 114.565 8.0502C114.548 8.04438 114.525 8.04438 114.496 8.03855C114.466 8.02691 114.443 8.02108 114.426 8.01526C114.408 8.00943 114.397 8.00361 114.385 7.99778C114.379 7.98613 114.367 7.98031 114.367 7.97449C114.367 7.96284 114.367 7.95701 114.367 7.94536L114.74 6.33199C114.752 6.29122 114.763 6.2621 114.787 6.25045C114.804 6.23298 114.828 6.22715 114.851 6.23298L115.218 6.32034C115.253 6.32617 115.288 6.33782 115.311 6.34364C115.334 6.34946 115.352 6.36111 115.375 6.36694C115.427 6.39024 115.474 6.41936 115.515 6.4543C115.556 6.48925 115.585 6.53002 115.608 6.57662C115.631 6.62321 115.643 6.67563 115.649 6.73388C115.655 6.79212 115.649 6.85619 115.631 6.92608C115.62 6.99015 115.596 7.04257 115.573 7.08917C115.55 7.13577 115.526 7.17071 115.492 7.20566C115.462 7.24061 115.422 7.2639 115.381 7.2872C115.34 7.30467 115.299 7.32215 115.247 7.32797C115.27 7.34545 115.282 7.36292 115.299 7.38622C115.311 7.40951 115.323 7.43864 115.334 7.46776C115.346 7.49688 115.352 7.53183 115.363 7.56677C115.369 7.60172 115.375 7.64832 115.375 7.68909L115.416 8.06768C115.422 8.10845 115.422 8.13175 115.422 8.14922C115.422 8.16669 115.422 8.18417 115.416 8.18999ZM115.323 6.89696C115.34 6.83872 115.34 6.7863 115.328 6.7397C115.317 6.69311 115.288 6.65816 115.241 6.62904C115.229 6.62321 115.212 6.61739 115.194 6.61156C115.177 6.59992 115.154 6.59409 115.119 6.58827L114.991 6.55914L114.874 7.06005L115.02 7.09499C115.061 7.10664 115.095 7.10664 115.13 7.10082C115.165 7.09499 115.194 7.08335 115.218 7.06587C115.247 7.0484 115.27 7.0251 115.282 6.99598C115.299 6.96686 115.317 6.93773 115.323 6.89696ZM118.223 7.45611C118.212 7.47941 118.206 7.50271 118.194 7.52018C118.188 7.53765 118.177 7.5493 118.171 7.56095C118.165 7.5726 118.153 7.57842 118.147 7.57842C118.142 7.58425 118.136 7.58425 118.124 7.57842L117.786 7.44446L117.245 8.81321C117.245 8.82485 117.239 8.83068 117.233 8.8365C117.221 8.84233 117.216 8.84233 117.204 8.84233C117.192 8.84233 117.175 8.84233 117.157 8.8365C117.134 8.8365 117.117 8.82485 117.087 8.81903C117.058 8.80738 117.041 8.79573 117.023 8.78408C117.006 8.77826 116.994 8.76661 116.983 8.76079C116.977 8.74914 116.971 8.74331 116.971 8.73166C116.965 8.72584 116.971 8.71419 116.971 8.70837L117.513 7.33962L117.175 7.20566C117.169 7.19983 117.163 7.19401 117.163 7.18819C117.157 7.18236 117.157 7.17071 117.157 7.15906C117.157 7.14741 117.163 7.12994 117.169 7.11247C117.175 7.09499 117.181 7.0717 117.192 7.0484C117.198 7.01928 117.21 7.0018 117.221 6.98433C117.227 6.96103 117.239 6.94938 117.245 6.94356C117.251 6.93191 117.262 6.92608 117.268 6.92026C117.274 6.92026 117.28 6.92026 117.285 6.92026L118.241 7.29885C118.246 7.29885 118.252 7.30467 118.252 7.3105C118.258 7.32215 118.258 7.32797 118.258 7.33962C118.258 7.35127 118.252 7.36874 118.246 7.38622C118.241 7.40951 118.235 7.43281 118.223 7.45611ZM118.712 9.34906C118.701 9.37235 118.689 9.39565 118.683 9.41312C118.672 9.42477 118.66 9.44225 118.654 9.44807C118.648 9.45972 118.637 9.45972 118.631 9.46554C118.625 9.46554 118.619 9.46554 118.613 9.46554L117.949 9.16267C117.926 9.15102 117.909 9.13937 117.903 9.11608C117.891 9.08695 117.897 9.05783 117.914 9.02289L118.573 7.5726C118.59 7.53183 118.608 7.50853 118.631 7.49688C118.654 7.49106 118.677 7.49106 118.701 7.50271L119.359 7.79975C119.365 7.79975 119.371 7.80558 119.376 7.8114C119.376 7.81723 119.376 7.82887 119.376 7.84052C119.376 7.85217 119.371 7.86965 119.365 7.88712C119.359 7.90459 119.353 7.92789 119.341 7.95119C119.33 7.97449 119.318 7.99778 119.307 8.00943C119.301 8.02691 119.289 8.03855 119.283 8.0502C119.277 8.05603 119.266 8.06185 119.26 8.06768C119.254 8.06768 119.248 8.06768 119.242 8.06768L118.771 7.85217L118.584 8.25406L118.98 8.43462C118.992 8.44044 118.992 8.44627 118.998 8.45209C118.998 8.45791 118.998 8.46956 118.998 8.48121C118.998 8.49286 118.998 8.50451 118.992 8.52198C118.986 8.53946 118.975 8.56275 118.963 8.58605C118.951 8.60935 118.945 8.62682 118.934 8.6443C118.922 8.66177 118.916 8.67342 118.91 8.67924C118.899 8.69089 118.893 8.69672 118.887 8.69672C118.881 8.69672 118.87 8.69672 118.864 8.69672L118.468 8.51616L118.258 8.98211L118.73 9.19762C118.736 9.20344 118.742 9.20344 118.747 9.21509C118.747 9.22092 118.747 9.23257 118.747 9.24422C118.747 9.25586 118.742 9.26751 118.736 9.28499C118.73 9.30246 118.724 9.32576 118.712 9.34906ZM119.755 9.9082C119.743 9.9315 119.732 9.9548 119.72 9.97227C119.708 9.98392 119.697 9.99557 119.691 10.0072C119.679 10.0189 119.668 10.0247 119.662 10.0247C119.656 10.0247 119.644 10.0247 119.639 10.0247L119.062 9.68687C119.044 9.67522 119.033 9.65775 119.027 9.63445C119.021 9.61116 119.027 9.57621 119.05 9.54126L119.877 8.10845C119.883 8.10262 119.889 8.09097 119.901 8.09097C119.906 8.08515 119.918 8.08515 119.93 8.08515C119.941 8.08515 119.953 8.09097 119.971 8.0968C119.994 8.10845 120.011 8.11427 120.035 8.13175C120.064 8.14339 120.081 8.16087 120.099 8.17252C120.11 8.18417 120.122 8.19581 120.128 8.20164C120.139 8.21329 120.139 8.21911 120.139 8.23076C120.145 8.24241 120.139 8.24823 120.134 8.25406L119.4 9.52961L119.796 9.75677C119.802 9.76259 119.807 9.76841 119.807 9.77424C119.807 9.78006 119.807 9.79171 119.807 9.80336C119.802 9.81501 119.802 9.82666 119.79 9.84996C119.784 9.86743 119.772 9.8849 119.755 9.9082ZM121.252 9.70435C121.229 9.73929 121.211 9.76841 121.194 9.78589C121.176 9.80336 121.153 9.82084 121.135 9.82666C121.118 9.83248 121.095 9.83248 121.077 9.83248C121.054 9.82666 121.031 9.81501 121.007 9.79754C120.978 9.78006 120.961 9.76259 120.943 9.74512C120.932 9.73347 120.926 9.71017 120.926 9.6927C120.92 9.6694 120.926 9.6461 120.937 9.6228C120.949 9.59951 120.961 9.57038 120.984 9.53544C121.007 9.50049 121.025 9.47719 121.042 9.4539C121.066 9.43642 121.083 9.41895 121.1 9.41312C121.124 9.4073 121.141 9.40147 121.165 9.4073C121.182 9.41312 121.205 9.42477 121.234 9.44225C121.258 9.4539 121.281 9.47137 121.293 9.48884C121.304 9.50631 121.31 9.52379 121.316 9.54709C121.316 9.57038 121.31 9.59368 121.298 9.61698C121.293 9.64028 121.275 9.67522 121.252 9.70435ZM120.757 10.4848C120.734 10.5139 120.716 10.5431 120.699 10.5605C120.681 10.5838 120.658 10.5955 120.64 10.6013C120.617 10.613 120.6 10.613 120.576 10.6071C120.559 10.6013 120.535 10.5897 120.506 10.5722C120.483 10.5605 120.466 10.5431 120.448 10.5256C120.436 10.5081 120.431 10.4906 120.431 10.4673C120.425 10.4441 120.431 10.4208 120.442 10.3975C120.454 10.3742 120.466 10.345 120.489 10.3101C120.512 10.281 120.53 10.2518 120.547 10.2285C120.57 10.2111 120.588 10.1936 120.605 10.1878C120.629 10.182 120.646 10.1761 120.669 10.182C120.687 10.1878 120.71 10.1994 120.739 10.2169C120.763 10.2344 120.786 10.2518 120.798 10.2635C120.809 10.281 120.815 10.3043 120.821 10.3217C120.821 10.345 120.815 10.3683 120.803 10.3916C120.792 10.4208 120.78 10.4499 120.757 10.4848ZM122.225 11.6264C122.207 11.6439 122.195 11.6614 122.184 11.6788C122.166 11.6905 122.155 11.7021 122.143 11.708C122.137 11.7196 122.126 11.7196 122.12 11.7196C122.108 11.7196 122.102 11.7196 122.096 11.7138L121.438 11.1954C121.427 11.1896 121.415 11.1779 121.409 11.1663C121.403 11.1546 121.398 11.143 121.398 11.1313C121.403 11.1197 121.409 11.1022 121.415 11.0847C121.427 11.0673 121.444 11.044 121.462 11.0207C121.479 10.9915 121.497 10.9741 121.514 10.9566C121.531 10.9391 121.543 10.9275 121.561 10.9158C121.578 10.91 121.596 10.8984 121.613 10.8925C121.63 10.8867 121.648 10.8809 121.671 10.8751L122.079 10.7644C122.161 10.7411 122.23 10.7178 122.289 10.6945C122.347 10.6712 122.393 10.6479 122.434 10.6246C122.475 10.6013 122.51 10.578 122.539 10.5489C122.568 10.5256 122.592 10.4965 122.615 10.4732C122.632 10.4499 122.65 10.4208 122.656 10.3975C122.667 10.3683 122.673 10.3392 122.673 10.3159C122.679 10.2926 122.673 10.2635 122.661 10.2402C122.65 10.2169 122.632 10.1994 122.603 10.1761C122.574 10.1528 122.539 10.1295 122.498 10.1237C122.463 10.1121 122.434 10.1062 122.399 10.1062C122.37 10.1004 122.341 10.1004 122.318 10.1004C122.3 10.1004 122.283 10.1004 122.277 10.0946C122.271 10.0888 122.265 10.0829 122.265 10.0771C122.265 10.0713 122.271 10.0596 122.277 10.048C122.283 10.0363 122.289 10.0189 122.3 10.0014C122.312 9.98392 122.329 9.96062 122.347 9.93732C122.364 9.91985 122.376 9.90238 122.388 9.89073C122.393 9.8849 122.405 9.87326 122.411 9.86743C122.423 9.86161 122.428 9.85578 122.434 9.84996C122.446 9.84413 122.458 9.84413 122.469 9.83831C122.487 9.83831 122.51 9.83831 122.539 9.83831C122.568 9.83831 122.603 9.84413 122.644 9.85578C122.679 9.86161 122.72 9.87908 122.766 9.89655C122.807 9.91403 122.842 9.93732 122.883 9.96645C122.941 10.013 122.988 10.0655 123.017 10.1179C123.046 10.1761 123.063 10.2285 123.063 10.2868C123.069 10.345 123.057 10.3975 123.034 10.4557C123.017 10.5139 122.982 10.5722 122.941 10.6246C122.906 10.6712 122.865 10.712 122.825 10.7527C122.778 10.7935 122.725 10.8285 122.661 10.8634C122.597 10.8984 122.522 10.9333 122.434 10.9624C122.341 10.9915 122.23 11.0265 122.096 11.0556L121.829 11.1197L122.277 11.475C122.283 11.4808 122.289 11.4866 122.289 11.4983C122.294 11.5041 122.289 11.5157 122.289 11.5274C122.283 11.539 122.277 11.5507 122.265 11.5682C122.254 11.5856 122.242 11.6031 122.225 11.6264ZM123.727 11.906C123.628 12.0167 123.535 12.1098 123.448 12.1856C123.355 12.2613 123.267 12.3137 123.18 12.3486C123.092 12.3836 123.011 12.3952 122.929 12.3836C122.848 12.3778 122.772 12.337 122.696 12.2729C122.621 12.2089 122.574 12.139 122.551 12.0632C122.533 11.9875 122.533 11.906 122.557 11.8186C122.58 11.7371 122.626 11.6439 122.691 11.5449C122.755 11.4459 122.836 11.3468 122.929 11.2362C123.028 11.1255 123.122 11.0323 123.209 10.9566C123.302 10.8809 123.389 10.8226 123.477 10.7877C123.564 10.7527 123.646 10.7411 123.727 10.7527C123.809 10.7644 123.885 10.7993 123.96 10.8634C124.036 10.9275 124.083 10.9974 124.1 11.0731C124.123 11.1488 124.123 11.2304 124.1 11.3177C124.077 11.4051 124.03 11.4925 123.966 11.5915C123.902 11.6905 123.82 11.7953 123.727 11.906ZM123.488 11.7254C123.547 11.6614 123.593 11.5973 123.634 11.5507C123.675 11.4925 123.71 11.4459 123.733 11.4051C123.762 11.3643 123.78 11.3235 123.791 11.2944C123.809 11.2595 123.815 11.2304 123.815 11.2071C123.815 11.1779 123.809 11.1546 123.797 11.1372C123.791 11.1139 123.774 11.0964 123.756 11.0789C123.721 11.0498 123.687 11.0381 123.646 11.0381C123.605 11.0381 123.564 11.0556 123.512 11.0847C123.465 11.1139 123.413 11.1546 123.355 11.2129C123.296 11.2653 123.238 11.3352 123.168 11.4167C123.081 11.5099 123.017 11.5973 122.964 11.6672C122.918 11.7371 122.883 11.7953 122.859 11.8419C122.842 11.8943 122.836 11.9351 122.842 11.9701C122.854 12.005 122.871 12.0341 122.9 12.0574C122.924 12.0749 122.947 12.0924 122.97 12.0982C122.993 12.104 123.023 12.0982 123.052 12.0924C123.075 12.0865 123.11 12.0749 123.139 12.0574C123.174 12.0341 123.203 12.0108 123.244 11.9817C123.279 11.9468 123.314 11.9118 123.355 11.871C123.395 11.8244 123.442 11.7778 123.488 11.7254ZM124.712 12.8088C124.659 12.8612 124.601 12.9136 124.537 12.9602C124.479 13.0126 124.415 13.0592 124.345 13.1C124.281 13.1408 124.211 13.1757 124.141 13.199C124.071 13.2223 124.001 13.2398 123.931 13.2398C123.861 13.2398 123.791 13.2281 123.727 13.199C123.657 13.1757 123.593 13.1291 123.529 13.0592C123.506 13.0359 123.488 13.0126 123.465 12.9835C123.448 12.9602 123.436 12.9311 123.424 12.9078C123.413 12.8845 123.401 12.8612 123.395 12.8379C123.389 12.8204 123.389 12.803 123.389 12.7913C123.389 12.7797 123.395 12.7622 123.407 12.7505C123.419 12.7331 123.436 12.7156 123.459 12.6923C123.483 12.669 123.5 12.6515 123.518 12.6399C123.529 12.6282 123.541 12.6166 123.553 12.6166C123.564 12.6107 123.57 12.6107 123.576 12.6107C123.582 12.6107 123.588 12.6166 123.593 12.6166C123.599 12.6224 123.605 12.634 123.611 12.6515C123.617 12.669 123.628 12.6865 123.634 12.7098C123.646 12.7331 123.657 12.7622 123.675 12.7855C123.692 12.8146 123.71 12.8379 123.739 12.867C123.78 12.9136 123.826 12.9427 123.879 12.9544C123.931 12.966 123.984 12.9602 124.036 12.9486C124.088 12.9369 124.141 12.9136 124.199 12.8787C124.251 12.8437 124.304 12.803 124.356 12.7564C124.31 12.7505 124.269 12.7331 124.217 12.7156C124.17 12.6923 124.123 12.6573 124.083 12.6107C124.024 12.5583 123.989 12.5001 123.972 12.4477C123.954 12.3894 123.949 12.3312 123.96 12.2729C123.972 12.2147 123.995 12.1564 124.036 12.0982C124.077 12.0399 124.123 11.9817 124.187 11.9235C124.251 11.8594 124.321 11.807 124.391 11.772C124.461 11.7371 124.531 11.7138 124.601 11.708C124.671 11.6963 124.741 11.708 124.805 11.7313C124.875 11.7546 124.933 11.7953 124.991 11.8594C125.038 11.906 125.073 11.9584 125.096 12.005C125.114 12.0574 125.125 12.1098 125.125 12.1564C125.119 12.2089 125.108 12.2613 125.09 12.3195C125.067 12.3719 125.038 12.4244 125.003 12.4768C124.968 12.535 124.921 12.5874 124.875 12.6457C124.822 12.6981 124.77 12.7564 124.712 12.8088ZM124.549 12.5641C124.618 12.4943 124.677 12.4302 124.717 12.3778C124.764 12.3253 124.793 12.2788 124.805 12.238C124.822 12.1972 124.828 12.1623 124.822 12.1331C124.816 12.0982 124.799 12.0691 124.776 12.0458C124.752 12.0167 124.723 12.005 124.694 11.9934C124.665 11.9875 124.636 11.9875 124.607 11.9934C124.572 11.9992 124.543 12.0167 124.508 12.0341C124.473 12.0574 124.438 12.0807 124.409 12.1157C124.374 12.1506 124.345 12.1797 124.321 12.2147C124.298 12.2438 124.281 12.2729 124.275 12.302C124.269 12.3312 124.269 12.3545 124.275 12.3836C124.286 12.4069 124.304 12.436 124.327 12.4593C124.356 12.4943 124.391 12.5176 124.426 12.535C124.467 12.5467 124.508 12.5583 124.549 12.5641ZM125.23 14.1076C125.16 14.1659 125.09 14.2066 125.014 14.2358C124.945 14.2591 124.875 14.2707 124.805 14.2591C124.741 14.2532 124.671 14.2358 124.607 14.2008C124.543 14.16 124.484 14.1135 124.432 14.0494C124.403 14.0144 124.374 13.9795 124.351 13.9387C124.333 13.8979 124.316 13.863 124.304 13.8281C124.292 13.7931 124.286 13.764 124.281 13.7407C124.275 13.7116 124.275 13.6941 124.275 13.6883C124.281 13.6766 124.281 13.665 124.286 13.6591C124.292 13.6475 124.298 13.6417 124.304 13.63C124.316 13.6184 124.327 13.6067 124.339 13.5951C124.351 13.5776 124.368 13.566 124.391 13.5485C124.426 13.5194 124.45 13.5019 124.467 13.4902C124.484 13.4844 124.496 13.4902 124.502 13.4961C124.508 13.5019 124.514 13.5135 124.514 13.5368C124.519 13.5601 124.525 13.5893 124.531 13.6184C124.537 13.6475 124.549 13.6824 124.566 13.7174C124.578 13.7582 124.607 13.7931 124.636 13.8281C124.665 13.863 124.688 13.8863 124.723 13.9038C124.752 13.9154 124.782 13.9271 124.811 13.9271C124.846 13.9329 124.875 13.9271 124.904 13.9154C124.933 13.9038 124.968 13.8863 124.997 13.8572C125.026 13.8281 125.049 13.7989 125.067 13.7698C125.084 13.7349 125.096 13.7057 125.096 13.6708C125.096 13.6358 125.09 13.5951 125.073 13.5601C125.055 13.5194 125.032 13.4786 124.997 13.4378L124.915 13.3446C124.91 13.3388 124.904 13.333 124.904 13.3213C124.904 13.3155 124.904 13.3097 124.91 13.298C124.91 13.2864 124.921 13.2747 124.933 13.2631C124.945 13.2456 124.962 13.234 124.985 13.2165C125.009 13.1932 125.026 13.1815 125.038 13.1699C125.055 13.1641 125.067 13.1582 125.073 13.1524C125.084 13.1466 125.09 13.1466 125.102 13.1524C125.108 13.1524 125.114 13.1582 125.119 13.1641L125.201 13.2631C125.23 13.2922 125.259 13.3213 125.288 13.333C125.323 13.3505 125.352 13.3621 125.387 13.3621C125.422 13.3679 125.451 13.3621 125.486 13.3505C125.521 13.333 125.55 13.3155 125.579 13.2864C125.603 13.2689 125.626 13.2456 125.644 13.2223C125.655 13.199 125.667 13.1699 125.673 13.1466C125.678 13.1233 125.678 13.0942 125.667 13.0709C125.661 13.0418 125.644 13.0126 125.62 12.9893C125.597 12.9602 125.568 12.9369 125.533 12.9194C125.504 12.902 125.469 12.8903 125.44 12.8845C125.405 12.8728 125.381 12.867 125.358 12.8612C125.329 12.8554 125.317 12.8495 125.312 12.8437C125.306 12.8379 125.306 12.8321 125.306 12.8263C125.306 12.8263 125.306 12.8146 125.312 12.8088C125.317 12.7971 125.329 12.7913 125.341 12.7738C125.352 12.7622 125.37 12.7447 125.387 12.7272C125.411 12.7156 125.422 12.7039 125.434 12.6923C125.446 12.6806 125.457 12.6748 125.469 12.669C125.475 12.6632 125.486 12.6632 125.492 12.6573C125.504 12.6573 125.51 12.6573 125.521 12.6573C125.533 12.6515 125.556 12.6573 125.585 12.6632C125.614 12.669 125.644 12.6806 125.678 12.6981C125.713 12.7098 125.754 12.7331 125.789 12.7622C125.83 12.7855 125.865 12.8204 125.9 12.8612C125.946 12.9136 125.981 12.9719 125.999 13.0243C126.022 13.0767 126.028 13.1349 126.022 13.1874C126.016 13.2398 125.999 13.2922 125.97 13.3446C125.935 13.397 125.894 13.4436 125.842 13.4902C125.801 13.5252 125.754 13.5601 125.713 13.5776C125.667 13.6009 125.626 13.6184 125.579 13.6242C125.539 13.6358 125.498 13.6358 125.457 13.63C125.416 13.6184 125.376 13.6067 125.335 13.5834C125.364 13.63 125.381 13.6708 125.387 13.7174C125.393 13.764 125.393 13.8106 125.381 13.8572C125.376 13.9038 125.352 13.9504 125.329 13.9911C125.3 14.0319 125.271 14.0727 125.23 14.1076Z" fill="#2E2E2E"/>
<path d="M12.491 21.2223C12.1027 21.2223 11.7412 21.1656 11.4067 21.052C11.0781 20.9445 10.7914 20.7922 10.5465 20.595C10.3015 20.4039 10.1074 20.1739 9.964 19.9051C9.8266 19.6422 9.7579 19.3554 9.7579 19.0448C9.7579 18.9313 9.76686 18.7849 9.78478 18.6057C9.8027 18.4265 9.8266 18.2204 9.85647 17.9874C9.89231 17.7544 9.93114 17.5065 9.97296 17.2437L11.1558 17.405C11.0961 17.7813 11.0483 18.1159 11.0124 18.4086C10.9766 18.7013 10.9587 18.9074 10.9587 19.0269C10.9587 19.2539 11.0214 19.454 11.1468 19.6273C11.2723 19.8005 11.4485 19.9349 11.6755 20.0305C11.9085 20.1321 12.1803 20.1828 12.491 20.1828H15.0269C15.4152 20.1828 15.7049 20.0843 15.8961 19.8871C16.0873 19.69 16.1829 19.4032 16.1829 19.0269V18.6864H17.3747V19.0269C17.3747 19.457 17.2791 19.8364 17.0879 20.1649C16.8967 20.4935 16.6249 20.7504 16.2725 20.9356C15.926 21.1267 15.5108 21.2223 15.0269 21.2223H12.491ZM15.7886 19C15.5138 19 15.2479 18.9701 14.9911 18.9104C14.7402 18.8507 14.5012 18.7431 14.2742 18.5878L14.9552 17.7276C15.0508 17.7933 15.1344 17.844 15.2061 17.8799C15.2838 17.9098 15.3674 17.9307 15.457 17.9426C15.5526 17.9546 15.6631 17.9605 15.7886 17.9605H17.7689V19H15.7886ZM17.7689 19V17.9605C17.7988 17.9605 17.8257 17.9725 17.8496 17.9964C17.8735 18.0203 17.8914 18.0561 17.9034 18.1039C17.9153 18.1517 17.9243 18.2085 17.9302 18.2742C17.9422 18.3339 17.9482 18.4026 17.9482 18.4803C17.9482 18.5579 17.9422 18.6296 17.9302 18.6953C17.9243 18.761 17.9153 18.8178 17.9034 18.8656C17.8914 18.9074 17.8735 18.9403 17.8496 18.9642C17.8257 18.9881 17.7988 19 17.7689 19ZM12.1863 23.0682V22.0467H13.3423V23.0682H12.1863ZM13.8172 23.0682V22.0467H14.9731V23.0682H13.8172ZM17.7653 19V17.9605H23.9842L23.1508 18.6326V17.1003C23.1508 16.5865 23.0821 16.1743 22.9447 15.8637C22.8133 15.553 22.6012 15.329 22.3085 15.1916C22.0217 15.0482 21.6484 14.9766 21.1884 14.9766C20.9673 14.9766 20.7254 14.9855 20.4625 15.0034C20.1997 15.0154 19.9368 15.0333 19.674 15.0572C19.4171 15.0751 19.1841 15.096 18.975 15.1199L18.8496 14.3134C19.0527 14.2597 19.2887 14.2029 19.5575 14.1432C19.8263 14.0835 20.1071 14.0327 20.3998 13.9909C20.6985 13.949 20.9882 13.9281 21.269 13.9281C21.6573 13.9281 22.0337 13.9819 22.3981 14.0894C22.7685 14.191 23.1 14.3642 23.3927 14.6092C23.6855 14.8481 23.9185 15.1707 24.0917 15.5769C24.2649 15.9832 24.3516 16.4909 24.3516 17.1003V19H17.7653ZM18.6883 17.9605V17.5125C18.6883 17.2257 18.76 16.9599 18.9033 16.715C19.0527 16.4641 19.2558 16.2669 19.5127 16.1236C19.7696 15.9742 20.0563 15.8995 20.3729 15.8995C20.6895 15.8995 20.9733 15.9742 21.2242 16.1236C21.4751 16.2669 21.6723 16.4611 21.8156 16.706C21.965 16.9509 22.0397 17.2198 22.0397 17.5125V17.9605H21.0898V17.5125C21.0898 17.3631 21.0569 17.2317 20.9912 17.1182C20.9255 16.9987 20.8389 16.9031 20.7314 16.8315C20.6238 16.7598 20.5043 16.7239 20.3729 16.7239C20.2415 16.7239 20.119 16.7598 20.0055 16.8315C19.898 16.9031 19.8114 16.9987 19.7457 17.1182C19.6799 17.2317 19.6471 17.3631 19.6471 17.5125V17.9605H18.6883ZM17.7653 19C17.7295 19 17.7026 18.9881 17.6847 18.9642C17.6608 18.9403 17.6428 18.9074 17.6309 18.8656C17.613 18.8178 17.601 18.761 17.595 18.6953C17.5891 18.6296 17.5861 18.5579 17.5861 18.4803C17.5861 18.3727 17.5921 18.2831 17.604 18.2114C17.616 18.1338 17.6369 18.074 17.6667 18.0322C17.6906 17.9844 17.7235 17.9605 17.7653 17.9605V19ZM26.9656 19V17.9605H27.9871V19H26.9656ZM25.7738 19V12.6646H26.9656V19H25.7738ZM27.9871 19V17.9605C28.0229 17.9605 28.0498 17.9725 28.0677 17.9964C28.0916 18.0203 28.1096 18.0561 28.1215 18.1039C28.1394 18.1517 28.1514 18.2085 28.1574 18.2742C28.1633 18.3339 28.1663 18.4026 28.1663 18.4803C28.1663 18.5579 28.1633 18.6296 28.1574 18.6953C28.1514 18.761 28.1394 18.8178 28.1215 18.8656C28.1096 18.9074 28.0916 18.9403 28.0677 18.9642C28.0498 18.9881 28.0229 19 27.9871 19ZM30.128 19V17.9605H31.0689V19H30.128ZM27.9863 19C27.9505 19 27.9236 18.9881 27.9057 18.9642C27.8818 18.9403 27.8639 18.9074 27.8519 18.8656C27.834 18.8178 27.822 18.761 27.8161 18.6953C27.8101 18.6296 27.8071 18.5579 27.8071 18.4803C27.8071 18.3727 27.8131 18.2831 27.825 18.2114C27.837 18.1338 27.8579 18.074 27.8878 18.0322C27.9117 17.9844 27.9445 17.9605 27.9863 17.9605V19ZM27.9863 19V17.9605H29.6262L28.9272 18.543V14.5016H30.128V19H27.9863ZM31.0689 19V17.9605C31.1047 17.9605 31.1346 17.9725 31.1585 17.9964C31.1824 18.0203 31.2003 18.0561 31.2123 18.1039C31.2242 18.1517 31.2332 18.2085 31.2391 18.2742C31.2451 18.3339 31.2481 18.4026 31.2481 18.4803C31.2481 18.5579 31.2451 18.6296 31.2391 18.6953C31.2332 18.761 31.2242 18.8178 31.2123 18.8656C31.2003 18.9074 31.1824 18.9403 31.1585 18.9642C31.1346 18.9881 31.1047 19 31.0689 19ZM28.9272 20.9087V19.8871H30.128V20.9087H28.9272ZM31.0666 19V17.9605H37.8411L36.8285 18.8387V16.9569C36.8285 16.6164 36.7837 16.3446 36.6941 16.1415C36.6045 15.9324 36.473 15.78 36.2998 15.6845C36.1325 15.5889 35.9294 15.5411 35.6905 15.5411C35.4336 15.5411 35.1887 15.5919 34.9557 15.6934C34.7287 15.795 34.5166 15.9264 34.3194 16.0877C34.1223 16.249 33.9401 16.4222 33.7728 16.6074C33.6056 16.7926 33.4562 16.9718 33.3248 17.1451C33.1934 17.3124 33.0799 17.4557 32.9843 17.5752L32.7154 16.706C32.9484 16.4252 33.1575 16.1684 33.3427 15.9354C33.5279 15.7024 33.7041 15.4963 33.8714 15.3171C34.0446 15.1379 34.2239 14.9885 34.4091 14.869C34.6002 14.7495 34.8063 14.6599 35.0274 14.6002C35.2544 14.5345 35.5172 14.5016 35.8159 14.5016C36.2162 14.5016 36.5567 14.5703 36.8375 14.7077C37.1182 14.8392 37.3452 15.0214 37.5185 15.2543C37.6977 15.4873 37.8261 15.7502 37.9038 16.0429C37.9874 16.3356 38.0293 16.6403 38.0293 16.9569V19H31.0666ZM32.1957 17.9605V14.5016H33.3965V17.9605H32.1957ZM31.0666 19C31.0308 19 31.0039 18.9881 30.986 18.9642C30.9621 18.9403 30.9442 18.9074 30.9322 18.8656C30.9143 18.8178 30.9024 18.761 30.8964 18.6953C30.8904 18.6296 30.8874 18.5579 30.8874 18.4803C30.8874 18.3727 30.8934 18.2831 30.9053 18.2114C30.9173 18.1338 30.9382 18.074 30.9681 18.0322C30.992 17.9844 31.0248 17.9605 31.0666 17.9605V19ZM40.8314 21.2223C40.6103 21.2223 40.3773 21.2044 40.1324 21.1685C39.8934 21.1387 39.6366 21.0969 39.3618 21.0431L39.541 20.0843C39.8397 20.1201 40.0936 20.147 40.3027 20.1649C40.5118 20.1828 40.688 20.1918 40.8314 20.1918C41.2615 20.1918 41.5721 20.1141 41.7633 19.9588C41.9545 19.8035 42.05 19.5705 42.05 19.2599V15.326L42.3457 15.5411H41.2256C40.9807 15.5411 40.7836 15.571 40.6342 15.6307C40.4849 15.6845 40.3744 15.801 40.3027 15.9802C40.237 16.1534 40.2041 16.4193 40.2041 16.7777C40.2041 17.1182 40.234 17.3751 40.2937 17.5483C40.3594 17.7156 40.4669 17.8261 40.6163 17.8799C40.7656 17.9337 40.9688 17.9605 41.2256 17.9605H42.05V19H41.2256C40.7179 19 40.2997 18.9194 39.9711 18.7581C39.6425 18.5968 39.3976 18.3518 39.2363 18.0233C39.081 17.6947 39.0033 17.2795 39.0033 16.7777C39.0033 16.2759 39.081 15.8577 39.2363 15.5232C39.3976 15.1827 39.6425 14.9288 39.9711 14.7615C40.2997 14.5882 40.7179 14.5016 41.2256 14.5016H43.2508V19.2599C43.2508 19.6661 43.1492 20.0156 42.9461 20.3083C42.749 20.607 42.4682 20.834 42.1038 20.9893C41.7454 21.1446 41.3212 21.2223 40.8314 21.2223ZM48.9121 21.2223C48.5238 21.2223 48.1624 21.1656 47.8279 21.052C47.4993 20.9445 47.2125 20.7922 46.9676 20.595C46.7227 20.4039 46.5285 20.1739 46.3852 19.9051C46.2478 19.6422 46.1791 19.3554 46.1791 19.0448C46.1791 18.9313 46.188 18.7849 46.2059 18.6057C46.2239 18.4265 46.2478 18.2204 46.2776 17.9874C46.3135 17.7544 46.3523 17.5065 46.3941 17.2437L47.577 17.405C47.5172 17.7813 47.4694 18.1159 47.4336 18.4086C47.3977 18.7013 47.3798 18.9074 47.3798 19.0269C47.3798 19.2539 47.4425 19.454 47.568 19.6273C47.6934 19.8005 47.8697 19.9349 48.0967 20.0305C48.3297 20.1321 48.6015 20.1828 48.9121 20.1828H51.4481C51.8364 20.1828 52.1261 20.0843 52.3173 19.8871C52.5084 19.696 52.604 19.4032 52.604 19.009C52.604 18.8118 52.5712 18.6595 52.5054 18.552C52.4397 18.4385 52.3232 18.3429 52.156 18.2652C51.9887 18.1816 51.7468 18.092 51.4301 17.9964C51.0717 17.8829 50.7581 17.7753 50.4892 17.6738C50.2204 17.5722 49.9994 17.4617 49.8261 17.3422C49.6529 17.2168 49.5215 17.0674 49.4319 16.8942C49.3482 16.7209 49.3064 16.5029 49.3064 16.24C49.3064 15.8458 49.393 15.5232 49.5663 15.2723C49.7395 15.0154 49.9874 14.8242 50.31 14.6988C50.6326 14.5673 51.015 14.5016 51.457 14.5016C51.6601 14.5016 51.9021 14.5166 52.1829 14.5464C52.4636 14.5763 52.837 14.6241 53.303 14.6898L53.1686 15.6845C52.7384 15.6367 52.386 15.6008 52.1112 15.5769C51.8364 15.553 51.6034 15.5411 51.4122 15.5411C51.1912 15.5411 51.012 15.565 50.8746 15.6128C50.7431 15.6546 50.6476 15.7233 50.5878 15.8189C50.5281 15.9085 50.4982 16.028 50.4982 16.1773C50.4982 16.3028 50.5281 16.4073 50.5878 16.4909C50.6535 16.5686 50.7461 16.6373 50.8656 16.697C50.9851 16.7568 51.1225 16.8106 51.2778 16.8583C51.4331 16.9002 51.6034 16.9509 51.7886 17.0107C52.1171 17.1063 52.4039 17.2138 52.6488 17.3333C52.8997 17.4468 53.1088 17.5782 53.2761 17.7276C53.4493 17.8769 53.5778 18.0591 53.6614 18.2742C53.751 18.4833 53.7958 18.7342 53.7958 19.0269C53.7958 19.457 53.7002 19.8364 53.5091 20.1649C53.3179 20.4935 53.0461 20.7504 52.6936 20.9356C52.3471 21.1267 51.932 21.2223 51.4481 21.2223H48.9121ZM48.6075 23.1399V22.1184H49.7634V23.1399H48.6075ZM50.2383 23.1399V22.1184H51.3943V23.1399H50.2383ZM58.3318 19V17.9605H59.2727V19H58.3318ZM54.6937 19V17.9605H57.9465L57.131 18.6684V17.163C57.131 16.7389 57.0862 16.4103 56.9966 16.1773C56.913 15.9443 56.7696 15.78 56.5665 15.6845C56.3693 15.5889 56.0975 15.5411 55.751 15.5411H55.0252V14.5016H55.751C56.3006 14.5016 56.7666 14.5912 57.1489 14.7705C57.5373 14.9497 57.83 15.2364 58.0271 15.6307C58.2302 16.019 58.3318 16.5298 58.3318 17.163V19H54.6937ZM59.2727 19V17.9605C59.3085 17.9605 59.3384 17.9725 59.3623 17.9964C59.3862 18.0203 59.4041 18.0561 59.4161 18.1039C59.428 18.1517 59.437 18.2085 59.4429 18.2742C59.4489 18.3339 59.4519 18.4026 59.4519 18.4803C59.4519 18.5579 59.4489 18.6296 59.4429 18.6953C59.437 18.761 59.428 18.8178 59.4161 18.8656C59.4041 18.9074 59.3862 18.9403 59.3623 18.9642C59.3384 18.9881 59.3085 19 59.2727 19ZM61.4124 19V17.9605H62.3533V19H61.4124ZM59.2707 19C59.2349 19 59.208 18.9881 59.1901 18.9642C59.1662 18.9403 59.1483 18.9074 59.1363 18.8656C59.1184 18.8178 59.1064 18.761 59.1005 18.6953C59.0945 18.6296 59.0915 18.5579 59.0915 18.4803C59.0915 18.3727 59.0975 18.2831 59.1094 18.2114C59.1214 18.1338 59.1423 18.074 59.1722 18.0322C59.196 17.9844 59.2289 17.9605 59.2707 17.9605V19ZM59.2707 19V17.9605H60.9106L60.2116 18.543V14.5016H61.4124V19H59.2707ZM62.3533 19V17.9605C62.3891 17.9605 62.419 17.9725 62.4429 17.9964C62.4668 18.0203 62.4847 18.0561 62.4966 18.1039C62.5086 18.1517 62.5176 18.2085 62.5235 18.2742C62.5295 18.3339 62.5325 18.4026 62.5325 18.4803C62.5325 18.5579 62.5295 18.6296 62.5235 18.6953C62.5176 18.761 62.5086 18.8178 62.4966 18.8656C62.4847 18.9074 62.4668 18.9403 62.4429 18.9642C62.419 18.9881 62.3891 19 62.3533 19ZM60.2116 13.6772V12.6557H61.4124V13.6772H60.2116ZM62.351 19V17.9605H66.5358L66.1684 18.2742V15.2812L66.473 15.5411H65.344C65.0811 15.5411 64.875 15.5739 64.7257 15.6397C64.5763 15.7054 64.4718 15.8278 64.412 16.0071C64.3523 16.1803 64.3224 16.4282 64.3224 16.7508C64.3224 17.1033 64.3523 17.3661 64.412 17.5394C64.4718 17.7066 64.5763 17.8201 64.7257 17.8799C64.875 17.9337 65.0811 17.9605 65.344 17.9605V18.8925C64.8362 18.8925 64.418 18.8208 64.0894 18.6774C63.7609 18.534 63.5159 18.307 63.3546 17.9964C63.1993 17.6798 63.1217 17.2646 63.1217 16.7508C63.1217 16.261 63.1993 15.8487 63.3546 15.5142C63.5159 15.1797 63.7609 14.9288 64.0894 14.7615C64.418 14.5882 64.8362 14.5016 65.344 14.5016H67.3691V19H62.351ZM62.351 19C62.3152 19 62.2883 18.9881 62.2704 18.9642C62.2465 18.9403 62.2286 18.9074 62.2166 18.8656C62.1987 18.8178 62.1867 18.761 62.1808 18.6953C62.1748 18.6296 62.1718 18.5579 62.1718 18.4803C62.1718 18.3727 62.1778 18.2831 62.1897 18.2114C62.2017 18.1338 62.2226 18.074 62.2525 18.0322C62.2764 17.9844 62.3092 17.9605 62.351 17.9605V19ZM64.869 13.6772V12.6557H66.0698V13.6772H64.869ZM68.3538 19V17.9605H72.9059L72.3324 18.552V12.6646H73.5332V19H68.3538ZM69.5993 17.9605V13.9192H70.7911V17.9605H69.5993ZM69.6621 13.1754C69.5486 13.038 69.4619 12.9066 69.4022 12.7811C69.3425 12.6557 69.3126 12.5213 69.3126 12.3779C69.3126 12.1748 69.3664 11.9926 69.4739 11.8313C69.5814 11.664 69.7218 11.5356 69.8951 11.446C70.0683 11.3504 70.2595 11.3026 70.4686 11.3026C70.5821 11.3026 70.6986 11.3175 70.818 11.3474C70.9375 11.3773 71.0391 11.4221 71.1227 11.4818L70.818 12.0284C70.7643 11.9985 70.7105 11.9806 70.6567 11.9747C70.6089 11.9627 70.5582 11.9567 70.5044 11.9567C70.361 11.9567 70.2505 11.9956 70.1728 12.0732C70.0952 12.1449 70.0564 12.2435 70.0564 12.3689C70.0564 12.4406 70.0713 12.5093 70.1012 12.575C70.131 12.6407 70.1758 12.7124 70.2356 12.7901L69.6621 13.1754ZM69.1155 13.2471V12.593H71.284V13.2471H69.1155ZM74.9975 19V12.6646H76.1893V19H74.9975ZM42.214 36C41.5748 36 41.0341 35.9164 40.5921 35.7491C40.156 35.5818 39.8244 35.3339 39.5974 35.0053C39.3764 34.6768 39.2659 34.2676 39.2659 33.7777C39.2659 33.6343 39.2748 33.485 39.2927 33.3297C39.3107 33.1684 39.3316 33.016 39.3555 32.8726C39.3853 32.7233 39.4122 32.5919 39.4361 32.4784C39.46 32.3649 39.4779 32.2812 39.4899 32.2275L40.6548 32.4515C40.6369 32.5471 40.613 32.6695 40.5831 32.8189C40.5532 32.9682 40.5264 33.1265 40.5025 33.2938C40.4786 33.4551 40.4666 33.6104 40.4666 33.7598C40.4666 33.9928 40.5025 34.1869 40.5742 34.3422C40.6518 34.4976 40.7653 34.623 40.9147 34.7186C41.064 34.8082 41.2522 34.8709 41.4792 34.9068C41.7062 34.9426 41.9721 34.9605 42.2767 34.9605H44.6693V31.5016H45.87V36H42.214ZM41.1835 31.3134V30.2919H42.3394V31.3134H41.1835ZM42.8144 31.3134V30.2919H43.9703V31.3134H42.8144ZM48.414 36V34.9605H49.4355V36H48.414ZM47.2222 36V29.6646H48.414V36H47.2222ZM49.4355 36V34.9605C49.4713 34.9605 49.4982 34.9725 49.5162 34.9964C49.54 35.0203 49.558 35.0561 49.5699 35.1039C49.5878 35.1517 49.5998 35.2085 49.6058 35.2742C49.6117 35.3339 49.6147 35.4026 49.6147 35.4803C49.6147 35.5579 49.6117 35.6296 49.6058 35.6953C49.5998 35.761 49.5878 35.8178 49.5699 35.8656C49.558 35.9074 49.54 35.9403 49.5162 35.9642C49.4982 35.9881 49.4713 36 49.4355 36ZM52.0513 36V34.9605H53.1714V36H52.0513ZM53.1714 36V34.9605C53.2013 34.9605 53.2282 34.9725 53.2521 34.9964C53.276 35.0203 53.2939 35.0561 53.3058 35.1039C53.3178 35.1517 53.3267 35.2085 53.3327 35.2742C53.3447 35.3339 53.3506 35.4026 53.3506 35.4803C53.3506 35.5579 53.3447 35.6296 53.3327 35.6953C53.3267 35.761 53.3178 35.8178 53.3058 35.8656C53.2939 35.9074 53.276 35.9403 53.2521 35.9642C53.2342 35.9881 53.2073 36 53.1714 36ZM49.4347 36C49.3989 36 49.372 35.9881 49.3541 35.9642C49.3302 35.9403 49.3123 35.9074 49.3003 35.8656C49.2824 35.8178 49.2704 35.761 49.2645 35.6953C49.2585 35.6296 49.2555 35.5579 49.2555 35.4803C49.2555 35.3727 49.2615 35.2831 49.2734 35.2114C49.2854 35.1338 49.3063 35.074 49.3362 35.0322C49.3601 34.9844 49.3929 34.9605 49.4347 34.9605V36ZM49.4347 36V34.9605H51.5585L50.8595 35.543V31.5016H52.0513V36H49.4347ZM49.7573 37.9087V36.8871H50.9133V37.9087H49.7573ZM51.3882 37.9087V36.8871H52.5442V37.9087H51.3882ZM57.8131 36V34.9605H58.763V36H57.8131ZM53.1714 36C53.1355 36 53.1086 35.9881 53.0907 35.9642C53.0668 35.9403 53.0489 35.9074 53.0369 35.8656C53.019 35.8178 53.0071 35.761 53.0011 35.6953C52.9951 35.6296 52.9921 35.5579 52.9921 35.4803C52.9921 35.3727 52.9981 35.2831 53.0101 35.2114C53.022 35.1338 53.0429 35.074 53.0728 35.0322C53.0967 34.9844 53.1295 34.9605 53.1714 34.9605V36ZM53.1714 36V34.9605H57.0245L56.6213 35.2921V33.6343C56.6213 33.2759 56.5078 33.0041 56.2808 32.8189C56.0598 32.6337 55.7073 32.5411 55.2234 32.5411C55.086 32.5411 54.8978 32.553 54.6589 32.5769C54.4199 32.5949 54.16 32.6247 53.8793 32.6665L53.7628 31.7167C54.0197 31.657 54.2795 31.6062 54.5424 31.5644C54.8112 31.5225 55.0741 31.5016 55.3309 31.5016C55.8208 31.5016 56.2509 31.5882 56.6213 31.7615C56.9917 31.9288 57.2814 32.1707 57.4905 32.4873C57.7056 32.8039 57.8131 33.1863 57.8131 33.6343V36H53.1714ZM58.763 36V34.9605C58.7928 34.9605 58.8197 34.9725 58.8436 34.9964C58.8675 35.0203 58.8854 35.0561 58.8974 35.1039C58.9093 35.1517 58.9183 35.2085 58.9243 35.2742C58.9362 35.3339 58.9422 35.4026 58.9422 35.4803C58.9422 35.5579 58.9362 35.6296 58.9243 35.6953C58.9183 35.761 58.9093 35.8178 58.8974 35.8656C58.8854 35.9074 58.8675 35.9403 58.8436 35.9642C58.8197 35.9881 58.7928 36 58.763 36ZM54.9008 37.9087V36.8871H56.1016V37.9087H54.9008ZM58.7632 36V34.9605H63.4139L62.8673 35.4265V33.7777C62.8673 33.4551 62.8314 33.2042 62.7597 33.025C62.688 32.8398 62.5626 32.7113 62.3834 32.6397C62.2101 32.562 61.9682 32.5232 61.6575 32.5232C61.4126 32.5232 61.1707 32.5411 60.9317 32.5769C60.6987 32.6068 60.5165 32.6486 60.3851 32.7024L61.1288 32.0034C61.093 32.1408 61.0572 32.3141 61.0213 32.5232C60.9914 32.7323 60.9646 32.9563 60.9407 33.1952C60.9168 33.4282 60.9048 33.6582 60.9048 33.8852C60.9048 34.0943 60.9138 34.3124 60.9317 34.5394C60.9556 34.7664 60.9795 34.9665 61.0034 35.1398C61.0333 35.313 61.0572 35.4325 61.0751 35.4982L59.937 35.8118C59.9132 35.7282 59.8833 35.5908 59.8474 35.3996C59.8116 35.2085 59.7787 34.9814 59.7489 34.7186C59.725 34.4557 59.713 34.178 59.713 33.8852C59.713 33.5865 59.728 33.2998 59.7578 33.025C59.7877 32.7442 59.8206 32.4933 59.8564 32.2723C59.8982 32.0453 59.937 31.8631 59.9729 31.7257C60.1163 31.6719 60.3403 31.6181 60.645 31.5644C60.9496 31.5106 61.2872 31.4837 61.6575 31.4837C62.1952 31.4837 62.6403 31.5584 62.9927 31.7077C63.3511 31.8571 63.617 32.099 63.7902 32.4336C63.9695 32.7681 64.0591 33.2191 64.0591 33.7867V36H58.7632ZM58.7632 36C58.7273 36 58.7004 35.9881 58.6825 35.9642C58.6586 35.9403 58.6407 35.9074 58.6288 35.8656C58.6108 35.8178 58.5989 35.761 58.5929 35.6953C58.5869 35.6296 58.584 35.5579 58.584 35.4803C58.584 35.3727 58.5899 35.2831 58.6019 35.2114C58.6138 35.1338 58.6347 35.074 58.6646 35.0322C58.6885 34.9844 58.7214 34.9605 58.7632 34.9605V36ZM68.8633 36V31.5016H70.0641V35.543L69.3651 34.9605H71.005V36H68.8633ZM66.9815 33.4372V32.3888H68.8633V33.4372H66.9815ZM65.028 38.2223C64.9504 38.2223 64.8667 38.2193 64.7771 38.2133C64.6875 38.2074 64.5949 38.1984 64.4993 38.1865L64.5441 37.1649C64.6397 37.1709 64.7293 37.1769 64.813 37.1828C64.9026 37.1888 64.9683 37.1918 65.0101 37.1918C65.2431 37.1918 65.4283 37.0992 65.5657 36.914C65.7091 36.7288 65.7807 36.469 65.7807 36.1344V31.5016H66.9815V36.1344C66.9815 36.5406 66.8979 36.9021 66.7306 37.2187C66.5693 37.5353 66.3423 37.7802 66.0496 37.9535C65.7568 38.1327 65.4163 38.2223 65.028 38.2223ZM71.005 36V34.9605C71.0408 34.9605 71.0707 34.9725 71.0946 34.9964C71.1185 35.0203 71.1364 35.0561 71.1483 35.1039C71.1603 35.1517 71.1692 35.2085 71.1752 35.2742C71.1812 35.3339 71.1842 35.4026 71.1842 35.4803C71.1842 35.5579 71.1812 35.6296 71.1752 35.6953C71.1692 35.761 71.1603 35.8178 71.1483 35.8656C71.1364 35.9074 71.1185 35.9403 71.0946 35.9642C71.0707 35.9881 71.0408 36 71.005 36ZM68.8633 37.9087V36.8871H70.0641V37.9087H68.8633ZM73.219 36V34.9605H74.1599V36H73.219ZM71.0056 36C70.9698 36 70.9429 35.9881 70.925 35.9642C70.9011 35.9403 70.8832 35.9074 70.8712 35.8656C70.8533 35.8178 70.8414 35.761 70.8354 35.6953C70.8294 35.6296 70.8264 35.5579 70.8264 35.4803C70.8264 35.3727 70.8324 35.2831 70.8443 35.2114C70.8563 35.1338 70.8772 35.074 70.9071 35.0322C70.931 34.9844 70.9638 34.9605 71.0056 34.9605V36ZM72.0182 36V29.6646H73.219V36H72.0182ZM71.0056 36V34.9605H72.0182V36H71.0056ZM74.1599 36V34.9605C74.1957 34.9605 74.2256 34.9725 74.2495 34.9964C74.2734 35.0203 74.2913 35.0561 74.3033 35.1039C74.3152 35.1517 74.3242 35.2085 74.3301 35.2742C74.3361 35.3339 74.3391 35.4026 74.3391 35.4803C74.3391 35.5579 74.3361 35.6296 74.3301 35.6953C74.3242 35.761 74.3152 35.8178 74.3033 35.8656C74.2913 35.9074 74.2734 35.9403 74.2495 35.9642C74.2256 35.9881 74.1957 36 74.1599 36ZM75.1685 36V29.6646H76.3693V36H75.1685ZM74.156 36V34.9605H75.1685V36H74.156ZM74.156 36C74.1201 36 74.0932 35.9881 74.0753 35.9642C74.0514 35.9403 74.0335 35.9074 74.0216 35.8656C74.0036 35.8178 73.9917 35.761 73.9857 35.6953C73.9797 35.6296 73.9767 35.5579 73.9767 35.4803C73.9767 35.3727 73.9827 35.2831 73.9947 35.2114C74.0066 35.1338 74.0275 35.074 74.0574 35.0322C74.0813 34.9844 74.1142 34.9605 74.156 34.9605V36Z" fill="#2E2E2E"/>
</svg>
