<svg width="48" height="48" viewBox="0 0 48 48" fill="none" xmlns="http://www.w3.org/2000/svg">
<path fill-rule="evenodd" clip-rule="evenodd" d="M12.1757 34.7615C15.6004 32.257 22.1995 15.302 23.5858 9.31445C16.4275 10.2114 9.97984 18.2899 10.0148 26.5839C10.0206 28.9021 10.9176 33.4568 12.1757 34.7615Z" fill="#DB3022"/>
<path fill-rule="evenodd" clip-rule="evenodd" d="M30.0336 42.269C35.8405 42.2224 36.0327 43.4106 38.4208 39.0365C41.8281 32.781 35.194 30.1018 34.6815 26.7527C34.4019 24.9588 35.5377 23.3396 36.324 22.4717C37.0928 21.6214 38.4557 20.1711 39.3352 19.4838C39.9293 19.0237 42.2649 17.2589 42.5911 16.8104L38.8692 16.7754C36.1143 16.7813 36.0036 16.3444 34.3262 17.8122C33.2021 18.8023 32.4332 19.5129 31.5071 20.5613C22.8404 30.3697 38.4732 31.9889 32.8526 39.4791C32.2701 40.2596 30.3073 41.7507 30.0336 42.269Z" fill="#2E2E2E"/>
<path fill-rule="evenodd" clip-rule="evenodd" d="M28.6299 24.3762C29.4046 21.6154 31.7809 19.571 33.2953 18.1149C36.4405 15.0862 36.5279 16.7636 42.3407 16.2511C41.4029 14.2708 38.0772 11.7197 35.7765 10.5373C32.8235 9.0113 28.892 8.41138 24.9722 8.92975C25.0887 9.42483 26.4108 10.712 26.9001 11.4051C28.0125 12.9777 27.5175 13.5602 27.5116 15.6803C27.5 17.8295 27.6631 22.8677 28.6299 24.3762Z" fill="#DB3022"/>
<path fill-rule="evenodd" clip-rule="evenodd" d="M17.534 36.6134C13.3987 42.6883 10.0088 39.182 8.87891 34.8078C9.86324 35.9203 10.7369 36.7124 12.2979 35.3786C14.6859 33.3343 17.2137 28.0224 18.431 25.0577C19.4852 22.495 20.5453 19.8507 21.4772 17.2122C21.6215 16.8042 21.7696 16.3947 21.919 15.9814C22.2581 15.0436 22.604 14.0871 22.9275 13.0885C23.0105 12.835 23.0995 12.578 23.189 12.3199C23.3318 11.9079 23.4755 11.4931 23.5973 11.0849C23.6511 10.908 23.6937 10.742 23.734 10.585C23.8767 10.0287 23.9907 9.58397 24.4768 9.15698C24.7806 9.63951 25.1636 10.0702 25.5581 10.5138C25.9349 10.9377 26.3223 11.3733 26.6609 11.877C27.2192 12.7144 27.1449 13.7637 27.0667 14.8665C27.0372 15.2825 27.0072 15.7061 27.0104 16.1288C27.1046 24.9046 29.8681 30.3314 31.6802 33.8898C32.6703 35.8342 33.3764 37.2207 33.2076 38.2909C32.7121 38.3255 32.0581 37.8386 31.1274 37.1459C29.083 35.6239 25.7034 33.1081 19.7357 32.944L19.4037 33.3459C19.3891 33.3663 19.3731 33.391 19.3571 33.4158C19.3411 33.4406 19.3251 33.4653 19.3105 33.4857C19.3008 33.4986 19.2339 33.617 19.1712 33.7279C19.1208 33.8172 19.073 33.9017 19.06 33.9225L17.534 36.6134ZM23.3878 30.595C22.7821 30.4499 22.1372 30.2954 21.1045 29.9154L23.5158 23.4619C23.6178 23.2452 23.6249 23.2182 23.6246 23.2188C23.6242 23.2195 23.6116 23.2656 23.7721 23.0135L23.9992 22.7339C24.4582 25.3843 25.4671 27.3466 26.4555 29.2689C26.9723 30.2741 27.4835 31.2683 27.9074 32.3442C25.3479 31.0645 24.4253 30.8435 23.3878 30.595Z" fill="#2E2E2E"/>
<path d="M9.15296 30.1831C9.24616 30.1598 9.3277 30.1482 9.40924 30.1598C9.48496 30.1656 9.55485 30.1889 9.6131 30.2239C9.67134 30.2588 9.72376 30.2996 9.76453 30.3578C9.8053 30.4161 9.83442 30.4801 9.8519 30.55C9.86937 30.5966 9.8752 30.6432 9.8752 30.6898C9.8752 30.7306 9.8752 30.7714 9.86937 30.8063C9.86355 30.8413 9.85772 30.8762 9.84607 30.8995C9.84025 30.9286 9.8286 30.9461 9.81695 30.9578C9.81113 30.9694 9.79365 30.9811 9.77036 30.9927C9.75288 31.0043 9.72376 31.016 9.67717 31.0276C9.64804 31.0335 9.62474 31.0393 9.60727 31.0393C9.5898 31.0451 9.57232 31.0451 9.56068 31.0451C9.54903 31.0451 9.53738 31.0451 9.53155 31.0393C9.52573 31.0393 9.5199 31.0335 9.5199 31.0218C9.51408 31.016 9.5199 30.9985 9.53155 30.9752C9.53738 30.9519 9.54903 30.9228 9.56068 30.8937C9.5665 30.8587 9.57815 30.818 9.57815 30.7714C9.58397 30.7306 9.57815 30.6782 9.5665 30.6258C9.55485 30.5908 9.5432 30.5617 9.52573 30.5384C9.50243 30.5151 9.48496 30.4976 9.46166 30.4801C9.43254 30.4685 9.40924 30.4569 9.38012 30.4569C9.34517 30.4569 9.31605 30.4569 9.2811 30.4685C9.24033 30.4801 9.20538 30.4976 9.18209 30.5209C9.15879 30.5442 9.14132 30.5733 9.12967 30.6083C9.11219 30.6432 9.10054 30.684 9.0889 30.7248C9.08307 30.7655 9.07142 30.8063 9.05977 30.8471C9.04812 30.8937 9.03648 30.9345 9.01318 30.9811C8.9957 31.0218 8.97241 31.0626 8.94328 31.1034C8.91416 31.1383 8.87339 31.1733 8.8268 31.2082C8.77438 31.2373 8.71613 31.2664 8.64041 31.2839C8.55887 31.3072 8.48315 31.3189 8.41326 31.3072C8.33754 31.3014 8.2793 31.2839 8.22105 31.2548C8.16863 31.2199 8.12204 31.1791 8.08709 31.1325C8.05214 31.0801 8.02302 31.0218 8.00555 30.9578C7.99972 30.9228 7.9939 30.8879 7.98808 30.8529C7.98808 30.818 7.98808 30.783 7.98808 30.7539C7.9939 30.719 7.9939 30.6957 8.00555 30.6665C8.01137 30.6432 8.0172 30.6199 8.02302 30.6141C8.03467 30.6025 8.0405 30.5966 8.04632 30.5908C8.05214 30.585 8.05797 30.585 8.06962 30.5792C8.07544 30.5733 8.09292 30.5675 8.10456 30.5617C8.12204 30.5559 8.13951 30.55 8.16281 30.5442C8.19193 30.5384 8.21523 30.5326 8.2327 30.5267C8.25018 30.5267 8.26765 30.5209 8.2793 30.5209C8.29095 30.5209 8.3026 30.5209 8.30842 30.5267C8.31424 30.5267 8.32007 30.5326 8.32007 30.5442C8.32007 30.55 8.32007 30.5675 8.31424 30.585C8.3026 30.6083 8.29677 30.6316 8.29095 30.6607C8.2793 30.6898 8.27347 30.7248 8.27347 30.7597C8.26765 30.7947 8.27347 30.8354 8.28512 30.8762C8.29095 30.9053 8.3026 30.9345 8.32007 30.9519C8.33754 30.9752 8.35502 30.9869 8.37831 30.9985C8.39579 31.0102 8.41908 31.016 8.44821 31.016C8.4715 31.016 8.50063 31.016 8.52392 31.0102C8.5647 30.9985 8.59382 30.9811 8.61712 30.9519C8.64041 30.9286 8.66371 30.8995 8.67536 30.8646C8.68701 30.8296 8.69866 30.7947 8.71031 30.7481C8.72196 30.7073 8.7336 30.6665 8.73943 30.6258C8.75108 30.5792 8.76855 30.5326 8.78602 30.4918C8.8035 30.4452 8.8268 30.4044 8.85592 30.3695C8.89086 30.3287 8.92581 30.2938 8.97823 30.2588C9.02483 30.2297 9.08307 30.2064 9.15296 30.1831ZM8.83844 29.2978L9.46748 29.1813C9.47913 29.1813 9.48496 29.1813 9.49661 29.1871C9.50243 29.1871 9.51408 29.1929 9.5199 29.2046C9.52573 29.2162 9.53155 29.2279 9.53738 29.2512C9.5432 29.2687 9.54903 29.292 9.55485 29.3153C9.56068 29.3444 9.56068 29.3735 9.56068 29.391C9.56068 29.4085 9.56068 29.4259 9.56068 29.4376C9.55485 29.4492 9.55485 29.455 9.54903 29.4609C9.53738 29.4667 9.53155 29.4725 9.5199 29.4725L8.89086 29.589L7.98225 30.1598C7.95313 30.1773 7.92401 30.1948 7.90653 30.2006C7.88906 30.2064 7.87741 30.2064 7.86576 30.2006C7.85411 30.1948 7.84246 30.1831 7.83664 30.1598C7.83082 30.1365 7.82499 30.1074 7.81917 30.0666C7.80752 30.0317 7.80752 30.0025 7.80169 29.9851C7.80169 29.9618 7.80169 29.9443 7.80752 29.9327C7.80752 29.921 7.81334 29.9094 7.81917 29.9035C7.83082 29.8977 7.83664 29.8919 7.84829 29.8802L8.26182 29.6414C8.3026 29.6181 8.34337 29.5948 8.38996 29.5715C8.43656 29.5482 8.48315 29.5249 8.52975 29.4958C8.47733 29.49 8.42491 29.4842 8.37249 29.4783C8.32589 29.4725 8.2793 29.4667 8.2327 29.4609L7.76675 29.3852C7.74927 29.3793 7.73762 29.3793 7.72598 29.3735C7.72015 29.3735 7.7085 29.3619 7.70268 29.356C7.69685 29.3444 7.6852 29.3327 7.67938 29.3094C7.67938 29.292 7.67356 29.2687 7.66773 29.2337C7.65608 29.1929 7.65026 29.158 7.65026 29.1347C7.65026 29.1114 7.65026 29.0939 7.66191 29.0881C7.66773 29.0765 7.6852 29.0706 7.70268 29.0706C7.72598 29.0706 7.74927 29.0765 7.79004 29.0823L8.83844 29.2978ZM9.22286 27.399C9.23451 27.399 9.24033 27.399 9.24616 27.399C9.2578 27.399 9.26363 27.4107 9.26945 27.4165C9.27528 27.4281 9.2811 27.4456 9.28693 27.4689C9.28693 27.4864 9.29275 27.5155 9.29858 27.5563C9.3044 27.5854 9.3044 27.6087 9.3044 27.6262C9.3044 27.6495 9.3044 27.6611 9.29858 27.6728C9.29858 27.6844 9.29275 27.6961 9.2811 27.7019C9.27528 27.7019 9.26363 27.7077 9.2578 27.7135L8.86757 27.8941C8.82097 27.9174 8.7802 27.9349 8.75108 27.9582C8.71613 27.9756 8.68701 27.9931 8.66371 28.0164C8.64624 28.0397 8.62876 28.063 8.61712 28.0863C8.61129 28.1096 8.60547 28.1387 8.61129 28.1737L8.62294 28.261L9.31605 28.1795C9.3277 28.1737 9.33352 28.1795 9.33935 28.1795C9.351 28.1853 9.35682 28.1911 9.36264 28.2028C9.36847 28.2144 9.37429 28.2261 9.38012 28.2436C9.38594 28.2669 9.39177 28.2902 9.39177 28.3193C9.39759 28.3426 9.39759 28.3659 9.39759 28.3892C9.39759 28.4066 9.39759 28.4241 9.39177 28.4358C9.38594 28.4474 9.38594 28.4532 9.37429 28.4591C9.36847 28.4649 9.36264 28.4707 9.351 28.4707L7.7085 28.6746C7.66773 28.6804 7.63278 28.6746 7.61531 28.6571C7.59201 28.6454 7.58036 28.628 7.58036 28.5989L7.53377 28.2261C7.52794 28.1911 7.52794 28.1562 7.52212 28.1329C7.52212 28.1096 7.52212 28.0863 7.52212 28.063C7.52794 28.0048 7.53959 27.9523 7.55707 27.8999C7.57454 27.8533 7.60366 27.8067 7.63861 27.7718C7.67938 27.7368 7.72015 27.7019 7.77257 27.6786C7.83082 27.6553 7.88906 27.6378 7.96478 27.632C8.02302 27.6262 8.08127 27.6203 8.13369 27.6262C8.18028 27.632 8.22688 27.6495 8.27347 27.6669C8.31424 27.6844 8.34919 27.7077 8.38414 27.7427C8.41908 27.7718 8.44821 27.8126 8.4715 27.8533C8.47733 27.83 8.4948 27.8067 8.50645 27.7834C8.52392 27.766 8.54722 27.7427 8.57052 27.7252C8.59382 27.7019 8.62294 27.6844 8.65789 27.6669C8.68701 27.6436 8.72778 27.6262 8.76855 27.6087L9.10637 27.4398C9.14132 27.4223 9.17044 27.4165 9.18209 27.4107C9.19956 27.4048 9.21121 27.399 9.22286 27.399ZM8.0405 27.929C7.97643 27.9349 7.92983 27.9523 7.88906 27.9815C7.85411 28.0048 7.83082 28.0455 7.81917 28.0979C7.81334 28.1154 7.81334 28.1329 7.81334 28.1504C7.81334 28.1678 7.81334 28.197 7.81917 28.2261L7.83664 28.3601L8.34919 28.296L8.33172 28.1504C8.32589 28.1038 8.31424 28.0688 8.29677 28.0397C8.2793 28.0106 8.26182 27.9873 8.2327 27.9698C8.2094 27.9523 8.18028 27.9407 8.14534 27.9349C8.11621 27.9232 8.07544 27.9232 8.0405 27.929ZM9.18791 26.77C9.19956 26.77 9.20538 26.77 9.21703 26.7758C9.22286 26.7816 9.22868 26.7874 9.23451 26.7991C9.24033 26.8107 9.24616 26.8282 9.25198 26.8457C9.25198 26.8632 9.2578 26.8865 9.2578 26.9156C9.26363 26.9447 9.26363 26.968 9.2578 26.9855C9.2578 27.003 9.2578 27.0204 9.25198 27.0321C9.25198 27.0437 9.24616 27.0554 9.23451 27.0612C9.22868 27.0612 9.22286 27.067 9.21121 27.067L7.493 27.201C7.48135 27.201 7.47552 27.1952 7.46388 27.1952C7.45805 27.1893 7.45223 27.1835 7.4464 27.1719C7.44058 27.1602 7.43475 27.1427 7.42893 27.1253C7.42893 27.1078 7.4231 27.0845 7.4231 27.0554C7.41728 27.0263 7.41728 27.003 7.4231 26.9855C7.4231 26.9622 7.4231 26.9505 7.42893 26.9389C7.43475 26.9272 7.43475 26.9156 7.4464 26.9098C7.45223 26.9039 7.45805 26.9039 7.4697 26.9039L9.18791 26.77ZM9.10054 25.145C9.13549 25.1391 9.16461 25.1333 9.18209 25.1333C9.19956 25.1275 9.21703 25.1333 9.22868 25.1391C9.23451 25.1508 9.24033 25.1624 9.24616 25.1857C9.24616 25.209 9.24616 25.2381 9.24616 25.2731C9.24033 25.308 9.24033 25.3372 9.24033 25.3605C9.24033 25.3838 9.23451 25.4012 9.22868 25.4071C9.22286 25.4187 9.21703 25.4304 9.21121 25.4304C9.20538 25.4362 9.19374 25.442 9.18209 25.442L8.80932 25.5294L8.79767 26.0769L9.15296 26.1759C9.16461 26.1817 9.17626 26.1875 9.18209 26.1934C9.19374 26.1934 9.19956 26.205 9.20538 26.2167C9.21121 26.2283 9.21121 26.24 9.21121 26.2633C9.21703 26.2807 9.21703 26.3098 9.21121 26.339C9.21121 26.3739 9.21121 26.403 9.20538 26.4205C9.20538 26.438 9.19374 26.4555 9.18791 26.4613C9.17626 26.4671 9.15879 26.4671 9.14132 26.4671C9.11802 26.4613 9.09472 26.4555 9.05977 26.4496L7.45223 25.9546C7.44058 25.9487 7.4231 25.9429 7.41728 25.9371C7.40563 25.9313 7.39981 25.9196 7.39398 25.908C7.38816 25.8963 7.38816 25.873 7.38816 25.8497C7.38233 25.8264 7.38233 25.7973 7.38816 25.7623C7.38816 25.7158 7.38816 25.6808 7.38816 25.6575C7.39398 25.6284 7.39981 25.6109 7.40563 25.5934C7.41146 25.5818 7.41728 25.5701 7.42893 25.5643C7.43475 25.5585 7.45223 25.5527 7.4697 25.5468L9.10054 25.145ZM7.74345 25.774L8.51228 26.0012L8.52392 25.5934L7.74345 25.774ZM9.351 22.5997C9.38594 22.5938 9.41506 22.5938 9.43254 22.5938C9.45584 22.5938 9.46748 22.5997 9.47913 22.6055C9.48496 22.6171 9.49078 22.6346 9.49078 22.6521C9.49078 22.6754 9.48496 22.7045 9.48496 22.7395C9.47913 22.7802 9.47331 22.8094 9.46748 22.8268C9.46748 22.8501 9.46166 22.8676 9.45584 22.8734C9.45001 22.8851 9.44419 22.8909 9.43254 22.8967C9.42671 22.9025 9.41506 22.9025 9.40342 22.9025L9.03065 22.955L8.96076 23.4966L9.3044 23.6306C9.31605 23.6364 9.3277 23.6422 9.33352 23.6481C9.34517 23.6539 9.351 23.6655 9.351 23.6772C9.35682 23.683 9.35682 23.7005 9.35682 23.7238C9.35682 23.7413 9.35682 23.7704 9.351 23.7995C9.34517 23.8345 9.34517 23.8578 9.33935 23.8811C9.33352 23.8985 9.32187 23.9102 9.31022 23.916C9.29858 23.9218 9.28693 23.9218 9.26363 23.9218C9.24616 23.916 9.22286 23.9043 9.18791 23.8927L7.63861 23.252C7.62114 23.2462 7.60949 23.2345 7.59784 23.2287C7.59201 23.2229 7.58619 23.2112 7.58036 23.1996C7.57454 23.1821 7.57454 23.1646 7.58036 23.1413C7.58036 23.118 7.58036 23.0889 7.58619 23.054C7.59201 23.0074 7.59784 22.9724 7.60366 22.9491C7.60366 22.92 7.60949 22.9025 7.62114 22.8851C7.62696 22.8734 7.63278 22.8618 7.64443 22.8618C7.65608 22.8559 7.67356 22.8501 7.69103 22.8501L9.351 22.5997ZM7.94148 23.1006L8.68701 23.3976L8.7336 22.9899L7.94148 23.1006ZM9.59562 21.4989C9.62474 21.5047 9.64804 21.5105 9.66552 21.5163C9.68299 21.5221 9.70046 21.528 9.71211 21.5338C9.72376 21.5396 9.72958 21.5513 9.73541 21.5571C9.73541 21.5629 9.74123 21.5687 9.73541 21.5746L9.5898 22.2269C9.58397 22.2502 9.5665 22.2677 9.54903 22.2793C9.52573 22.291 9.49661 22.291 9.45584 22.2852L7.83664 21.9124C7.83082 21.9066 7.81917 21.9066 7.81334 21.9007C7.80752 21.8891 7.80752 21.8833 7.80169 21.8716C7.80169 21.86 7.80169 21.8425 7.80169 21.825C7.80169 21.8017 7.80752 21.7784 7.81334 21.7551C7.81917 21.726 7.82499 21.7027 7.83664 21.6852C7.84246 21.6678 7.84829 21.6503 7.85411 21.6445C7.85994 21.6328 7.87159 21.627 7.87741 21.6212C7.88906 21.6212 7.89488 21.6212 7.90653 21.6212L9.33352 21.9532L9.43836 21.5047C9.43836 21.4989 9.44419 21.493 9.45001 21.4872C9.45584 21.4872 9.46748 21.4814 9.47913 21.4814C9.49078 21.4814 9.50826 21.4814 9.52573 21.4814C9.5432 21.4872 9.5665 21.493 9.59562 21.4989ZM9.91014 20.3864C9.93344 20.3922 9.95674 20.4039 9.97421 20.4097C9.99169 20.4155 10.0033 20.4213 10.015 20.4272C10.0208 20.433 10.0325 20.4388 10.0325 20.4505C10.0383 20.4563 10.0383 20.4621 10.0383 20.4679L9.84025 21.1727C9.83442 21.196 9.81695 21.2135 9.79365 21.2251C9.77036 21.2368 9.74123 21.2368 9.70046 21.2251L8.16863 20.7883C8.12786 20.7766 8.10456 20.765 8.09292 20.7417C8.07544 20.7184 8.07544 20.7009 8.08127 20.6776L8.2793 19.9787C8.2793 19.967 8.28512 19.967 8.29095 19.9612C8.29677 19.9554 8.3026 19.9554 8.31424 19.9554C8.33172 19.9554 8.34337 19.9554 8.36084 19.9612C8.38414 19.9612 8.40161 19.967 8.43073 19.9728C8.45403 19.9845 8.47733 19.9903 8.4948 19.9961C8.51228 20.002 8.52392 20.0078 8.53557 20.0136C8.54722 20.0253 8.55305 20.0311 8.55887 20.0369C8.55887 20.0427 8.55887 20.0486 8.55887 20.0544L8.41908 20.5553L8.84427 20.6776L8.96658 20.2524C8.96658 20.2466 8.97241 20.2408 8.97823 20.2408C8.98406 20.2349 8.98988 20.2349 9.00153 20.2291C9.01318 20.2291 9.03065 20.2349 9.04812 20.2349C9.0656 20.2408 9.0889 20.2466 9.11219 20.2524C9.14132 20.2582 9.15879 20.2641 9.17626 20.2699C9.19374 20.2815 9.20538 20.2874 9.21703 20.2932C9.22868 20.299 9.23451 20.3048 9.23451 20.3107C9.24033 20.3165 9.24033 20.3223 9.23451 20.334L9.11802 20.7533L9.6131 20.8931L9.75288 20.3864C9.75871 20.3806 9.75871 20.3747 9.77036 20.3747C9.77618 20.3689 9.78201 20.3689 9.79365 20.3689C9.8053 20.3689 9.82278 20.3689 9.84025 20.3689C9.85772 20.3747 9.88102 20.3806 9.91014 20.3864ZM9.28693 18.7206C9.38594 18.7555 9.46748 18.7963 9.53155 18.8429C9.60145 18.8953 9.64804 18.9536 9.68299 19.0118C9.72376 19.0759 9.74123 19.1458 9.74706 19.2215C9.74706 19.303 9.73541 19.3846 9.70629 19.4778L9.66552 19.5884L10.2188 19.7806C10.2247 19.7806 10.2305 19.7865 10.2363 19.7923C10.2421 19.7981 10.248 19.8098 10.248 19.8214C10.248 19.8331 10.248 19.8505 10.2421 19.868C10.2421 19.8855 10.2363 19.9088 10.2247 19.9379C10.213 19.9612 10.2072 19.9845 10.1955 20.002C10.1897 20.0194 10.1781 20.0311 10.1722 20.0427C10.1664 20.0486 10.1548 20.0544 10.1489 20.0602C10.1373 20.0602 10.1315 20.0602 10.1198 20.0544L8.5647 19.5302C8.52392 19.5127 8.4948 19.4952 8.48315 19.4719C8.46568 19.4428 8.46568 19.4195 8.4715 19.3904L8.58217 19.0642C8.59382 19.0351 8.60547 19.0002 8.61712 18.9769C8.63459 18.9477 8.65206 18.9128 8.67536 18.8779C8.69866 18.8371 8.7336 18.8021 8.77438 18.7672C8.81515 18.7381 8.86174 18.7148 8.91416 18.6973C8.96658 18.6798 9.02483 18.674 9.0889 18.6798C9.14714 18.6856 9.21703 18.6973 9.28693 18.7206ZM9.21121 19.0235C9.15296 19.0002 9.10054 18.9943 9.05395 18.9943C9.00735 19.0002 8.97241 19.0118 8.94328 19.0293C8.91999 19.0468 8.89669 19.0701 8.88504 19.0934C8.86757 19.1225 8.85592 19.1516 8.84427 19.1807L8.8035 19.2972L9.39177 19.5011L9.43836 19.3729C9.45001 19.3263 9.45584 19.2856 9.45001 19.2506C9.45001 19.2157 9.43254 19.1865 9.41506 19.1574C9.39177 19.1283 9.36847 19.0992 9.33352 19.0759C9.29858 19.0584 9.2578 19.0351 9.21121 19.0235ZM9.88685 17.3868C9.98004 17.4334 10.0558 17.48 10.1198 17.5382C10.1839 17.5906 10.2247 17.6547 10.2538 17.7188C10.2829 17.7887 10.3004 17.8586 10.2946 17.9343C10.2887 18.01 10.2713 18.0915 10.2305 18.1789L10.1781 18.2896L10.7081 18.5342C10.7197 18.5342 10.7256 18.54 10.7314 18.5517C10.7372 18.5575 10.7372 18.5692 10.7372 18.5808C10.7372 18.5925 10.7314 18.6041 10.7314 18.6216C10.7256 18.6449 10.7139 18.6623 10.7023 18.6915C10.6906 18.7148 10.679 18.7381 10.6731 18.7555C10.6615 18.773 10.6498 18.7847 10.644 18.7905C10.6324 18.7963 10.6207 18.8021 10.6149 18.8021C10.6091 18.808 10.5974 18.8021 10.5916 18.8021L9.09472 18.1207C9.05395 18.1032 9.02483 18.0857 9.01318 18.0566C9.00153 18.0333 9.00153 18.0042 9.01318 17.9751L9.15296 17.6664C9.17044 17.6314 9.18209 17.6023 9.19956 17.579C9.21703 17.5499 9.23451 17.5208 9.26363 17.4858C9.29275 17.4509 9.3277 17.4159 9.37429 17.3868C9.42089 17.3577 9.46748 17.3402 9.5199 17.3285C9.57815 17.3227 9.63057 17.3169 9.69464 17.3285C9.75288 17.3402 9.81695 17.3577 9.88685 17.3868ZM9.78201 17.6838C9.72376 17.6547 9.67717 17.6431 9.63057 17.6431C9.58397 17.6431 9.54903 17.6489 9.5199 17.6664C9.49078 17.678 9.46748 17.7013 9.45001 17.7246C9.43254 17.7479 9.42089 17.777 9.40342 17.8003L9.351 17.9168L9.92179 18.1731L9.97421 18.0508C9.99169 18.01 10.0033 17.9692 10.0033 17.9343C9.99751 17.8993 9.99169 17.8644 9.97421 17.8353C9.95674 17.8062 9.92762 17.777 9.89849 17.7479C9.86355 17.7246 9.8286 17.7013 9.78201 17.6838ZM11.0226 16.0006C11.1507 16.0763 11.2614 16.1578 11.3488 16.2394C11.442 16.3267 11.506 16.4141 11.5468 16.5073C11.5876 16.6005 11.6051 16.6995 11.5992 16.7927C11.5934 16.8917 11.5643 16.9907 11.506 17.0897C11.4478 17.1888 11.3837 17.2645 11.308 17.3169C11.2381 17.3693 11.1507 17.4043 11.0576 17.4159C10.9644 17.4276 10.8595 17.4101 10.743 17.3751C10.6265 17.346 10.4984 17.2878 10.3586 17.2062C10.2305 17.1305 10.1256 17.0548 10.0383 16.9674C9.95091 16.8801 9.88685 16.7927 9.84607 16.6995C9.8053 16.6063 9.78201 16.5131 9.78783 16.4141C9.79365 16.3151 9.8286 16.2161 9.88685 16.1171C9.93927 16.0239 10.0033 15.9482 10.0791 15.8957C10.1548 15.8375 10.2363 15.8084 10.3295 15.7967C10.4227 15.7851 10.5275 15.7967 10.644 15.8317C10.7605 15.8608 10.8828 15.919 11.0226 16.0006ZM10.8828 16.2743C10.8013 16.2277 10.7197 16.1928 10.6498 16.1637C10.5741 16.1345 10.5042 16.1171 10.4402 16.1112C10.3819 16.1112 10.3237 16.1229 10.2713 16.1462C10.2247 16.1753 10.1781 16.2161 10.1431 16.2801C10.1082 16.3442 10.0907 16.4025 10.0965 16.4607C10.1023 16.5189 10.1198 16.5772 10.1548 16.6354C10.1897 16.6879 10.2363 16.7403 10.3004 16.7869C10.3586 16.8393 10.4285 16.8859 10.4984 16.9267C10.5858 16.9791 10.6673 17.014 10.743 17.049C10.8188 17.0781 10.8828 17.0897 10.9469 17.0956C11.011 17.1014 11.0692 17.0897 11.1158 17.0606C11.1682 17.0373 11.209 16.9907 11.2439 16.9267C11.2847 16.8626 11.2964 16.8043 11.2905 16.7461C11.2905 16.6879 11.2672 16.6296 11.2323 16.5714C11.1973 16.5189 11.1507 16.4665 11.0867 16.4199C11.0284 16.3675 10.9585 16.3209 10.8828 16.2743ZM12.7292 15.0279C12.7408 15.0337 12.7466 15.0395 12.7466 15.0454C12.7525 15.057 12.7525 15.0687 12.7466 15.0803C12.7466 15.092 12.7408 15.1036 12.735 15.1211C12.7234 15.1386 12.7117 15.156 12.6942 15.1793C12.6768 15.2026 12.6651 15.2259 12.6476 15.2376C12.636 15.2492 12.6243 15.2609 12.6127 15.2667C12.601 15.2725 12.5952 15.2783 12.5836 15.2783C12.5777 15.2783 12.5661 15.2725 12.5603 15.2667L11.1566 14.2649C11.1507 14.2591 11.1449 14.2532 11.1391 14.2416C11.1391 14.2358 11.1391 14.2241 11.1391 14.2125C11.1391 14.2008 11.1507 14.1892 11.1566 14.1717C11.1624 14.1542 11.1799 14.1309 11.1915 14.1076C11.209 14.0843 11.2265 14.0669 11.2381 14.0552C11.2556 14.0377 11.2672 14.0319 11.2731 14.0261C11.2847 14.0144 11.2964 14.0144 11.3022 14.0144C11.3138 14.0144 11.3197 14.0203 11.3313 14.0261L12.7292 15.0279ZM13.1369 13.6999C13.2126 13.7582 13.2708 13.8222 13.3058 13.8863C13.3466 13.9562 13.3699 14.0203 13.3815 14.0902C13.3873 14.16 13.3815 14.2241 13.3582 14.294C13.3349 14.3581 13.3058 14.4221 13.2592 14.4804C13.2243 14.5212 13.1951 14.5503 13.1602 14.5794C13.1252 14.6085 13.0903 14.6318 13.0612 14.6493C13.0262 14.661 12.9971 14.6784 12.9738 14.6842C12.9447 14.6901 12.9214 14.6959 12.9097 14.6959C12.8923 14.6959 12.8748 14.6901 12.8515 14.6784C12.834 14.6668 12.8049 14.6493 12.7699 14.6202C12.7466 14.6027 12.7292 14.5852 12.7175 14.5736C12.7001 14.5619 12.6884 14.5503 12.6826 14.5386C12.6768 14.527 12.6709 14.5212 12.6709 14.5095C12.6709 14.5037 12.6709 14.4979 12.6768 14.492C12.6826 14.4804 12.7001 14.4746 12.7234 14.4687C12.7466 14.4629 12.7758 14.4571 12.8107 14.4454C12.8398 14.4338 12.8748 14.4163 12.9156 14.393C12.9505 14.3697 12.9913 14.3348 13.0204 14.294C13.0437 14.2649 13.0612 14.2358 13.0728 14.2066C13.0786 14.1775 13.0845 14.1484 13.0786 14.1193C13.0786 14.096 13.067 14.0669 13.0495 14.0436C13.032 14.0144 13.0146 13.9911 12.9855 13.9678C12.9505 13.9445 12.9156 13.9271 12.8864 13.9271C12.8515 13.9212 12.8165 13.9212 12.7758 13.9329C12.7408 13.9387 12.7059 13.9504 12.6651 13.9678C12.6302 13.9853 12.5894 14.0028 12.5486 14.0203C12.502 14.0319 12.4613 14.0494 12.4147 14.061C12.3681 14.0727 12.3215 14.0727 12.2749 14.0727C12.2224 14.0727 12.17 14.061 12.1176 14.0436C12.0652 14.0203 12.0069 13.9853 11.9487 13.9387C11.8788 13.8863 11.8264 13.8281 11.7914 13.7698C11.7565 13.7057 11.7332 13.6475 11.7274 13.5834C11.7157 13.5194 11.7215 13.4611 11.7448 13.4029C11.7623 13.3388 11.7973 13.2864 11.838 13.234C11.8555 13.2048 11.8788 13.1815 11.9079 13.1582C11.9312 13.1349 11.9603 13.1175 11.9895 13.1C12.0128 13.0825 12.0419 13.0709 12.0652 13.0592C12.0943 13.0476 12.1118 13.0476 12.1234 13.0476C12.1351 13.0476 12.1467 13.0476 12.1526 13.0476C12.1584 13.0476 12.1642 13.0534 12.1759 13.0592C12.1875 13.0651 12.1992 13.0709 12.2108 13.0825C12.2224 13.0883 12.2399 13.1 12.2574 13.1175C12.2807 13.1349 12.2982 13.1466 12.3156 13.1641C12.3273 13.1757 12.3389 13.1874 12.3448 13.1932C12.3564 13.2048 12.3564 13.2107 12.3622 13.2223C12.3622 13.2281 12.3622 13.234 12.3564 13.2398C12.3506 13.2456 12.3389 13.2514 12.3156 13.2573C12.2923 13.2631 12.269 13.2747 12.2399 13.2864C12.2108 13.298 12.1817 13.3097 12.1526 13.333C12.1176 13.3505 12.0885 13.3737 12.0652 13.4087C12.0477 13.432 12.0302 13.4611 12.0244 13.4844C12.0186 13.5077 12.0186 13.531 12.0186 13.5543C12.0244 13.5776 12.0302 13.6009 12.0477 13.6242C12.0594 13.6417 12.0768 13.665 12.1001 13.6824C12.1293 13.7057 12.1642 13.7174 12.1992 13.7232C12.2341 13.729 12.269 13.729 12.304 13.7174C12.3389 13.7057 12.3797 13.6941 12.4205 13.6766C12.4554 13.6591 12.4962 13.6475 12.537 13.63C12.5836 13.6126 12.6243 13.5951 12.6709 13.5834C12.7175 13.5718 12.7641 13.566 12.8165 13.5718C12.8631 13.5718 12.9156 13.5834 12.968 13.6009C13.0204 13.6184 13.0786 13.6533 13.1369 13.6999ZM14.4765 12.9777C14.4882 12.9835 14.494 12.9893 14.494 13.001C14.494 13.0068 14.494 13.0185 14.494 13.0301C14.4882 13.0418 14.4823 13.0592 14.4707 13.0709C14.4532 13.0883 14.4416 13.1116 14.4183 13.1291C14.3833 13.1699 14.36 13.1932 14.3425 13.2048C14.3251 13.2165 14.3076 13.2223 14.296 13.2223C14.2785 13.2223 14.2668 13.2223 14.2552 13.2165L13.3233 12.9369L13.9523 13.531C13.9581 13.5427 13.964 13.5485 13.964 13.5543C13.9698 13.566 13.9698 13.5776 13.964 13.5893C13.9581 13.6009 13.9523 13.6126 13.9407 13.63C13.929 13.6417 13.9174 13.6591 13.8941 13.6824C13.8766 13.7057 13.8591 13.7174 13.8416 13.729C13.83 13.7407 13.8183 13.7523 13.8067 13.7582C13.795 13.7582 13.7834 13.764 13.7718 13.7582C13.7659 13.7582 13.7543 13.7523 13.7485 13.7465L12.502 12.5641C12.4962 12.5525 12.4904 12.5467 12.4845 12.5409C12.4845 12.5292 12.4845 12.5176 12.4904 12.5059C12.4962 12.4943 12.502 12.4826 12.5137 12.4651C12.5253 12.4535 12.537 12.436 12.5603 12.4127C12.5777 12.3952 12.5952 12.3778 12.6127 12.3661C12.6243 12.3545 12.6418 12.3428 12.6476 12.337C12.6593 12.337 12.6709 12.3312 12.6768 12.337C12.6884 12.337 12.6942 12.3428 12.7059 12.3486L13.2708 12.8845L12.9971 12.0399C12.9913 12.0283 12.9913 12.0167 12.9913 12.005C12.9855 11.9934 12.9913 11.9817 12.9971 11.9701C13.0029 11.9584 13.0087 11.9468 13.0204 11.9293C13.032 11.9176 13.0495 11.9002 13.067 11.8769C13.0903 11.8536 13.1078 11.8419 13.1194 11.8244C13.1369 11.8128 13.1485 11.807 13.1602 11.8011C13.1718 11.7953 13.1835 11.7953 13.1893 11.7953C13.201 11.8011 13.2068 11.8011 13.2126 11.807C13.2243 11.8186 13.2359 11.8361 13.2417 11.8536C13.2534 11.8652 13.265 11.8943 13.2767 11.9351L13.4805 12.6748L14.3775 12.9253C14.4183 12.9427 14.4416 12.9544 14.4532 12.9602C14.4649 12.966 14.4707 12.9719 14.4765 12.9777ZM15.257 12.0982C15.2803 12.1157 15.2919 12.1331 15.3036 12.1506C15.3152 12.1623 15.3269 12.1739 15.3269 12.1856C15.3327 12.1972 15.3385 12.2089 15.3385 12.2147C15.3385 12.2205 15.3327 12.2263 15.3269 12.2322L14.8027 12.7389C14.7852 12.7564 14.7619 12.7622 14.7386 12.7622C14.7153 12.7564 14.6862 12.7447 14.6571 12.7156L13.5562 11.5623C13.5271 11.5332 13.5155 11.5041 13.5155 11.4808C13.5155 11.4575 13.5213 11.4342 13.5388 11.4167L14.063 10.9158C14.0688 10.91 14.0746 10.91 14.0804 10.91C14.0863 10.91 14.0979 10.91 14.1096 10.9158C14.1212 10.9217 14.1329 10.9333 14.1445 10.945C14.162 10.9566 14.1795 10.9741 14.1969 10.9915C14.2144 11.0148 14.2319 11.0265 14.2435 11.044C14.2552 11.0556 14.261 11.0731 14.2668 11.0789C14.2727 11.0906 14.2727 11.1022 14.2727 11.108C14.2727 11.1139 14.2727 11.1197 14.2668 11.1255L13.8882 11.4866L14.1969 11.807L14.5115 11.5041C14.5173 11.4983 14.5231 11.4983 14.5348 11.4983C14.5406 11.4983 14.5522 11.4983 14.5581 11.5041C14.5697 11.5099 14.5813 11.5216 14.5988 11.5332C14.6105 11.5449 14.6279 11.5565 14.6454 11.5798C14.6629 11.5973 14.6804 11.6148 14.6862 11.6264C14.6978 11.6439 14.7095 11.6555 14.7153 11.6672C14.7153 11.673 14.7211 11.6847 14.7211 11.6905C14.7153 11.6963 14.7153 11.7021 14.7095 11.708L14.395 12.0108L14.7503 12.3836L15.1288 12.0225C15.1347 12.0167 15.1405 12.0167 15.1463 12.0167C15.1521 12.0167 15.1638 12.0167 15.1754 12.0225C15.1813 12.0283 15.1929 12.0399 15.2104 12.0516C15.222 12.0632 15.2395 12.0749 15.257 12.0982ZM16.5034 11.1139C16.5151 11.1313 16.5267 11.1488 16.5325 11.1663C16.5384 11.1838 16.5384 11.1954 16.5384 11.2129C16.5384 11.2304 16.5325 11.242 16.5267 11.2536C16.5209 11.2653 16.5092 11.2769 16.4976 11.2886L16.3986 11.3643C16.3811 11.3818 16.3578 11.3934 16.3403 11.3993C16.3229 11.4051 16.2996 11.4051 16.2763 11.4051C16.253 11.3993 16.2238 11.3934 16.1947 11.376C16.1656 11.3643 16.1307 11.341 16.0841 11.3177L15.2745 10.8692C15.2279 10.8401 15.1754 10.811 15.123 10.7819C15.0648 10.7469 15.0182 10.712 14.9716 10.6829H14.9658C15.0124 10.7353 15.0531 10.7877 15.0997 10.8401C15.1405 10.8867 15.1871 10.945 15.2279 10.9974L15.822 11.7487C15.8278 11.7604 15.8278 11.7662 15.8278 11.772C15.8336 11.7837 15.8278 11.7953 15.8278 11.8011C15.822 11.8128 15.8103 11.8244 15.7987 11.8361C15.787 11.8536 15.7695 11.8652 15.7521 11.8827C15.7288 11.9002 15.7113 11.9118 15.6996 11.9176C15.6822 11.9293 15.6705 11.9351 15.6589 11.9351C15.6472 11.9351 15.6356 11.9351 15.6297 11.9351C15.6239 11.9293 15.6181 11.9235 15.6123 11.9176L14.593 10.6246C14.5697 10.5897 14.5581 10.5605 14.5581 10.5314C14.5581 10.4965 14.5755 10.4732 14.5988 10.4557L14.7211 10.3567C14.7444 10.3392 14.7619 10.3276 14.7852 10.3217C14.8027 10.3159 14.8202 10.3101 14.8434 10.3101C14.8667 10.3159 14.89 10.3217 14.9133 10.3334C14.9425 10.345 14.9716 10.3567 15.0007 10.38L15.6414 10.7294C15.6763 10.7527 15.7113 10.7702 15.7521 10.7935C15.787 10.811 15.822 10.8343 15.8569 10.8576C15.8977 10.8751 15.9326 10.8984 15.9676 10.9217C16.0025 10.9391 16.0316 10.9624 16.0666 10.9799C16.0258 10.9333 15.9792 10.8809 15.9384 10.8226C15.8918 10.7644 15.8511 10.712 15.8103 10.6654L15.2803 9.98974C15.2745 9.98392 15.2686 9.97227 15.2686 9.96645C15.2686 9.9548 15.2686 9.94897 15.2745 9.93732C15.2803 9.92568 15.2861 9.91403 15.2978 9.90238C15.3094 9.8849 15.3269 9.87326 15.3502 9.85578C15.3676 9.83831 15.3851 9.82666 15.4026 9.82084C15.4201 9.80919 15.4317 9.80336 15.4434 9.80336C15.4492 9.80336 15.4608 9.80336 15.4667 9.80919C15.4783 9.80919 15.4841 9.81501 15.49 9.82666L16.5034 11.1139ZM17.4295 9.50631C17.5169 9.6461 17.5809 9.78006 17.6159 9.89655C17.6508 10.013 17.6625 10.1237 17.6508 10.2227C17.6334 10.3217 17.5984 10.4091 17.5402 10.4906C17.4819 10.5722 17.3946 10.6479 17.2897 10.7178L16.9985 10.9042C16.9752 10.9158 16.9519 10.9217 16.9286 10.9158C16.9053 10.91 16.882 10.8867 16.8587 10.8518L15.9967 9.51214C15.9734 9.47719 15.9617 9.44807 15.9676 9.42477C15.9734 9.40147 15.985 9.384 16.0083 9.36653L16.317 9.1685C16.4277 9.0986 16.5325 9.05201 16.6257 9.03453C16.7247 9.01706 16.8179 9.02289 16.9111 9.05783C17.0043 9.08695 17.0917 9.13937 17.1791 9.20927C17.2664 9.28499 17.348 9.384 17.4295 9.50631ZM17.1791 9.68105C17.1325 9.61116 17.08 9.54709 17.0276 9.49467C16.9752 9.44225 16.917 9.40147 16.8587 9.37235C16.8005 9.34906 16.7364 9.33741 16.6723 9.34323C16.6083 9.34323 16.5384 9.37235 16.4626 9.41895L16.3403 9.50049L17.0101 10.5431L17.1383 10.4615C17.2082 10.4149 17.2548 10.3683 17.2897 10.3159C17.3188 10.2635 17.3363 10.2052 17.3421 10.1412C17.3421 10.0771 17.3305 10.0072 17.3014 9.9315C17.2781 9.85578 17.2373 9.77424 17.1791 9.68105ZM18.9147 9.55874C18.9264 9.58203 18.938 9.60533 18.9439 9.6228C18.9555 9.63445 18.9555 9.65193 18.9613 9.66358C18.9613 9.67522 18.9613 9.68687 18.9613 9.6927C18.9555 9.69852 18.9555 9.70435 18.9497 9.71017L18.3148 10.0713C18.2973 10.0829 18.274 10.0888 18.2508 10.0771C18.2275 10.0713 18.2042 10.048 18.1809 10.013L17.3887 8.63265C17.3654 8.5977 17.3596 8.56858 17.3654 8.54528C17.3713 8.52198 17.3829 8.50451 17.4062 8.48704L18.0352 8.12592C18.0411 8.12592 18.0469 8.1201 18.0527 8.12592C18.0585 8.12592 18.0644 8.13175 18.076 8.13757C18.0877 8.14922 18.0935 8.16087 18.1051 8.17252C18.1168 8.18999 18.1284 8.20746 18.1459 8.23076C18.1576 8.25406 18.1692 8.27736 18.175 8.29483C18.1809 8.3123 18.1867 8.32395 18.1925 8.3356C18.1925 8.34725 18.1925 8.3589 18.1925 8.36472C18.1867 8.37055 18.1867 8.37637 18.1809 8.3822L17.7324 8.63847L17.9537 9.02289L18.3323 8.80738C18.3381 8.80156 18.3439 8.80156 18.3498 8.80156C18.3556 8.80738 18.3672 8.80738 18.3731 8.81903C18.3847 8.82485 18.3905 8.8365 18.4022 8.85398C18.4138 8.86563 18.4255 8.8831 18.4371 8.9064C18.4546 8.92969 18.4663 8.95299 18.4721 8.96464C18.4779 8.98211 18.4837 8.99959 18.4837 9.01124C18.4896 9.02289 18.4896 9.02871 18.4837 9.03453C18.4837 9.04036 18.4779 9.04618 18.4721 9.05201L18.0935 9.26751L18.3498 9.716L18.8041 9.4539C18.8099 9.4539 18.8157 9.44807 18.8215 9.4539C18.8274 9.4539 18.839 9.45972 18.8448 9.46554C18.8565 9.47137 18.8681 9.48302 18.874 9.50049C18.8856 9.51796 18.8973 9.53544 18.9147 9.55874ZM20.2835 9.02871C20.2893 9.03453 20.2893 9.04618 20.2893 9.05201C20.2893 9.06366 20.2835 9.06948 20.2777 9.08113C20.266 9.08695 20.2544 9.0986 20.2369 9.11025C20.2194 9.11608 20.1903 9.13355 20.1553 9.1452C20.1262 9.15685 20.1029 9.1685 20.0855 9.17432C20.068 9.18015 20.0563 9.18597 20.0447 9.18597C20.033 9.18015 20.0214 9.18015 20.0156 9.17432C20.0039 9.1685 19.9981 9.16267 19.9923 9.15102L19.701 8.8365C19.6719 8.79573 19.637 8.76661 19.6137 8.73749C19.5845 8.71419 19.5554 8.69089 19.5263 8.67924C19.503 8.66177 19.4739 8.65595 19.4506 8.65595C19.4215 8.65595 19.3923 8.66177 19.3632 8.67342L19.2817 8.70837L19.5671 9.34906C19.5729 9.35488 19.5729 9.36653 19.5729 9.37235C19.5671 9.384 19.5613 9.38983 19.5554 9.40147C19.5496 9.4073 19.538 9.41895 19.5205 9.4306C19.503 9.43642 19.4797 9.44807 19.4564 9.45972C19.4331 9.47137 19.4098 9.48302 19.3865 9.48884C19.369 9.49467 19.3574 9.49467 19.3457 9.49467C19.3341 9.49467 19.3224 9.49467 19.3166 9.48884C19.305 9.48302 19.2992 9.47719 19.2992 9.46554L18.6177 7.95701C18.6002 7.91624 18.5944 7.88712 18.606 7.86382C18.6119 7.84052 18.6293 7.82305 18.6468 7.8114L18.9905 7.65997C19.0254 7.64249 19.0545 7.63084 19.0778 7.61919C19.1011 7.61337 19.1244 7.60755 19.1419 7.60172C19.2001 7.58425 19.2584 7.57842 19.3108 7.58425C19.3632 7.59007 19.4156 7.60172 19.4622 7.62502C19.5088 7.64832 19.5496 7.68326 19.5845 7.72986C19.6253 7.77063 19.6603 7.82887 19.6894 7.89294C19.7127 7.95119 19.7302 8.00361 19.7418 8.0502C19.7476 8.10262 19.7535 8.15504 19.7476 8.19581C19.7418 8.24241 19.7302 8.28901 19.7069 8.32978C19.6894 8.37055 19.6603 8.40549 19.6253 8.44044C19.6544 8.44627 19.6777 8.45209 19.701 8.45791C19.7302 8.46956 19.7535 8.48121 19.7826 8.49869C19.8059 8.51616 19.835 8.53946 19.8641 8.56275C19.8874 8.59188 19.9165 8.621 19.9515 8.65595L20.2078 8.92969C20.2369 8.95882 20.2544 8.98211 20.2602 8.99376C20.2718 9.00541 20.2777 9.01706 20.2835 9.02871ZM19.4273 8.05603C19.404 7.99778 19.369 7.95701 19.3341 7.92789C19.2992 7.89877 19.2526 7.88712 19.2001 7.89294C19.1827 7.89294 19.171 7.89877 19.1477 7.90459C19.1302 7.91042 19.1069 7.91624 19.0778 7.93371L18.9555 7.98613L19.1652 8.45791L19.305 8.39385C19.3399 8.37637 19.3749 8.3589 19.3982 8.3356C19.4215 8.30648 19.4389 8.28318 19.4448 8.25406C19.4564 8.22494 19.4622 8.18999 19.4564 8.15504C19.4506 8.12592 19.4448 8.09097 19.4273 8.05603ZM21.4542 7.87547C21.495 7.98031 21.5183 8.07933 21.5299 8.16669C21.5357 8.25988 21.5299 8.34725 21.5066 8.41714C21.4775 8.49286 21.4367 8.56275 21.3785 8.621C21.3261 8.67924 21.2503 8.72584 21.1571 8.76079C21.0756 8.79573 20.9941 8.81321 20.9125 8.81321C20.8368 8.81321 20.7611 8.79573 20.697 8.75496C20.6271 8.72001 20.5631 8.66759 20.5048 8.5977C20.4524 8.52781 20.4 8.43462 20.3592 8.32978L19.9457 7.29885C19.9457 7.2872 19.9398 7.28138 19.9457 7.26973C19.9457 7.2639 19.9515 7.25225 19.9573 7.24643C19.969 7.23478 19.9806 7.22896 19.9981 7.21731C20.0156 7.20566 20.033 7.19983 20.0622 7.18819C20.0913 7.17654 20.1087 7.17071 20.132 7.16489C20.1495 7.15906 20.1612 7.15906 20.1728 7.15906C20.1845 7.15906 20.1961 7.16489 20.2019 7.16489C20.2136 7.17071 20.2194 7.18236 20.2194 7.18819L20.6213 8.18999C20.6446 8.25988 20.6737 8.3123 20.7087 8.3589C20.7436 8.39967 20.7786 8.43462 20.8135 8.45791C20.8543 8.48121 20.8892 8.49286 20.93 8.49286C20.9708 8.49869 21.0174 8.49286 21.0581 8.47539C21.0989 8.45791 21.1339 8.43462 21.163 8.39967C21.1921 8.37055 21.2096 8.3356 21.2212 8.29483C21.2329 8.25406 21.2329 8.20746 21.227 8.15504C21.2212 8.10262 21.2096 8.0502 21.1863 7.98613L20.7786 6.96686C20.7727 6.95521 20.7727 6.94938 20.7727 6.93773C20.7786 6.93191 20.7844 6.92026 20.7902 6.91444C20.796 6.90279 20.8135 6.89696 20.831 6.88531C20.8426 6.87949 20.8659 6.86784 20.895 6.85619C20.9183 6.84454 20.9416 6.83872 20.9591 6.83289C20.9766 6.83289 20.9941 6.82707 21.0057 6.82707C21.0174 6.82707 21.029 6.83289 21.0348 6.83872C21.0407 6.84454 21.0465 6.85037 21.0523 6.85619L21.4542 7.87547ZM23.2423 7.95119C23.2481 7.97449 23.2481 7.99196 23.2481 8.00943C23.2481 8.02691 23.2423 8.04438 23.2365 8.05603C23.2307 8.06768 23.219 8.07933 23.2074 8.09097C23.1957 8.0968 23.1841 8.10262 23.1724 8.10845L23.0501 8.14339C23.021 8.14922 23.0035 8.14922 22.9802 8.14922C22.9627 8.14922 22.9394 8.14339 22.922 8.13175C22.8987 8.1201 22.8812 8.0968 22.8579 8.0735C22.8346 8.0502 22.8055 8.01526 22.7763 7.97449L22.1997 7.25225C22.1648 7.20566 22.1298 7.15906 22.0949 7.10664C22.0599 7.06005 22.025 7.00763 21.9959 6.96103H21.99C22.0133 7.0251 22.0308 7.08917 22.0541 7.15324C22.0716 7.21731 22.0891 7.2872 22.1124 7.35127L22.3628 8.27153C22.3686 8.28318 22.3686 8.29483 22.3686 8.30065C22.3628 8.30648 22.357 8.31813 22.3512 8.32395C22.3395 8.32978 22.3279 8.34143 22.3162 8.34725C22.2987 8.35307 22.2754 8.3589 22.2521 8.37055C22.223 8.37637 22.2056 8.3822 22.1881 8.3822C22.1706 8.3822 22.1531 8.3822 22.1473 8.3822C22.1357 8.37637 22.124 8.37637 22.1182 8.37055C22.1124 8.36472 22.1124 8.35307 22.1065 8.34725L21.6697 6.763C21.6581 6.72223 21.6581 6.68728 21.6755 6.65816C21.6872 6.63486 21.7105 6.61739 21.7396 6.60574L21.891 6.56497C21.9202 6.55914 21.9434 6.55332 21.9609 6.55332C21.9842 6.55332 22.0017 6.55914 22.0192 6.57079C22.0366 6.57662 22.0599 6.59409 22.0774 6.61739C22.0949 6.63486 22.1182 6.66398 22.1415 6.69311L22.5958 7.2639C22.6191 7.29303 22.6482 7.32797 22.6715 7.36292C22.7006 7.39787 22.7239 7.43281 22.7472 7.46193C22.7705 7.49688 22.7996 7.53183 22.8229 7.56095C22.8462 7.5959 22.8695 7.63084 22.8928 7.65997C22.8754 7.5959 22.8521 7.53183 22.8346 7.46193C22.8113 7.39204 22.7938 7.32797 22.7763 7.2639L22.5492 6.44266C22.5434 6.43101 22.5434 6.42518 22.5492 6.41353C22.5492 6.40771 22.555 6.39606 22.5608 6.39024C22.5725 6.37859 22.5841 6.37276 22.6016 6.36694C22.6191 6.36111 22.6366 6.34946 22.6657 6.34364C22.689 6.33782 22.7065 6.33199 22.7239 6.33199C22.7414 6.32617 22.7589 6.33199 22.7705 6.33199C22.7763 6.33782 22.788 6.33782 22.7938 6.34364C22.7996 6.34946 22.7996 6.36111 22.8055 6.36694L23.2423 7.95119ZM25.6827 7.40369C25.6886 7.42699 25.6886 7.44446 25.6886 7.46193C25.6886 7.47941 25.6886 7.49106 25.6886 7.50271C25.6886 7.52018 25.6886 7.526 25.6827 7.53765C25.6827 7.54348 25.6769 7.55513 25.6711 7.56677C25.6653 7.57842 25.6478 7.5959 25.6245 7.61337C25.607 7.63084 25.5779 7.65414 25.5488 7.67161C25.5138 7.68909 25.4789 7.71239 25.4381 7.72403C25.3915 7.74151 25.3449 7.75316 25.2983 7.75898C25.1993 7.77063 25.1061 7.75898 25.0246 7.73568C24.9372 7.70656 24.8615 7.65414 24.7974 7.58425C24.7334 7.52018 24.6809 7.42699 24.6343 7.31632C24.5936 7.20566 24.5586 7.07752 24.5412 6.92608C24.5237 6.77465 24.5237 6.63486 24.5412 6.51255C24.5586 6.38441 24.5936 6.27957 24.6402 6.1922C24.6868 6.10484 24.7508 6.03494 24.8266 5.98252C24.9023 5.9301 24.9896 5.89516 25.0887 5.88351C25.1294 5.87768 25.1702 5.87768 25.211 5.88351C25.2459 5.88933 25.2809 5.89516 25.3158 5.90098C25.3508 5.91263 25.3799 5.92428 25.409 5.94175C25.4323 5.9534 25.4556 5.97088 25.4672 5.9767C25.4789 5.98835 25.4847 6 25.4905 6.00582C25.4964 6.01747 25.4964 6.02912 25.5022 6.04077C25.508 6.05242 25.508 6.06989 25.5138 6.08736C25.5197 6.10484 25.5197 6.12231 25.5255 6.15143C25.5255 6.18056 25.5313 6.20385 25.5313 6.22133C25.5313 6.2388 25.5313 6.25627 25.5255 6.26792C25.5255 6.27957 25.5197 6.29122 25.5197 6.29704C25.5138 6.30287 25.508 6.30869 25.5022 6.30869C25.4905 6.30869 25.4731 6.30287 25.4556 6.29122C25.4381 6.27375 25.4148 6.2621 25.3857 6.24462C25.3508 6.22715 25.3216 6.20968 25.2809 6.19803C25.2401 6.18638 25.1935 6.18638 25.1411 6.1922C25.0828 6.19803 25.0362 6.22133 24.9955 6.25627C24.9547 6.29122 24.9197 6.33782 24.8964 6.39606C24.8731 6.4543 24.8557 6.5242 24.8498 6.60574C24.844 6.68146 24.844 6.76882 24.8557 6.86784C24.8673 6.97268 24.8906 7.06587 24.9139 7.14159C24.943 7.21731 24.978 7.27555 25.0129 7.32215C25.0537 7.36874 25.0945 7.40369 25.1469 7.42116C25.1935 7.43864 25.2459 7.44446 25.3042 7.43864C25.3566 7.43281 25.4032 7.42116 25.4381 7.39787C25.4731 7.38039 25.5022 7.35709 25.5255 7.33962C25.5546 7.31632 25.5721 7.29303 25.5896 7.28138C25.6012 7.2639 25.6187 7.25225 25.6245 7.25225C25.6303 7.25225 25.642 7.25225 25.642 7.25225C25.6478 7.25808 25.6536 7.2639 25.6594 7.27555C25.6594 7.2872 25.6653 7.30467 25.6711 7.32215C25.6769 7.33962 25.6769 7.36874 25.6827 7.40369ZM26.8884 7.44446C26.8884 7.47358 26.8884 7.49106 26.8884 7.51435C26.8884 7.53183 26.8884 7.54348 26.8826 7.55513C26.8826 7.56677 26.8768 7.57842 26.8709 7.58425C26.8651 7.59007 26.8593 7.59007 26.8535 7.59007L26.1254 7.64832C26.1021 7.64832 26.0788 7.64249 26.0613 7.62502C26.0439 7.60755 26.0322 7.57842 26.0322 7.53765L25.9099 5.9534C25.9099 5.90681 25.9157 5.87768 25.9274 5.86021C25.9448 5.83691 25.9623 5.83109 25.9914 5.82526L26.7137 5.77284C26.7195 5.77284 26.7253 5.77284 26.7311 5.77867C26.737 5.78449 26.7428 5.79032 26.7486 5.80197C26.7486 5.81362 26.7544 5.82526 26.7603 5.84856C26.7603 5.86604 26.7661 5.88933 26.7661 5.91846C26.7661 5.94175 26.7719 5.96505 26.7661 5.98252C26.7661 6 26.7661 6.01747 26.7661 6.02912C26.7603 6.04077 26.7544 6.04659 26.7544 6.05242C26.7486 6.05824 26.7428 6.06407 26.737 6.06407L26.2186 6.10484L26.2535 6.5475L26.6845 6.51255C26.6962 6.51255 26.702 6.51255 26.7078 6.51837C26.7137 6.5242 26.7195 6.53002 26.7195 6.54167C26.7253 6.55332 26.7311 6.56497 26.7311 6.58244C26.737 6.60574 26.737 6.62321 26.7428 6.65234C26.7428 6.68146 26.7428 6.69893 26.7428 6.7164C26.7428 6.7397 26.7428 6.75135 26.737 6.763C26.737 6.77465 26.7311 6.78047 26.7253 6.7863C26.7195 6.79212 26.7137 6.79212 26.7078 6.79795L26.271 6.82707L26.3118 7.33962L26.8302 7.29885C26.8418 7.29885 26.8476 7.30467 26.8535 7.3105C26.8593 7.3105 26.8651 7.32215 26.8651 7.3338C26.8709 7.34545 26.8768 7.35709 26.8768 7.37457C26.8826 7.39204 26.8826 7.41534 26.8884 7.44446ZM28.4727 7.48523C28.4727 7.50271 28.4727 7.526 28.461 7.54348C28.4552 7.56095 28.4494 7.5726 28.4377 7.58425C28.4261 7.5959 28.4144 7.60172 28.4028 7.60755C28.3853 7.61337 28.3736 7.61337 28.362 7.61337L28.2339 7.60755C28.2047 7.60755 28.1814 7.60755 28.164 7.5959C28.1465 7.59007 28.129 7.57842 28.1115 7.56095C28.0999 7.54348 28.0824 7.52018 28.0708 7.49106C28.0533 7.45611 28.0416 7.42116 28.0242 7.37457L27.6864 6.50672C27.6631 6.4543 27.6456 6.40188 27.6281 6.34364C27.6048 6.27957 27.5873 6.22715 27.5757 6.16891H27.5699C27.5699 6.2388 27.5699 6.30287 27.5699 6.37276C27.5699 6.43683 27.5699 6.50672 27.5699 6.57662L27.5407 7.53183C27.5407 7.54348 27.5407 7.55513 27.5349 7.56095C27.5291 7.56677 27.5233 7.5726 27.5116 7.57842C27.5 7.58425 27.4883 7.58425 27.4708 7.59007C27.4534 7.59007 27.4301 7.59007 27.4068 7.59007C27.3777 7.59007 27.3544 7.59007 27.3369 7.58425C27.3194 7.58425 27.3078 7.57842 27.2961 7.5726C27.2903 7.56677 27.2845 7.56095 27.2786 7.55513C27.2728 7.54348 27.2728 7.53765 27.2728 7.526L27.3194 5.88933C27.3194 5.84274 27.3311 5.80779 27.3544 5.79032C27.3777 5.76702 27.401 5.75537 27.4301 5.75537L27.5873 5.7612C27.6165 5.7612 27.6398 5.76702 27.6631 5.77284C27.6805 5.77867 27.698 5.79032 27.7155 5.80197C27.7271 5.81944 27.7446 5.83691 27.7562 5.86604C27.7679 5.88933 27.7795 5.91846 27.7912 5.95923L28.0591 6.63486C28.0708 6.67563 28.0882 6.7164 28.0999 6.75718C28.1174 6.79212 28.129 6.83289 28.1465 6.87366C28.1581 6.91444 28.1698 6.94938 28.1873 6.99015C28.1989 7.0251 28.2106 7.06587 28.2222 7.10082C28.2222 7.03675 28.2222 6.96686 28.228 6.89696C28.228 6.82707 28.228 6.75718 28.228 6.69311L28.2572 5.83691C28.2572 5.82526 28.2572 5.81944 28.263 5.80779C28.2688 5.80197 28.2746 5.79614 28.2863 5.79032C28.2979 5.78449 28.3096 5.78449 28.327 5.77867C28.3445 5.77867 28.3678 5.77867 28.3911 5.77867C28.4202 5.77867 28.4377 5.77867 28.4552 5.78449C28.4727 5.78449 28.4901 5.79032 28.496 5.79614C28.5076 5.80197 28.5134 5.80779 28.5134 5.81944C28.5193 5.82526 28.5193 5.83109 28.5193 5.84274L28.4727 7.48523ZM29.987 6.05242C29.987 6.07572 29.9812 6.09901 29.9812 6.12231C29.9754 6.13978 29.9754 6.15726 29.9695 6.16308C29.9637 6.17473 29.9579 6.18638 29.9521 6.1922C29.9462 6.19803 29.9404 6.19803 29.9346 6.19803L29.5676 6.16891L29.457 7.63667C29.457 7.64832 29.457 7.65414 29.4512 7.66579C29.4453 7.67161 29.4337 7.67744 29.422 7.67744C29.4104 7.68326 29.3987 7.68326 29.3754 7.68909C29.358 7.68909 29.3347 7.68909 29.3055 7.68326C29.2764 7.68326 29.2531 7.68326 29.2357 7.67744C29.2182 7.67161 29.2007 7.66579 29.1891 7.65997C29.1774 7.65414 29.1716 7.64832 29.1658 7.64249C29.1658 7.63084 29.1599 7.62502 29.1658 7.61337L29.2764 6.14561L28.9095 6.12231C28.9037 6.12231 28.8978 6.11649 28.892 6.11066C28.892 6.10484 28.8862 6.09319 28.8804 6.08154C28.8804 6.06989 28.8804 6.05824 28.8804 6.03494C28.8745 6.01747 28.8804 5.99417 28.8804 5.96505C28.8804 5.93593 28.8862 5.91263 28.8862 5.89516C28.892 5.87768 28.8978 5.86021 28.8978 5.84856C28.9037 5.83691 28.9095 5.83109 28.9153 5.82526C28.9211 5.81944 28.927 5.81944 28.9328 5.81944L29.9579 5.89516C29.9637 5.89516 29.9695 5.90098 29.9754 5.90681C29.9812 5.91263 29.9812 5.91846 29.987 5.9301C29.987 5.94175 29.9928 5.95923 29.9928 5.9767C29.9928 6 29.9928 6.0233 29.987 6.05242ZM31.0179 7.77645C31.0121 7.80558 31.0063 7.82887 31.0005 7.84635C30.9946 7.86382 30.9888 7.87547 30.983 7.88712C30.9772 7.89877 30.9713 7.90459 30.9655 7.91042C30.9597 7.91042 30.9539 7.91624 30.948 7.91042L30.2316 7.78228C30.2025 7.77645 30.185 7.76481 30.1734 7.74733C30.1617 7.72403 30.1559 7.69491 30.1617 7.65414L30.4471 6.08736C30.4588 6.04659 30.4704 6.01747 30.4879 6C30.5112 5.98835 30.5287 5.98252 30.5578 5.98835L31.2684 6.11649C31.2742 6.11649 31.28 6.12231 31.2859 6.12814C31.2917 6.13396 31.2917 6.13978 31.2975 6.15143C31.2975 6.16308 31.2975 6.18056 31.2975 6.19803C31.2917 6.2155 31.2917 6.2388 31.2859 6.26792C31.28 6.29704 31.2742 6.31452 31.2684 6.33199C31.2626 6.34946 31.2626 6.36694 31.2567 6.37859C31.2509 6.38441 31.2451 6.39606 31.2393 6.39606C31.2276 6.40188 31.2218 6.40188 31.216 6.40188L30.7092 6.30869L30.6277 6.74553L31.0587 6.82707C31.0645 6.82707 31.0704 6.83289 31.0762 6.83872C31.0762 6.84454 31.082 6.85037 31.082 6.86202C31.0878 6.87366 31.0878 6.89114 31.082 6.90861C31.082 6.92608 31.082 6.94938 31.0762 6.97268C31.0704 7.0018 31.0645 7.0251 31.0587 7.04257C31.0529 7.06005 31.0471 7.0717 31.0471 7.08335C31.0412 7.08917 31.0354 7.09499 31.0238 7.10082C31.0179 7.10664 31.0121 7.10664 31.0063 7.10664L30.5753 7.0251L30.4821 7.53183L31.0005 7.62502C31.0063 7.62502 31.0121 7.63084 31.0179 7.63667C31.0179 7.64249 31.0238 7.65414 31.0238 7.66579C31.0238 7.67744 31.0238 7.68909 31.0238 7.70656C31.0238 7.72986 31.0179 7.75316 31.0179 7.77645ZM32.4158 8.18999C32.4158 8.20164 32.41 8.20746 32.4042 8.21329C32.4042 8.21911 32.3925 8.22494 32.3809 8.22494C32.3692 8.23076 32.3517 8.23076 32.3343 8.22494C32.311 8.22494 32.2818 8.21911 32.2469 8.20746C32.2119 8.20164 32.1887 8.19581 32.1712 8.18999C32.1537 8.18417 32.1421 8.17834 32.1304 8.16669C32.1246 8.16087 32.1188 8.15504 32.1129 8.14339C32.1129 8.13757 32.1071 8.12592 32.1071 8.11427L32.0722 7.68326C32.0663 7.63667 32.0605 7.5959 32.0547 7.55513C32.0489 7.51435 32.043 7.48523 32.0256 7.45611C32.0139 7.42699 31.9964 7.40951 31.979 7.38622C31.9557 7.37457 31.9324 7.35709 31.9033 7.35127L31.8101 7.3338L31.6528 8.00943C31.6528 8.02108 31.647 8.02691 31.6412 8.03273C31.6353 8.03855 31.6237 8.04438 31.612 8.04438C31.6004 8.0502 31.5887 8.0502 31.5654 8.0502C31.548 8.04438 31.5247 8.04438 31.4955 8.03855C31.4664 8.02691 31.4431 8.02108 31.4256 8.01526C31.4082 8.00943 31.3965 8.00361 31.3849 7.99778C31.3791 7.98613 31.3674 7.98031 31.3674 7.97449C31.3674 7.96284 31.3674 7.95701 31.3674 7.94536L31.7402 6.33199C31.7518 6.29122 31.7635 6.2621 31.7868 6.25045C31.8042 6.23298 31.8275 6.22715 31.8508 6.23298L32.2178 6.32034C32.2527 6.32617 32.2877 6.33782 32.311 6.34364C32.3343 6.34946 32.3517 6.36111 32.375 6.36694C32.4275 6.39024 32.474 6.41936 32.5148 6.4543C32.5556 6.48925 32.5847 6.53002 32.608 6.57662C32.6313 6.62321 32.643 6.67563 32.6488 6.73388C32.6546 6.79212 32.6488 6.85619 32.6313 6.92608C32.6197 6.99015 32.5964 7.04257 32.5731 7.08917C32.5498 7.13577 32.5265 7.17071 32.4915 7.20566C32.4624 7.24061 32.4216 7.2639 32.3809 7.2872C32.3401 7.30467 32.2993 7.32215 32.2469 7.32797C32.2702 7.34545 32.2818 7.36292 32.2993 7.38622C32.311 7.40951 32.3226 7.43864 32.3343 7.46776C32.3459 7.49688 32.3517 7.53183 32.3634 7.56677C32.3692 7.60172 32.375 7.64832 32.375 7.68909L32.4158 8.06768C32.4216 8.10845 32.4216 8.13175 32.4216 8.14922C32.4216 8.16669 32.4216 8.18417 32.4158 8.18999ZM32.3226 6.89696C32.3401 6.83872 32.3401 6.7863 32.3284 6.7397C32.3168 6.69311 32.2877 6.65816 32.2411 6.62904C32.2294 6.62321 32.2119 6.61739 32.1945 6.61156C32.177 6.59992 32.1537 6.59409 32.1188 6.58827L31.9906 6.55914L31.8741 7.06005L32.0197 7.09499C32.0605 7.10664 32.0955 7.10664 32.1304 7.10082C32.1654 7.09499 32.1945 7.08335 32.2178 7.06587C32.2469 7.0484 32.2702 7.0251 32.2818 6.99598C32.2993 6.96686 32.3168 6.93773 32.3226 6.89696ZM35.2232 7.45611C35.2115 7.47941 35.2057 7.50271 35.1941 7.52018C35.1882 7.53765 35.1766 7.5493 35.1708 7.56095C35.1649 7.5726 35.1533 7.57842 35.1475 7.57842C35.1416 7.58425 35.1358 7.58425 35.1242 7.57842L34.7864 7.44446L34.2447 8.81321C34.2447 8.82485 34.2389 8.83068 34.233 8.8365C34.2214 8.84233 34.2156 8.84233 34.2039 8.84233C34.1923 8.84233 34.1748 8.84233 34.1573 8.8365C34.134 8.8365 34.1165 8.82485 34.0874 8.81903C34.0583 8.80738 34.0408 8.79573 34.0234 8.78408C34.0059 8.77826 33.9942 8.76661 33.9826 8.76079C33.9768 8.74914 33.9709 8.74331 33.9709 8.73166C33.9651 8.72584 33.9709 8.71419 33.9709 8.70837L34.5126 7.33962L34.1748 7.20566C34.169 7.19983 34.1631 7.19401 34.1631 7.18819C34.1573 7.18236 34.1573 7.17071 34.1573 7.15906C34.1573 7.14741 34.1631 7.12994 34.169 7.11247C34.1748 7.09499 34.1806 7.0717 34.1923 7.0484C34.1981 7.01928 34.2097 7.0018 34.2214 6.98433C34.2272 6.96103 34.2389 6.94938 34.2447 6.94356C34.2505 6.93191 34.2622 6.92608 34.268 6.92026C34.2738 6.92026 34.2796 6.92026 34.2855 6.92026L35.2407 7.29885C35.2465 7.29885 35.2523 7.30467 35.2523 7.3105C35.2581 7.32215 35.2581 7.32797 35.2581 7.33962C35.2581 7.35127 35.2523 7.36874 35.2465 7.38622C35.2407 7.40951 35.2348 7.43281 35.2232 7.45611ZM35.7124 9.34906C35.7008 9.37235 35.6891 9.39565 35.6833 9.41312C35.6717 9.42477 35.66 9.44225 35.6542 9.44807C35.6484 9.45972 35.6367 9.45972 35.6309 9.46554C35.6251 9.46554 35.6193 9.46554 35.6134 9.46554L34.9494 9.16267C34.9261 9.15102 34.9087 9.13937 34.9028 9.11608C34.8912 9.08695 34.897 9.05783 34.9145 9.02289L35.5727 7.5726C35.5901 7.53183 35.6076 7.50853 35.6309 7.49688C35.6542 7.49106 35.6775 7.49106 35.7008 7.50271L36.359 7.79975C36.3648 7.79975 36.3706 7.80558 36.3764 7.8114C36.3764 7.81723 36.3764 7.82887 36.3764 7.84052C36.3764 7.85217 36.3706 7.86965 36.3648 7.88712C36.359 7.90459 36.3531 7.92789 36.3415 7.95119C36.3298 7.97449 36.3182 7.99778 36.3065 8.00943C36.3007 8.02691 36.2891 8.03855 36.2832 8.0502C36.2774 8.05603 36.2658 8.06185 36.2599 8.06768C36.2541 8.06768 36.2483 8.06768 36.2425 8.06768L35.7707 7.85217L35.5843 8.25406L35.9804 8.43462C35.992 8.44044 35.992 8.44627 35.9978 8.45209C35.9978 8.45791 35.9978 8.46956 35.9978 8.48121C35.9978 8.49286 35.9978 8.50451 35.992 8.52198C35.9862 8.53946 35.9745 8.56275 35.9629 8.58605C35.9512 8.60935 35.9454 8.62682 35.9338 8.6443C35.9221 8.66177 35.9163 8.67342 35.9105 8.67924C35.8988 8.69089 35.893 8.69672 35.8872 8.69672C35.8814 8.69672 35.8697 8.69672 35.8639 8.69672L35.4678 8.51616L35.2581 8.98211L35.7299 9.19762C35.7357 9.20344 35.7416 9.20344 35.7474 9.21509C35.7474 9.22092 35.7474 9.23257 35.7474 9.24422C35.7474 9.25586 35.7416 9.26751 35.7357 9.28499C35.7299 9.30246 35.7241 9.32576 35.7124 9.34906ZM36.755 9.9082C36.7434 9.9315 36.7317 9.9548 36.7201 9.97227C36.7084 9.98392 36.6968 9.99557 36.6909 10.0072C36.6793 10.0189 36.6677 10.0247 36.6618 10.0247C36.656 10.0247 36.6444 10.0247 36.6385 10.0247L36.0619 9.68687C36.0444 9.67522 36.0328 9.65775 36.027 9.63445C36.0211 9.61116 36.027 9.57621 36.0503 9.54126L36.8773 8.10845C36.8832 8.10262 36.889 8.09097 36.9006 8.09097C36.9065 8.08515 36.9181 8.08515 36.9298 8.08515C36.9414 8.08515 36.953 8.09097 36.9705 8.0968C36.9938 8.10845 37.0113 8.11427 37.0346 8.13175C37.0637 8.14339 37.0812 8.16087 37.0987 8.17252C37.1103 8.18417 37.122 8.19581 37.1278 8.20164C37.1394 8.21329 37.1394 8.21911 37.1394 8.23076C37.1453 8.24241 37.1394 8.24823 37.1336 8.25406L36.3997 9.52961L36.7958 9.75677C36.8016 9.76259 36.8074 9.76841 36.8074 9.77424C36.8074 9.78006 36.8074 9.79171 36.8074 9.80336C36.8016 9.81501 36.8016 9.82666 36.79 9.84996C36.7841 9.86743 36.7725 9.8849 36.755 9.9082ZM38.2519 9.70435C38.2286 9.73929 38.2111 9.76841 38.1937 9.78589C38.1762 9.80336 38.1529 9.82084 38.1354 9.82666C38.1179 9.83248 38.0946 9.83248 38.0772 9.83248C38.0539 9.82666 38.0306 9.81501 38.0073 9.79754C37.9782 9.78006 37.9607 9.76259 37.9432 9.74512C37.9316 9.73347 37.9257 9.71017 37.9257 9.6927C37.9199 9.6694 37.9257 9.6461 37.9374 9.6228C37.949 9.59951 37.9607 9.57038 37.984 9.53544C38.0073 9.50049 38.0247 9.47719 38.0422 9.4539C38.0655 9.43642 38.083 9.41895 38.1005 9.41312C38.1238 9.4073 38.1412 9.40147 38.1645 9.4073C38.182 9.41312 38.2053 9.42477 38.2344 9.44225C38.2577 9.4539 38.281 9.47137 38.2927 9.48884C38.3043 9.50631 38.3101 9.52379 38.316 9.54709C38.316 9.57038 38.3101 9.59368 38.2985 9.61698C38.2927 9.64028 38.2752 9.67522 38.2519 9.70435ZM37.7568 10.4848C37.7335 10.5139 37.7161 10.5431 37.6986 10.5605C37.6811 10.5838 37.6578 10.5955 37.6403 10.6013C37.617 10.613 37.5996 10.613 37.5763 10.6071C37.5588 10.6013 37.5355 10.5897 37.5064 10.5722C37.4831 10.5605 37.4656 10.5431 37.4481 10.5256C37.4365 10.5081 37.4307 10.4906 37.4307 10.4673C37.4248 10.4441 37.4307 10.4208 37.4423 10.3975C37.454 10.3742 37.4656 10.345 37.4889 10.3101C37.5122 10.281 37.5297 10.2518 37.5471 10.2285C37.5704 10.2111 37.5879 10.1936 37.6054 10.1878C37.6287 10.182 37.6462 10.1761 37.6695 10.182C37.6869 10.1878 37.7102 10.1994 37.7393 10.2169C37.7626 10.2344 37.7859 10.2518 37.7976 10.2635C37.8092 10.281 37.8151 10.3043 37.8209 10.3217C37.8209 10.345 37.8151 10.3683 37.8034 10.3916C37.7918 10.4208 37.7801 10.4499 37.7568 10.4848ZM39.2246 11.6264C39.2071 11.6439 39.1955 11.6614 39.1838 11.6788C39.1663 11.6905 39.1547 11.7021 39.143 11.708C39.1372 11.7196 39.1256 11.7196 39.1197 11.7196C39.1081 11.7196 39.1023 11.7196 39.0964 11.7138L38.4383 11.1954C38.4266 11.1896 38.415 11.1779 38.4092 11.1663C38.4033 11.1546 38.3975 11.143 38.3975 11.1313C38.4033 11.1197 38.4092 11.1022 38.415 11.0847C38.4266 11.0673 38.4441 11.044 38.4616 11.0207C38.4791 10.9915 38.4965 10.9741 38.514 10.9566C38.5315 10.9391 38.5431 10.9275 38.5606 10.9158C38.5781 10.91 38.5955 10.8984 38.613 10.8925C38.6305 10.8867 38.648 10.8809 38.6713 10.8751L39.079 10.7644C39.1605 10.7411 39.2304 10.7178 39.2887 10.6945C39.3469 10.6712 39.3935 10.6479 39.4343 10.6246C39.475 10.6013 39.51 10.578 39.5391 10.5489C39.5682 10.5256 39.5915 10.4965 39.6148 10.4732C39.6323 10.4499 39.6498 10.4208 39.6556 10.3975C39.6672 10.3683 39.6731 10.3392 39.6731 10.3159C39.6789 10.2926 39.6731 10.2635 39.6614 10.2402C39.6498 10.2169 39.6323 10.1994 39.6032 10.1761C39.5741 10.1528 39.5391 10.1295 39.4983 10.1237C39.4634 10.1121 39.4343 10.1062 39.3993 10.1062C39.3702 10.1004 39.3411 10.1004 39.3178 10.1004C39.3003 10.1004 39.2828 10.1004 39.277 10.0946C39.2712 10.0888 39.2654 10.0829 39.2654 10.0771C39.2654 10.0713 39.2712 10.0596 39.277 10.048C39.2828 10.0363 39.2887 10.0189 39.3003 10.0014C39.3119 9.98392 39.3294 9.96062 39.3469 9.93732C39.3644 9.91985 39.376 9.90238 39.3877 9.89073C39.3935 9.8849 39.4051 9.87326 39.411 9.86743C39.4226 9.86161 39.4284 9.85578 39.4343 9.84996C39.4459 9.84413 39.4576 9.84413 39.4692 9.83831C39.4867 9.83831 39.51 9.83831 39.5391 9.83831C39.5682 9.83831 39.6032 9.84413 39.6439 9.85578C39.6789 9.86161 39.7197 9.87908 39.7663 9.89655C39.807 9.91403 39.842 9.93732 39.8827 9.96645C39.941 10.013 39.9876 10.0655 40.0167 10.1179C40.0458 10.1761 40.0633 10.2285 40.0633 10.2868C40.0691 10.345 40.0575 10.3975 40.0342 10.4557C40.0167 10.5139 39.9818 10.5722 39.941 10.6246C39.906 10.6712 39.8653 10.712 39.8245 10.7527C39.7779 10.7935 39.7255 10.8285 39.6614 10.8634C39.5973 10.8984 39.5216 10.9333 39.4343 10.9624C39.3411 10.9915 39.2304 11.0265 39.0964 11.0556L38.8285 11.1197L39.277 11.475C39.2828 11.4808 39.2887 11.4866 39.2887 11.4983C39.2945 11.5041 39.2887 11.5157 39.2887 11.5274C39.2828 11.539 39.277 11.5507 39.2654 11.5682C39.2537 11.5856 39.2421 11.6031 39.2246 11.6264ZM40.7273 11.906C40.6283 12.0167 40.5351 12.1098 40.4477 12.1856C40.3545 12.2613 40.2672 12.3137 40.1798 12.3486C40.0924 12.3836 40.0109 12.3952 39.9293 12.3836C39.8478 12.3778 39.7721 12.337 39.6964 12.2729C39.6206 12.2089 39.5741 12.139 39.5508 12.0632C39.5333 11.9875 39.5333 11.906 39.5566 11.8186C39.5799 11.7371 39.6265 11.6439 39.6905 11.5449C39.7546 11.4459 39.8362 11.3468 39.9293 11.2362C40.0284 11.1255 40.1215 11.0323 40.2089 10.9566C40.3021 10.8809 40.3895 10.8226 40.4768 10.7877C40.5642 10.7527 40.6457 10.7411 40.7273 10.7527C40.8088 10.7644 40.8846 10.7993 40.9603 10.8634C41.036 10.9275 41.0826 10.9974 41.1001 11.0731C41.1234 11.1488 41.1234 11.2304 41.1001 11.3177C41.0768 11.4051 41.0302 11.4925 40.9661 11.5915C40.902 11.6905 40.8205 11.7953 40.7273 11.906ZM40.4885 11.7254C40.5467 11.6614 40.5933 11.5973 40.6341 11.5507C40.6749 11.4925 40.7098 11.4459 40.7331 11.4051C40.7622 11.3643 40.7797 11.3235 40.7914 11.2944C40.8088 11.2595 40.8147 11.2304 40.8147 11.2071C40.8147 11.1779 40.8088 11.1546 40.7972 11.1372C40.7914 11.1139 40.7739 11.0964 40.7564 11.0789C40.7215 11.0498 40.6865 11.0381 40.6457 11.0381C40.605 11.0381 40.5642 11.0556 40.5118 11.0847C40.4652 11.1139 40.4128 11.1546 40.3545 11.2129C40.2963 11.2653 40.238 11.3352 40.1681 11.4167C40.0808 11.5099 40.0167 11.5973 39.9643 11.6672C39.9177 11.7371 39.8827 11.7953 39.8594 11.8419C39.842 11.8943 39.8362 11.9351 39.842 11.9701C39.8536 12.005 39.8711 12.0341 39.9002 12.0574C39.9235 12.0749 39.9468 12.0924 39.9701 12.0982C39.9934 12.104 40.0225 12.0982 40.0517 12.0924C40.075 12.0865 40.1099 12.0749 40.139 12.0574C40.174 12.0341 40.2031 12.0108 40.2439 11.9817C40.2788 11.9468 40.3138 11.9118 40.3545 11.871C40.3953 11.8244 40.4419 11.7778 40.4885 11.7254ZM41.7116 12.8088C41.6592 12.8612 41.601 12.9136 41.5369 12.9602C41.4786 13.0126 41.4146 13.0592 41.3447 13.1C41.2806 13.1408 41.2107 13.1757 41.1408 13.199C41.0709 13.2223 41.001 13.2398 40.9311 13.2398C40.8613 13.2398 40.7914 13.2281 40.7273 13.199C40.6574 13.1757 40.5933 13.1291 40.5293 13.0592C40.506 13.0359 40.4885 13.0126 40.4652 12.9835C40.4477 12.9602 40.4361 12.9311 40.4244 12.9078C40.4128 12.8845 40.4011 12.8612 40.3953 12.8379C40.3895 12.8204 40.3895 12.803 40.3895 12.7913C40.3895 12.7797 40.3953 12.7622 40.4069 12.7505C40.4186 12.7331 40.4361 12.7156 40.4594 12.6923C40.4827 12.669 40.5001 12.6515 40.5176 12.6399C40.5293 12.6282 40.5409 12.6166 40.5526 12.6166C40.5642 12.6107 40.57 12.6107 40.5759 12.6107C40.5817 12.6107 40.5875 12.6166 40.5933 12.6166C40.5992 12.6224 40.605 12.634 40.6108 12.6515C40.6166 12.669 40.6283 12.6865 40.6341 12.7098C40.6457 12.7331 40.6574 12.7622 40.6749 12.7855C40.6923 12.8146 40.7098 12.8379 40.7389 12.867C40.7797 12.9136 40.8263 12.9427 40.8787 12.9544C40.9311 12.966 40.9836 12.9602 41.036 12.9486C41.0884 12.9369 41.1408 12.9136 41.1991 12.8787C41.2515 12.8437 41.3039 12.803 41.3563 12.7564C41.3097 12.7505 41.269 12.7331 41.2165 12.7156C41.1699 12.6923 41.1234 12.6573 41.0826 12.6107C41.0243 12.5583 40.9894 12.5001 40.9719 12.4477C40.9544 12.3894 40.9486 12.3312 40.9603 12.2729C40.9719 12.2147 40.9952 12.1564 41.036 12.0982C41.0768 12.0399 41.1234 11.9817 41.1874 11.9235C41.2515 11.8594 41.3214 11.807 41.3913 11.772C41.4612 11.7371 41.5311 11.7138 41.601 11.708C41.6708 11.6963 41.7407 11.708 41.8048 11.7313C41.8747 11.7546 41.9329 11.7953 41.9912 11.8594C42.0378 11.906 42.0727 11.9584 42.096 12.005C42.1135 12.0574 42.1252 12.1098 42.1252 12.1564C42.1193 12.2089 42.1077 12.2613 42.0902 12.3195C42.0669 12.3719 42.0378 12.4244 42.0028 12.4768C41.9679 12.535 41.9213 12.5874 41.8747 12.6457C41.8223 12.6981 41.7699 12.7564 41.7116 12.8088ZM41.5485 12.5641C41.6184 12.4943 41.6767 12.4302 41.7174 12.3778C41.764 12.3253 41.7932 12.2788 41.8048 12.238C41.8223 12.1972 41.8281 12.1623 41.8223 12.1331C41.8165 12.0982 41.799 12.0691 41.7757 12.0458C41.7524 12.0167 41.7233 12.005 41.6941 11.9934C41.665 11.9875 41.6359 11.9875 41.6068 11.9934C41.5718 11.9992 41.5427 12.0167 41.5078 12.0341C41.4728 12.0574 41.4379 12.0807 41.4087 12.1157C41.3738 12.1506 41.3447 12.1797 41.3214 12.2147C41.2981 12.2438 41.2806 12.2729 41.2748 12.302C41.269 12.3312 41.269 12.3545 41.2748 12.3836C41.2864 12.4069 41.3039 12.436 41.3272 12.4593C41.3563 12.4943 41.3913 12.5176 41.4262 12.535C41.467 12.5467 41.5078 12.5583 41.5485 12.5641ZM42.23 14.1076C42.1601 14.1659 42.0902 14.2066 42.0145 14.2358C41.9446 14.2591 41.8747 14.2707 41.8048 14.2591C41.7407 14.2532 41.6708 14.2358 41.6068 14.2008C41.5427 14.16 41.4845 14.1135 41.432 14.0494C41.4029 14.0144 41.3738 13.9795 41.3505 13.9387C41.333 13.8979 41.3156 13.863 41.3039 13.8281C41.2923 13.7931 41.2864 13.764 41.2806 13.7407C41.2748 13.7116 41.2748 13.6941 41.2748 13.6883C41.2806 13.6766 41.2806 13.665 41.2864 13.6591C41.2923 13.6475 41.2981 13.6417 41.3039 13.63C41.3156 13.6184 41.3272 13.6067 41.3389 13.5951C41.3505 13.5776 41.368 13.566 41.3913 13.5485C41.4262 13.5194 41.4495 13.5019 41.467 13.4902C41.4845 13.4844 41.4961 13.4902 41.5019 13.4961C41.5078 13.5019 41.5136 13.5135 41.5136 13.5368C41.5194 13.5601 41.5252 13.5893 41.5311 13.6184C41.5369 13.6475 41.5485 13.6824 41.566 13.7174C41.5777 13.7582 41.6068 13.7931 41.6359 13.8281C41.665 13.863 41.6883 13.8863 41.7233 13.9038C41.7524 13.9154 41.7815 13.9271 41.8106 13.9271C41.8456 13.9329 41.8747 13.9271 41.9038 13.9154C41.9329 13.9038 41.9679 13.8863 41.997 13.8572C42.0261 13.8281 42.0494 13.7989 42.0669 13.7698C42.0844 13.7349 42.096 13.7057 42.096 13.6708C42.096 13.6358 42.0902 13.5951 42.0727 13.5601C42.0553 13.5194 42.032 13.4786 41.997 13.4378L41.9155 13.3446C41.9097 13.3388 41.9038 13.333 41.9038 13.3213C41.9038 13.3155 41.9038 13.3097 41.9097 13.298C41.9097 13.2864 41.9213 13.2747 41.9329 13.2631C41.9446 13.2456 41.9621 13.234 41.9854 13.2165C42.0087 13.1932 42.0261 13.1815 42.0378 13.1699C42.0553 13.1641 42.0669 13.1582 42.0727 13.1524C42.0844 13.1466 42.0902 13.1466 42.1019 13.1524C42.1077 13.1524 42.1135 13.1582 42.1193 13.1641L42.2009 13.2631C42.23 13.2922 42.2591 13.3213 42.2882 13.333C42.3232 13.3505 42.3523 13.3621 42.3873 13.3621C42.4222 13.3679 42.4513 13.3621 42.4863 13.3505C42.5212 13.333 42.5503 13.3155 42.5795 13.2864C42.6028 13.2689 42.6261 13.2456 42.6435 13.2223C42.6552 13.199 42.6668 13.1699 42.6727 13.1466C42.6785 13.1233 42.6785 13.0942 42.6668 13.0709C42.661 13.0418 42.6435 13.0126 42.6202 12.9893C42.5969 12.9602 42.5678 12.9369 42.5329 12.9194C42.5037 12.902 42.4688 12.8903 42.4397 12.8845C42.4047 12.8728 42.3814 12.867 42.3581 12.8612C42.329 12.8554 42.3174 12.8495 42.3115 12.8437C42.3057 12.8379 42.3057 12.8321 42.3057 12.8263C42.3057 12.8263 42.3057 12.8146 42.3115 12.8088C42.3174 12.7971 42.329 12.7913 42.3407 12.7738C42.3523 12.7622 42.3698 12.7447 42.3873 12.7272C42.4106 12.7156 42.4222 12.7039 42.4339 12.6923C42.4455 12.6806 42.4571 12.6748 42.4688 12.669C42.4746 12.6632 42.4863 12.6632 42.4921 12.6573C42.5037 12.6573 42.5096 12.6573 42.5212 12.6573C42.5329 12.6515 42.5562 12.6573 42.5853 12.6632C42.6144 12.669 42.6435 12.6806 42.6785 12.6981C42.7134 12.7098 42.7542 12.7331 42.7891 12.7622C42.8299 12.7855 42.8649 12.8204 42.8998 12.8612C42.9464 12.9136 42.9813 12.9719 42.9988 13.0243C43.0221 13.0767 43.0279 13.1349 43.0221 13.1874C43.0163 13.2398 42.9988 13.2922 42.9697 13.3446C42.9348 13.397 42.894 13.4436 42.8416 13.4902C42.8008 13.5252 42.7542 13.5601 42.7134 13.5776C42.6668 13.6009 42.6261 13.6184 42.5795 13.6242C42.5387 13.6358 42.4979 13.6358 42.4571 13.63C42.4164 13.6184 42.3756 13.6067 42.3348 13.5834C42.364 13.63 42.3814 13.6708 42.3873 13.7174C42.3931 13.764 42.3931 13.8106 42.3814 13.8572C42.3756 13.9038 42.3523 13.9504 42.329 13.9911C42.2999 14.0319 42.2708 14.0727 42.23 14.1076Z" fill="#2E2E2E"/>
</svg>
