<svg width="25" height="25" viewBox="0 0 25 25" fill="none" xmlns="http://www.w3.org/2000/svg">
<path d="M1.00078 19.7382H2.66393M1.00078 15.4079H2.66393M1.00078 1V24H24.0008M1 2.6992H2.66315M1 6.94488H2.66315M1 11.1567H2.66315" stroke="#F2B737" stroke-width="1.86487" stroke-miterlimit="6" stroke-linecap="round" stroke-linejoin="round"/>
<path d="M8.28045 17.5809C8.28041 18.0252 8.10388 18.4513 7.78968 18.7655C7.47549 19.0797 7.04936 19.2562 6.60502 19.2563C6.16066 19.2563 5.73449 19.0798 5.42026 18.7656C5.10604 18.4514 4.92948 18.0252 4.92944 17.5809C4.92944 17.1365 5.10598 16.7103 5.42021 16.396C5.73444 16.0818 6.16063 15.9053 6.60502 15.9053C7.04939 15.9053 7.47554 16.0819 7.78974 16.3961C8.10394 16.7103 8.28045 17.1365 8.28045 17.5809ZM12.3549 9.4474C12.3549 9.66745 12.3115 9.88535 12.2273 10.0887C12.1431 10.292 12.0197 10.4767 11.864 10.6323C11.7084 10.7879 11.5237 10.9113 11.3204 10.9955C11.1171 11.0797 10.8992 11.123 10.6791 11.123C10.2347 11.123 9.80855 10.9464 9.49432 10.6322C9.18009 10.318 9.00355 9.89179 9.00355 9.4474C9.00355 9.00301 9.18009 8.57682 9.49432 8.26258C9.80855 7.94835 10.2347 7.77182 10.6791 7.77182C11.1235 7.77186 11.5496 7.94841 11.8638 8.26264C12.178 8.57687 12.3546 9.00303 12.3546 9.4474H12.3549ZM19.1268 15.1035C19.1268 15.5479 18.9502 15.9741 18.636 16.2882C18.3218 16.6024 17.8956 16.779 17.4512 16.779C17.0069 16.7789 16.5808 16.6024 16.2666 16.2882C15.9524 15.974 15.7758 15.5479 15.7758 15.1035C15.7758 14.6592 15.9523 14.233 16.2665 13.9188C16.5807 13.6045 17.0069 13.428 17.4512 13.428C17.8956 13.428 18.3218 13.6045 18.636 13.9187C18.9503 14.233 19.1268 14.6591 19.1268 15.1035ZM22.4842 3.6974C22.4842 4.14179 22.3077 4.56798 21.9934 4.88221C21.6792 5.19645 21.253 5.37298 20.8086 5.37298C20.3642 5.37298 19.938 5.19645 19.6238 4.88221C19.3096 4.56798 19.133 4.14179 19.133 3.6974C19.1331 3.25303 19.3096 2.82688 19.6239 2.51268C19.9381 2.19849 20.3642 2.02197 20.8086 2.02197C21.2529 2.02201 21.6791 2.19854 21.9933 2.51274C22.3075 2.82693 22.484 3.25306 22.484 3.6974H22.4842Z" stroke="#F2B737" stroke-width="1.86487" stroke-miterlimit="6" stroke-linecap="round" stroke-linejoin="round"/>
<path d="M7.58691 15.9495L9.78077 11.0756M12.1243 10.6989L15.9058 13.9817M18.0298 13.3497L20.4433 5.20752" stroke="#F2B737" stroke-width="1.24324" stroke-miterlimit="6" stroke-linecap="round" stroke-linejoin="round"/>
</svg>
