<svg width="20" height="20" viewBox="0 0 20 20" fill="none" xmlns="http://www.w3.org/2000/svg">
<path d="M17.619 10.9531V13.8103C17.619 15.0479 14.6342 16.6674 10.9523 16.6674C7.27041 16.6674 4.28564 15.0479 4.28564 13.8103C4.28564 13.4031 4.28564 12.6095 4.28564 11.4293" stroke="#E9A716" stroke-width="0.952381" stroke-linecap="round" stroke-linejoin="round"/>
<path d="M4.56592 11.676C5.38954 12.7696 7.93734 13.795 10.9527 13.795C14.6346 13.795 17.6194 12.2662 17.6194 10.9512C17.6194 10.2134 16.6796 9.40464 15.2041 8.83691" stroke="#E9A716" stroke-width="0.952381" stroke-linecap="round" stroke-linejoin="round"/>
<path d="M14.762 6.19141V9.04855C14.762 10.2862 11.7773 11.9057 8.09538 11.9057C4.41348 11.9057 1.42871 10.2862 1.42871 9.04855C1.42871 8.4378 1.42871 6.80215 1.42871 6.19141" stroke="#E9A716" stroke-width="0.952381" stroke-linecap="round" stroke-linejoin="round"/>
<path fill-rule="evenodd" clip-rule="evenodd" d="M8.09538 9.03268C11.7773 9.03268 14.762 7.50388 14.762 6.18892C14.762 4.87395 11.7773 3.33398 8.09538 3.33398C4.41348 3.33398 1.42871 4.87395 1.42871 6.18892C1.42871 7.50388 4.41348 9.03268 8.09538 9.03268Z" stroke="#E9A716" stroke-width="0.952381" stroke-linecap="round" stroke-linejoin="round"/>
</svg>
