<svg width="22" height="27" viewBox="0 0 22 27" fill="none" xmlns="http://www.w3.org/2000/svg">
<path d="M21.1 20.1667H21.1008L21.0992 20.1539L19.5637 8.19482C19.5637 8.1948 19.5637 8.19478 19.5637 8.19477C19.3956 6.88 18.1825 5.9 16.7564 5.9H14.7364V1.83333C14.7364 1.31009 14.276 0.9 13.7273 0.9H8.27273C7.72405 0.9 7.26364 1.31009 7.26364 1.83333V5.9H5.24364C3.81652 5.9 2.60443 6.88005 2.43536 8.19475L2.43536 8.19477L0.900813 20.1539L0.9 20.1538V20.1667V21V23.5C0.9 24.9441 2.17405 26.1 3.72727 26.1H18.2727C19.826 26.1 21.1 24.9441 21.1 23.5V21V20.1667ZM8.72727 22.5667C8.4295 22.5667 8.17273 22.7901 8.17273 23.0833C8.17273 23.3766 8.4295 23.6 8.72727 23.6H13.2727C13.5705 23.6 13.8273 23.3766 13.8273 23.0833C13.8273 22.7901 13.5705 22.5667 13.2727 22.5667H8.72727ZM8.27273 15.9C7.72405 15.9 7.26364 16.3101 7.26364 16.8333C7.26364 17.3566 7.72405 17.7667 8.27273 17.7667C8.82141 17.7667 9.28182 17.3566 9.28182 16.8333C9.28182 16.3101 8.82141 15.9 8.27273 15.9ZM11 15.9C10.4513 15.9 9.99091 16.3101 9.99091 16.8333C9.99091 17.3566 10.4513 17.7667 11 17.7667C11.5487 17.7667 12.0091 17.3566 12.0091 16.8333C12.0091 16.3101 11.5487 15.9 11 15.9ZM13.7273 15.9C13.1786 15.9 12.7182 16.3101 12.7182 16.8333C12.7182 17.3566 13.1786 17.7667 13.7273 17.7667C14.276 17.7667 14.7364 17.3566 14.7364 16.8333C14.7364 16.3101 14.276 15.9 13.7273 15.9ZM13.7273 13.4C13.1786 13.4 12.7182 13.8101 12.7182 14.3333C12.7182 14.8566 13.1786 15.2667 13.7273 15.2667C14.276 15.2667 14.7364 14.8566 14.7364 14.3333C14.7364 13.8101 14.276 13.4 13.7273 13.4ZM11 13.4C10.4513 13.4 9.99091 13.8101 9.99091 14.3333C9.99091 14.8566 10.4513 15.2667 11 15.2667C11.5487 15.2667 12.0091 14.8566 12.0091 14.3333C12.0091 13.8101 11.5487 13.4 11 13.4ZM8.27273 13.4C7.72405 13.4 7.26364 13.8101 7.26364 14.3333C7.26364 14.8566 7.72405 15.2667 8.27273 15.2667C8.82141 15.2667 9.28182 14.8566 9.28182 14.3333C9.28182 13.8101 8.82141 13.4 8.27273 13.4ZM8.27273 10.9C7.72405 10.9 7.26364 11.3101 7.26364 11.8333C7.26364 12.3566 7.72405 12.7667 8.27273 12.7667C8.82141 12.7667 9.28182 12.3566 9.28182 11.8333C9.28182 11.3101 8.82141 10.9 8.27273 10.9ZM11 10.9C10.4513 10.9 9.99091 11.3101 9.99091 11.8333C9.99091 12.3566 10.4513 12.7667 11 12.7667C11.5487 12.7667 12.0091 12.3566 12.0091 11.8333C12.0091 11.3101 11.5487 10.9 11 10.9ZM13.7273 10.9C13.1786 10.9 12.7182 11.3101 12.7182 11.8333C12.7182 12.3566 13.1786 12.7667 13.7273 12.7667C14.276 12.7667 14.7364 12.3566 14.7364 11.8333C14.7364 11.3101 14.276 10.9 13.7273 10.9ZM12.3636 3.4H9.63636C9.3386 3.4 9.08182 3.62343 9.08182 3.91667C9.08182 4.20991 9.3386 4.43333 9.63636 4.43333H12.3636C12.6614 4.43333 12.9182 4.20991 12.9182 3.91667C12.9182 3.62343 12.6614 3.4 12.3636 3.4ZM12.3636 5.06667H9.63636C9.3386 5.06667 9.08182 5.29009 9.08182 5.58333C9.08182 5.87657 9.3386 6.1 9.63636 6.1H12.3636C12.6614 6.1 12.9182 5.87657 12.9182 5.58333C12.9182 5.29009 12.6614 5.06667 12.3636 5.06667ZM13.6273 7.56667H8.37273V1.93333H13.6273V7.56667ZM19.9709 20.0667H2.0291L3.53645 8.31779C3.63737 7.53498 4.36528 6.93333 5.24364 6.93333H7.26364V7.56667H6.90909C6.61132 7.56667 6.35455 7.79009 6.35455 8.08333C6.35455 8.37657 6.61132 8.6 6.90909 8.6H15.0909C15.3887 8.6 15.6455 8.37657 15.6455 8.08333C15.6455 7.79009 15.3887 7.56667 15.0909 7.56667H14.7364V6.93333H16.7564C17.6347 6.93333 18.3626 7.53495 18.4635 8.31773C18.4635 8.31775 18.4636 8.31777 18.4636 8.31779L19.9709 20.0667ZM2.00909 21.1H19.9909V23.5C19.9909 24.3559 19.2286 25.0667 18.2727 25.0667H3.72727C2.77141 25.0667 2.00909 24.3559 2.00909 23.5V21.1Z" fill="#F2B737" stroke="#F2B737" stroke-width="0.2"/>
</svg>
