<svg width="23" height="23" viewBox="0 0 23 23" fill="none" xmlns="http://www.w3.org/2000/svg">
<path d="M13.4167 5.75C13.4167 2.57887 10.8378 0 7.66667 0C4.49554 0 1.91667 2.57887 1.91667 5.75C1.91667 8.92112 4.49554 11.5 7.66667 11.5C10.8378 11.5 13.4167 8.92112 13.4167 5.75ZM7.66667 9.58333C5.55258 9.58333 3.83333 7.86408 3.83333 5.75C3.83333 3.63592 5.55258 1.91667 7.66667 1.91667C9.78075 1.91667 11.5 3.63592 11.5 5.75C11.5 7.86408 9.78075 9.58333 7.66667 9.58333ZM6.66808 14.3798C6.8195 14.8868 6.53008 15.4205 6.02313 15.572C3.60525 16.2907 1.91667 18.5581 1.91667 21.0833V22.0417C1.91667 22.5707 1.48733 23 0.958333 23C0.429333 23 0 22.5707 0 22.0417V21.0833C0 17.7157 2.25208 14.6941 5.47688 13.7348C5.98288 13.5844 6.51667 13.8728 6.66808 14.3798Z" fill="#F2B737"/>
<path d="M18.6875 16.675H17.825V14.95H18.6875C19.1628 14.95 19.55 15.3372 19.55 15.8125C19.55 16.2878 19.1628 16.675 18.6875 16.675ZM23 14.375V20.125C23 21.713 21.713 23 20.125 23H11.5C9.91204 23 8.625 21.713 8.625 20.125V14.375C8.625 12.787 9.91204 11.5 11.5 11.5H20.125C21.713 11.5 23 12.787 23 14.375ZM14.5667 13.4167C14.1431 13.4167 13.8 13.7598 13.8 14.1833V16.4785H12.075V14.1833C12.075 13.7598 11.7319 13.4167 11.3083 13.4167C10.8848 13.4167 10.5417 13.7598 10.5417 14.1833V20.3167C10.5417 20.7403 10.8848 21.0833 11.3083 21.0833C11.7319 21.0833 12.075 20.7403 12.075 20.3167V18.0119H13.8V20.3167C13.8 20.7403 14.1431 21.0833 14.5667 21.0833C14.9902 21.0833 15.3333 20.7403 15.3333 20.3167V14.1833C15.3333 13.7598 14.9902 13.4167 14.5667 13.4167ZM20.0608 17.7713C20.7537 17.2845 21.1801 16.4431 21.0642 15.5077C20.9127 14.2868 19.7896 13.4167 18.56 13.4167H17.0583C16.6347 13.4167 16.2917 13.7598 16.2917 14.1833V20.3167C16.2917 20.7403 16.6347 21.0833 17.0583 21.0833C17.4819 21.0833 17.825 20.7403 17.825 20.3167V18.2083H18.5763L19.252 20.5304C19.3468 20.8581 19.6468 21.0833 19.988 21.0833H20.0483C20.563 21.0833 20.9319 20.586 20.7815 20.0934L20.0732 17.7646C20.0953 17.7483 20.0963 17.7493 20.1135 17.7368C20.0953 17.7483 20.0838 17.757 20.0608 17.7704V17.7713Z" fill="#F2B737"/>
</svg>
