<svg width="22" height="27" viewBox="0 0 22 27" fill="none" xmlns="http://www.w3.org/2000/svg">
<path d="M11.0011 10.9999C13.7625 10.9999 16.0011 8.76131 16.0011 5.99993C16.0011 3.23854 13.7625 1 11.0011 1C8.23976 1 6.00122 3.23854 6.00122 5.99993C6.00122 8.76131 8.23976 10.9999 11.0011 10.9999Z" stroke="#F2B737" stroke-width="1.87497"/>
<path d="M20.9966 20.9999C20.9997 20.7947 20.9997 20.5862 20.9997 20.3749C20.9997 17.2683 16.5227 14.75 10.9999 14.75C5.47709 14.75 1 17.2683 1 20.3749C1 23.4815 1 25.9998 10.9999 25.9998C13.7886 25.9998 15.7995 25.804 17.2498 25.4541" stroke="#F2B737" stroke-width="1.87497" stroke-linecap="round"/>
</svg>
