<svg width="26" height="24" viewBox="0 0 26 24" fill="none" xmlns="http://www.w3.org/2000/svg">
<path d="M8.66735 12C8.66735 14.4065 10.6105 16.3636 13 16.3636C15.3895 16.3636 17.3326 14.4065 17.3326 12C17.3326 9.59341 15.3895 7.63631 13 7.63631C10.6105 7.63631 8.66735 9.59341 8.66735 12ZM15.1663 12C15.1663 13.2032 14.1947 14.1818 13 14.1818C11.8053 14.1818 10.8337 13.2032 10.8337 12C10.8337 10.7967 11.8053 9.81814 13 9.81814C14.1947 9.81814 15.1663 10.7967 15.1663 12ZM5.95945 7.63631C6.85631 7.63631 7.58419 8.36941 7.58419 9.27268C7.58419 10.176 6.85631 10.909 5.95945 10.909C5.06259 10.909 4.33471 10.176 4.33471 9.27268C4.33471 8.36941 5.06259 7.63631 5.95945 7.63631ZM21.6653 14.7272C21.6653 15.6305 20.9374 16.3636 20.0405 16.3636C19.1437 16.3636 18.4158 15.6305 18.4158 14.7272C18.4158 13.824 19.1437 13.0909 20.0405 13.0909C20.9374 13.0909 21.6653 13.824 21.6653 14.7272ZM0.00206199 13.0909V8.72723C0.00206199 5.71958 2.43159 3.27266 5.41787 3.27266H22.7604L21.4183 1.8392C21.0089 1.40066 21.0284 0.71011 21.4638 0.296655C21.8982 -0.11571 22.5838 -0.0960738 22.9954 0.342473L25.426 2.93994C26.1951 3.71339 26.1951 5.01158 25.4033 5.80903L22.9954 8.38359C22.782 8.61159 22.495 8.72613 22.2069 8.72613C21.9404 8.72613 21.6729 8.62795 21.4638 8.42941C21.0284 8.01595 21.0078 7.3254 21.4183 6.88686L22.7593 5.4534H5.41787C3.62632 5.4534 2.16839 6.92176 2.16839 8.72613V13.0898C2.16839 13.692 1.68313 14.1807 1.08522 14.1807C0.487318 14.1807 0.00206199 13.692 0.00206199 13.0898V13.0909ZM25.9979 11.4545V15.2727C25.9979 18.2803 23.5684 20.7273 20.5821 20.7273H3.23963L4.58167 22.1607C4.9911 22.5993 4.97161 23.2898 4.53618 23.7033C4.32713 23.9018 4.06067 24 3.79313 24C3.50501 24 3.21797 23.8855 3.00459 23.6575L0.573971 21.06C-0.195073 20.2865 -0.195073 18.9883 0.596718 18.1909L3.00459 15.6163C3.4151 15.1767 4.10074 15.1582 4.53618 15.5705C4.97161 15.984 4.99219 16.6745 4.58167 17.1131L3.24071 18.5465H20.5821C22.3737 18.5465 23.8316 17.0782 23.8316 15.2738V11.4556C23.8316 10.8534 24.3169 10.3647 24.9148 10.3647C25.5127 10.3647 25.9979 10.8534 25.9979 11.4556V11.4545Z" fill="#F2B737"/>
</svg>
