<svg width="21" height="15" viewBox="0 0 21 15" fill="none" xmlns="http://www.w3.org/2000/svg">
<path d="M16.125 11.4897H19.5" stroke="white" stroke-width="1.45944" stroke-linecap="round"/>
<path d="M1.5 11.4897H10.4999" stroke="white" stroke-width="1.45944" stroke-linecap="round"/>
<path d="M10.5 3.25H19.4999" stroke="white" stroke-width="1.45944" stroke-linecap="round"/>
<path d="M1.5 3.25H5.99994" stroke="white" stroke-width="1.45944" stroke-linecap="round"/>
<path d="M6.00006 3.24997C6.00006 4.49259 7.00741 5.49994 8.25003 5.49994C9.49265 5.49994 10.5 4.49259 10.5 3.24997C10.5 2.00735 9.49265 1 8.25003 1C7.00741 1 6.00006 2.00735 6.00006 3.24997Z" stroke="white" stroke-width="1.45944" stroke-linecap="round"/>
<path d="M11.6251 11.4897C11.6251 12.7323 12.6324 13.7397 13.875 13.7397C15.1177 13.7397 16.125 12.7323 16.125 11.4897C16.125 10.2471 15.1177 9.23975 13.875 9.23975C12.6324 9.23975 11.6251 10.2471 11.6251 11.4897Z" stroke="white" stroke-width="1.45944" stroke-linecap="round"/>
</svg>
