<svg width="207" height="155" viewBox="0 0 207 155" fill="none" xmlns="http://www.w3.org/2000/svg">
<g filter="url(#filter0_d_46_1147)">
<path d="M17.9322 137.218L18.3883 134.761C19.5228 134.761 20.511 134.732 21.3531 134.674C22.1952 134.604 22.891 134.504 23.4407 134.376C24.0021 134.235 24.4173 134.054 24.6863 133.832C24.967 133.609 25.1073 133.341 25.1073 133.025C25.1073 132.604 25.0372 132.101 24.8968 131.516C24.7565 130.92 24.5752 130.317 24.353 129.709L26.6511 129.042C26.8032 129.44 26.9494 129.879 27.0897 130.358C27.23 130.826 27.3411 131.3 27.423 131.779C27.5166 132.247 27.5634 132.686 27.5634 133.095C27.5634 133.82 27.4055 134.446 27.0897 134.972C26.7739 135.487 26.2476 135.913 25.5108 136.253C24.7857 136.58 23.8033 136.82 22.5636 136.972C21.3239 137.136 19.7801 137.218 17.9322 137.218ZM17.9147 137.218C16.6516 137.218 15.5814 137.118 14.7043 136.919C13.8388 136.732 13.1312 136.463 12.5816 136.112C12.0436 135.75 11.6518 135.329 11.4062 134.849C11.1606 134.37 11.0378 133.843 11.0378 133.27C11.0378 132.896 11.067 132.522 11.1255 132.148C11.1956 131.762 11.2775 131.387 11.3711 131.025C11.4763 130.662 11.5699 130.335 11.6518 130.042L13.8447 130.551C13.7979 130.762 13.7452 130.99 13.6868 131.235C13.6283 131.481 13.5815 131.721 13.5464 131.955C13.5113 132.177 13.4938 132.381 13.4938 132.569C13.4938 133.001 13.6458 133.387 13.9499 133.726C14.2657 134.054 14.7803 134.311 15.4937 134.498C16.2071 134.674 17.1661 134.761 18.3708 134.761L18.7216 136.656L17.9147 137.218ZM20.8093 129.2C20.4701 129.2 20.1777 129.083 19.9321 128.849C19.6982 128.604 19.5812 128.317 19.5812 127.99C19.5812 127.651 19.6982 127.358 19.9321 127.113C20.1777 126.867 20.4701 126.744 20.8093 126.744C21.1367 126.744 21.4174 126.867 21.6513 127.113C21.8852 127.358 22.0022 127.651 22.0022 127.99C22.0022 128.317 21.8852 128.604 21.6513 128.849C21.4174 129.083 21.1367 129.2 20.8093 129.2ZM17.7743 129.183C17.4351 129.183 17.1428 129.066 16.8972 128.832C16.6632 128.586 16.5463 128.3 16.5463 127.972C16.5463 127.633 16.6632 127.341 16.8972 127.095C17.1428 126.85 17.4351 126.727 17.7743 126.727C18.1018 126.727 18.3825 126.85 18.6164 127.095C18.8503 127.341 18.9672 127.633 18.9672 127.972C18.9672 128.3 18.8503 128.586 18.6164 128.832C18.3825 129.066 18.1018 129.183 17.7743 129.183ZM34.0089 136.937C32.9213 136.937 32.0792 136.826 31.4827 136.604C30.898 136.381 30.4886 136.036 30.2547 135.568C30.0208 135.089 29.8863 134.487 29.8512 133.762L29.4828 124.008H31.9389L32.3073 132.586C32.3307 133.124 32.3891 133.528 32.4827 133.797C32.5763 134.066 32.7517 134.247 33.009 134.34C33.278 134.434 33.6698 134.481 34.1844 134.481C34.6288 134.481 34.9446 134.598 35.1317 134.832C35.3305 135.054 35.4299 135.335 35.4299 135.674C35.4299 136.036 35.3071 136.34 35.0615 136.586C34.8159 136.82 34.4651 136.937 34.0089 136.937ZM34.0328 136.937L34.2082 134.481C34.7579 134.481 35.1789 134.475 35.4713 134.463C35.7754 134.452 36.0035 134.44 36.1555 134.428C36.3075 134.405 36.4362 134.387 36.5415 134.376C36.4245 134.259 36.2725 134.089 36.0853 133.867C35.8982 133.645 35.7286 133.358 35.5766 133.007C35.4362 132.656 35.3661 132.235 35.3661 131.744C35.3661 131.031 35.5473 130.405 35.9099 129.867C36.2842 129.329 36.7871 128.908 37.4186 128.604C38.0502 128.3 38.7577 128.148 39.5413 128.148C39.9156 128.148 40.2606 128.171 40.5764 128.218C40.9038 128.265 41.2313 128.335 41.5588 128.428L41.1728 130.762C40.9389 130.703 40.6933 130.656 40.436 130.621C40.1787 130.586 39.9507 130.569 39.7518 130.569C39.3659 130.569 39.0267 130.633 38.7343 130.762C38.4537 130.879 38.2314 131.048 38.0677 131.27C37.9157 131.481 37.8396 131.738 37.8396 132.042C37.8396 132.241 37.8747 132.428 37.9449 132.604C38.0268 132.779 38.1262 132.937 38.2431 133.077C38.3601 133.218 38.4887 133.341 38.6291 133.446C38.7694 133.551 38.9039 133.639 39.0326 133.709C39.1729 133.767 39.2899 133.808 39.3834 133.832C39.6758 133.75 39.9273 133.68 40.1378 133.621C40.36 133.551 40.5705 133.487 40.7693 133.428C40.9799 133.358 41.2079 133.27 41.4535 133.165C41.6991 133.06 42.0032 132.931 42.3658 132.779L43.1552 135.095C42.1728 135.574 41.2138 135.949 40.2781 136.218C39.3425 136.487 38.3718 136.674 37.366 136.779C36.3602 136.884 35.2491 136.937 34.0328 136.937ZM44.412 136.147L45.2716 133.919C45.7043 134.107 46.1195 134.247 46.5172 134.34C46.9148 134.434 47.3125 134.481 47.7101 134.481C48.1194 134.481 48.4586 134.446 48.7276 134.376C49.0083 134.294 49.2188 134.177 49.3592 134.025C49.4995 133.873 49.5697 133.691 49.5697 133.481C49.5697 133.282 49.5053 133.007 49.3767 132.656C49.2597 132.305 49.0434 131.849 48.7276 131.288C48.4118 130.715 47.9499 130.007 47.3417 129.165L49.4293 127.779C49.9907 128.575 50.4761 129.352 50.8854 130.113C51.2947 130.861 51.6105 131.563 51.8327 132.218C52.0666 132.861 52.1836 133.428 52.1836 133.919C52.1836 134.528 52.0199 135.06 51.6924 135.516C51.3766 135.96 50.9029 136.311 50.2714 136.568C49.6515 136.826 48.8855 136.954 47.9733 136.954C47.6341 136.954 47.254 136.925 46.8329 136.867C46.4119 136.808 45.985 136.72 45.5523 136.604C45.1313 136.487 44.7512 136.335 44.412 136.147ZM53.8607 140.884L53.352 138.428C54.1824 138.323 54.9075 138.194 55.5273 138.042C56.1472 137.902 56.6676 137.703 57.0887 137.446C57.5097 137.188 57.8255 136.837 58.036 136.393C58.2465 135.937 58.3518 135.352 58.3518 134.639C58.3518 133.949 58.2465 133.399 58.036 132.99C57.8255 132.58 57.5448 132.376 57.1939 132.376C56.9483 132.376 56.7437 132.463 56.5799 132.639C56.4162 132.803 56.2934 133.001 56.2115 133.235C56.1413 133.457 56.1063 133.656 56.1063 133.832C56.1063 133.937 56.1355 134.048 56.194 134.165C56.2525 134.282 56.3811 134.381 56.5799 134.463C56.7787 134.545 57.0887 134.592 57.5097 134.604C57.9424 134.615 58.5272 134.574 59.264 134.481H62.2113C62.6557 134.481 62.9715 134.598 63.1586 134.832C63.3574 135.054 63.4568 135.335 63.4568 135.674C63.4568 136.036 63.334 136.34 63.0884 136.586C62.8428 136.82 62.4919 136.937 62.0358 136.937H57.2115C56.4747 136.937 55.8431 136.849 55.3168 136.674C54.7905 136.498 54.387 136.218 54.1063 135.832C53.8257 135.434 53.6853 134.908 53.6853 134.253C53.6853 133.726 53.773 133.2 53.9485 132.674C54.1356 132.148 54.3929 131.668 54.7204 131.235C55.0478 130.791 55.4279 130.44 55.8607 130.183C56.3051 129.914 56.7846 129.779 57.2992 129.779C58.0009 129.779 58.6149 129.996 59.1412 130.428C59.6675 130.861 60.0768 131.434 60.3692 132.148C60.6733 132.861 60.8254 133.639 60.8254 134.481C60.8254 135.802 60.5447 136.925 59.9833 137.849C59.4219 138.773 58.6208 139.486 57.5799 139.989C56.539 140.504 55.2993 140.802 53.8607 140.884ZM62.0606 136.937L62.2361 134.481C62.6571 134.481 63.0197 134.44 63.3237 134.358C63.6278 134.276 63.8851 134.112 64.0956 133.867C64.3061 133.609 64.4816 133.235 64.6219 132.744C64.774 132.253 64.9085 131.598 65.0254 130.779L67.3236 131.165C67.3002 131.341 67.2651 131.545 67.2183 131.779C67.1832 132.013 67.1481 132.253 67.113 132.498C67.0897 132.732 67.078 132.955 67.078 133.165C67.078 133.376 67.1189 133.563 67.2008 133.726C67.2826 133.89 67.4113 134.031 67.5867 134.147C67.7738 134.253 68.0136 134.335 68.306 134.393C68.6101 134.452 68.9785 134.481 69.4112 134.481C69.8556 134.481 70.1714 134.598 70.3585 134.832C70.5456 135.054 70.6392 135.335 70.6392 135.674C70.6392 136.036 70.5164 136.34 70.2708 136.586C70.0369 136.82 69.6919 136.937 69.2358 136.937C68.7095 136.937 68.23 136.896 67.7972 136.814C67.3762 136.732 67.0078 136.598 66.692 136.411C66.3879 136.212 66.1365 135.954 65.9377 135.639C65.7505 135.311 65.6336 134.914 65.5868 134.446H66.4289C66.2183 135.007 65.9494 135.457 65.6219 135.797C65.3061 136.124 64.9494 136.37 64.5518 136.533C64.1541 136.697 63.7389 136.802 63.3062 136.849C62.8852 136.908 62.47 136.937 62.0606 136.937ZM67.692 129.2C67.3528 129.2 67.0604 129.083 66.8148 128.849C66.5809 128.604 66.4639 128.317 66.4639 127.99C66.4639 127.651 66.5809 127.358 66.8148 127.113C67.0604 126.867 67.3528 126.744 67.692 126.744C68.0194 126.744 68.3001 126.867 68.534 127.113C68.7679 127.358 68.8849 127.651 68.8849 127.99C68.8849 128.317 68.7679 128.604 68.534 128.849C68.3001 129.083 68.0194 129.2 67.692 129.2ZM64.657 129.183C64.3178 129.183 64.0255 129.066 63.7799 128.832C63.5459 128.586 63.429 128.3 63.429 127.972C63.429 127.633 63.5459 127.341 63.7799 127.095C64.0255 126.85 64.3178 126.727 64.657 126.727C64.9845 126.727 65.2652 126.85 65.4991 127.095C65.733 127.341 65.8499 127.633 65.8499 127.972C65.8499 128.3 65.733 128.586 65.4991 128.832C65.2652 129.066 64.9845 129.183 64.657 129.183ZM69.2389 136.937L69.4143 134.481C69.8003 134.481 70.1161 134.452 70.3617 134.393C70.6073 134.323 70.8061 134.177 70.9581 133.955C71.1219 133.721 71.2622 133.376 71.3792 132.919C71.5078 132.452 71.6482 131.82 71.8002 131.025L74.0808 131.446C74.034 131.703 73.9697 132.025 73.8878 132.411C73.8177 132.797 73.7826 133.13 73.7826 133.411C73.7826 133.633 73.8235 133.826 73.9054 133.99C73.9989 134.142 74.151 134.264 74.3615 134.358C74.5837 134.44 74.8878 134.481 75.2737 134.481C75.5778 134.481 75.8351 134.452 76.0456 134.393C76.2679 134.323 76.455 134.177 76.607 133.955C76.7708 133.721 76.9111 133.364 77.0281 132.884C77.1567 132.393 77.2795 131.732 77.3965 130.902L79.7121 131.27C79.6654 131.539 79.6186 131.826 79.5718 132.13C79.525 132.434 79.4841 132.715 79.449 132.972C79.4139 133.229 79.3964 133.44 79.3964 133.604C79.3964 133.756 79.4373 133.902 79.5192 134.042C79.6127 134.171 79.7765 134.276 80.0104 134.358C80.256 134.44 80.5951 134.481 81.0279 134.481C81.5542 134.481 81.9401 134.37 82.1857 134.147C82.443 133.914 82.5717 133.563 82.5717 133.095C82.5717 132.826 82.5658 132.539 82.5541 132.235C82.5424 131.92 82.519 131.569 82.484 131.183C82.4606 130.785 82.4138 130.335 82.3436 129.832L84.6067 129.656C84.6885 130.662 84.7821 131.481 84.8874 132.112C84.9926 132.744 85.133 133.235 85.3084 133.586C85.4955 133.925 85.7411 134.159 86.0452 134.288C86.361 134.416 86.7703 134.481 87.2732 134.481C87.7176 134.481 88.0334 134.598 88.2205 134.832C88.4194 135.054 88.5188 135.335 88.5188 135.674C88.5188 136.036 88.396 136.34 88.1504 136.586C87.9165 136.82 87.5656 136.937 87.0978 136.937C86.782 136.937 86.4545 136.908 86.1154 136.849C85.7762 136.802 85.4487 136.703 85.133 136.551C84.8172 136.387 84.5365 136.153 84.2909 135.849C84.0453 135.545 83.8523 135.142 83.712 134.639L84.0277 134.744C83.864 135.329 83.6418 135.779 83.3611 136.095C83.0804 136.411 82.7354 136.633 82.3261 136.761C81.9167 136.878 81.4255 136.937 80.8524 136.937C80.3262 136.937 79.8583 136.867 79.449 136.726C79.0397 136.586 78.7122 136.358 78.4666 136.042C78.2327 135.715 78.1099 135.276 78.0982 134.726H78.6946C78.4607 135.381 78.1917 135.867 77.8877 136.182C77.5836 136.498 77.2152 136.703 76.7824 136.796C76.3497 136.89 75.8059 136.937 75.1509 136.937C74.7533 136.937 74.3615 136.896 73.9756 136.814C73.5896 136.72 73.2446 136.516 72.9405 136.2C72.6364 135.873 72.4142 135.358 72.2739 134.656L73.2212 134.621C72.9756 135.311 72.654 135.82 72.2563 136.147C71.8704 136.475 71.426 136.691 70.9231 136.796C70.4201 136.89 69.8588 136.937 69.2389 136.937ZM87.1075 136.937L87.283 134.481C87.5753 134.481 87.7975 134.422 87.9496 134.305C88.1016 134.188 88.2537 133.984 88.4057 133.691C88.5578 133.399 88.7683 133.001 89.0373 132.498C89.3296 131.937 89.6337 131.469 89.9495 131.095C90.2653 130.709 90.5811 130.405 90.8968 130.183C91.2243 129.949 91.5459 129.785 91.8617 129.692C92.1892 129.586 92.5108 129.534 92.8266 129.534C93.2593 129.534 93.6628 129.627 94.037 129.814C94.423 129.99 94.7914 130.3 95.1423 130.744C95.4931 131.177 95.8264 131.773 96.1422 132.534C96.3644 133.06 96.5866 133.463 96.8089 133.744C97.0311 134.025 97.2591 134.218 97.493 134.323C97.7386 134.428 97.9842 134.481 98.2298 134.481C98.6743 134.481 98.99 134.598 99.1772 134.832C99.3643 135.054 99.4579 135.335 99.4579 135.674C99.4579 136.036 99.3351 136.34 99.0895 136.586C98.8439 136.82 98.4988 136.937 98.0544 136.937C97.4813 136.937 96.9609 136.843 96.4931 136.656C96.0253 136.469 95.6569 136.188 95.3879 135.814L95.8966 135.428C95.7914 135.674 95.6335 135.931 95.423 136.2C95.2241 136.469 94.961 136.697 94.6335 136.884C94.3177 137.071 93.9376 137.165 93.4932 137.165C93.2008 137.165 92.8558 137.106 92.4582 136.989C92.0722 136.884 91.6687 136.703 91.2477 136.446C90.8384 136.177 90.4583 135.814 90.1074 135.358C89.8852 135.767 89.6396 136.089 89.3706 136.323C89.1016 136.545 88.7858 136.703 88.4233 136.796C88.0607 136.89 87.6221 136.937 87.1075 136.937ZM91.1249 133.288C91.2418 133.463 91.3822 133.639 91.5459 133.814C91.7097 133.99 91.8909 134.147 92.0898 134.288C92.2886 134.416 92.4991 134.522 92.7213 134.604C92.9552 134.685 93.1833 134.726 93.4055 134.726C93.6394 134.726 93.8324 134.639 93.9844 134.463C94.1365 134.276 94.1423 134.001 94.002 133.639C93.9435 133.487 93.8616 133.317 93.7564 133.13C93.6628 132.931 93.5517 132.744 93.423 132.569C93.3061 132.393 93.1716 132.247 93.0195 132.13C92.8792 132.013 92.733 131.955 92.581 131.955C92.4289 131.955 92.271 132.001 92.1073 132.095C91.9436 132.189 91.7798 132.335 91.6161 132.534C91.4524 132.721 91.2886 132.972 91.1249 133.288ZM98.0548 136.937L98.2303 134.481C98.7682 134.481 99.1542 134.428 99.3881 134.323C99.622 134.206 99.7624 133.995 99.8091 133.691C99.8559 133.376 99.8676 132.919 99.8442 132.323L99.5284 124.008H102.002L102.353 132.498C102.376 133.177 102.347 133.791 102.265 134.34C102.195 134.878 102.014 135.34 101.721 135.726C101.441 136.112 101.002 136.411 100.406 136.621C99.8208 136.832 99.0372 136.937 98.0548 136.937ZM104.666 136.849L104.298 124.008H106.754L107.122 136.849H104.666ZM109.06 140.884L108.551 138.428C109.381 138.323 110.107 138.194 110.726 138.042C111.346 137.902 111.867 137.703 112.288 137.446C112.709 137.188 113.025 136.837 113.235 136.393C113.446 135.937 113.551 135.352 113.551 134.639C113.551 134.381 113.527 134.124 113.481 133.867C113.434 133.598 113.364 133.352 113.27 133.13C113.177 132.908 113.054 132.726 112.902 132.586C112.761 132.446 112.592 132.376 112.393 132.376C112.183 132.376 111.995 132.452 111.832 132.604C111.668 132.744 111.539 132.925 111.446 133.148C111.352 133.358 111.305 133.574 111.305 133.797C111.305 133.96 111.346 134.101 111.428 134.218C111.51 134.323 111.633 134.405 111.797 134.463C111.96 134.51 112.165 134.533 112.411 134.533C112.691 134.533 112.978 134.504 113.27 134.446C113.574 134.376 113.849 134.282 114.095 134.165L114.165 136.077C113.884 136.299 113.563 136.498 113.2 136.674C112.837 136.837 112.399 136.919 111.884 136.919C111.463 136.919 111.071 136.873 110.709 136.779C110.346 136.674 110.025 136.516 109.744 136.305C109.475 136.095 109.265 135.826 109.112 135.498C108.96 135.159 108.884 134.756 108.884 134.288C108.884 133.715 108.978 133.159 109.165 132.621C109.352 132.083 109.61 131.604 109.937 131.183C110.276 130.75 110.662 130.411 111.095 130.165C111.539 129.908 112.007 129.779 112.498 129.779C113.083 129.779 113.592 129.925 114.025 130.218C114.469 130.51 114.837 130.896 115.13 131.376C115.422 131.843 115.644 132.352 115.796 132.902C115.948 133.452 116.024 133.978 116.024 134.481C116.024 135.802 115.744 136.925 115.182 137.849C114.621 138.773 113.82 139.486 112.779 139.989C111.738 140.504 110.498 140.802 109.06 140.884ZM130.354 136.937C129.524 136.937 128.805 136.832 128.197 136.621C127.6 136.399 127.138 136.048 126.811 135.568C126.483 135.077 126.296 134.422 126.249 133.604L125.934 126.534H128.407L128.705 132.744C128.729 133.224 128.805 133.592 128.933 133.849C129.074 134.095 129.273 134.264 129.53 134.358C129.787 134.44 130.121 134.481 130.53 134.481C130.974 134.481 131.29 134.598 131.477 134.832C131.664 135.054 131.758 135.335 131.758 135.674C131.758 136.036 131.635 136.34 131.389 136.586C131.156 136.82 130.811 136.937 130.354 136.937ZM127.144 135.305C126.36 135.481 125.606 135.563 124.881 135.551C124.156 135.528 123.507 135.399 122.934 135.165C122.361 134.919 121.904 134.569 121.565 134.112C121.238 133.656 121.074 133.077 121.074 132.376C121.074 131.756 121.209 131.194 121.478 130.691C121.758 130.177 122.144 129.727 122.635 129.341C123.138 128.955 123.723 128.627 124.39 128.358C125.056 128.089 125.782 127.885 126.565 127.744L126.811 130.235C126.308 130.259 125.852 130.329 125.442 130.446C125.045 130.551 124.7 130.691 124.407 130.867C124.127 131.042 123.91 131.241 123.758 131.463C123.606 131.674 123.53 131.902 123.53 132.148C123.53 132.346 123.6 132.51 123.741 132.639C123.881 132.767 124.068 132.873 124.302 132.955C124.536 133.025 124.805 133.066 125.109 133.077C125.413 133.089 125.723 133.072 126.039 133.025C126.366 132.978 126.688 132.902 127.004 132.797L127.144 135.305ZM127.197 124.727C126.857 124.727 126.565 124.61 126.319 124.376C126.086 124.13 125.969 123.844 125.969 123.516C125.969 123.177 126.086 122.885 126.319 122.639C126.565 122.394 126.857 122.271 127.197 122.271C127.524 122.271 127.805 122.394 128.039 122.639C128.273 122.885 128.39 123.177 128.39 123.516C128.39 123.844 128.273 124.13 128.039 124.376C127.805 124.61 127.524 124.727 127.197 124.727ZM124.162 124.709C123.823 124.709 123.53 124.592 123.285 124.358C123.051 124.113 122.934 123.826 122.934 123.499C122.934 123.16 123.051 122.867 123.285 122.622C123.53 122.376 123.823 122.253 124.162 122.253C124.489 122.253 124.77 122.376 125.004 122.622C125.238 122.867 125.355 123.16 125.355 123.499C125.355 123.826 125.238 124.113 125.004 124.358C124.77 124.592 124.489 124.709 124.162 124.709ZM130.349 136.937L130.524 134.481C130.968 134.481 131.319 134.44 131.577 134.358C131.846 134.276 132.056 134.112 132.208 133.867C132.372 133.609 132.506 133.235 132.612 132.744C132.729 132.253 132.845 131.598 132.962 130.779L135.261 131.165C135.237 131.341 135.202 131.545 135.155 131.779C135.12 132.013 135.085 132.253 135.05 132.498C135.027 132.732 135.015 132.955 135.015 133.165C135.015 133.446 135.073 133.686 135.19 133.884C135.319 134.071 135.541 134.218 135.857 134.323C136.185 134.428 136.652 134.481 137.261 134.481C137.705 134.481 138.021 134.598 138.208 134.832C138.395 135.054 138.489 135.335 138.489 135.674C138.489 136.036 138.366 136.34 138.12 136.586C137.886 136.82 137.541 136.937 137.085 136.937C136.278 136.937 135.623 136.861 135.12 136.709C134.617 136.557 134.243 136.299 133.997 135.937C133.752 135.574 133.594 135.077 133.524 134.446H134.366C134.155 135.007 133.91 135.457 133.629 135.797C133.348 136.124 133.033 136.37 132.682 136.533C132.331 136.697 131.957 136.802 131.559 136.849C131.173 136.908 130.77 136.937 130.349 136.937ZM133.471 140.972C133.132 140.972 132.84 140.855 132.594 140.621C132.36 140.387 132.243 140.1 132.243 139.761C132.243 139.422 132.36 139.124 132.594 138.867C132.84 138.621 133.132 138.498 133.471 138.498C133.81 138.498 134.097 138.621 134.331 138.867C134.576 139.124 134.699 139.422 134.699 139.761C134.699 140.1 134.576 140.387 134.331 140.621C134.097 140.855 133.81 140.972 133.471 140.972ZM137.081 136.937L137.257 134.481C137.643 134.481 137.959 134.452 138.204 134.393C138.45 134.323 138.649 134.177 138.801 133.955C138.964 133.721 139.105 133.376 139.222 132.919C139.35 132.452 139.491 131.82 139.643 131.025L141.923 131.446C141.888 131.621 141.847 131.826 141.8 132.06C141.754 132.294 141.713 132.534 141.678 132.779C141.643 133.013 141.625 133.224 141.625 133.411C141.625 133.738 141.73 134.001 141.941 134.2C142.151 134.387 142.549 134.481 143.134 134.481C143.426 134.481 143.678 134.452 143.888 134.393C144.11 134.323 144.297 134.177 144.449 133.955C144.613 133.721 144.754 133.364 144.871 132.884C144.999 132.393 145.122 131.732 145.239 130.902L147.555 131.27C147.508 131.539 147.461 131.826 147.414 132.13C147.367 132.434 147.327 132.715 147.291 132.972C147.256 133.229 147.239 133.44 147.239 133.604C147.239 133.756 147.28 133.902 147.362 134.042C147.455 134.171 147.619 134.276 147.853 134.358C148.098 134.44 148.443 134.481 148.888 134.481C149.204 134.481 149.473 134.44 149.695 134.358C149.929 134.276 150.104 134.142 150.221 133.955C150.35 133.767 150.414 133.522 150.414 133.218C150.414 132.785 150.315 132.218 150.116 131.516C149.917 130.814 149.683 130.077 149.414 129.306L151.888 128.569C152.075 129.072 152.239 129.61 152.379 130.183C152.531 130.744 152.648 131.294 152.73 131.832C152.823 132.358 152.87 132.82 152.87 133.218C152.87 133.814 152.777 134.346 152.589 134.814C152.402 135.27 152.139 135.656 151.8 135.972C151.461 136.288 151.057 136.527 150.59 136.691C150.122 136.855 149.607 136.937 149.046 136.937C148.367 136.937 147.812 136.873 147.379 136.744C146.946 136.604 146.613 136.375 146.379 136.06C146.157 135.732 146.011 135.288 145.941 134.726H146.537C146.292 135.416 146.017 135.919 145.713 136.235C145.409 136.539 145.046 136.732 144.625 136.814C144.216 136.896 143.701 136.937 143.081 136.937C142.695 136.937 142.298 136.896 141.888 136.814C141.491 136.72 141.134 136.51 140.818 136.182C140.502 135.855 140.268 135.346 140.116 134.656L141.064 134.621C140.818 135.311 140.496 135.82 140.099 136.147C139.713 136.475 139.268 136.691 138.766 136.796C138.263 136.89 137.701 136.937 137.081 136.937ZM159.312 136.937C158.224 136.937 157.382 136.826 156.786 136.604C156.201 136.381 155.792 136.036 155.558 135.568C155.324 135.089 155.189 134.487 155.154 133.762L154.786 124.008H157.242L157.61 132.586C157.634 133.124 157.692 133.528 157.786 133.797C157.879 134.066 158.055 134.247 158.312 134.34C158.581 134.434 158.973 134.481 159.487 134.481C159.932 134.481 160.248 134.598 160.435 134.832C160.633 135.054 160.733 135.335 160.733 135.674C160.733 136.036 160.61 136.34 160.364 136.586C160.119 136.82 159.768 136.937 159.312 136.937ZM170.809 136.937C170.271 136.937 169.768 136.896 169.3 136.814C168.844 136.732 168.423 136.592 168.037 136.393C167.651 136.182 167.306 135.896 167.002 135.533C166.71 135.171 166.464 134.715 166.265 134.165L167.651 133.06C167.862 133.434 168.119 133.726 168.423 133.937C168.727 134.136 169.09 134.276 169.511 134.358C169.932 134.44 170.423 134.481 170.984 134.481C171.429 134.481 171.745 134.598 171.932 134.832C172.119 135.054 172.212 135.335 172.212 135.674C172.212 136.036 172.09 136.34 171.844 136.586C171.61 136.82 171.265 136.937 170.809 136.937ZM159.336 136.937L159.511 134.481C160.143 134.481 160.768 134.446 161.388 134.376C162.008 134.305 162.61 134.2 163.195 134.06C163.78 133.919 164.336 133.738 164.862 133.516C165.4 133.294 165.903 133.025 166.371 132.709C166.02 132.498 165.64 132.317 165.23 132.165C164.821 132.013 164.382 131.902 163.915 131.832C163.458 131.75 162.973 131.709 162.458 131.709C162.271 131.709 162.072 131.715 161.862 131.727C161.663 131.738 161.458 131.762 161.248 131.797C161.037 131.82 160.827 131.855 160.616 131.902L160.266 129.499C160.605 129.405 160.961 129.341 161.336 129.306C161.722 129.259 162.061 129.235 162.353 129.235C162.985 129.235 163.564 129.306 164.09 129.446C164.628 129.586 165.119 129.762 165.564 129.972C166.02 130.183 166.441 130.393 166.827 130.604C167.224 130.814 167.599 130.99 167.949 131.13C168.312 131.27 168.663 131.341 169.002 131.341H169.651L169.932 133.674C169.429 133.697 168.955 133.797 168.511 133.972C168.078 134.136 167.645 134.346 167.213 134.604C166.792 134.849 166.335 135.107 165.844 135.376C165.365 135.644 164.821 135.896 164.213 136.13C163.605 136.364 162.903 136.557 162.108 136.709C161.312 136.861 160.388 136.937 159.336 136.937ZM170.814 136.937L170.99 134.481C171.282 134.481 171.504 134.422 171.656 134.305C171.808 134.188 171.96 133.984 172.112 133.691C172.264 133.399 172.475 133.001 172.744 132.498C173.036 131.937 173.34 131.469 173.656 131.095C173.972 130.709 174.288 130.405 174.603 130.183C174.931 129.949 175.253 129.785 175.568 129.692C175.896 129.586 176.217 129.534 176.533 129.534C176.966 129.534 177.369 129.627 177.744 129.814C178.13 129.99 178.498 130.3 178.849 130.744C179.2 131.177 179.533 131.773 179.849 132.534C180.071 133.06 180.293 133.463 180.515 133.744C180.738 134.025 180.966 134.218 181.2 134.323C181.445 134.428 181.691 134.481 181.936 134.481C182.381 134.481 182.697 134.598 182.884 134.832C183.071 135.054 183.164 135.335 183.164 135.674C183.164 136.036 183.042 136.34 182.796 136.586C182.55 136.82 182.205 136.937 181.761 136.937C181.188 136.937 180.668 136.843 180.2 136.656C179.732 136.469 179.363 136.188 179.094 135.814L179.603 135.428C179.498 135.674 179.34 135.931 179.13 136.2C178.931 136.469 178.668 136.697 178.34 136.884C178.024 137.071 177.644 137.165 177.2 137.165C176.907 137.165 176.562 137.106 176.165 136.989C175.779 136.884 175.375 136.703 174.954 136.446C174.545 136.177 174.165 135.814 173.814 135.358C173.592 135.767 173.346 136.089 173.077 136.323C172.808 136.545 172.492 136.703 172.13 136.796C171.767 136.89 171.329 136.937 170.814 136.937ZM174.832 133.288C174.948 133.463 175.089 133.639 175.253 133.814C175.416 133.99 175.598 134.147 175.796 134.288C175.995 134.416 176.206 134.522 176.428 134.604C176.662 134.685 176.89 134.726 177.112 134.726C177.346 134.726 177.539 134.639 177.691 134.463C177.843 134.276 177.849 134.001 177.709 133.639C177.65 133.487 177.568 133.317 177.463 133.13C177.369 132.931 177.258 132.744 177.13 132.569C177.013 132.393 176.878 132.247 176.726 132.13C176.586 132.013 176.44 131.955 176.288 131.955C176.136 131.955 175.978 132.001 175.814 132.095C175.65 132.189 175.486 132.335 175.323 132.534C175.159 132.721 174.995 132.972 174.832 133.288ZM181.761 136.937L181.937 134.481C182.487 134.481 182.873 134.428 183.095 134.323C183.329 134.206 183.469 133.995 183.516 133.691C183.563 133.376 183.574 132.919 183.551 132.323L183.27 124.008H185.761L186.06 132.305C186.083 132.89 186.153 133.341 186.27 133.656C186.387 133.972 186.58 134.188 186.849 134.305C187.13 134.422 187.504 134.481 187.972 134.481C188.416 134.481 188.732 134.598 188.919 134.832C189.106 135.054 189.2 135.335 189.2 135.674C189.2 136.036 189.077 136.34 188.831 136.586C188.586 136.82 188.241 136.937 187.796 136.937C187.282 136.937 186.802 136.878 186.358 136.761C185.913 136.644 185.545 136.422 185.253 136.095C184.96 135.767 184.767 135.294 184.674 134.674L185.446 134.691C185.247 135.299 184.989 135.767 184.674 136.095C184.358 136.411 183.96 136.633 183.481 136.761C183.013 136.878 182.44 136.937 181.761 136.937ZM187.792 136.937L187.967 134.481C188.505 134.481 188.891 134.428 189.125 134.323C189.359 134.206 189.499 133.995 189.546 133.691C189.593 133.376 189.605 132.919 189.581 132.323L189.266 124.008H191.739L192.09 132.498C192.113 133.177 192.084 133.791 192.002 134.34C191.932 134.878 191.751 135.34 191.458 135.726C191.178 136.112 190.739 136.411 190.143 136.621C189.558 136.832 188.774 136.937 187.792 136.937Z" fill="white"/>
<path d="M24.21 57.71C24.21 60.86 21.62 63.42 18.48 63.42C15.34 63.42 12.79 60.85 12.79 57.71C12.79 54.57 15.34 52 18.48 52C21.62 52 24.21 54.57 24.21 57.71ZM23.48 57.71C23.48 54.96 21.23 52.72 18.47 52.72C15.71 52.72 13.48 54.97 13.48 57.71C13.48 60.45 15.73 62.7 18.47 62.7C21.21 62.7 23.48 60.47 23.48 57.71ZM17.97 58.45H17.59V60.76H15.99V54.28H18.36C19.98 54.28 20.89 55 20.89 56.3C20.89 57.14 20.41 57.82 19.63 58.17L21.73 60.76H19.81L17.99 58.45H17.97ZM17.59 57.35H18.21C18.87 57.35 19.29 56.97 19.29 56.43C19.29 55.89 18.89 55.55 18.23 55.55H17.59V57.35Z" fill="white"/>
<path d="M117.47 9.76001L96.6499 18.51V51.91C99.9099 49.66 103.72 48.4 107.84 48.4C108.14 48.4 108.45 48.4 108.78 48.41C110.1 48.48 111.37 48.69 112.56 49.02V27.16L113.62 26.7L117.47 25.08V9.76001Z" fill="#F2B737"/>
<path d="M118.35 26.6199L117.47 26.9799L114.3 28.3199V49.6099C115.42 50.0399 116.47 50.5899 117.47 51.2499C117.77 51.4299 118.07 51.6199 118.35 51.8499C118.65 52.0399 118.93 52.2699 119.21 52.4999C124.94 57.1299 128.54 65.0999 130.01 73.2699C130.07 73.2699 130.13 73.2699 130.19 73.2499V21.6399L119.21 26.2499L118.35 26.6199Z" fill="#F2B737"/>
<path d="M152.75 6L131.93 14.75V72.85C133.02 72.31 133.94 71.23 135.1 69.32C135.37 68.87 135.67 68.38 135.98 67.83C136.05 67.71 136.13 67.56 136.2 67.43C136.41 67.04 136.63 66.66 136.85 66.27C137.06 65.9 137.28 65.54 137.5 65.18C140.16 60.75 143.48 55.96 147.81 52.59V27.16L148.88 26.7L152.73 25.08V6H152.75Z" fill="#F2B737"/>
<path d="M154.49 26.2501L153.61 26.6201L152.75 26.9801L149.58 28.3201V51.3501C150.58 50.7101 151.63 50.1301 152.75 49.6701C153.03 49.5501 153.32 49.4301 153.61 49.3301C153.89 49.2101 154.19 49.1201 154.49 49.0301C156.26 48.4601 158.17 48.1501 160.2 48.1501C160.35 48.1501 160.51 48.1501 160.66 48.1601C164.16 48.1701 167.49 49.3501 170.38 51.5101V19.5701L154.49 26.2501Z" fill="#F2B737"/>
<path d="M53.33 90.2599C47.29 92.7299 41.41 94.4299 34.6 94.4299C23.02 94.4299 17.83 90.0899 17.83 81.0699C17.83 77.4999 18.77 73.2399 20.81 68.5599L12.98 68.8199C11.02 74.4399 10 79.6299 10 84.1399C10 97.6799 17.66 105.51 32.56 105.51C41.84 105.51 50.69 103.21 60.48 97.8499C61.33 94.2699 62.1 89.0799 62.1 82.9499L62.19 26.1699L53.42 28.7199L53.33 90.2599Z" fill="white"/>
<path d="M73.4199 89.16H82.1899V26.25L73.4199 28.8V89.16Z" fill="white"/>
<path d="M160.59 53.6601C154.21 53.4901 148.59 57.4101 142.2 68.0501C139.56 72.3101 137.26 78.7801 129.86 78.7801H128.92L128.83 78.8401V78.7801H125.17C124.32 67.2001 118.62 54.4301 108.49 53.9201C99.2099 53.4901 91.7199 62.1801 91.2899 73.9201C90.8599 83.4501 98.1799 89.5801 106.27 89.3301H119.21C115.47 100.23 99.0399 104.74 87.8799 98.6901L87.9699 106.01C99.3799 115.03 110.7 111.37 117.76 103.29C121.34 99.3701 123.55 94.5201 124.57 89.3301H128.8L128.91 89.4201H129.85C136.32 89.4201 140.32 86.1001 143.56 80.9901C149.6 88.8201 157.86 91.7201 168.93 90.3501C180.17 75.4501 173.02 53.6601 160.59 53.6601ZM106.62 79.2801C100.92 79.2801 97.5099 76.9001 96.8299 74.1701C97.2599 67.7001 102.11 63.1901 107.05 63.2701C113.26 63.3601 117.52 71.7001 118.12 79.2701H106.63L106.62 79.2801ZM165.87 80.8101C158.12 81.1501 151.48 78.8501 147.65 72.9801C151.06 66.9401 154.97 62.5901 159.82 63.2801C164.67 64.0501 169.1 71.8801 165.86 80.8201L165.87 80.8101Z" fill="white"/>
<path d="M183.49 101.21H192.18V37.8301L183.49 40.3801V101.21Z" fill="white"/>
<path d="M196.09 26.16L188.85 27.18C186.3 26.67 185.02 24.88 185.02 23.43C185.02 21.81 186.13 20.45 188.77 20.45C190.47 20.45 192.01 21.05 193.2 21.98L193.37 21.89L194.48 17.38C192.27 15.85 190.14 15.25 188.27 15.25C183.16 15.25 180.01 18.91 180.01 23.51C180.01 25.13 180.69 26.92 182.14 28.11L178.31 28.62L178.4 33.3L196.19 30.83L196.1 26.15L196.09 26.16Z" fill="white"/>
</g>
<defs>
<filter id="filter0_d_46_1147" x="0" y="0" width="206.19" height="154.972" filterUnits="userSpaceOnUse" color-interpolation-filters="sRGB">
<feFlood flood-opacity="0" result="BackgroundImageFix"/>
<feColorMatrix in="SourceAlpha" type="matrix" values="0 0 0 0 0 0 0 0 0 0 0 0 0 0 0 0 0 0 127 0" result="hardAlpha"/>
<feOffset dy="4"/>
<feGaussianBlur stdDeviation="5"/>
<feComposite in2="hardAlpha" operator="out"/>
<feColorMatrix type="matrix" values="0 0 0 0 0 0 0 0 0 0 0 0 0 0 0 0 0 0 0.25 0"/>
<feBlend mode="normal" in2="BackgroundImageFix" result="effect1_dropShadow_46_1147"/>
<feBlend mode="normal" in="SourceGraphic" in2="effect1_dropShadow_46_1147" result="shape"/>
</filter>
</defs>
</svg>
