<svg width="31" height="30" viewBox="0 0 31 30" fill="none" xmlns="http://www.w3.org/2000/svg">
<path d="M29.3938 12.1708L19.2434 4.92058C18.9911 4.74028 18.6958 4.65039 18.4005 4.65039C18.1051 4.65039 17.8098 4.74028 17.5575 4.92058L11.2271 9.44229C11.6461 9.70279 11.9937 10.0663 12.2354 10.5042L18.4005 6.10044L28.5508 13.3507H25.6507V26.4011H11.275L11.1599 27.8512H25.6507C26.4516 27.8512 27.1008 27.202 27.1008 26.4011V14.8007H28.5508C29.1811 14.8007 29.7393 14.3937 29.9312 13.7935C30.1241 13.1931 29.9066 12.5372 29.3938 12.1708Z" fill="#F2B737"/>
<path fill-rule="evenodd" clip-rule="evenodd" d="M29.5682 11.9264C30.187 12.3685 30.4496 13.16 30.217 13.8845C29.9853 14.6093 29.3115 15.1004 28.5509 15.1004H27.4008V26.4008C27.4008 27.3674 26.6174 28.1509 25.6508 28.1509H10.8352L10.9979 26.1008H25.3508V13.0504H27.6147L18.4005 6.46882L12.1356 10.9439L11.9728 10.6489C11.7561 10.2562 11.4445 9.93039 11.0688 9.69678L10.6868 9.45931L17.3831 4.6762C17.3831 4.67622 17.3832 4.67619 17.3831 4.6762C17.6876 4.45863 18.0443 4.3501 18.4005 4.3501C18.7568 4.3501 19.1134 4.4586 19.4179 4.6762L29.5682 11.9264ZM18.4005 6.10015L28.5509 13.3504H25.6508V26.4008H11.275L11.16 27.8509H25.6508C26.4517 27.8509 27.1008 27.2017 27.1008 26.4008V14.8004H28.5509C29.1812 14.8004 29.7394 14.3935 29.9313 13.7932C30.1242 13.1928 29.9067 12.5369 29.3938 12.1705L19.2435 4.92028C18.9912 4.73999 18.6959 4.6501 18.4005 4.6501C18.1052 4.6501 17.8099 4.73999 17.5576 4.92028L11.2271 9.442C11.3175 9.49814 11.4045 9.55907 11.4878 9.6245C11.7132 9.8015 11.9118 10.0114 12.0768 10.2486C12.1338 10.3305 12.1868 10.4157 12.2354 10.5039L18.4005 6.10015Z" fill="#F2B737"/>
<path d="M12.5767 19.616L11.1266 11.6407C11.0014 10.9514 10.4011 10.4502 9.70025 10.4502H3.90006C3.19922 10.4502 2.59887 10.9514 2.47369 11.6412L1.02364 19.6164C0.946778 20.0394 1.06137 20.4748 1.33687 20.805C1.61238 21.1351 2.02032 21.3255 2.45001 21.3255H3.37657L3.90488 27.9658C3.9648 28.7193 4.59365 29.3008 5.35011 29.3008H8.2502C9.00667 29.3008 9.63596 28.7193 9.69589 27.9658L10.2237 21.3256H11.1503C11.5805 21.3256 11.9879 21.1346 12.2634 20.8045C12.5389 20.4744 12.6535 20.0394 12.5767 19.616ZM8.88437 19.8755L8.2502 27.8508H5.35011L4.71594 19.8755H2.45001L3.90006 11.9002H6.07513V16.3113C6.07513 16.712 6.39947 17.0363 6.80016 17.0363C7.20085 17.0363 7.52518 16.712 7.52518 16.3113V11.9002H9.70025L11.1503 19.8755H8.88437Z" fill="#F2B737"/>
<path fill-rule="evenodd" clip-rule="evenodd" d="M12.8718 19.5626C12.9645 20.0734 12.8263 20.5984 12.4937 20.9969C12.1613 21.3952 11.6695 21.6258 11.1503 21.6258H10.5008L9.9949 27.9898L9.69584 27.966L10.2237 21.3258H11.1503C11.5805 21.3258 11.9879 21.1348 12.2634 20.8047C12.5389 20.4746 12.6535 20.0396 12.5766 19.6162L11.1266 11.6409C11.0014 10.9516 10.401 10.4504 9.70021 10.4504H3.90001C3.19918 10.4504 2.59882 10.9516 2.47364 11.6414L1.02359 19.6166C0.946731 20.0396 1.06132 20.475 1.33683 20.8051C1.61234 21.1353 2.02028 21.3257 2.44997 21.3257H3.37652L3.90483 27.9659C3.96476 28.7195 4.5936 29.301 5.35006 29.301H8.25016C9.00662 29.301 9.63592 28.7195 9.69584 27.966L9.9949 27.9898C9.92257 28.8993 9.16308 29.601 8.25016 29.601H5.35006C4.43701 29.601 3.67809 28.8991 3.60577 27.9897L3.09944 21.6257H2.44997C1.9315 21.6257 1.43913 21.3959 1.1065 20.9974C0.773924 20.5989 0.635682 20.0733 0.728429 19.563L2.17846 11.5878C2.17846 11.5878 2.17847 11.5878 2.17846 11.5878C2.32957 10.7554 3.05416 10.1504 3.90001 10.1504H9.70021C10.546 10.1504 11.2706 10.7553 11.4217 11.5872C11.4217 11.5872 11.4217 11.5873 11.4217 11.5872L12.8718 19.5626ZM8.60723 19.5757H10.7908L9.44983 12.2004H7.82513V16.3115C7.82513 16.8778 7.36648 17.3365 6.80011 17.3365C6.23373 17.3365 5.77509 16.8778 5.77509 16.3115V12.2004H4.15039L2.80943 19.5757H4.99298L5.62715 27.551H7.97307L8.60723 19.5757ZM8.25016 27.851H5.35006L4.71589 19.8757H2.44997L3.90001 11.9004H6.07509V16.3115C6.07509 16.7122 6.39942 17.0365 6.80011 17.0365C7.2008 17.0365 7.52513 16.7122 7.52513 16.3115V11.9004H9.70021L11.1503 19.8757H8.88433L8.25016 27.851Z" fill="#F2B737"/>
<path d="M6.8001 0.299805C4.40174 0.299805 2.44995 2.25159 2.44995 4.64995C2.44995 7.04831 4.40174 9.00009 6.8001 9.00009C9.19896 9.00009 11.1502 7.04881 11.1502 4.64995C11.1502 2.25108 9.19896 0.299805 6.8001 0.299805ZM6.8001 7.55004C5.1983 7.55004 3.9 6.25174 3.9 4.64995C3.9 3.04816 5.1983 1.74985 6.8001 1.74985C8.40189 1.74985 9.70019 3.04816 9.70019 4.64995C9.70019 6.25174 8.40189 7.55004 6.8001 7.55004Z" fill="#F2B737"/>
<path fill-rule="evenodd" clip-rule="evenodd" d="M2.1499 4.65014C2.1499 2.0861 4.236 0 6.80005 0C9.3646 0 11.4502 2.08559 11.4502 4.65014C11.4502 7.2147 9.3646 9.30029 6.80005 9.30029C4.236 9.30029 2.1499 7.21419 2.1499 4.65014ZM4.19995 4.65014C4.19995 6.08625 5.36394 7.25024 6.80005 7.25024C8.23615 7.25024 9.40014 6.08625 9.40014 4.65014C9.40014 3.21404 8.23615 2.05005 6.80005 2.05005C5.36394 2.05005 4.19995 3.21404 4.19995 4.65014ZM2.4499 4.65014C2.4499 2.25179 4.40169 0.3 6.80005 0.3C9.19891 0.3 11.1502 2.25128 11.1502 4.65014C11.1502 7.04901 9.19891 9.00029 6.80005 9.00029C4.40169 9.00029 2.4499 7.0485 2.4499 4.65014ZM3.89995 4.65014C3.89995 6.25194 5.19825 7.55024 6.80005 7.55024C8.40184 7.55024 9.70014 6.25194 9.70014 4.65014C9.70014 3.04835 8.40184 1.75005 6.80005 1.75005C5.19825 1.75005 3.89995 3.04835 3.89995 4.65014Z" fill="#F2B737"/>
</svg>
