<svg width="25" height="25" viewBox="0 0 25 25" fill="none" xmlns="http://www.w3.org/2000/svg">
<path d="M21.605 24C20.2834 24 19.2091 22.9249 19.2091 21.6045V13.939C19.2091 13.1466 18.5641 12.5017 17.7715 12.5017H7.22943C6.43685 12.5017 5.79187 13.1466 5.79187 13.939V21.6045C5.79187 22.9249 4.71753 24 3.39593 24C2.07434 24 1 22.9249 1 21.6045V10.1647C1 8.72839 1.71015 7.39267 2.90045 6.59067L10.0883 1.74128C11.5517 0.753386 13.4464 0.752428 14.9117 1.74128L22.0995 6.59067C23.2898 7.39267 24 8.72935 24 10.1647V21.6045C24 22.9249 22.9266 24 21.605 24ZM7.22943 11.5435H17.7715C19.0931 11.5435 20.1675 12.6186 20.1675 13.939V21.6045C20.1675 22.3969 20.8125 23.0418 21.605 23.0418C22.3976 23.0418 23.0426 22.3969 23.0426 21.6045V10.1647C23.0426 9.04747 22.4906 8.00879 21.5648 7.38501L14.377 2.53562C13.2375 1.76619 11.7635 1.76619 10.624 2.53562L3.43618 7.38501C2.5104 8.00879 1.95837 9.04843 1.95837 10.1647V21.6045C1.95837 22.3969 2.60336 23.0418 3.39593 23.0418C4.18851 23.0418 4.83349 22.3969 4.83349 21.6045V13.939C4.83349 12.6186 5.90783 11.5435 7.22943 11.5435ZM10.3921 24H8.85866C8.22422 24 7.70861 23.4835 7.70861 22.8502V21.3171C7.70861 20.6828 8.22422 20.1672 8.85866 20.1672H10.3921C11.0265 20.1672 11.5421 20.6837 11.5421 21.3171V22.8502C11.5421 23.4845 11.0265 24 10.3921 24ZM8.85866 21.1254C8.75324 21.1254 8.66699 21.2117 8.66699 21.3171V22.8502C8.66699 22.9556 8.75324 23.0418 8.85866 23.0418H10.3921C10.4975 23.0418 10.5837 22.9556 10.5837 22.8502V21.3171C10.5837 21.2117 10.4975 21.1254 10.3921 21.1254H8.85866ZM10.3921 18.2509H8.85866C8.22422 18.2509 7.70861 17.7344 7.70861 17.101V15.5679C7.70861 14.9336 8.22422 14.4181 8.85866 14.4181H10.3921C11.0265 14.4181 11.5421 14.9346 11.5421 15.5679V17.101C11.5421 17.7354 11.0265 18.2509 10.3921 18.2509ZM8.85866 15.3763C8.75324 15.3763 8.66699 15.4625 8.66699 15.5679V17.101C8.66699 17.2064 8.75324 17.2927 8.85866 17.2927H10.3921C10.4975 17.2927 10.5837 17.2064 10.5837 17.101V15.5679C10.5837 15.4625 10.4975 15.3763 10.3921 15.3763H8.85866ZM16.1423 24H14.6089C13.9745 24 13.4589 23.4835 13.4589 22.8502V21.3171C13.4589 20.6828 13.9745 20.1672 14.6089 20.1672H16.1423C16.7767 20.1672 17.2923 20.6837 17.2923 21.3171V22.8502C17.2923 23.4845 16.7767 24 16.1423 24ZM14.6089 21.1254C14.5035 21.1254 14.4172 21.2117 14.4172 21.3171V22.8502C14.4172 22.9556 14.5035 23.0418 14.6089 23.0418H16.1423C16.2477 23.0418 16.334 22.9556 16.334 22.8502V21.3171C16.334 21.2117 16.2477 21.1254 16.1423 21.1254H14.6089Z" fill="#F2B737"/>
<path fill-rule="evenodd" clip-rule="evenodd" d="M21.3412 7.7167L14.1534 2.8673C13.1491 2.18921 11.8522 2.18912 10.8479 2.86722L3.66 7.7167C2.84477 8.26599 2.35847 9.1813 2.35847 10.1648V21.6046C2.35847 22.1761 2.8243 22.6419 3.39603 22.6419C3.96776 22.6419 4.43359 22.1761 4.43359 21.6046V13.9391C4.43359 12.3979 5.68698 11.1436 7.22952 11.1436H17.7716C19.3142 11.1436 20.5676 12.3979 20.5676 13.9391V21.6046C20.5676 22.1761 21.0334 22.6419 21.6051 22.6419C22.1769 22.6419 22.6427 22.1761 22.6427 21.6046V10.1648C22.6427 9.1804 22.1564 8.26602 21.3412 7.7167ZM21.6051 24.4001C20.0626 24.4001 18.8092 23.1459 18.8092 21.6046V13.9391C18.8092 13.3677 18.3434 12.9018 17.7716 12.9018H7.22952C6.65779 12.9018 6.19196 13.3677 6.19196 13.9391V21.6046C6.19196 23.1459 4.93857 24.4001 3.39603 24.4001C1.85349 24.4001 0.600098 23.1459 0.600098 21.6046V10.1648C0.600098 8.59559 1.37628 7.13547 2.67704 6.25904L9.86455 1.40984C11.4632 0.330705 13.5349 0.329679 15.1356 1.40979C15.1355 1.40978 15.1356 1.40979 15.1356 1.40979L22.3232 6.25904C23.624 7.1355 24.4001 8.59659 24.4001 10.1648V21.6046C24.4001 23.1457 23.1479 24.4001 21.6051 24.4001ZM22.0996 6.59077L14.9118 1.74138C13.4465 0.752526 11.5518 0.753484 10.0884 1.74138L2.90055 6.59077C1.71025 7.39277 1.0001 8.72849 1.0001 10.1648V21.6046C1.0001 22.925 2.07443 24.0001 3.39603 24.0001C4.71763 24.0001 5.79196 22.925 5.79196 21.6046V13.9391C5.79196 13.1467 6.43695 12.5018 7.22952 12.5018H17.7716C18.5642 12.5018 19.2092 13.1467 19.2092 13.9391V21.6046C19.2092 22.925 20.2835 24.0001 21.6051 24.0001C22.9267 24.0001 24.0001 22.925 24.0001 21.6046V10.1648C24.0001 8.72944 23.2899 7.39277 22.0996 6.59077ZM14.3771 2.53571C13.2376 1.76629 11.7636 1.76629 10.6241 2.53571L3.43628 7.38511C2.51049 8.00889 1.95847 9.04852 1.95847 10.1648V21.6046C1.95847 22.397 2.60346 23.0419 3.39603 23.0419C4.18861 23.0419 4.83359 22.397 4.83359 21.6046V13.9391C4.83359 12.6187 5.90793 11.5436 7.22952 11.5436H17.7716C19.0932 11.5436 20.1676 12.6187 20.1676 13.9391V21.6046C20.1676 22.397 20.8125 23.0419 21.6051 23.0419C22.3977 23.0419 23.0427 22.397 23.0427 21.6046V10.1648C23.0427 9.04756 22.4907 8.00889 21.5649 7.38511L14.3771 2.53571ZM10.3922 24.4001H8.85876C8.00326 24.4001 7.30871 23.7044 7.30871 22.8503V21.3172C7.30871 20.4619 8.00347 19.7673 8.85876 19.7673H10.3922C11.2477 19.7673 11.9422 20.463 11.9422 21.3172V22.8503C11.9422 23.7056 11.2474 24.4001 10.3922 24.4001ZM9.06708 21.5255V22.6419H10.1838V21.5255H9.06708ZM10.3922 18.651H8.85876C8.00326 18.651 7.30871 17.9553 7.30871 17.1011V15.568C7.30871 14.7127 8.00347 14.0182 8.85876 14.0182H10.3922C11.2477 14.0182 11.9422 14.7139 11.9422 15.568V17.1011C11.9422 17.9564 11.2474 18.651 10.3922 18.651ZM9.06708 15.7764V16.8928H10.1838V15.7764H9.06708ZM16.1424 24.4001H14.609C13.7535 24.4001 13.0589 23.7044 13.0589 22.8503V21.3172C13.0589 20.4619 13.7537 19.7673 14.609 19.7673H16.1424C16.9979 19.7673 17.6924 20.463 17.6924 21.3172V22.8503C17.6924 23.7056 16.9977 24.4001 16.1424 24.4001ZM14.8173 21.5255V22.6419H15.9341V21.5255H14.8173ZM8.85876 24.0001H10.3922C11.0266 24.0001 11.5422 23.4846 11.5422 22.8503V21.3172C11.5422 20.6838 11.0266 20.1673 10.3922 20.1673H8.85876C8.22432 20.1673 7.70871 20.6828 7.70871 21.3172V22.8503C7.70871 23.4836 8.22432 24.0001 8.85876 24.0001ZM8.66708 21.3172C8.66708 21.2118 8.75334 21.1255 8.85876 21.1255H10.3922C10.4976 21.1255 10.5838 21.2118 10.5838 21.3172V22.8503C10.5838 22.9557 10.4976 23.0419 10.3922 23.0419H8.85876C8.75334 23.0419 8.66708 22.9557 8.66708 22.8503V21.3172ZM8.85876 18.251H10.3922C11.0266 18.251 11.5422 17.7355 11.5422 17.1011V15.568C11.5422 14.9347 11.0266 14.4182 10.3922 14.4182H8.85876C8.22432 14.4182 7.70871 14.9337 7.70871 15.568V17.1011C7.70871 17.7345 8.22432 18.251 8.85876 18.251ZM8.66708 15.568C8.66708 15.4626 8.75334 15.3764 8.85876 15.3764H10.3922C10.4976 15.3764 10.5838 15.4626 10.5838 15.568V17.1011C10.5838 17.2065 10.4976 17.2928 10.3922 17.2928H8.85876C8.75334 17.2928 8.66708 17.2065 8.66708 17.1011V15.568ZM14.609 24.0001H16.1424C16.7768 24.0001 17.2924 23.4846 17.2924 22.8503V21.3172C17.2924 20.6838 16.7768 20.1673 16.1424 20.1673H14.609C13.9746 20.1673 13.4589 20.6828 13.4589 21.3172V22.8503C13.4589 23.4836 13.9746 24.0001 14.609 24.0001ZM14.4173 21.3172C14.4173 21.2118 14.5036 21.1255 14.609 21.1255H16.1424C16.2478 21.1255 16.3341 21.2118 16.3341 21.3172V22.8503C16.3341 22.9557 16.2478 23.0419 16.1424 23.0419H14.609C14.5036 23.0419 14.4173 22.9557 14.4173 22.8503V21.3172Z" fill="#F2B737"/>
</svg>
